<svg width="78" height="90" viewBox="0 0 78 90" fill="none" xmlns="http://www.w3.org/2000/svg">
<path d="M31.9453 63.6295C31.9453 64.3992 32.2121 64.9444 32.6444 65.2082C32.6568 65.2168 34.008 65.9988 34.0213 66.0057C34.4703 66.2571 34.1821 65.6863 34.8658 65.2929C36.2384 64.4997 37.3523 62.5797 37.3523 61.0032C37.3523 60.2245 38.0732 60.2181 37.6311 59.9581C37.6191 59.9509 36.1811 59.1551 36.1687 59.1483C35.7201 58.9054 35.1078 58.9499 34.4331 59.3394C33.0596 60.1326 31.9453 62.0534 31.9453 63.6295Z" fill="#4D00AD"/>
<path d="M33.3828 64.4466C33.3828 66.0228 34.4967 66.6573 35.8693 65.8645C37.2423 65.0713 38.3566 63.151 38.3566 61.5753C38.3566 59.9996 37.2427 59.3646 35.8693 60.1578C34.4967 60.9506 33.3828 62.8705 33.3828 64.4466Z" fill="#1B0044"/>
<path d="M15.1055 73.7764C15.1055 74.5465 15.371 75.0913 15.8025 75.3556C15.8157 75.3637 17.1665 76.1453 17.1806 76.1526C17.6292 76.4045 17.3418 75.8336 18.0243 75.4402C19.3986 74.6474 20.5116 72.7267 20.5116 71.151C20.5116 70.3715 21.2321 70.3655 20.7908 70.1051C20.7793 70.0978 19.34 69.302 19.3276 69.2956C18.8803 69.0527 18.2676 69.0968 17.5928 69.4872C16.2189 70.28 15.1055 72.2007 15.1055 73.7764Z" fill="#4D00AD"/>
<path d="M16.5449 74.594C16.5449 76.1702 17.658 76.8051 19.0306 76.0115C20.4044 75.2187 21.5175 73.2984 21.5175 71.7223C21.5175 70.1461 20.4044 69.5116 19.0306 70.3048C17.658 71.0975 16.5449 73.0179 16.5449 74.594Z" fill="#1B0044"/>
<path d="M38.5664 86.7562C38.5664 87.5263 38.8311 88.071 39.263 88.3349C39.2758 88.343 40.6283 89.1251 40.6415 89.1319C41.0905 89.3838 40.8032 88.8138 41.4856 88.4191C42.8595 87.6263 43.9721 85.706 43.9721 84.1303C43.9721 83.3512 44.693 83.3448 44.2513 83.0848C44.2398 83.0771 42.8005 82.2818 42.7885 82.2749C42.34 82.0321 41.7281 82.0761 41.0529 82.4665C39.6794 83.2601 38.5664 85.1805 38.5664 86.7562Z" fill="#4D00AD"/>
<path d="M40.0059 87.5741C40.0059 89.1499 41.1189 89.7848 42.4923 88.9916C43.8662 88.1989 44.9788 86.2781 44.9788 84.7028C44.9788 83.1267 43.8662 82.4917 42.4923 83.2849C41.1189 84.0772 40.0059 85.9976 40.0059 87.5741Z" fill="#1B0044"/>
<path d="M52.7852 78.5557C52.7852 79.3258 53.0515 79.871 53.4834 80.1348C53.4958 80.143 54.8479 80.925 54.8603 80.9319C55.3106 81.1837 55.0228 80.6138 55.7057 80.2195C57.0783 79.4267 58.1917 77.506 58.1917 75.9298C58.1917 75.1507 58.9122 75.1448 58.4714 74.8848C58.4581 74.8771 57.0205 74.0813 57.0081 74.0745C56.5596 73.832 55.9473 73.8765 55.2721 74.2665C53.8991 75.0597 52.7852 76.98 52.7852 78.5557Z" fill="#4D00AD"/>
<path d="M54.2266 79.3728C54.2266 80.9498 55.34 81.584 56.713 80.7912C58.0861 79.9984 59.2 78.0777 59.2 76.5019C59.2 74.9262 58.0861 74.2913 56.713 75.084C55.34 75.8768 54.2266 77.7976 54.2266 79.3728Z" fill="#1B0044"/>
<path d="M35.4897 86.7562C35.2691 86.7562 35.0544 86.6424 34.9351 86.4385C34.7568 86.1323 34.8598 85.7393 35.1656 85.561L61.4667 70.2021C62.2155 69.7647 62.7192 69.0219 62.8483 68.1642C62.9775 67.3064 62.7153 66.4482 62.1287 65.8098L51.5956 54.3446C51.3557 54.0838 51.3729 53.678 51.6341 53.4385C51.8954 53.1991 52.3012 53.2162 52.5402 53.477L63.0732 64.9422C63.9237 65.868 64.3043 67.1118 64.117 68.3553C63.9297 69.5988 63.1994 70.6755 62.1133 71.3092L35.8121 86.6681C35.7108 86.7284 35.5996 86.7562 35.4897 86.7562Z" fill="white"/>
<path d="M40.9177 83.5843C40.8091 83.5843 40.6987 83.5569 40.5978 83.4988L17.7782 70.3373C17.4711 70.1603 17.366 69.7677 17.543 69.4611C17.72 69.1537 18.1125 69.0498 18.4191 69.2255L41.2388 82.387C41.5458 82.564 41.651 82.9566 41.474 83.2632C41.3551 83.4697 41.1392 83.5843 40.9177 83.5843Z" fill="white"/>
<path d="M55.3746 75.0045C55.266 75.0045 55.1557 74.9771 55.0548 74.919L32.2351 61.7579C31.9285 61.5809 31.8229 61.1883 31.9999 60.8818C32.1774 60.5743 32.569 60.4704 32.8761 60.6462L55.6957 73.8072C56.0023 73.9842 56.1079 74.3768 55.9309 74.6834C55.812 74.8895 55.5961 75.0045 55.3746 75.0045Z" fill="white"/>
<path d="M12.4995 73.3873C12.2788 73.3873 12.0642 73.2736 11.9449 73.0696C11.7665 72.7634 11.8696 72.3705 12.1753 72.1922L38.4765 56.8337C39.2252 56.3962 39.7289 55.6531 39.8581 54.7953C39.9872 53.938 39.7251 53.0798 39.1384 52.441L28.6054 40.9758C28.3655 40.7149 28.3826 40.3091 28.6439 40.0697C28.9051 39.8302 29.3105 39.8469 29.55 40.1082L40.083 51.5734C40.9335 52.4991 41.314 53.7434 41.1268 54.9865C40.9395 56.2299 40.2091 57.307 39.123 57.9407L12.8219 73.2992C12.7205 73.3591 12.6093 73.3873 12.4995 73.3873Z" fill="white"/>
<path d="M1.61748 47.4047L1.18945 46.6679L40.9839 23.4604L64.4369 36.8289L64.0157 37.5682L40.9891 24.4439L1.61748 47.4047Z" fill="#B5C4D1"/>
<path d="M39.3542 16.6129H38.502V28.755H39.3542V16.6129Z" fill="#B5C4D1"/>
<path d="M1.8674 41.382H1.01562V57.0103H1.8674V41.382Z" fill="#B5C4D1"/>
<path d="M5.00064 39.3406H4.14844V55.1275H5.00064V39.3406Z" fill="#B5C4D1"/>
<path d="M8.13693 37.2988H7.28516V53.244H8.13693V37.2988Z" fill="#B5C4D1"/>
<path d="M11.2721 35.2579H10.4199V51.3608H11.2721V35.2579Z" fill="#B5C4D1"/>
<path d="M14.4049 33.2165H13.5527V49.479H14.4049V33.2165Z" fill="#B5C4D1"/>
<path d="M17.5388 31.1752H16.6875V47.5954H17.5388V31.1752Z" fill="#B5C4D1"/>
<path d="M20.6721 29.1343H19.8203V45.7127H20.6721V29.1343Z" fill="#B5C4D1"/>
<path d="M23.8045 27.0925H22.9531V43.83H23.8045V27.0925Z" fill="#B5C4D1"/>
<path d="M26.9392 25.0515H26.0879V41.9473H26.9392V25.0515Z" fill="#B5C4D1"/>
<path d="M30.0749 23.0098H29.2227V40.0641H30.0749V23.0098Z" fill="#B5C4D1"/>
<path d="M33.2072 20.9688H32.3555V38.1818H33.2072V20.9688Z" fill="#B5C4D1"/>
<path d="M36.3425 18.9275H35.4907V36.2982H36.3425V18.9275Z" fill="#B5C4D1"/>
<path d="M47.3842 14.6082L46.5781 14.3343L38.7586 37.348L39.5647 37.6219L47.3842 14.6082Z" fill="#B5C4D1"/>
<path d="M50.0535 16.145L49.248 15.8706L41.4117 38.8791L42.2171 39.1534L50.0535 16.145Z" fill="#B5C4D1"/>
<path d="M44.8785 40.6807L44.0742 40.4057L51.9159 17.3988L52.7237 17.6733L44.8785 40.6807Z" fill="#B5C4D1"/>
<path d="M55.3796 19.2064L54.5728 18.932L46.7458 41.9461L47.5527 42.2205L55.3796 19.2064Z" fill="#B5C4D1"/>
<path d="M58.0526 20.7278L57.248 20.4535L49.4044 43.4595L50.209 43.7338L58.0526 20.7278Z" fill="#B5C4D1"/>
<path d="M60.7142 22.2629L59.9082 21.9885L52.0741 44.9998L52.8801 45.2742L60.7142 22.2629Z" fill="#B5C4D1"/>
<path d="M63.3778 23.7912L62.5728 23.5168L54.7311 46.5265L55.5362 46.8009L63.3778 23.7912Z" fill="#B5C4D1"/>
<path d="M58.1999 48.3164L57.3926 48.0414L65.2369 25.0349L66.0416 25.3094L58.1999 48.3164Z" fill="#B5C4D1"/>
<path d="M50.0883 55.1748L26.2676 41.4629L25.4177 42.9393L49.2384 56.6513L50.0883 55.1748Z" fill="#B5C4D1"/>
<path d="M60.4116 49.3809L36.5527 35.5914L36.1265 36.3289L59.9854 50.1184L60.4116 49.3809Z" fill="#B5C4D1"/>
<path d="M57.323 51.1696L33.4648 37.3805L33.0388 38.1176L56.897 51.9067L57.323 51.1696Z" fill="#B5C4D1"/>
<path d="M54.2351 52.9563L30.377 39.1672L29.9505 39.905L53.8086 53.6942L54.2351 52.9563Z" fill="#B5C4D1"/>
<path d="M51.1511 54.744L27.293 40.9549L26.8665 41.6928L50.7247 55.4819L51.1511 54.744Z" fill="#B5C4D1"/>
<path d="M48.0671 56.5321L24.209 42.743L23.783 43.4801L47.6411 57.2692L48.0671 56.5321Z" fill="#B5C4D1"/>
<path d="M44.5579 59.0555L20.6992 45.2663L21.1238 44.5291L44.983 58.3174L44.5579 59.0555Z" fill="#B5C4D1"/>
<path d="M41.4705 60.8428L17.6113 47.0549L18.0364 46.3169L41.8955 60.1048L41.4705 60.8428Z" fill="#B5C4D1"/>
<path d="M38.805 61.8949L14.9473 48.106L14.521 48.8435L38.3788 62.6324L38.805 61.8949Z" fill="#B5C4D1"/>
<path d="M35.7198 63.683L11.8613 49.8936L11.4353 50.6307L35.2938 64.4201L35.7198 63.683Z" fill="#B5C4D1"/>
<path d="M32.6305 65.4696L8.77344 51.6811L8.34699 52.419L32.204 66.2074L32.6305 65.4696Z" fill="#B5C4D1"/>
<path d="M29.5437 67.2576L5.68555 53.4685L5.25932 54.206L29.1175 67.9951L29.5437 67.2576Z" fill="#B5C4D1"/>
<path d="M26.4581 69.0457L2.59961 55.2564L2.17316 55.9943L26.0317 69.7836L26.4581 69.0457Z" fill="#B5C4D1"/>
<path d="M19.6134 69.8801C19.4705 69.8801 19.3243 69.8438 19.1913 69.7677L2.70268 60.3455C1.60931 59.7204 0.956794 58.5954 0.955083 57.3365C0.952945 56.0768 1.6029 54.9501 2.69498 54.3224L35.6393 35.3793L45.4168 7.17277C46.033 5.39696 47.2533 3.87727 48.856 2.89379L51.744 1.12182C52.1455 0.875954 52.6685 1.0021 52.9152 1.40233C53.1606 1.80342 53.0353 2.32722 52.6342 2.57395L49.7467 4.34592C48.4793 5.1233 47.5133 6.3257 47.0267 7.73036L37.0393 36.5381L3.5442 55.798C2.98746 56.1179 2.65607 56.6917 2.65692 57.3335C2.65778 57.9749 2.99046 58.5479 3.54762 58.8665L20.0363 68.2882C20.4446 68.5216 20.5866 69.042 20.3531 69.4504C20.1966 69.7258 19.9093 69.8801 19.6134 69.8801Z" fill="#B5C4D1"/>
<path d="M2.53051 44.6373C1.53292 44.0609 0.918889 43.0295 0.889813 41.8776C0.859881 40.7256 1.42046 39.6647 2.38812 39.0396L44.4134 11.8948L68.1896 25.7451C68.5787 25.9722 68.8173 26.3762 68.828 26.8265C68.837 27.2768 68.6172 27.6911 68.24 27.9353L67.316 26.5037C67.1946 26.5819 67.121 26.7205 67.1249 26.8646C67.1274 27.0082 67.2074 27.1434 67.3318 27.2156L44.4574 13.8921L3.31216 40.4703C2.84736 40.7705 2.57797 41.2806 2.59165 41.8339C2.60577 42.3881 2.90166 42.8841 3.381 43.1608L2.53051 44.6373Z" fill="#B5C4D1"/>
<path d="M45.8109 21.0753L41.9894 19.754L40.5591 18.006L38.7012 46.8702L46.0405 41.9652L45.8109 21.0753Z" fill="#C52887"/>
<path d="M17.188 59.2812L38.6855 46.8702L40.5421 18.006L19.0468 30.417L17.188 59.2812Z" fill="#4D00AD"/>
<path d="M24.8841 55.6834L25.1005 63.9006L17.1934 59.2783L24.8841 55.6834Z" fill="#4D00AD"/>
<path d="M24.298 33.4859L22.5261 31.2714L19.0463 30.4171L17.1875 59.2813L24.8561 55.7476L24.298 33.4859Z" fill="#C52887"/>
<path d="M25.1013 63.9006L46.5962 51.49L45.7962 21.0753L24.3008 33.4859L25.1013 63.9006Z" fill="#88119B"/>
<path d="M37.8223 30.4226C37.8223 30.9169 38.1712 31.1162 38.6014 30.8673C39.0328 30.6185 39.3817 30.0164 39.3817 29.5221C39.3817 29.0278 39.0328 28.8281 38.6014 29.0778C38.1712 29.3263 37.8223 29.9283 37.8223 30.4226Z" fill="#1B0044"/>
<path d="M30.0234 34.8525C30.0234 35.3464 30.3732 35.5461 30.8038 35.2972C31.2357 35.0484 31.5846 34.4463 31.5846 33.952C31.5846 33.4573 31.2357 33.2584 30.8038 33.5069C30.3736 33.7557 30.0234 34.3574 30.0234 34.8525Z" fill="#1B0044"/>
<path d="M33.8631 42.6545C34.4972 42.6545 35.127 42.4698 35.691 42.1025C37.7504 40.7607 38.9793 38.4927 38.9793 36.0353V29.9095C38.9793 29.7 38.81 29.5298 38.6 29.5298C38.3909 29.5298 38.2203 29.6995 38.2203 29.9095V36.0353C38.2203 38.2353 37.1192 40.2659 35.2767 41.4658C34.4643 41.9951 33.4714 42.0345 32.6196 41.5731C31.7678 41.1117 31.2594 40.2578 31.2594 39.2893V34.2526C31.2594 34.0427 31.0897 33.8729 30.8797 33.8729C30.6702 33.8729 30.5 34.0422 30.5 34.2526V39.2893C30.5 40.5405 31.1568 41.6441 32.2574 42.2402C32.7676 42.5168 33.3162 42.6545 33.8631 42.6545Z" fill="white"/>
<path d="M63.7287 29.8616H62.877V42.0037H63.7287V29.8616Z" fill="#B5C4D1"/>
<path d="M50.311 2.91518C50.311 3.28805 50.4393 3.55273 50.6493 3.68144C50.6561 3.68529 75.45 17.5331 75.4564 17.5361C75.6732 17.6579 75.5355 17.3813 75.866 17.1897C76.5327 16.8053 77.0723 15.8727 77.0723 15.1082C77.0723 14.7297 77.272 14.6425 77.0578 14.5159C77.0518 14.5121 52.3674 0.742979 52.3614 0.739558C52.1424 0.621541 51.8465 0.642922 51.5186 0.832349C50.8515 1.21804 50.311 2.14978 50.311 2.91518Z" fill="#C52887"/>
<path d="M77.271 16.8827C76.7592 17.6635 75.9006 17.9158 75.3532 17.4454C74.8063 16.9746 74.7781 15.9612 75.29 15.1804C75.8022 14.3996 76.6604 14.1473 77.2069 14.6186C77.7542 15.0889 77.7824 16.1032 77.271 16.8827Z" fill="#1B0044"/>
<path d="M73.2621 18.4221C72.9675 18.4221 72.6814 18.2686 72.5232 17.994C72.2893 17.5861 72.43 17.0657 72.8379 16.831L75.9324 15.053C76.3399 14.8191 76.8603 14.9594 77.0951 15.3669C77.3303 15.7748 77.1883 16.2956 76.7812 16.5304L73.685 18.3083C73.5533 18.3853 73.4066 18.4221 73.2621 18.4221Z" fill="#B5C4D1"/>
<path d="M64.3034 38.6266L63.873 37.892L23.69 61.4346L24.1204 62.1691L64.3034 38.6266Z" fill="#B5C4D1"/>
<path d="M24.2393 54.6657H23.3867V70.2944H24.2393V54.6657Z" fill="#B5C4D1"/>
<path d="M27.5291 68.4357H26.6777V53.0742L27.5291 52.6487V68.4357Z" fill="#B5C4D1"/>
<path d="M30.8186 50.6309H29.9668V66.5761H30.8186V50.6309Z" fill="#B5C4D1"/>
<path d="M34.1105 48.6135H33.2578V64.7168H34.1105V48.6135Z" fill="#B5C4D1"/>
<path d="M37.4002 46.5965H36.5488V62.8581H37.4002V46.5965Z" fill="#B5C4D1"/>
<path d="M40.6897 44.5782H39.8379V60.9989H40.6897V44.5782Z" fill="#B5C4D1"/>
<path d="M43.9837 42.5604H43.1328V59.1392H43.9837V42.5604Z" fill="#B5C4D1"/>
<path d="M47.2708 40.5434H46.4199V57.28H47.2708V40.5434Z" fill="#B5C4D1"/>
<path d="M50.5612 38.526H49.709V55.4217H50.5612V38.526Z" fill="#B5C4D1"/>
<path d="M53.8553 36.5081H53.0039V53.5621H53.8553V36.5081Z" fill="#B5C4D1"/>
<path d="M57.1428 34.4903H56.291V51.7029H57.1428V34.4903Z" fill="#B5C4D1"/>
<path d="M60.4362 32.4729H59.584V49.8441H60.4362V32.4729Z" fill="#B5C4D1"/>
<path d="M3.31467 44.2076H2.46289V59.5459H3.31467V44.2076Z" fill="#B5C4D1"/>
<path d="M5.88779 45.6516H5.03516V60.9899H5.88779V45.6516Z" fill="#B5C4D1"/>
<path d="M8.45725 47.0956H7.60547V62.4335H8.45725V47.0956Z" fill="#B5C4D1"/>
<path d="M11.0358 48.5396H10.1836V63.8775H11.0358V48.5396Z" fill="#B5C4D1"/>
<path d="M13.6065 49.984H12.7539V65.3215H13.6065V49.984Z" fill="#B5C4D1"/>
<path d="M16.1775 51.428H15.3262V66.7659H16.1775V51.428Z" fill="#B5C4D1"/>
<path d="M18.7522 52.872H17.9004V68.2099H18.7522V52.872Z" fill="#B5C4D1"/>
<path d="M21.3249 54.3164H20.4727V69.6539H21.3249V54.3164Z" fill="#B5C4D1"/>
<path d="M23.3299 55.4829C22.0599 55.4829 20.7869 55.1532 19.638 54.4917L2.52975 44.6377C1.53216 44.0613 0.918135 43.0304 0.889058 41.878C0.859126 40.726 2.57764 41.2811 2.59132 41.8344C2.60543 42.3885 2.90134 42.8846 3.38067 43.1612L20.4885 53.0152C22.3451 54.0838 24.6118 54.0274 26.4107 52.8677L67.3157 26.5041C67.1942 26.5824 68.1893 25.746 68.1893 25.746C68.5784 25.9726 68.817 26.3767 68.8277 26.8269C68.8366 27.2772 68.6169 27.6915 68.2397 27.9357L27.3339 54.2997C26.1114 55.0869 24.7221 55.4829 23.3299 55.4829Z" fill="#B5C4D1"/>
<path d="M23.0187 70.7794C21.6961 70.7794 20.3727 70.442 19.1921 69.7677L2.70346 60.3455C2.29553 60.1121 2.15313 59.5921 2.38703 59.1838C2.62093 58.7758 3.14132 58.6339 3.54882 58.8669L20.0375 68.2886C21.8757 69.3397 24.1599 69.3405 25.9973 68.2903L59.5001 49.1655L69.1981 21.2267C69.842 19.3709 71.1364 17.8097 72.8399 16.8309L75.9345 15.053C76.342 14.8191 76.8623 14.9598 77.0971 15.3668C77.3323 15.7752 77.1903 16.2956 76.7832 16.5303L73.687 18.3083C72.3405 19.0823 71.3177 20.3172 70.8084 21.786L60.8992 50.329L26.8427 69.7698C25.6638 70.442 24.3408 70.7794 23.0187 70.7794Z" fill="#B5C4D1"/>
</svg>
