<svg width="78" height="60" viewBox="0 0 78 60" fill="none" xmlns="http://www.w3.org/2000/svg">
<path d="M68.3906 12.3997C68.377 12.3997 68.363 12.3989 68.3486 12.3977C68.1222 12.3746 67.9572 12.1725 67.9795 11.9457C68.3832 7.93302 66.6698 3.43909 64.0781 1.71583C63.0118 1.00574 61.94 0.855643 60.9776 1.28038C59.6349 1.87335 58.6683 3.49229 58.3257 5.72317C58.3026 5.87574 58.282 6.02956 58.2655 6.18378C58.2403 6.41058 58.0325 6.57428 57.811 6.54954C57.5847 6.5248 57.4209 6.32151 57.4453 6.09512C57.4634 5.92894 57.4853 5.76275 57.5104 5.59863C57.8968 3.08322 59.0386 1.23461 60.6444 0.525756C61.8584 -0.0107273 63.241 0.168239 64.5346 1.02843C67.4055 2.93766 69.2388 7.66622 68.8001 12.0282C68.7795 12.241 68.6001 12.3997 68.3906 12.3997Z" fill="#1B0044"/>
<path d="M69.7872 52.7432L69.2173 15.9271L74.7916 15.0846L77.1095 53.4492L69.7872 52.7432Z" fill="#FF6556"/>
<path d="M65.0862 56.2194L66.3027 19.0664L69.247 15.9036L69.8181 52.7387L64.9048 59.7496L65.0862 56.2194Z" fill="#FE9144"/>
<path d="M42.3716 46.6716L45.3451 7.20396L66.3311 19.059L64.9356 59.7257L42.3716 46.6716Z" fill="#FEB732"/>
<path d="M45.4165 7.21799L51.0218 7.27861L50.9863 10.4237L45.4165 7.21799Z" fill="#FF6556"/>
<path d="M50.9575 10.4068L50.9938 7.28932L53.5773 2.81436L53.7546 11.9874L50.9575 10.4068Z" fill="#FE9144"/>
<path d="M53.7308 11.9754L53.5415 2.88075L74.8017 15.1131L69.2426 15.9576L66.3239 19.0899L53.7308 11.9754Z" fill="#C52887"/>
<path d="M48.0884 21.9904L47.8872 23.6782L63.2019 32.4694L63.4032 30.815L48.0884 21.9904Z" fill="#EAE9EC"/>
<path d="M50.3634 26.7635L50.1626 28.4509L58.2185 33.09L58.4197 31.436L50.3634 26.7635Z" fill="#EAE9EC"/>
<path d="M63.0928 19.7686C63.0792 19.7686 63.0652 19.7678 63.0508 19.7666C62.8244 19.7435 62.6594 19.5414 62.6817 19.3146C63.0854 15.3019 61.3717 10.8084 58.78 9.08475C57.7136 8.37507 56.6418 8.22456 55.6794 8.64929C54.3367 9.24227 53.3706 10.8616 53.0279 13.0921C53.004 13.2455 52.9842 13.3993 52.9673 13.5539C52.9421 13.7799 52.7475 13.9453 52.512 13.9185C52.2857 13.8933 52.1228 13.6896 52.1475 13.4632C52.1661 13.2974 52.1879 13.1313 52.2131 12.9667C52.599 10.4526 53.7413 8.60393 55.3466 7.89508C56.561 7.35818 57.9437 7.53756 59.2368 8.39775C62.1077 10.307 63.9415 15.036 63.5027 19.3975C63.4813 19.6099 63.3023 19.7686 63.0928 19.7686Z" fill="#1B0044"/>
<path d="M1.86716 4.64321L6.41963 3.06923L8.12392 0.986801L10.3371 35.3737L1.59375 29.5305L1.86716 4.64321Z" fill="#1B0044"/>
<path d="M44.7796 51.4315L10.3124 35.3737L8.09961 0.986801L42.5648 20.7385L44.7796 51.4315Z" fill="#4D00AD"/>
<path d="M35.6132 47.1446L35.3555 56.9349L44.7755 51.4274L35.6132 47.1446Z" fill="#4D00AD"/>
<path d="M36.3073 24.395L38.4186 21.7562L42.5641 20.7385L44.7789 51.4315L35.6426 47.2217L36.3073 24.395Z" fill="#C52887"/>
<path d="M35.3531 56.9349L0.888672 37.1823L1.84163 4.64322L36.3065 24.395L35.3531 56.9349Z" fill="#FF3E6F"/>
<path d="M15.6784 17.9514C15.6784 18.5407 15.2627 18.7778 14.7498 18.4813C14.236 18.1848 13.8203 17.4673 13.8203 16.8784C13.8203 16.2892 14.236 16.0512 14.7498 16.3485C15.2627 16.6454 15.6784 17.3625 15.6784 17.9514Z" fill="#1B0044"/>
<path d="M24.9711 23.2284C24.9711 23.8168 24.5542 24.0544 24.0416 23.7579C23.527 23.4614 23.1113 22.7443 23.1113 22.155C23.1113 21.5657 23.527 21.3286 24.0416 21.6251C24.5546 21.9216 24.9711 22.6391 24.9711 23.2284Z" fill="#1B0044"/>
<path d="M20.3963 32.5234C19.6409 32.5234 18.8908 32.3032 18.2182 31.8653C15.7647 30.267 14.3008 27.5648 14.3008 24.6374V17.3394C14.3008 17.0895 14.5024 16.8867 14.7527 16.8867C15.0018 16.8867 15.2051 17.0891 15.2051 17.3394V24.6374C15.2051 27.258 16.5168 29.6773 18.7122 31.107C19.68 31.7375 20.8627 31.7845 21.8779 31.2348C22.8928 30.6851 23.4985 29.6674 23.4985 28.5136V22.5133C23.4985 22.263 23.7006 22.0606 23.9509 22.0606C24.2004 22.0606 24.4033 22.2626 24.4033 22.5133V28.5136C24.4033 30.0043 23.6206 31.3193 22.3097 32.0294C21.7014 32.3593 21.0475 32.5234 20.3963 32.5234Z" fill="white"/>
</svg>
