<svg width="49" height="57" viewBox="0 0 49 57" fill="none" xmlns="http://www.w3.org/2000/svg">
<path d="M44.144 47.8345L29.9588 56.5829C29.0668 57.1313 27.6285 57.1313 26.7412 56.5829L4.84792 43.0841C3.96068 42.5354 4.02676 41.5971 4.84792 41.0964L18.7985 32.4969L27.7354 38.0081C28.088 38.2248 28.6013 38.3503 29.1408 38.3503C29.6805 38.3503 30.1938 38.2248 30.5471 38.0081L30.991 37.7339L44.144 45.8479C44.9538 46.3092 44.9942 47.1737 44.144 47.8345Z" fill="#1B0044"/>
<path d="M25.4677 15.4996C25.1163 15.4996 24.8323 15.1959 24.8323 14.8208V11.5738C24.8323 10.7017 23.8926 8.45415 23.1383 6.64876C21.6767 3.15378 21.2138 1.86598 21.75 1.13812C22.1609 0.581513 22.9273 0.630304 23.7523 1.2701C24.3401 1.72581 24.1171 2.18947 24.0352 2.32067C23.977 2.41284 23.6588 2.85571 23.0511 2.45776C22.9749 2.40796 22.9114 2.34275 22.8631 2.26907C22.8612 2.26804 22.8593 2.267 22.8576 2.26546C23.0568 3.12605 23.786 4.8688 24.2983 6.09473C25.2264 8.31475 26.1031 10.4118 26.1031 11.5738V14.8208C26.1031 15.1959 25.8188 15.4996 25.4677 15.4996Z" fill="#B5C4D1"/>
<path d="M47.911 27.2436C47.8735 27.1986 47.7987 27.1234 47.6593 27.0325L21.2659 10.7527C20.9131 10.536 20.4 10.41 19.86 10.41C19.3203 10.41 18.807 10.536 18.4542 10.7527L1.33959 21.3049C1.27975 21.3432 1.23962 21.3761 1.20261 21.4071L1.1954 21.3969L1.19588 21.4123C1.1471 21.4546 1.11201 21.4916 1.09375 21.5167L1.21006 22.1642L1.32349 28.0374L4.18854 42.091L19.0425 32.3491C19.9295 31.8007 21.3728 31.8007 22.2601 32.3491L44.7099 46.2278L48.3755 28.319C48.5305 28.2276 47.8838 27.278 47.911 27.2436ZM7.14419 38.653C6.60996 38.9953 6.09136 39.1385 5.6797 39.1041C5.26299 39.0643 4.95299 38.8353 4.85133 38.4189L2.94346 29.7332C3.08741 28.7514 3.83575 27.6721 4.87272 27.0787C5.51965 26.707 6.15577 26.6102 6.64217 26.7645C7.12304 26.9067 7.45972 27.2839 7.54552 27.8495L8.81222 35.9236C8.9456 36.7742 8.19749 37.9791 7.14419 38.653ZM12.6818 35.1188C12.1793 35.4376 11.7037 35.5637 11.3454 35.5008C10.9765 35.4438 10.7201 35.1922 10.6667 34.7588L9.68866 26.6045C9.54951 25.451 10.4423 23.9096 11.6662 23.2069C12.2757 22.8636 12.8366 22.8015 13.2537 22.9779C13.6596 23.1435 13.9269 23.544 13.9538 24.1262L14.3868 32.4179C14.4347 33.2908 13.6707 34.4846 12.6818 35.1188ZM19.6411 29.1111C19.6089 30.0071 18.8341 31.1899 17.8933 31.7896C17.423 32.0918 16.9897 32.1948 16.6689 32.1149C16.3538 32.0351 16.1455 31.7609 16.1397 31.3157L15.9527 22.9617C15.9263 21.7848 16.84 20.2608 17.9786 19.6148C18.5508 19.2893 19.0528 19.2562 19.4006 19.4559C19.7533 19.6382 19.9562 20.0546 19.9348 20.6487L19.6411 29.1111ZM25.4085 22.8983L24.9165 31.0066C24.8634 31.9262 24.099 32.2061 23.2117 31.6464C22.7679 31.3665 22.3776 30.9332 22.1053 30.459C21.822 29.9794 21.6564 29.4477 21.6725 28.9735L21.9448 20.8028C21.977 19.7355 22.7895 19.318 23.757 19.9001C24.2434 20.1861 24.6765 20.677 24.9701 21.2256C25.2744 21.7678 25.4402 22.3673 25.4085 22.8983ZM30.3311 25.8674L29.5183 33.8792C29.4277 34.7925 28.615 35.0497 27.7119 34.4844C27.2575 34.1925 26.8672 33.7593 26.5949 33.2795C26.3169 32.7999 26.1671 32.2682 26.1993 31.8063L26.7763 23.7209C26.8513 22.6646 27.7177 22.2698 28.7109 22.8636C29.2086 23.1612 29.6419 23.6518 29.9404 24.2061C30.2295 24.7427 30.3849 25.3424 30.3311 25.8674ZM35.3765 28.9113L34.2324 36.8256C34.099 37.7283 33.2437 37.9616 32.3137 37.3794C31.8549 37.0885 31.4589 36.6433 31.1859 36.1634C30.9189 35.6838 30.7802 35.1578 30.8283 34.7013L31.7317 26.7137C31.8492 25.668 32.7689 25.2913 33.7837 25.9021C34.3033 26.2107 34.7356 26.7016 35.0187 27.2556C35.3121 27.7984 35.4515 28.3971 35.3765 28.9113ZM37.0282 40.3434C36.5529 40.0458 36.1571 39.6012 35.8899 39.1208C35.6279 38.641 35.5001 38.1159 35.5741 37.6649L36.8151 29.7783C36.9754 28.7455 37.9472 28.3914 38.9957 29.0197C39.5196 29.3342 39.9625 29.8361 40.241 30.3845C40.5239 30.9329 40.6474 31.5262 40.5508 32.0348L39.0541 39.8402C38.8878 40.7311 37.9801 40.9429 37.0282 40.3434ZM45.8582 35.2441L43.9977 42.9303C43.7895 43.8035 42.828 43.9978 41.8603 43.386C41.3686 43.0782 40.9675 42.6273 40.7168 42.1475C40.4549 41.6682 40.3367 41.148 40.4273 40.7028L42.0256 32.9254C42.2345 31.9029 43.2762 31.5783 44.3509 32.2235C44.8911 32.548 45.3288 33.051 45.6068 33.605C45.8745 34.147 45.9807 34.7414 45.8582 35.2441Z" fill="#4D00AD"/>
<path d="M37.1402 49.1015L15.1808 35.9201L15.0664 14.2048L37.026 27.3863L37.1402 49.1015Z" fill="white"/>
<path d="M18.0739 34.785L17.1797 34.2333V19.5155L18.0739 20.0672V34.785Z" fill="#1B0044"/>
<path d="M34.7555 45.0741L33.8613 44.5226V29.8045L34.7555 30.3563V45.0741Z" fill="#1B0044"/>
<path d="M26.1475 39.7642L25.582 39.4155V24.6975L26.1475 25.0461V39.7642Z" fill="#1B0044"/>
<path d="M20.0722 32.4733L18.7646 31.6669V20.4936L20.0722 21.3001V32.4733Z" fill="#1B0044"/>
<path d="M24.9814 35.5005L23.6738 34.6939V23.5206L24.9814 24.3273V35.5005Z" fill="#1B0044"/>
<path d="M23.1032 34.3421L22.1182 33.7344V22.5609L23.1032 23.1689V34.3421Z" fill="#1B0044"/>
<path d="M21.1799 33.1565L20.7012 32.8612V21.688L21.1799 21.9832V33.1565Z" fill="#1B0044"/>
<path d="M28.2558 37.5208L26.9482 36.7139V25.5409L28.2558 26.3476V37.5208Z" fill="#1B0044"/>
<path d="M33.1628 40.5478L31.8555 39.7411V28.5681L33.1628 29.3745V40.5478Z" fill="#1B0044"/>
<path d="M31.2849 39.3891L30.2998 38.7817V27.6084L31.2849 28.2161V39.3891Z" fill="#1B0044"/>
<path d="M29.3632 38.2037L28.8848 37.9087V26.7352L29.3632 27.0307V38.2037Z" fill="#1B0044"/>
<path d="M31.0809 43.9976C30.0115 44.66 28.2709 44.66 27.2015 43.9976L0.801758 27.7178L0.999772 28.5514L4.18613 42.0916C4.26327 42.4577 4.40386 42.8109 4.84748 43.0836L26.7417 56.5837C27.629 57.1316 29.0665 57.1316 29.9598 56.5837L44.145 47.8356C44.5787 47.5668 44.6914 47.1922 44.8085 46.8261L47.977 34.2911L48.1909 33.4446L31.0809 43.9976ZM6.44174 43.0669C5.96063 42.7706 5.48528 42.2967 5.09909 41.7763C4.70497 41.2518 4.40001 40.6741 4.2813 40.1622L2.18622 31.0541C1.97233 30.1106 2.30902 29.6261 2.97229 29.7678C3.17031 29.8122 3.39405 29.9119 3.64566 30.0705C3.85954 30.2079 4.07943 30.3794 4.2873 30.5783C4.60813 30.881 4.91308 31.2364 5.17431 31.6171C5.61192 32.2413 5.93876 32.9203 6.05747 33.5149L7.82981 42.3986C8.02783 43.3863 7.4042 43.6779 6.44174 43.0669ZM11.2738 46.1049C10.7867 45.8022 10.3212 45.339 9.95275 44.8374C9.57858 44.3234 9.30126 43.7586 9.21018 43.2656L7.5645 34.4687C7.34461 33.3198 8.00211 32.8906 9.03788 33.5083L9.20009 33.6099C9.71292 33.9527 10.214 34.4857 10.61 35.0718C11.0159 35.6787 11.3151 36.3409 11.4062 36.9101L12.733 45.4892C12.8817 46.441 12.2242 46.7036 11.2738 46.1049ZM16.0563 49.1198C15.587 48.8235 15.1313 48.3665 14.775 47.8692C14.4205 47.3721 14.1691 46.8243 14.1018 46.3503L12.8978 37.8602C12.7375 36.7178 13.476 36.3285 14.5435 37.014C15.09 37.3568 15.6031 37.9006 15.9871 38.4993C16.3831 39.0875 16.6506 39.7326 16.71 40.2805L17.6011 48.555C17.6979 49.4751 17.0087 49.7205 16.0563 49.1198ZM20.8189 52.111C20.3496 51.815 19.9059 51.3706 19.5692 50.8841C19.2326 50.3994 19.0028 49.8687 18.9593 49.4117L18.1889 41.2222C18.0879 40.126 18.8622 39.7665 19.9374 40.4459C20.4661 40.7842 20.9691 41.3195 21.3375 41.9013C21.7059 42.479 21.9474 43.1031 21.9791 43.632L22.4326 51.5993C22.4865 52.49 21.7595 52.7056 20.8189 52.111ZM25.5558 55.092C25.0785 54.796 24.6527 54.3557 24.3359 53.8884C24.0093 53.4081 23.8012 52.8938 23.7854 52.4497L23.4487 44.5627C23.4071 43.507 24.229 43.1811 25.2883 43.8559C25.817 44.1924 26.2984 44.7128 26.6507 45.2818C26.9931 45.8428 27.207 46.4412 27.207 46.9555L27.2387 54.6248C27.2389 55.4812 26.4846 55.6802 25.5558 55.092ZM34.4177 44.5013L33.7109 52.1113C33.6316 52.9406 32.8256 54.0366 31.9008 54.5847C31.4394 54.8594 31.0395 54.9441 30.7502 54.8702C30.463 54.7963 30.2967 54.5506 30.3126 54.1508L30.6334 46.8538C30.675 45.8533 31.568 44.4843 32.6374 43.8096C33.1721 43.4774 33.6475 43.3865 33.9683 43.5175C34.2891 43.6443 34.4653 43.9806 34.4177 44.5013ZM40.21 40.898L38.895 49.0053C38.7563 49.8854 37.8691 51.0384 36.9186 51.6032C36.4414 51.8887 36.0374 51.9734 35.7639 51.8825C35.4808 51.8042 35.3362 51.5418 35.3837 51.1123L36.2828 43.3416C36.3996 42.3408 37.2808 40.9996 38.3067 40.2569L38.3819 40.2061C38.4254 40.1788 38.473 40.1488 38.5167 40.1193C38.5643 40.0921 38.6138 40.062 38.6614 40.0348L38.6814 40.0243C39.1625 39.7555 39.5744 39.7026 39.8517 39.8338C40.1567 39.9778 40.3033 40.3439 40.21 40.898ZM46.2244 37.1555L44.262 45.7958C44.0481 46.7329 43.0816 47.9431 42.0975 48.5272C41.6063 48.8171 41.2004 48.9039 40.9329 48.8065C40.6695 48.709 40.5486 48.4235 40.6279 47.9729L42.1508 39.6923C42.327 38.7339 43.1291 37.5005 44.0599 36.7049C44.236 36.5524 44.4223 36.4086 44.6104 36.2944C44.8183 36.1632 45.0163 36.0659 45.1927 36.0089C45.5136 35.9011 45.775 35.9072 45.9572 36.0151C46.2501 36.1696 46.3631 36.5632 46.2244 37.1555Z" fill="#C52887"/>
<path d="M48.9988 27.241V32.3491H48.9825C48.9669 32.5088 48.9241 32.6679 48.8328 32.8166C48.7049 33.0453 48.4908 33.2628 48.1914 33.4448L31.0823 43.9978C30.0129 44.6605 28.2708 44.6605 27.2017 43.9978L0.802671 27.7175C0.492423 27.5232 0.273498 27.3008 0.14541 27.061C0.0492833 26.8844 0.000976562 26.7013 0.000976562 26.519C0.000976562 26.4959 0.011794 26.479 0.011794 26.4559H0.000976562V21.5165C0.000976562 21.6988 0.0492833 21.8821 0.14541 22.0585C0.273739 22.2993 0.492663 22.5216 0.802671 22.716L27.2017 38.9953C28.2708 39.6582 30.0129 39.6582 31.0823 38.9953L48.1914 28.4436C48.4908 28.2603 48.7049 28.0436 48.8328 27.8151C48.9128 27.6831 48.9616 27.5465 48.9825 27.4097L48.9988 27.241Z" fill="#FE9144"/>
<path d="M48.1942 26.0451L21.8008 9.7671C20.7206 9.10189 18.9862 9.10189 17.9187 9.7671L0.801468 20.3157C0.267966 20.6482 0.000976562 21.0824 0.000976562 21.5165C0.000976562 21.7006 0.0519223 21.8836 0.146847 22.0603C0.273975 22.2977 0.489784 22.5216 0.801234 22.7191L27.2012 38.9958C28.2684 39.6612 30.0165 39.6612 31.0837 38.9958L48.1942 28.44C48.4927 28.2569 48.703 28.0402 48.8356 27.8156C48.9118 27.6798 48.9628 27.5445 48.9822 27.4087C48.995 27.3614 49.001 27.2998 49.001 27.2454C49.0012 26.8117 48.7287 26.3768 48.1942 26.0451ZM47.6605 27.4497L30.9878 37.7337L30.55 38.0058C30.1938 38.2225 29.6788 38.3511 29.1393 38.3511C28.5989 38.3511 28.0908 38.2225 27.7347 38.0058L1.33521 21.7278C1.18886 21.6328 1.19511 21.3953 1.33521 21.3073L18.452 10.7514C18.8014 10.534 19.3164 10.412 19.8564 10.412C20.3964 10.412 20.9111 10.5342 21.2608 10.7514L47.654 27.0359C47.7939 27.1237 47.8196 27.3619 47.6605 27.4497Z" fill="#FF3E6F"/>
<path d="M5.33905 29.4015C5.00261 29.4015 4.72144 29.1183 4.70486 28.7553C4.64478 27.4443 4.52678 24.3234 4.73706 23.6528C5.43205 21.431 18.2298 3.29345 18.3543 3.12349C18.765 2.56713 19.5333 2.61565 20.3574 3.25544C20.9445 3.7109 20.7222 4.17405 20.6402 4.30525C20.5818 4.39844 20.2639 4.84106 19.6561 4.44311C19.58 4.39305 19.5165 4.3281 19.4682 4.25416C19.3901 4.20564 19.3043 4.15865 19.2329 4.12913C17.6894 6.27752 6.49065 22.3298 5.94201 24.0841C5.84948 24.46 5.88553 26.7696 5.97444 28.6893C5.99175 29.0636 5.72115 29.3825 5.37053 29.4002C5.35996 29.4004 5.34939 29.4015 5.33905 29.4015Z" fill="#B5C4D1"/>
<path d="M24.7957 0.114746L24.7904 0.123208C24.5008 -0.0690893 24.0701 -0.0446917 23.5825 0.255949C22.7107 0.794074 22.0039 1.98482 22.0039 2.91653C22.0039 3.36274 22.1692 3.66416 22.4343 3.80203L22.4321 3.80613L32.8876 10.2428L35.2335 6.54219L24.7957 0.114746Z" fill="#C52887"/>
<path d="M35.6172 7.4046C35.6172 8.3363 34.911 9.52731 34.0391 10.0652C33.1665 10.6028 32.46 10.2839 32.46 9.35222C32.46 8.42077 33.1663 7.2295 34.0391 6.69189C34.9107 6.15402 35.6172 6.47315 35.6172 7.4046Z" fill="#4D00AD"/>
<path d="M21.6438 2.14553L21.6388 2.15374C21.3489 1.96144 20.9188 1.98609 20.4312 2.28673C19.5593 2.82485 18.8525 4.01536 18.8525 4.94732C18.8525 5.39328 19.0179 5.69469 19.2829 5.83256L19.2803 5.83666L29.7365 12.2736L32.0819 8.57297L21.6438 2.14553Z" fill="#FF3E6F"/>
<path d="M32.46 9.43564C32.46 10.3671 31.7537 11.5584 30.8819 12.096C30.01 12.6336 29.3037 12.3147 29.3037 11.3833C29.3037 10.4513 30.01 9.26029 30.8819 8.72242C31.7535 8.18481 32.46 8.50394 32.46 9.43564Z" fill="#4D00AD"/>
<path d="M23.8967 40.6256C23.5603 40.6256 23.2794 40.3424 23.2626 39.9804C23.2022 38.6692 23.0845 35.5486 23.2947 34.8772C23.6144 33.8554 30.9873 12.1065 31.0851 11.746C31.1502 11.4996 31.1718 11.4156 30.7895 11.1648C30.4901 10.9689 30.3966 10.5512 30.5799 10.231C30.7626 9.91114 31.1548 9.81127 31.4533 10.0074C31.969 10.3445 32.6169 10.9299 32.31 12.1122C32.2232 12.4418 24.4995 35.3077 24.4995 35.3077C24.4995 35.3077 24.4435 37.9942 24.5319 39.9131C24.5492 40.2872 24.2786 40.6053 23.928 40.6245C23.9177 40.6248 23.9071 40.6256 23.8967 40.6256Z" fill="#B5C4D1"/>
<path d="M43.9759 22.4127V23.4443L42.7051 22.6577V22.413C42.7051 20.526 37.1903 12.9982 34.6745 9.85541C34.2614 9.33962 34.0196 9.14937 33.9119 9.07492C33.6132 8.87774 33.5183 8.46362 33.7024 8.14475C33.8865 7.82589 34.2801 7.72421 34.5793 7.92088C34.884 8.12447 35.2334 8.46362 35.6398 8.97325C35.9775 9.40046 43.9759 19.4194 43.9759 22.4127Z" fill="#B5C4D1"/>
</svg>
