<svg width="12" height="12" viewBox="0 0 12 12" fill="none" xmlns="http://www.w3.org/2000/svg">
<path fill-rule="evenodd" clip-rule="evenodd" d="M5.98779 0.000256249C5.87374 0.00534396 5.77482 0.0842538 5.73971 0.198177L4.45521 4.37341L0.273221 4.36473C0.154891 4.36453 0.049879 4.44444 0.0133505 4.56245C-0.0231755 4.68047 0.0169652 4.80975 0.11275 4.88257L3.50139 7.45427L2.20024 11.6252L2.20033 11.6251C2.16352 11.7431 2.20347 11.8724 2.29926 11.9454C2.39495 12.0183 2.5246 12.0182 2.6202 11.9451L5.99934 9.35883L9.37971 11.9451V11.945C9.4753 12.0181 9.60495 12.0182 9.70074 11.9453C9.79644 11.8723 9.83639 11.7429 9.79957 11.625L8.49842 7.45407L11.8871 4.88237L11.8872 4.88247C11.983 4.80965 12.0232 4.68036 11.9867 4.56225C11.95 4.44424 11.8451 4.36433 11.7267 4.36463L7.5447 4.37331L6.25876 0.198075C6.22109 0.0757699 6.11028 -0.00513248 5.98786 0.000253521L5.98779 0.000256249Z" fill="#DBDBDB"/>
</svg>
