<svg width="52" height="75" viewBox="0 0 52 75" fill="none" xmlns="http://www.w3.org/2000/svg">
<path d="M45.6013 17.2227H39.6907V62.5216H45.6013V17.2227Z" fill="black"/>
<path d="M11.4295 17.2227H5.5188V62.5216H11.4295V17.2227Z" fill="black"/>
<path d="M50.5767 12.6982H35.0237V17.7026H50.5767V12.6982Z" fill="black"/>
<path d="M50.5767 57.5172H35.0237V62.5216H50.5767V57.5172Z" fill="black"/>
<path d="M16.251 12.6982H0.697998V17.7026H16.251V12.6982Z" fill="black"/>
<path d="M16.251 57.5172H0.697998V62.5216H16.251V57.5172Z" fill="black"/>
<path d="M10.6092 3.89189L1.5166 9.54631L42.9082 75L52.0008 69.3456L10.6092 3.89189Z" fill="#15C35B"/>
<path d="M0.000838222 68.3061L9.11646 73.924L50.2401 8.30439L41.1245 2.68658L0.000838222 68.3061Z" fill="#15C35B"/>
<path d="M42.645 1.68529C43.4472 1.68529 44.2313 1.92117 44.8982 2.36309C45.5652 2.80502 46.085 3.43314 46.392 4.16804C46.6989 4.90293 46.7792 5.71159 46.6228 6.49175C46.4663 7.2719 46.08 7.98853 45.5128 8.55099C44.9456 9.11345 44.223 9.49649 43.4362 9.65168C42.6495 9.80686 41.8341 9.72721 41.093 9.42281C40.3519 9.11841 39.7185 8.60292 39.2729 7.94153C38.8272 7.28014 38.5894 6.50256 38.5894 5.70712C38.5906 4.64083 39.0183 3.61856 39.7786 2.86458C40.5389 2.1106 41.5698 1.68649 42.645 1.68529ZM42.645 0C41.5068 -6.66635e-07 40.3941 0.334716 39.4476 0.961822C38.5012 1.58893 37.7636 2.48026 37.328 3.5231C36.8924 4.56594 36.7784 5.71345 37.0005 6.82052C37.2225 7.92759 37.7707 8.94451 38.5755 9.74266C39.3804 10.5408 40.4059 11.0844 41.5223 11.3046C42.6386 11.5248 43.7958 11.4118 44.8474 10.9798C45.899 10.5479 46.7979 9.81636 47.4302 8.87783C48.0626 7.9393 48.4002 6.83588 48.4002 5.70712C48.4002 4.1935 47.7938 2.74187 46.7145 1.67158C45.6352 0.601286 44.1714 1.56438e-06 42.645 0V0Z" fill="#15C35B"/>
<path d="M8.47412 1.68529C9.27626 1.68529 10.0604 1.92116 10.7273 2.36309C11.3943 2.80501 11.9141 3.43313 12.2211 4.16803C12.528 4.90292 12.6084 5.71158 12.4519 6.49174C12.2954 7.2719 11.9091 7.98852 11.3419 8.55098C10.7747 9.11345 10.0521 9.49649 9.26535 9.65168C8.47863 9.80686 7.66317 9.72721 6.92209 9.42281C6.18101 9.11841 5.5476 8.60292 5.10196 7.94153C4.65632 7.28014 4.41846 6.50256 4.41846 5.70712C4.41967 4.64083 4.84736 3.61857 5.60768 2.86459C6.368 2.11061 7.39887 1.68649 8.47412 1.68529ZM8.47412 0C7.33587 1.33328e-06 6.22317 0.334719 5.27674 0.961826C4.33032 1.58893 3.59267 2.48026 3.15708 3.5231C2.72149 4.56594 2.60752 5.71346 2.82958 6.82053C3.05164 7.9276 3.59977 8.94451 4.40464 9.74267C5.20951 10.5408 6.23498 11.0844 7.35136 11.3046C8.46775 11.5248 9.62491 11.4118 10.6765 10.9798C11.7281 10.5479 12.627 9.81636 13.2593 8.87782C13.8917 7.93929 14.2293 6.83588 14.2293 5.70712C14.2293 4.95765 14.0804 4.21552 13.7912 3.5231C13.502 2.83068 13.078 2.20153 12.5436 1.67157C12.0092 1.14162 11.3748 0.721236 10.6765 0.434427C9.97827 0.147617 9.2299 -8.85256e-07 8.47412 0V0Z" fill="#15C35B"/>
</svg>
