<svg width="43" height="61" viewBox="0 0 43 61" fill="none" xmlns="http://www.w3.org/2000/svg">
<path d="M3.04396 53.8259L14.1181 60.4083C14.3208 60.5292 14.571 60.5275 14.7724 60.4038L32.0077 49.8531C32.4343 49.5921 32.4298 48.953 31.9994 48.6984L21.1986 42.3115C20.9989 42.1934 20.7538 42.1934 20.554 42.3115L3.04557 52.6665C2.61146 52.9233 2.61065 53.5683 3.04396 53.8259Z" fill="url(#paint0_linear_4_3447)"/>
<path d="M39.5141 59.5775L39.5015 59.5703C39.4813 59.562 39.4609 59.5556 39.4407 59.5465L23.2359 49.9163C22.2844 49.2686 21.714 48.1694 21.7185 46.9934L21.7304 3.68598C21.7355 3.60723 21.7473 3.53179 21.7621 3.45831C21.9771 1.85278 23.8305 0.957124 25.2493 1.80037L25.2732 1.81562C25.2896 1.82477 25.3054 1.83143 25.3218 1.84086L41.511 11.4768C42.4459 12.1151 43.0058 13.1966 43.0007 14.3529L42.9701 57.5075C42.9698 57.5901 42.9612 57.6681 42.9486 57.7435C42.8392 59.4466 40.9777 60.4482 39.5141 59.5775Z" fill="#012235"/>
<path d="M42.0084 0.196789C41.9832 0.00878436 41.8267 -0.0558304 41.659 0.0525913C41.491 0.161013 41.3757 0.401148 41.4009 0.589153C41.4262 0.777436 41.5826 0.841767 41.7504 0.733622C41.9181 0.625201 42.0337 0.384794 42.0084 0.196789Z" fill="#E5E3E4"/>
<path d="M42.6257 23.2773C42.4432 23.3857 42.2951 23.6259 42.2951 23.8141L42.2927 25.7616C42.2927 25.8523 42.3273 25.9133 42.3832 25.941L42.0865 25.7957L42.058 25.7816C41.9908 25.7527 41.9472 25.6948 41.9475 25.5933L41.9497 23.6458C41.9499 23.4578 42.098 23.2174 42.2803 23.109C42.3687 23.0566 42.4316 23.0386 42.4908 23.0616L42.508 23.068L42.5098 23.0688C42.5131 23.0702 42.516 23.0721 42.5193 23.0735L42.8588 23.2379C42.7988 23.2124 42.7166 23.2232 42.6257 23.2773Z" fill="#034462"/>
<path d="M42.9542 25.3692L42.9563 23.4218C42.9566 23.2338 42.809 23.1692 42.6265 23.2773C42.444 23.3857 42.2959 23.6259 42.2959 23.8141L42.2935 25.7616C42.2935 25.9499 42.441 26.0142 42.6235 25.906C42.8061 25.7976 42.9539 25.5575 42.9542 25.3692Z" fill="#E5E3E4"/>
<path d="M42.6105 27.5568C42.428 27.6655 42.2802 27.9056 42.2799 28.0939L42.2778 29.2095C42.2778 29.3002 42.3124 29.3611 42.3684 29.3889L42.0716 29.2433L42.0431 29.2294C41.9762 29.2006 41.9326 29.1427 41.9326 29.0412L41.9348 27.9256C41.935 27.7373 42.0832 27.4972 42.2654 27.3888C42.3538 27.3364 42.4165 27.3183 42.4756 27.3414L42.4928 27.3477L42.4947 27.3486C42.4979 27.3499 42.5009 27.3516 42.5041 27.3533L42.8436 27.5177C42.7837 27.4922 42.7014 27.503 42.6105 27.5568Z" fill="#034462"/>
<path d="M42.9375 28.8171L42.94 27.7015C42.94 27.5133 42.7924 27.4486 42.6099 27.5571C42.4274 27.6658 42.2795 27.9059 42.2792 28.0942L42.2771 29.2097C42.2768 29.398 42.4247 29.4623 42.6069 29.3542C42.7894 29.2455 42.9373 29.0054 42.9375 28.8171Z" fill="#E5E3E4"/>
<path d="M21.7321 3.37818L21.7202 46.9632C21.7157 48.1389 22.2861 49.2381 23.2376 49.8861L39.6867 59.6488C40.6319 60.0822 41.7681 59.5997 41.7732 58.4975L41.8039 15.0655C41.8092 13.909 41.249 12.8278 40.3141 12.1895L23.8806 2.42068C22.7033 1.7391 21.7987 2.35552 21.7321 3.37818Z" fill="#034462"/>
<path d="M39.1848 58.2326L23.5558 48.8701C22.8892 48.4161 22.4895 47.6458 22.4924 46.822L22.5215 4.37142C22.5683 3.6549 23.2021 3.22259 24.0271 3.70009L39.645 13.0668C40.3001 13.5141 40.6923 14.2719 40.6888 15.0822L40.6466 57.4257C40.6431 58.1982 39.8098 58.6583 39.1848 58.2326Z" fill="#025A82"/>
<path d="M24.5212 37.9786L38.6062 46.3961L38.5995 36.5727L24.5212 28.1765V37.9786Z" fill="#0C0316"/>
<path d="M31.9116 12.0877C29.1465 10.4408 26.8966 11.7632 26.8877 15.0411C26.8805 17.714 28.3656 20.8612 30.4128 22.8256L28.9602 25.5664L33.2796 24.5562C35.3655 25.0792 36.8955 23.7077 36.903 21.006C36.9119 17.7284 34.6768 13.7345 31.9116 12.0877Z" fill="#B8BDC0"/>
<path d="M31.2942 12.4798C28.5288 10.8329 26.2792 12.1553 26.2703 15.4332C26.263 18.1058 27.7479 21.2533 29.7954 23.2177L28.343 25.9585L32.6624 24.9483C34.7483 25.4713 36.2783 24.0995 36.2859 21.3978C36.2947 18.1205 34.0597 14.1266 31.2942 12.4798Z" fill="white"/>
<path d="M28.3171 13.2005L29.1042 13.6782L29.8915 13.2113L29.1042 12.7329L28.3171 13.2005Z" fill="white"/>
<path d="M29.1025 20.6266L29.8899 20.1594V13.2113L29.1025 13.6782V20.6266Z" fill="#E5E3E4"/>
<path d="M28.3171 20.1483L29.1042 20.6266V13.6782L28.3171 13.2004V20.1483Z" fill="#B8BDC0"/>
<path d="M31.6616 17.349L32.4487 17.8271L33.2357 17.3604L32.4487 16.8821L31.6616 17.349Z" fill="#F5C300"/>
<path d="M32.4497 22.6035L33.2368 22.1365V17.3604L32.4497 17.8271V22.6035Z" fill="#E57917"/>
<path d="M31.6624 22.1252L32.4494 22.6035V17.8271L31.6624 17.3491V22.1252Z" fill="#ED9F19"/>
<path d="M30.0029 15.2668L30.79 15.7449L31.5773 15.2779L30.79 14.7999L30.0029 15.2668Z" fill="#EF7F74"/>
<path d="M30.7883 21.5928L31.5757 21.1258V15.2779L30.7883 15.7449V21.5928Z" fill="#AB3529"/>
<path d="M30.0029 21.1147L30.79 21.5928V15.7449L30.0029 15.2669V21.1147Z" fill="#ED604F"/>
<path d="M33.2876 18.8714L34.0746 19.3492L34.8617 18.8822L34.0746 18.4042L33.2876 18.8714Z" fill="#8DCCDB"/>
<path d="M34.0747 23.467L34.8618 23V18.8822L34.0747 19.3492V23.467Z" fill="#3F9D9C"/>
<path d="M33.2876 22.9886L34.0746 23.467V19.3491L33.2876 18.8714V22.9886Z" fill="#0CD9D4"/>
<path d="M40.3206 44.2975C30.5725 46.641 21.8579 51.521 14.9728 58.16C14.701 58.4198 14.1903 58.5246 13.822 58.3896C10.1362 57.0253 6.17188 55.7805 1.92614 54.7221C1.50143 54.6181 1.25548 53.7619 1.5388 53.4574C8.69083 45.6563 17.9516 40.1625 28.2766 36.7183C28.6825 36.5807 29.3271 36.6551 29.7126 36.8775C33.5731 39.1002 37.2584 40.7962 40.5488 43.1124C40.8735 43.3448 40.7061 44.2066 40.3206 44.2975Z" fill="#116DAC"/>
<path d="M40.3208 43.5893C30.5727 45.9327 21.8581 50.8131 14.973 57.4518C14.7012 57.7119 14.1905 57.8164 13.8222 57.6814C10.1364 56.3174 6.17209 55.0723 1.92635 54.0139C1.50164 53.9102 1.37934 53.5713 1.66266 53.2669C8.8147 45.4658 17.9521 39.4543 28.2768 36.0104C28.6827 35.8731 29.3273 35.9474 29.7128 36.1695C33.5733 38.3923 37.1384 40.6916 40.4289 43.0076C40.7536 43.2399 40.7063 43.4984 40.3208 43.5893Z" fill="#3F9D9C"/>
<path d="M36.5063 43.2383C36.5382 43.2591 36.5702 43.2799 36.6022 43.301C36.9108 43.5051 36.8605 43.7568 36.4925 43.8714C28.8008 46.232 21.839 50.1823 16.0208 55.3175C15.7394 55.5659 15.2386 55.6608 14.8983 55.5271C14.8773 55.5182 14.8563 55.5094 14.8356 55.5002C14.4964 55.3632 13.9884 55.463 13.7112 55.7231C13.7059 55.7287 13.7005 55.7334 13.6951 55.739C13.4209 55.9952 12.9239 56.1036 12.578 55.978C10.2555 55.1444 7.82769 54.3591 5.29341 53.6374C4.91494 53.5309 4.82865 53.2109 5.11089 52.9253C5.11358 52.9214 5.11654 52.9178 5.1195 52.9139C5.39959 52.6255 5.32432 52.3086 4.93832 52.199C4.90123 52.1885 4.86414 52.178 4.82677 52.1674C4.444 52.0629 4.35825 51.7409 4.64721 51.4539C10.67 45.5168 17.9239 40.782 25.9939 37.6553C26.3778 37.5058 26.9788 37.5452 27.335 37.7365C27.3756 37.7587 27.4162 37.7806 27.4567 37.8028C27.811 37.9941 28.4029 38.0352 28.7895 37.9007C28.8954 37.8638 29.001 37.8272 29.1072 37.7909C29.4964 37.6566 30.0988 37.7157 30.4458 37.9165C32.7495 39.2613 34.9445 40.6323 37.035 42.0151C37.3498 42.2234 37.2968 42.4735 36.9277 42.5789C36.8224 42.6091 36.717 42.6399 36.6122 42.671C36.2436 42.781 36.1979 43.0364 36.5063 43.2383Z" fill="#0CD9D4"/>
<path d="M15.2798 48.361C14.4476 47.2482 14.4586 45.8096 15.4148 44.5712C16.952 42.5481 20.4879 41.7689 23.117 42.7281C24.1527 43.0983 24.9183 43.6789 25.3457 44.3921C26.0177 45.5179 25.7728 46.8076 24.7876 47.9126C23.1786 49.6829 20.1806 50.5752 17.6302 49.8706C16.6249 49.5861 15.8083 49.0692 15.2798 48.361Z" fill="white"/>
<path d="M22.8498 43.2463C25.1997 44.0907 25.7481 45.9962 24.3328 47.5707C22.9103 49.1408 20.114 49.9413 17.8246 49.2996C15.5419 48.6591 14.5707 46.6714 15.9317 44.8957C17.2872 43.1177 20.5053 42.4017 22.8498 43.2463Z" fill="#3F9D9C"/>
<path d="M12.0168 51.9786C11.2016 51.6852 11.0325 50.9995 11.6757 50.4587C12.3211 49.9186 13.5272 49.745 14.3361 50.0628C15.1484 50.3805 15.261 51.0488 14.6253 51.5651C13.9885 52.0809 12.8367 52.2722 12.0168 51.9786Z" fill="#3F9D9C"/>
<path d="M27.0068 42.4779C26.2364 42.0634 26.2232 41.4409 27.017 41.1089C27.8067 40.7748 29.0908 40.8763 29.8528 41.3172C30.6179 41.7586 30.5791 42.3507 29.798 42.6604C29.0179 42.969 27.7814 42.8953 27.0068 42.4779Z" fill="#3F9D9C"/>
<path d="M1.75464 49.7702L3.50025 49.7295L3.49998 50.1709L27.9828 35.6113C28.3242 35.4081 28.9005 35.4236 29.2717 35.6449L39.0129 41.457L38.9156 41.3455L40.72 41.102L40.7249 41.8779C40.7284 42.0096 40.6496 42.143 40.4843 42.24L14.4964 57.6939C14.1559 57.896 13.5806 57.8819 13.2091 57.6612L2.05436 51.0072C1.85706 50.8891 1.75975 50.7349 1.76432 50.5896H1.75895L1.75464 49.7702Z" fill="#116DAC"/>
<path d="M1.99972 49.4388L27.9846 33.9858C28.326 33.7839 28.9023 33.7967 29.2735 34.0177L40.4256 40.6719C40.7979 40.8924 40.8218 41.239 40.4804 41.4392L14.4926 56.8933C14.152 57.0977 13.5768 57.0813 13.2053 56.8598L2.05052 50.2072C1.68307 49.9851 1.65646 49.6413 1.99972 49.4388Z" fill="#3F9D9C"/>
<path d="M5.73215 49.1549L5.62678 49.0925C5.28755 48.889 5.28056 48.5648 5.61388 48.3635L26.5133 35.9383C26.8501 35.7369 27.4022 35.7428 27.7433 35.9488L27.806 35.989C28.1452 36.1972 28.6973 36.2028 29.0349 36.0023L29.0546 35.9898C29.389 35.7916 29.9354 35.7963 30.2749 36.0009L37.1221 40.0844C37.4632 40.2865 37.47 40.6123 37.135 40.81L37.1243 40.8181C36.7902 41.0197 36.7945 41.3435 37.138 41.5474L37.2372 41.6064C37.5786 41.8061 37.5861 42.1338 37.252 42.3346L16.3466 54.7662C16.0152 54.9628 15.4728 54.9595 15.1308 54.7604L15.0139 54.6913C14.6736 54.4909 14.1322 54.4906 13.7997 54.688L13.5272 54.8497C13.1938 55.0485 12.6452 55.0432 12.3033 54.8419L5.49104 50.7743C5.14912 50.5707 5.14213 50.2463 5.47007 50.0497L5.7507 49.8808C6.07757 49.6812 6.07085 49.3573 5.73215 49.1549Z" fill="#0CD9D4"/>
<path d="M26.4681 43.301C27.1879 44.5948 27.032 46.0925 26.052 47.3081C24.4625 49.2766 21.2259 49.9496 18.6825 48.8416C17.6814 48.4062 16.911 47.741 16.4535 46.9188C15.7334 45.6244 15.8891 44.1251 16.8699 42.9083C18.4588 40.9426 21.6947 40.2707 24.2378 41.3771C25.2399 41.8141 26.0111 42.4793 26.4681 43.301Z" fill="white"/>
<path d="M18.9213 48.2581C16.6477 47.2685 15.9391 45.0543 17.3423 43.3137C18.7452 41.5781 21.7251 40.972 23.9987 41.9614C26.2725 42.9524 26.9816 45.1644 25.579 46.903C24.1755 48.6416 21.1967 49.2495 18.9213 48.2581Z" fill="#3F9D9C"/>
<path d="M30.1678 40.1304C30.9409 40.5934 30.9914 41.3133 30.2794 41.7373C29.5644 42.1591 28.3577 42.1294 27.5836 41.6669C26.8064 41.2049 26.7578 40.4856 27.4712 40.0616C28.1838 39.6376 29.3907 39.6673 30.1678 40.1304Z" fill="#3F9D9C"/>
<path d="M14.979 49.1652C15.7515 49.6266 15.8044 50.3453 15.0886 50.7682C14.3763 51.193 13.1686 51.1633 12.3936 50.7C11.6168 50.238 11.5673 49.5179 12.2821 49.0933C12.9955 48.6685 14.2032 48.701 14.979 49.1652Z" fill="#3F9D9C"/>
<path d="M1.75464 48.0995L3.50025 48.0588L3.49998 48.5002L27.9828 33.9406C28.3242 33.7371 28.9005 33.7526 29.2717 33.9742L39.0129 39.7863L38.9156 39.6748L40.72 39.4313L40.7249 40.2072C40.7284 40.3386 40.6496 40.4723 40.4843 40.5693L14.4964 56.0232C14.1559 56.2253 13.5806 56.2109 13.2091 55.9905L2.05436 49.3365C1.85706 49.2184 1.75975 49.0642 1.76432 48.9189H1.75895L1.75464 48.0995Z" fill="#116DAC"/>
<path d="M1.99972 47.7684L27.9846 32.3151C28.326 32.1136 28.9023 32.1266 29.2735 32.3476L40.4256 39.0015C40.7979 39.222 40.8218 39.5686 40.4804 39.7688L14.4926 55.2229C14.152 55.4273 13.5768 55.4106 13.2053 55.1894L2.05052 48.5368C1.68307 48.3147 1.65646 47.9709 1.99972 47.7684Z" fill="#3F9D9C"/>
<path d="M5.73215 47.4842L5.62678 47.4221C5.28755 47.218 5.28056 46.8941 5.61388 46.6931L26.5133 34.2675C26.8501 34.0662 27.4022 34.0718 27.7433 34.2781L27.806 34.3183C28.1452 34.5265 28.6973 34.5321 29.0349 34.3316L29.0546 34.3191C29.389 34.1209 29.9354 34.1256 30.2749 34.3302L37.1221 38.4134C37.4632 38.6158 37.47 38.9416 37.135 39.139L37.1243 39.1473C36.7902 39.3489 36.7945 39.6728 37.138 39.8766L37.2372 39.9357C37.5786 40.1351 37.5861 40.4631 37.252 40.6639L16.3466 53.0955C16.0152 53.2921 15.4728 53.2888 15.1308 53.0897L15.0139 53.0206C14.6736 52.8201 14.1322 52.8199 13.7997 53.0173L13.5272 53.1787C13.1938 53.3775 12.6452 53.3725 12.3033 53.1712L5.49104 49.1039C5.14912 48.9 5.14213 48.5753 5.47007 48.379L5.7507 48.2101C6.07757 48.0108 6.07085 47.6869 5.73215 47.4842Z" fill="#0CD9D4"/>
<path d="M26.4681 41.6305C27.1879 42.9244 27.032 44.422 26.052 45.6377C24.4625 47.6062 21.2259 48.2792 18.6825 47.1714C17.6814 46.7358 16.911 46.0706 16.4535 45.2484C15.7334 43.9537 15.8891 42.4547 16.8699 41.2376C18.4588 39.2722 21.6947 38.6 24.2378 39.7067C25.2399 40.1437 26.0111 40.8086 26.4681 41.6305Z" fill="white"/>
<path d="M18.9213 46.5877C16.6477 45.598 15.9391 43.3838 17.3423 41.6433C18.7452 39.9077 21.7251 39.3013 23.9987 40.2909C26.2725 41.282 26.9816 43.4939 25.579 45.2326C24.1755 46.9712 21.1967 47.5788 18.9213 46.5877Z" fill="#3F9D9C"/>
<path d="M30.1678 38.4597C30.9409 38.9228 30.9914 39.6426 30.2794 40.0663C29.5644 40.4884 28.3577 40.4584 27.5836 39.9961C26.8064 39.5339 26.7578 38.8146 27.4712 38.3909C28.1838 37.9672 29.3907 37.9966 30.1678 38.4597Z" fill="#3F9D9C"/>
<path d="M14.979 47.4945C15.7515 47.9559 15.8044 48.6746 15.0886 49.0975C14.3763 49.5223 13.1686 49.4926 12.3936 49.0293C11.6168 48.567 11.5673 47.8472 12.2821 47.4226C12.9955 46.9978 14.2032 47.0308 14.979 47.4945Z" fill="#3F9D9C"/>
<path d="M0.327118 37.9813C0.876013 38.2162 1.42786 38.4461 1.98267 38.6707C1.92945 38.7722 1.87595 38.8734 1.82219 38.9746C11.3273 38.9652 20.4438 36.5419 28.371 32.1709C28.7027 31.9882 29.2331 32.0204 29.5645 32.2455C32.4606 34.2201 35.5854 36.1565 38.9514 38.0113C38.9175 37.9744 38.8837 37.9375 38.8498 37.9009C39.4648 37.7939 40.0796 37.6796 40.6943 37.5582C40.7061 37.8258 40.7174 38.0934 40.7282 38.361C40.7365 38.4963 40.6594 38.6394 40.4903 38.7483C31.6424 44.5268 21.2913 48.0599 10.3957 48.7919C9.96746 48.821 9.35405 48.5878 9.0288 48.2761C5.77252 45.1483 2.82241 42.0176 0.144596 38.9366C0.00266822 38.7725 -0.0303964 38.628 0.0284714 38.5334C0.0268586 38.5326 0.0249819 38.5318 0.023369 38.5309C0.124977 38.3479 0.226316 38.1649 0.327118 37.9813Z" fill="#116DAC"/>
<path d="M0.67796 37.8602C10.6866 37.9697 20.2748 35.362 28.4904 30.5981C28.8144 30.4121 29.3345 30.4354 29.6611 30.6569C32.9279 32.8839 36.4927 35.0639 40.3739 37.1312C40.7624 37.3361 40.8035 37.6949 40.4584 37.9217C31.7161 43.7496 21.4572 47.3525 10.635 48.171C10.2089 48.2051 9.59979 47.9753 9.27669 47.665C6.03761 44.561 3.1031 41.4547 0.439534 38.3992C0.177182 38.0939 0.282551 37.8543 0.67796 37.8602Z" fill="#3F9D9C"/>
<path d="M4.30351 39.1355C4.27717 39.1072 4.25083 39.0792 4.22448 39.0512C3.97181 38.7775 4.07853 38.5451 4.46238 38.5237C12.4773 38.1136 20.1489 35.9801 26.9824 32.4158C27.3128 32.2433 27.8211 32.2735 28.121 32.4871C28.1393 32.5009 28.1576 32.5148 28.1759 32.5281C28.4737 32.7441 28.9904 32.7718 29.3194 32.5872C29.3258 32.583 29.3323 32.5797 29.3387 32.5755C29.664 32.3939 30.172 32.41 30.479 32.6168C32.5434 33.995 34.7212 35.352 37.0171 36.6736C37.3603 36.8697 37.3706 37.2019 37.0305 37.4101C37.0268 37.4132 37.0233 37.4159 37.0195 37.4187C36.6808 37.6306 36.6814 37.9567 37.0311 38.1577C37.0647 38.1771 37.0983 38.1968 37.1319 38.2159C37.4797 38.4112 37.4891 38.745 37.1426 38.9527C29.9261 43.2463 21.7905 46.0703 13.2315 47.1326C12.8243 47.1836 12.2496 46.9987 11.9475 46.725C11.9131 46.6936 11.8789 46.6623 11.8445 46.631C11.5443 46.3584 10.9787 46.1737 10.572 46.2095C10.4607 46.2195 10.3497 46.2292 10.2384 46.2383C9.82956 46.2735 9.25782 46.0686 8.96697 45.7885C7.03831 43.9182 5.22148 42.0492 3.50866 40.1939C3.25088 39.9144 3.35975 39.6845 3.74252 39.6723C3.85192 39.6687 3.96106 39.6648 4.07019 39.6604C4.4535 39.6437 4.55673 39.4069 4.30351 39.1355Z" fill="#0CD9D4"/>
<path d="M26.1022 39.3542C26.6546 40.6392 26.313 42.034 25.0996 43.0029C23.1408 44.5917 19.5268 44.4836 17.193 42.908C16.2721 42.2952 15.6619 41.5435 15.4109 40.7462C15.0168 39.4882 15.5517 38.295 16.7627 37.4628C18.733 36.1371 21.8506 36.0037 24.166 37.3128C25.0773 37.8349 25.752 38.5368 26.1022 39.3542Z" fill="white"/>
<path d="M17.5717 42.4699C15.4831 41.0746 15.3888 39.0891 17.1258 37.9059C18.8684 36.7291 21.7693 36.6359 23.8458 37.8191C25.9162 39.0004 26.4024 41.1688 24.6719 42.5608C22.9459 43.9565 19.6549 43.8644 17.5717 42.4699Z" fill="#3F9D9C"/>
<path d="M30.1047 36.639C30.8294 37.1234 30.8356 37.8313 30.0864 38.199C29.3354 38.5659 28.1236 38.4392 27.411 37.9323C26.6947 37.4251 26.739 36.7479 27.4756 36.4022C28.2129 36.0572 29.3757 36.1531 30.1047 36.639Z" fill="#3F9D9C"/>
<path d="M13.3579 42.1995C14.0108 42.7907 13.8807 43.3986 13.0331 43.5267C12.1894 43.6578 10.965 43.2449 10.3263 42.6304C9.68493 42.0143 9.85858 41.4486 10.6886 41.3391C11.5171 41.2298 12.7012 41.6045 13.3579 42.1995Z" fill="#3F9D9C"/>
<defs>
<linearGradient id="paint0_linear_4_3447" x1="13.3907" y1="58.2075" x2="22.7761" y2="43.381" gradientUnits="userSpaceOnUse">
<stop offset="0.127" stop-color="#A1A1BD"/>
<stop offset="0.8884" stop-color="white"/>
</linearGradient>
</defs>
</svg>
