<svg width="47" height="47" viewBox="0 0 47 47" fill="none" xmlns="http://www.w3.org/2000/svg">
<path d="M0.000732422 26.533L21.0031 37.4443L46.6732 24.0607L25.6784 13.1521L0.000732422 26.533Z" fill="#023248"/>
<path d="M25.7987 13.2152L46.6968 24.0738L45.9018 33.18L25.7893 34.9217L25.7987 13.2152Z" fill="#023248"/>
<path d="M21.0103 47L46.7227 33.5602L25.7964 22.4703L0.000732422 36.0622L21.0103 47Z" fill="#023248"/>
<path d="M22.2208 26.8364L41.0502 35.7389V12.7348L21.5894 4.16057V7.32337L21.8576 7.31382L22.2208 26.8364Z" fill="#FFB64D"/>
<path d="M39.3512 31.7478L22.3591 22.9314V5.66244L39.3505 14.4788L39.3512 31.7478Z" fill="white"/>
<path d="M19.0273 28.4919L36.5965 38.0482L37.9009 33.7863V16.3793L36.5965 15.0443L19.0273 5.48796V28.4919Z" fill="#FFB64D"/>
<path d="M41.0476 35.7389L36.5959 38.0482V15.0443L41.0476 12.7347V35.7389Z" fill="#FFA04C"/>
<path d="M40.6796 25.9159L36.9697 27.8413V17.9686L40.6796 16.0436V25.9159Z" fill="white"/>
<path d="M40.6794 16.0436L36.9695 17.9686V17.0197L40.6796 15.0949L40.6794 16.0436Z" fill="#023248"/>
<path d="M39.8826 30.0843C39.8826 30.6201 39.4644 31.2715 38.9481 31.5393C38.4312 31.8068 38.0134 31.5901 38.0134 31.0541C38.0134 30.5187 38.4312 29.8669 38.9481 29.5991C39.4642 29.3317 39.8826 29.5487 39.8826 30.0843Z" fill="#023248"/>
<path d="M39.87 30.0916C39.87 30.62 39.4578 31.2619 38.9493 31.5251C38.6441 31.6833 38.3749 31.6701 38.2075 31.521C38.3592 31.5607 38.5497 31.5321 38.7556 31.4249C39.2637 31.1612 39.6773 30.5189 39.6773 29.9909C39.6773 29.7792 39.61 29.6175 39.4986 29.5174C39.7244 29.5747 39.87 29.7774 39.87 30.0916Z" fill="#FFA04C"/>
<path d="M17.4717 21.9612L32.8609 35.1645L39.8835 13.0433L23.787 0L22.8214 3.04106L23.0824 3.09813L17.4717 21.9612Z" fill="#576DFC"/>
<path d="M32.447 30.9078L18.7986 18.2405L24.0705 1.63424L37.7183 14.3013L32.447 30.9078Z" fill="white"/>
<path d="M13.8979 22.7663L27.8753 36.2875L30.431 32.511L35.7452 15.7719L34.8981 14.1665L20.9208 0.644925L13.8979 22.7663Z" fill="#576DFC"/>
<path d="M32.8625 35.1645L27.8762 36.2875L34.8991 14.1665L39.8851 13.0433L32.8625 35.1645Z" fill="#3C52C7"/>
<path d="M35.5058 25.627L31.3508 26.5641L34.3648 17.0702L38.5197 16.1334L35.5058 25.627Z" fill="white"/>
<path d="M38.5204 16.1334L34.3655 17.0702L34.6552 16.1577L38.8106 15.2214L38.5204 16.1334Z" fill="#023248"/>
<path d="M33.4702 29.44C33.3065 29.9551 32.7055 30.4783 32.1271 30.6088C31.5486 30.7387 31.213 30.4271 31.3767 29.912C31.5401 29.397 32.1409 28.8732 32.7197 28.743C33.2973 28.6128 33.6337 28.9248 33.4702 29.44Z" fill="#023248"/>
<path d="M33.4562 29.4435C33.2949 29.9515 32.7026 30.4671 32.133 30.5949C31.7913 30.6717 31.5363 30.5929 31.4209 30.4083C31.5549 30.484 31.7466 30.5033 31.9772 30.4508C32.5464 30.3225 33.1404 29.8067 33.3014 29.2989C33.3662 29.0954 33.3507 28.9233 33.2742 28.7996C33.4741 28.9103 33.5521 29.1416 33.4562 29.4435Z" fill="#576DFC"/>
<path d="M7.52108 33.4652L26.3505 42.3677V19.3637L6.8894 10.7896V13.9521L7.15792 13.9428L7.52108 33.4652Z" fill="#F85976"/>
<path d="M24.6517 38.3766L7.65942 29.5604V12.2914L24.6508 21.1078L24.6517 38.3766Z" fill="white"/>
<path d="M21.8988 21.6733L22.7632 22.5578V41.8532L21.8988 44.6768L4.32959 35.1207V12.1167L21.8988 21.6733Z" fill="#F85976"/>
<path d="M26.3501 42.3677L21.8982 44.6768V21.6733L26.3501 19.3637V42.3677Z" fill="#E32A56"/>
<path d="M25.9799 32.5449L22.2703 34.4701V24.5976L25.9799 22.6724V32.5449Z" fill="white"/>
<path d="M25.9804 22.6724L22.2708 24.5976V23.6484L25.9809 21.7238L25.9804 22.6724Z" fill="#023248"/>
<path d="M25.1861 36.713C25.1861 37.2488 24.7681 37.9003 24.2516 38.168C23.7346 38.4358 23.3169 38.2188 23.3169 37.683C23.3169 37.1477 23.7346 36.4956 24.2516 36.228C24.7676 35.9605 25.1861 36.1773 25.1861 36.713Z" fill="#023248"/>
<path d="M25.1715 36.7202C25.1715 37.2484 24.7593 37.8905 24.2506 38.1535C23.9456 38.3117 23.6764 38.2987 23.5088 38.1496C23.6607 38.1893 23.8509 38.1607 24.0569 38.0535C24.5652 37.7898 24.9788 37.1473 24.9788 36.6195C24.9788 36.4077 24.9115 36.2458 24.8002 36.146C25.0259 36.2033 25.1715 36.4062 25.1715 36.7202Z" fill="#F85976"/>
<path d="M16.5483 23.7758V31.1736L7.15015 26.0615V18.6641L16.5483 23.7758Z" fill="#F2F7FA"/>
<path d="M46.7076 24.0623V33.5908L21.0107 46.9996L21.0034 37.4448L27.4892 34.0684L27.4916 37.4862L40.2218 30.8416V27.4388L46.7076 24.0623Z" fill="#5B5C70"/>
<path d="M21.0103 47L21.0031 37.4443L0.000732422 26.533V36.0622L21.0103 47Z" fill="#B4BED8"/>
</svg>
