<svg width="170" height="163" viewBox="0 0 170 163" fill="none" xmlns="http://www.w3.org/2000/svg">
<path d="M169.222 119.416C169.224 120.359 168.6 121.304 167.352 122.024L103.742 158.663C101.262 160.092 97.2536 160.088 94.792 158.655L1.83928 104.852C0.616737 104.141 0.00546686 103.209 0.00311279 102.277L0.00859662 105.545C0.010166 106.477 0.621436 107.408 1.84477 108.121L94.7975 161.922C97.2591 163.356 101.267 163.36 103.748 161.931L167.356 125.291C168.605 124.572 169.229 123.627 169.227 122.683L169.222 119.416Z" fill="#B5C4D1"/>
<path d="M167.386 116.843L74.4352 63.038C71.9721 61.5981 67.9607 61.5981 65.4835 63.0247L1.87811 99.6666C-0.612492 101.093 -0.625833 103.422 1.83731 104.849L94.7885 158.654C97.2524 160.094 101.264 160.094 103.74 158.668L167.346 122.025C169.836 120.599 169.85 118.271 167.386 116.843Z" fill="#EAE9EC"/>
<path d="M163.24 115.767L92.8364 156.326L1.55664 103.4L71.9598 62.8403L163.24 115.767Z" fill="#1B0044"/>
<path d="M21.1526 116.564C21.038 116.407 20.8991 116.275 20.75 116.188L16.8046 113.905C16.6085 113.792 16.4311 113.781 16.3024 113.855L15.7838 114.152C15.9124 114.078 16.0898 114.089 16.2859 114.202L20.2314 116.485C20.3805 116.57 20.5194 116.703 20.6339 116.861C20.7344 116.999 20.8175 117.157 20.8717 117.317C20.9172 117.452 20.9431 117.59 20.9423 117.719V117.946C20.9423 118.174 20.8607 118.335 20.7296 118.41L21.2491 118.114C21.3802 118.039 21.461 117.878 21.4618 117.649V117.423C21.4618 117.293 21.4367 117.155 21.3911 117.02C21.3362 116.861 21.2546 116.703 21.1526 116.564Z" fill="#EAE9EC"/>
<path d="M20.2328 116.485L16.2873 114.202C15.8918 113.974 15.5748 114.159 15.5748 114.617V114.844C15.5748 115.298 15.8903 115.851 16.2858 116.079L20.2312 118.362C20.6227 118.587 20.9437 118.4 20.9444 117.946V117.719C20.9437 117.261 20.6243 116.71 20.2328 116.485Z" fill="white"/>
<path d="M137.244 135.835L135.38 134.757C134.449 134.218 132.89 134.276 131.83 134.886L128.418 136.794C128.064 136.999 127.792 137.253 127.632 137.53C127.27 138.156 127.493 138.846 128.187 139.247L130.051 140.326C130.981 140.865 132.54 140.808 133.6 140.197L137.012 138.289C137.366 138.085 137.638 137.831 137.799 137.553C138.161 136.928 137.938 136.237 137.244 135.835Z" fill="white"/>
<path d="M137.244 136.466L135.38 135.387C134.449 134.849 132.89 134.906 131.83 135.517L128.418 137.425C128.064 137.63 127.792 137.884 127.632 138.161C127.57 138.267 127.549 138.375 127.521 138.484C127.62 138.78 127.845 139.049 128.187 139.246L130.05 140.325C130.981 140.864 132.54 140.807 133.6 140.197L137.012 138.288C137.366 138.084 137.638 137.83 137.799 137.552C137.861 137.445 137.882 137.336 137.91 137.228C137.81 136.933 137.586 136.664 137.244 136.466Z" fill="#B5C4D1"/>
<path d="M40.782 78.7162L32.4565 83.5239C32.1999 83.6722 32.1716 83.8967 32.3937 84.0246C32.6157 84.1525 33.0034 84.1376 33.26 83.9885L41.5856 79.1807C41.8421 79.0332 41.8696 78.8079 41.6475 78.68C41.4262 78.5521 41.0386 78.5686 40.782 78.7162Z" fill="#1B0044"/>
<path d="M30.5856 84.4059C31.2095 84.4059 31.645 84.7331 31.645 85.0258C31.645 85.3192 31.2095 85.6457 30.5856 85.6457C29.961 85.6457 29.5255 85.3192 29.5255 85.0258C29.5263 84.7331 29.9618 84.4059 30.5856 84.4059Z" fill="#1B0044"/>
<path d="M28.583 85.7109C28.8514 85.7109 29.0381 85.8522 29.0381 85.9777C29.0381 86.1033 28.8514 86.2445 28.583 86.2445C28.3146 86.2445 28.1279 86.1033 28.1279 85.9777C28.1279 85.8522 28.3146 85.7109 28.583 85.7109Z" fill="#1B0044"/>
<path d="M52.2089 7.95667L55.4772 9.84229V83.928L52.2089 82.0416V7.95667Z" fill="#B5C4D1"/>
<path d="M57.3625 84.4539L43.5912 92.4051L48.8831 95.4599L62.6552 87.5087L57.3625 84.4539Z" fill="white"/>
<path d="M48.883 79.5706L35.1117 87.5218L40.5104 90.648L54.2824 82.6976L48.883 79.5706Z" fill="white"/>
<path d="M42.8264 86.0789L52.2222 80.6284L55.0126 82.2496L42.8264 89.311V86.0789Z" fill="#B5C4D1"/>
<path d="M42.8264 49.8834L52.2222 44.4321L55.0126 46.0533L42.8264 53.1155V49.8834Z" fill="#B5C4D1"/>
<path d="M43.5922 11.1409V92.4041L57.3635 84.4544V3.64006C57.3635 2.5415 56.1786 1.85803 55.2292 2.40809L45.3342 8.12063C44.2514 8.74054 43.5922 9.89325 43.5922 11.1409ZM45.9463 56.7785L55.0095 51.5524V82.2809L45.9463 87.5069V56.7785ZM45.9463 20.5737L55.0095 15.3398V46.0674L45.9463 51.3013V20.5737Z" fill="#EAE9EC"/>
<path d="M40.0809 16.2955V90.3805L43.5877 92.4049V18.3193L40.0809 16.2955Z" fill="#B5C4D1"/>
<path d="M43.591 92.405L40.0819 90.3797L35.1117 87.5085V90.3185L48.883 98.2698V95.4598L43.591 92.405Z" fill="#B5C4D1"/>
<path d="M62.6546 87.5085L48.8826 95.4598V98.2698L62.6546 90.3185V87.5085Z" fill="#EAE9EC"/>
<path d="M40.0809 8.92497V16.2956L53.8522 8.34587V1.42334C53.8522 0.3287 52.6674 -0.354759 51.7194 0.192954L41.8261 5.90312C40.7456 6.52538 40.0809 7.67732 40.0809 8.92497Z" fill="#C52887"/>
<path d="M53.2166 0.239258L56.6583 2.41363L43.5877 18.5108L40.0809 16.2956L53.2166 0.239258Z" fill="#C52887"/>
<path d="M43.5881 11.1401V18.5107L57.3594 10.5618V3.63923C57.3594 2.54458 56.1753 1.86033 55.2274 2.40805L45.334 8.11824C44.2535 8.74128 43.5881 9.89319 43.5881 11.1401Z" fill="#FF3E6F"/>
<path d="M93.5229 42.2036L87.4596 40.107L85.1903 37.3339L82.2422 90.9799L93.8878 83.1966L93.5229 42.2036Z" fill="#1B0044"/>
<path d="M36.3718 112.366L82.2769 90.9799L85.2234 37.3339L39.3206 63.6398L36.3718 112.366Z" fill="#4D00AD"/>
<path d="M48.5794 106.657L48.9223 119.696L36.3759 112.361L48.5794 106.657Z" fill="#4D00AD"/>
<path d="M47.653 68.5102L44.8407 64.9964L39.3196 63.6396L36.3707 112.366L48.5381 106.759L47.653 68.5102Z" fill="#C52887"/>
<path d="M48.9224 119.697L94.8244 93.389L93.5556 42.2037L47.6528 68.5105L48.9224 119.697Z" fill="#FF3E6F"/>
<path d="M75.1281 59.9282C75.1281 60.7129 75.682 61.0283 76.3647 60.6336C77.0497 60.2389 77.603 59.2832 77.603 58.4993C77.603 57.7138 77.049 57.3976 76.3647 57.7939C75.682 58.1886 75.1281 59.1443 75.1281 59.9282Z" fill="#1B0044"/>
<path d="M62.7518 66.9566C62.7518 67.7405 63.3073 68.0567 63.99 67.662C64.675 67.2673 65.2291 66.3116 65.2291 65.5269C65.2291 64.7422 64.675 64.4268 63.99 64.8215C63.3073 65.2162 62.7518 66.1719 62.7518 66.9566Z" fill="#1B0044"/>
<path d="M68.8452 79.336C69.8519 79.336 70.8508 79.0433 71.7462 78.4602C75.0144 76.3314 76.9636 72.732 76.9636 68.8329V59.113C76.9636 58.7795 76.6952 58.5095 76.3617 58.5095C76.0306 58.5095 75.7591 58.7795 75.7591 59.113V68.8329C75.7591 72.3232 74.0123 75.5451 71.0886 77.4496C69.7993 78.2892 68.2245 78.3512 66.8725 77.6199C65.5204 76.887 64.7146 75.5326 64.7146 73.9961V66.0041C64.7146 65.6706 64.4454 65.4014 64.1119 65.4014C63.7792 65.4014 63.5093 65.6706 63.5093 66.0041V73.9961C63.5093 75.9814 64.5521 77.7329 66.2981 78.6792C67.1071 79.1178 67.9773 79.336 68.8452 79.336Z" fill="white"/>
<path d="M78.3082 69.7236C78.3262 69.7236 78.3451 69.7228 78.3639 69.7212C78.6652 69.6906 78.8857 69.4207 78.8551 69.1186C78.3168 63.774 80.5995 57.7892 84.0513 55.494C85.4716 54.5492 86.8998 54.3491 88.1804 54.9149C89.9687 55.7043 91.2556 57.8614 91.7115 60.8322C91.7429 61.0363 91.7695 61.2411 91.7923 61.4474C91.8253 61.7488 92.0999 61.9677 92.3981 61.9324C92.6994 61.8994 92.9175 61.6279 92.8838 61.3266C92.8587 61.1053 92.8305 60.8848 92.7967 60.6659C92.2828 57.316 90.7612 54.8545 88.6238 53.9105C87.0049 53.1964 85.1656 53.435 83.4424 54.5798C79.6186 57.123 77.1767 63.4209 77.7613 69.23C77.7903 69.5133 78.0296 69.7236 78.3082 69.7236Z" fill="#1B0044"/>
<path d="M76.4423 123.457L77.2019 74.4231L69.7779 73.3002L66.6902 124.397L76.4423 123.457Z" fill="#FF6556"/>
<path d="M82.703 128.086L81.0833 78.6031L77.1615 74.3909L76.4011 123.45L82.9455 132.788L82.703 128.086Z" fill="#FE9144"/>
<path d="M112.959 115.37L108.999 62.8042L81.0471 78.5937L82.9061 132.757L112.959 115.37Z" fill="#FEB732"/>
<path d="M108.904 62.8223L101.438 62.9031L101.485 67.0918L108.904 62.8223Z" fill="#FF6556"/>
<path d="M101.522 67.0696L101.474 62.9178L98.0334 56.9581L97.7972 69.175L101.522 67.0696Z" fill="#FE9144"/>
<path d="M97.8307 69.1594L98.0834 57.0461L69.7671 73.3387L77.1706 74.4623L81.058 78.6353L97.8307 69.1594Z" fill="#C52887"/>
<path d="M105.346 82.4984L105.614 84.7458L85.2168 96.4541L84.9492 94.2507L105.346 82.4984Z" fill="#EAE9EC"/>
<path d="M102.316 88.8544L102.584 91.1033L91.8547 97.2811L91.5863 95.0777L102.316 88.8544Z" fill="#EAE9EC"/>
<path d="M85.3641 79.5385C85.3821 79.5385 85.401 79.5377 85.4198 79.5361C85.7219 79.5055 85.9416 79.2356 85.911 78.9335C85.3727 73.5889 87.6554 67.6041 91.1072 65.3089C92.5275 64.3634 93.9557 64.1633 95.2363 64.7298C97.0246 65.5192 98.3115 67.6763 98.7674 70.6471C98.7988 70.8512 98.8254 71.056 98.8482 71.2616C98.8811 71.5637 99.1558 71.7787 99.4548 71.7473C99.7561 71.7135 99.9735 71.442 99.9405 71.1407C99.9162 70.9202 99.8871 70.699 99.8534 70.4808C99.3394 67.131 97.8179 64.6686 95.6804 63.7254C94.0616 63.0113 92.2223 63.2491 90.4983 64.3948C86.6753 66.9371 84.2326 73.2359 84.8172 79.0449C84.8462 79.3274 85.0855 79.5385 85.3641 79.5385Z" fill="#1B0044"/>
<path d="M123.666 49.1349L126.934 51.0205V125.106L123.666 123.22V49.1349Z" fill="#B5C4D1"/>
<path d="M128.82 125.632L115.049 133.583L120.341 136.639L134.113 128.688L128.82 125.632Z" fill="white"/>
<path d="M120.341 120.75L106.569 128.701L111.968 131.827L125.74 123.876L120.341 120.75Z" fill="white"/>
<path d="M114.283 127.259L123.68 121.807L126.47 123.428L114.283 130.491V127.259Z" fill="#B5C4D1"/>
<path d="M114.283 91.0624L123.68 85.6112L126.47 87.2332L114.283 94.2946V91.0624Z" fill="#B5C4D1"/>
<path d="M115.049 52.32V133.583L128.82 125.634V44.8191C128.82 43.7206 127.636 43.0371 126.686 43.5872L116.791 49.2989C115.708 49.9188 115.049 51.0723 115.049 52.32ZM117.403 97.9575L126.466 92.7315V123.46L117.403 128.686V97.9575ZM117.403 61.7519L126.466 56.5181V87.2457L117.403 92.4804V61.7519Z" fill="#EAE9EC"/>
<path d="M111.538 57.4729V131.559L115.045 133.583V59.4974L111.538 57.4729Z" fill="#B5C4D1"/>
<path d="M115.049 133.583L111.54 131.558L106.569 128.688V131.497L120.341 139.449V136.639L115.049 133.583Z" fill="#B5C4D1"/>
<path d="M134.113 128.688L120.34 136.639V139.449L134.113 131.497V128.688Z" fill="#EAE9EC"/>
<path d="M111.538 50.1032V57.4738L125.309 49.5249V42.6024C125.309 41.5077 124.124 40.8235 123.176 41.3712L113.283 47.0822C112.203 47.7044 111.538 48.8571 111.538 50.1032Z" fill="#C52887"/>
<path d="M124.674 41.4175L128.115 43.5926L115.045 59.689L111.538 57.473L124.674 41.4175Z" fill="#C52887"/>
<path d="M115.045 52.3191V59.6897L128.816 51.74V44.8175C128.816 43.7229 127.631 43.0394 126.684 43.5871L116.79 49.2973C115.71 49.9204 115.045 51.0723 115.045 52.3191Z" fill="#FF3E6F"/>
</svg>
