<svg width="90" height="89" viewBox="0 0 90 89" fill="none" xmlns="http://www.w3.org/2000/svg">
<path d="M33.2835 79.2386V84.8144C33.2835 87.1231 31.4044 89 29.0979 89H13.9481C11.6396 89 9.76245 87.1231 9.76245 84.8144V79.2386H33.2835Z" fill="#58747A"/>
<path d="M79.2388 79.2386V84.8144C79.2388 87.1231 77.3617 89 75.0532 89H59.9034C57.5969 89 55.7178 87.1231 55.7178 84.8144V79.2386H79.2388Z" fill="#58747A"/>
<path opacity="0.13" d="M33.2839 79.2386V84.8144C33.2839 87.1231 31.4047 89 29.0982 89H13.9484C12.9595 89 12.0497 88.6563 11.3337 88.0792L27.4462 85.3695C27.4462 85.3695 30.4378 84.0345 30.1757 81.6817L30.429 79.2386H33.2839Z" fill="#160204"/>
<path opacity="0.13" d="M79.24 79.2386V84.8144C79.24 87.1231 77.3628 89 75.0543 89H59.9046C58.8581 89 57.9021 88.6145 57.1663 87.9778L72.6022 85.1492C72.6022 85.1492 75.5938 83.8142 75.3319 81.4614L75.5632 79.2386H79.24Z" fill="#160204"/>
<path d="M80.8498 0H8.1517C3.65721 0 0.000732422 3.65649 0.000732422 8.15099V71.0881C0.000732422 75.5826 3.65721 79.2391 8.1517 79.2391H80.8498C85.3443 79.2391 89.0007 75.5826 89.0007 71.0881V8.15099C89.0007 3.65671 85.3443 0 80.8498 0Z" fill="#77959E"/>
<path d="M77.0829 17.7427V60.4121C77.0829 63.6901 74.4151 66.3601 71.1349 66.3601H31.9067V11.7947H71.1349C74.4151 11.7947 77.0829 14.4625 77.0829 17.7427Z" fill="#E0E0E0"/>
<path d="M52.8729 42.8537C51.6564 42.8537 50.6699 41.8674 50.6699 40.6507V33.0089C50.6699 31.7922 51.6564 30.8059 52.8729 30.8059C54.0894 30.8059 55.0759 31.7922 55.0759 33.0089V40.6507C55.0759 41.8674 54.0894 42.8537 52.8729 42.8537Z" fill="#FCA72B"/>
<path d="M45.2902 44.9426C44.7262 44.9426 44.1627 44.7276 43.7325 44.2974L38.329 38.8937C37.4688 38.0335 37.4688 36.6385 38.329 35.7783C39.1897 34.918 40.5842 34.918 41.4447 35.7783L46.8481 41.1817C47.7084 42.0422 47.7084 43.4369 46.8481 44.2974C46.4177 44.7274 45.8539 44.9426 45.2902 44.9426Z" fill="#FCA72B"/>
<path d="M60.4527 44.9424C59.8887 44.9424 59.3252 44.7273 58.8949 44.2971C58.0347 43.4368 58.0347 42.0419 58.8949 41.1814L64.2984 35.778C65.1589 34.9177 66.5533 34.9175 67.414 35.778C68.2743 36.6383 68.2743 38.0332 67.414 38.8934L62.0106 44.2971C61.5801 44.7271 61.0166 44.9424 60.4527 44.9424Z" fill="#FCA72B"/>
<path d="M71.5826 66.3601H34.1631L39.0887 50.7146C39.4238 49.7519 40.3314 49.1064 41.3514 49.1064H64.3944C65.4143 49.1064 66.322 49.7519 66.657 50.7146L71.5826 66.3601Z" fill="#FCA72B"/>
<path d="M58.5218 58.6014H46.973C45.7565 58.6014 44.77 57.6152 44.77 56.3985C44.77 55.1818 45.7565 54.1955 46.973 54.1955H58.5218C59.7383 54.1955 60.7248 55.1818 60.7248 56.3985C60.7248 57.6152 59.7385 58.6014 58.5218 58.6014Z" fill="white"/>
<path opacity="0.35" d="M77.7279 0L12.106 5.49641C6.25715 5.36644 5.52577 11.5568 5.52577 11.5568L0.000732422 57.7222V8.15099C0.000732422 3.65693 3.65765 0 8.1517 0H77.7279Z" fill="white"/>
<path opacity="0.13" d="M89.0017 18.7693V71.0877C89.0017 75.5817 85.3447 79.2386 80.8507 79.2386H17.7688L76.9272 73.7775C82.7739 73.9052 83.5051 67.7171 83.5051 67.7171L89.0017 18.7693Z" fill="#160204"/>
<path d="M31.9058 9.11369V69.9928C31.9058 71.8697 30.5928 73.2862 28.8481 73.2862C28.2489 73.2862 27.6541 73.121 27.0811 72.7928L15.3789 66.1111C13.8481 65.2366 12.7378 63.3244 12.7378 61.562V57.3896H16.0819C16.7516 57.3896 17.2935 56.8477 17.2935 56.178V43.9118C17.2935 43.2421 16.7516 42.7002 16.0819 42.7002H12.7378V36.4614H16.0819C16.7516 36.4614 17.2935 35.9194 17.2935 35.2497V22.9836C17.2935 22.3139 16.7516 21.772 16.0819 21.772H12.7378V17.0642C12.7378 15.282 13.8767 13.3742 15.4474 12.5283L27.1077 6.24763C27.6631 5.94802 28.2356 5.798 28.8128 5.798C30.5774 5.79822 31.9058 7.22354 31.9058 9.11369Z" fill="#58747A"/>
<path opacity="0.35" d="M66.6282 50.6441L43.6931 51.7698C41.565 51.7698 41.1972 53.3119 41.1972 53.3119L37.5821 66.3601H34.1631L39.0887 50.7146C39.4238 49.7519 40.3314 49.1064 41.3514 49.1064H64.3944C65.3901 49.1064 66.2779 49.721 66.6282 50.6441Z" fill="white"/>
<path d="M16.084 21.7724H10.0571C9.38805 21.7724 8.84546 22.3148 8.84546 22.984V35.25C8.84546 35.9192 9.38805 36.4616 10.0571 36.4616H16.084C16.753 36.4616 17.2956 35.9192 17.2956 35.25V22.984C17.2956 22.3148 16.753 21.7724 16.084 21.7724Z" fill="#E0E0E0"/>
<path d="M16.083 42.7006H10.0561C9.38707 42.7006 8.84448 43.243 8.84448 43.9123V56.1782C8.84448 56.8474 9.38707 57.3898 10.0561 57.3898H16.083C16.752 57.3898 17.2946 56.8474 17.2946 56.1782V43.9123C17.2946 43.243 16.752 42.7006 16.083 42.7006Z" fill="#E0E0E0"/>
<path opacity="0.35" d="M55.0538 32.7031C53.395 31.0641 52.2186 33.1547 52.2186 33.1547L51.5247 42.3918C51.0048 41.9908 50.6699 41.3586 50.6699 40.6514V33.0093C50.6699 31.7933 51.6569 30.8063 52.8729 30.8063C53.9854 30.8063 54.9062 31.6324 55.0538 32.7031Z" fill="white"/>
<path opacity="0.35" d="M44.6103 44.8348C44.2887 44.7313 43.9891 44.5529 43.7335 44.2973L38.3299 38.8934C37.4685 38.0321 37.4685 36.6378 38.3299 35.7784C39.1736 34.9325 40.5372 34.9171 41.4006 35.7366C38.8495 35.4656 39.3805 37.9373 39.3805 37.9373L44.6103 44.8348Z" fill="white"/>
<path opacity="0.35" d="M67.5202 38.7789C67.8815 35.893 65.26 36.5781 65.26 36.5781L58.2808 42.3873C58.3513 41.9468 58.5561 41.5216 58.8954 41.1823L64.2993 35.7784C65.1606 34.9171 66.5551 34.9171 67.4143 35.7784C68.2384 36.6001 68.2736 37.9131 67.5202 38.7789Z" fill="white"/>
</svg>
