<svg width="180" height="156" viewBox="0 0 180 156" fill="none" xmlns="http://www.w3.org/2000/svg">
<path d="M176.447 36.6763V89.9821L139.157 111.511C139.069 111.563 138.958 111.499 138.958 111.396V58.3213L176.447 36.6763Z" fill="#4D00AD"/>
<path d="M101.467 36.6763V89.9821L138.757 111.511C138.845 111.563 138.957 111.499 138.957 111.396V58.3213L101.467 36.6763Z" fill="#B5C4D1"/>
<path d="M98.8915 30.6309L138.958 53.7627L179.109 30.5818C179.163 30.5505 179.163 30.4711 179.109 30.4398L138.958 7.25806L98.8915 30.3908C98.7994 30.4441 98.7994 30.5776 98.8915 30.6309Z" fill="white"/>
<path d="M179.232 30.6527V42.8416L138.958 66.0944V53.7626L179.11 30.5817C179.165 30.5504 179.232 30.5893 179.232 30.6527Z" fill="#B5C4D1"/>
<path d="M98.684 30.7508V42.8425L138.958 66.0953V53.7635L98.8919 30.6316C98.7989 30.5775 98.684 30.6443 98.684 30.7508Z" fill="#EAE9EC"/>
<path d="M156.38 27.8253C148.66 28.6587 143.653 30.1194 142.295 30.6688C142.066 30.7609 140.139 24.6437 140.139 24.6437C147.013 20.8779 155.789 21.0479 156.095 21.0014C160.613 20.3209 156.816 16.4368 155.745 14.267C154.674 12.0989 161.039 9.20717 165.379 15.1038C166.829 17.0742 166.846 26.6943 156.38 27.8253Z" fill="#FF3E6F"/>
<path d="M166 15.999C162.355 9.34751 146.753 23.2895 144.254 29.2183C144.254 29.2183 144.247 29.2318 144.235 29.2563C143.548 30.6282 141.51 31.1811 139.924 30.4457L137.287 29.2234C137.287 29.2234 139.105 11.6188 151.686 8.74312C161.184 6.57075 166 15.999 166 15.999Z" fill="#FF6556"/>
<path d="M140.139 27.1525L136.427 31.4677C119.193 31.0062 108.566 19.5949 112.41 14.3745C113.618 12.7338 119.452 10.2715 119.452 10.2715C119.452 10.2715 119.115 10.9976 119.115 13.4886C119.115 23.7934 132.973 25.5051 140.139 27.1525Z" fill="#FF3E6F"/>
<path d="M111.831 15.2663C115.271 8.2851 129.993 22.9186 132.352 29.1407C132.352 29.1407 132.358 29.155 132.37 29.1812C133.019 30.6207 134.941 31.2014 136.438 30.4297L138.926 29.1466C138.926 29.1466 137.211 10.6696 125.338 7.65028C116.375 5.37141 111.831 15.2663 111.831 15.2663Z" fill="#FF6556"/>
<path d="M130.386 15.137C134.567 21.6786 136.564 26.4975 136.986 27.9015C137.057 28.1374 143.034 25.8112 143.034 25.8112C141.668 18.0929 136.041 11.3552 135.884 11.0881C133.588 7.13896 138.994 7.66726 141.356 7.14572C143.718 6.6225 141.988 -0.151583 134.672 0.155254C132.229 0.258378 124.716 6.26746 130.386 15.137Z" fill="#FF3E6F"/>
<path d="M133.586 0.232087C141.056 -1.08908 139.949 19.8045 136.89 25.4653C136.89 25.4653 136.883 25.4789 136.873 25.5042C136.233 26.8981 137.077 28.8338 138.644 29.6097L141.248 30.9013C141.248 30.9013 153.839 18.4622 148.205 6.85146C143.953 -1.91493 133.586 0.232087 133.586 0.232087Z" fill="#FF6556"/>
<path d="M142.755 30.144C142.829 29.8938 142.855 29.6343 142.829 29.3765C142.727 28.3766 142.155 26.0428 139.063 26.0149C136.091 25.9904 135.277 28.0376 135.057 29.0427C134.988 29.3546 135.001 29.6758 135.084 29.9843L135.115 30.0984C135.386 31.1026 136.393 31.8101 137.549 31.8101H140.334C141.47 31.8109 142.464 31.1262 142.755 30.144Z" fill="#FEB732"/>
<path d="M143.177 25.4508C143.177 25.4508 140.717 26.1507 140.542 29.9131C140.542 29.9131 140.774 31.6619 139.142 31.7786C139.142 31.7786 142.7 34.1124 145.82 31.6332C147.312 30.4481 148.853 27.783 151.026 28.367C153.197 28.9503 149.848 25.4491 148.939 25.1305C147.579 24.652 143.177 25.4508 143.177 25.4508Z" fill="#4D00AD"/>
<path d="M143.177 25.451L147.575 23.5576C149.099 22.9025 150.895 23.2668 151.984 24.5186C153.022 25.7147 153.962 27.6149 153.792 30.526C153.454 36.3145 155.069 40.0058 158.817 40.3575C159.168 40.3904 159.352 40.7936 159.163 41.0895L156.368 45.4756C156.059 45.9617 155.488 46.2127 154.922 46.1104C152.756 45.7191 147.652 44.2204 147.32 38.7557C146.898 31.8092 148.495 28.0764 143.177 25.451Z" fill="#C52887"/>
<path d="M139.379 31.9181C139.367 31.9156 134.395 30.8261 133.789 36.8394C133.182 42.8603 124.721 46.1332 120.556 42.605L117.645 35.1015C117.645 35.1015 125.008 40.7792 127.473 35.9848C129.939 31.1912 132.289 28.4711 135.579 28.963C135.578 28.9639 138.824 29.1211 139.379 31.9181Z" fill="#C52887"/>
<path d="M151.321 80.5337C150.305 79.7568 149.744 78.3013 149.744 76.4434C149.744 73.5271 151.693 69.9863 154.095 68.5358C155.834 67.4876 157.381 67.8046 157.949 68.704C158.05 68.8654 158.309 68.7268 158.419 68.4428C159.002 66.945 160.509 64.6644 162.221 63.6323C164.636 62.1725 166.596 63.3559 166.596 66.2721C166.596 68.13 166.032 70.2644 165.011 72.2711L159.484 83.132C158.784 84.5073 157.551 85.252 156.851 84.7212L151.321 80.5337Z" fill="#FF3E6F"/>
<path d="M26.0781 55.0847C26.2556 70.2338 35.9763 146.966 83.2916 137.447C57.7058 162.06 45.9548 151.994 36.3287 145.026C3.07632 120.95 -4.14908 73.9699 26.0781 55.0847Z" fill="#1B0044"/>
<path d="M25.8807 53.1897L33.0631 53.6588V84.3255L33.0614 84.3264C33.0521 84.8217 32.7512 85.2925 32.1383 85.6459L6.65404 100.359C5.28384 101.151 2.89 101.051 1.30764 100.137C0.449686 99.642 0.010961 99.0089 0.00335346 98.407L0 98.4087L0.00252799 67.655L25.8807 53.1897Z" fill="#B5C4D1"/>
<path d="M3.49785 66.1766V66.7759C3.46996 67.0769 3.63729 67.3744 4.0295 67.6035C4.76743 68.0295 5.96012 68.0295 6.69298 67.6035L6.78172 67.5536V64.7887L3.49785 66.1766Z" fill="#AEBDB6"/>
<path d="M8.04233 64.18L0.471191 67.1875L33.5326 53.1897L8.04233 64.18Z" fill="#2C2660"/>
<path d="M0.925188 66.392L26.4095 51.6782C27.7797 50.887 30.1727 50.9867 31.755 51.9005C33.3366 52.8134 33.509 54.1963 32.1388 54.9866L6.6545 69.6995C5.2843 70.4915 2.89131 70.3909 1.3081 69.478C-0.273415 68.5643 -0.445009 67.1831 0.925188 66.392Z" fill="#EAE9EC"/>
<path d="M38.2932 20.856C78.3958 -2.3816 126.269 97.5616 94.943 135.483C89.1384 142.509 75.0316 148.74 65.3988 152.497C91.4477 117.645 69.5584 28.0154 15.2129 34.4979C22.9058 29.9528 30.5429 25.303 38.2932 20.856Z" fill="#4D00AD"/>
<path d="M22.9886 33.5395C25.1322 33.2994 31.0948 34.64 31.5301 34.7643C27.7052 40.7463 29.3552 53.876 29.3552 53.876C29.4271 54.1989 29.2555 54.5362 28.8261 54.7839L6.69331 67.6017C5.95877 68.0268 4.79146 67.8214 4.05522 67.3963C3.32068 66.9719 4.60549 35.5935 22.9886 33.5395Z" fill="#1B0044"/>
<path d="M3.49785 66.1764V66.7757C3.46996 67.0766 3.63729 67.3741 4.0295 67.6032C4.76743 68.0292 5.96012 68.0292 6.69298 67.6032L6.78171 67.5533V62.2703C6.78171 50.1093 10.6379 40.9093 17.3587 37.0312C19.6536 35.7058 22.2343 35.0498 25.0093 35.0498C28.8258 35.0498 33.0006 36.2983 37.287 38.7708L42.2057 41.6084C59.9295 51.8438 74.3507 79.4616 74.3507 103.173V124.712C74.3507 136.873 70.4938 146.073 63.773 149.95C58.3167 153.102 51.2434 152.486 43.8447 148.21L38.926 145.373C24.9586 137.309 13.0554 118.455 8.62782 99.2158L6.65243 100.358C6.36165 100.525 6.02013 100.654 5.6499 100.743C10.4469 120.55 22.8082 139.856 37.2861 148.211L42.2048 151.053C47.0069 153.823 51.7412 155.223 56.1291 155.223C59.4637 155.223 62.598 154.412 65.4128 152.789C73.175 148.306 77.6237 138.076 77.6237 124.712V103.173C77.6237 78.4152 62.4687 49.5269 43.8438 38.7708L38.9252 35.9348C30.4698 31.0491 22.2258 30.4329 15.718 34.1936C7.95583 38.6761 3.5012 48.9056 3.5012 62.2703L3.49785 66.1764Z" fill="#88119B"/>
<path d="M61.7717 77.4795L102.577 53.9207C103.6 53.3307 104.534 53.2851 105.258 53.6849L105.257 53.6807L110.868 56.9299L106.73 58.5266V117.612C106.73 120.669 104.871 124.22 102.578 125.545L63.5544 148.075L64.5257 152.486L59.0846 149.339L59.0897 149.337C58.1912 148.84 57.6198 147.657 57.6198 145.965V85.4116C57.6198 82.3542 59.4785 78.8032 61.7717 77.4795Z" fill="#1B0044"/>
<path d="M67.3317 80.6993L108.138 57.1405C110.431 55.816 112.289 57.2217 112.289 60.2782V120.831C112.289 123.888 110.431 127.439 108.138 128.764L67.3317 152.322C65.0393 153.646 63.1805 152.241 63.1805 149.184V88.6314C63.1805 85.5749 65.0393 82.023 67.3317 80.6993Z" fill="#88119B"/>
<path d="M65.4196 88.6339V149.185C65.4196 150.036 66.6055 150.159 66.8692 150.008L107.017 126.823C108.634 125.894 110.049 123.09 110.049 120.829V60.2773C110.049 59.427 109.512 58.9282 109.256 59.0804L68.4516 82.64C67.2986 83.3061 65.4196 85.9197 65.4196 88.6339Z" fill="#4D00AD"/>
<path d="M60.2769 110.668C61.0494 111.113 61.6022 112.325 61.5126 113.373C61.4239 114.421 60.7231 114.909 59.9505 114.463C59.178 114.018 58.6252 112.805 58.7139 111.757C58.8044 110.709 59.5034 110.221 60.2769 110.668Z" fill="#AEBDB6"/>
<path d="M94.8823 115.512C95.784 113.658 95.69 111.754 94.6724 111.259C93.6547 110.764 92.0987 111.866 91.197 113.72C90.2953 115.575 90.3893 117.479 91.407 117.974C92.4246 118.469 93.9806 117.367 94.8823 115.512Z" fill="#B5C4D1"/>
<path d="M97.8582 107.031C97.898 106.949 97.9267 106.862 97.9445 106.767C98.0383 106.225 97.6765 105.71 97.1338 105.615C93.1399 104.918 88.8569 107.858 86.3768 112.958C86.316 113.083 86.2559 113.208 86.1985 113.333C85.8282 114.141 85.5113 114.965 85.2627 115.785C85.103 116.311 85.398 116.868 85.9246 117.028C86.4495 117.189 87.015 116.894 87.1672 116.366C87.392 115.633 87.6752 114.892 88.0091 114.166C90.0623 109.697 93.6048 107.02 96.7924 107.577C97.2395 107.654 97.6689 107.421 97.8582 107.031Z" fill="#B5C4D1"/>
<path d="M100.498 101.83C100.514 101.798 100.527 101.765 100.539 101.732C100.727 101.215 100.459 100.644 99.9429 100.457C93.791 98.2261 86.6213 102.182 82.5074 110.078C81.8776 111.285 81.5505 111.98 81.1592 113.131C80.9825 113.652 81.2623 114.217 81.783 114.394C82.3045 114.57 82.8607 114.296 83.0458 113.77C83.411 112.696 83.7136 112.07 84.2731 110.999C87.9129 104.014 94.0767 100.449 99.2625 102.329C99.7477 102.505 100.278 102.283 100.498 101.83Z" fill="#B5C4D1"/>
<path d="M102.459 95.4721C102.466 95.4569 102.474 95.4408 102.48 95.4256C102.695 94.9193 102.46 94.3343 101.954 94.1179C95.4124 91.3319 84.5041 95.3952 78.692 105.884C77.8526 107.405 77.135 108.962 76.5661 110.512C76.3759 111.029 76.6422 111.602 77.1578 111.79C77.6743 111.98 78.233 111.717 78.4359 111.199C78.9709 109.745 79.6421 108.281 80.435 106.85C85.7247 97.2996 95.4285 93.5051 101.171 95.9514C101.662 96.1593 102.228 95.9463 102.459 95.4721Z" fill="#B5C4D1"/>
<path d="M105.182 89.8738C105.194 89.8493 105.205 89.8239 105.215 89.7994C105.415 89.2863 105.162 88.7081 104.649 88.5087C95.2519 84.8486 81.9126 88.3574 74.5958 102.145C73.5933 104.04 72.7514 105.984 72.098 107.926C71.923 108.447 72.2029 109.012 72.7244 109.188C73.2451 109.363 73.8114 109.084 73.9864 108.56C74.6026 106.722 75.4022 104.88 76.3548 103.079C83.1255 90.3192 95.35 87.026 103.924 90.3666C104.411 90.5551 104.957 90.3353 105.182 89.8738Z" fill="#B5C4D1"/>
<path d="M95.9298 116.081C96.8315 114.226 96.7372 112.322 95.7191 111.827C94.7011 111.332 93.1448 112.434 92.243 114.288C91.3413 116.142 91.4357 118.047 92.4537 118.542C93.4718 119.037 95.0281 117.935 95.9298 116.081Z" fill="#EAE9EC"/>
<path d="M98.9087 107.598C98.9485 107.517 98.9772 107.429 98.9941 107.334C99.0888 106.792 98.727 106.276 98.1843 106.182C94.1904 105.484 89.9074 108.425 87.4265 113.526C87.3665 113.649 87.3064 113.774 87.249 113.899C86.8779 114.707 86.5618 115.532 86.3124 116.352C86.1527 116.877 86.4477 117.434 86.9751 117.595C87.5 117.755 88.0655 117.461 88.2177 116.932C88.4425 116.199 88.7249 115.458 89.0596 114.732C91.1128 110.263 94.6545 107.587 97.842 108.143C98.2892 108.222 98.7186 107.989 98.9087 107.598Z" fill="#EAE9EC"/>
<path d="M101.548 102.397C101.563 102.365 101.576 102.333 101.589 102.3C101.776 101.782 101.509 101.211 100.992 101.024C94.8399 98.7942 87.6702 102.75 83.5562 110.646C82.9273 111.853 82.6002 112.547 82.2088 113.698C82.0322 114.22 82.312 114.784 82.8326 114.961C83.3533 115.138 83.9095 114.864 84.0955 114.337C84.4598 113.263 84.7625 112.638 85.3229 111.567C88.9626 104.581 95.1255 101.017 100.312 102.896C100.796 103.072 101.327 102.85 101.548 102.397Z" fill="#EAE9EC"/>
<path d="M103.508 96.0394C103.515 96.0242 103.523 96.009 103.528 95.9929C103.745 95.4866 103.509 94.9025 103.003 94.6861C96.4618 91.8992 85.5527 95.9625 79.7406 106.452C78.9012 107.972 78.1835 109.529 77.6147 111.079C77.4245 111.596 77.6908 112.169 78.2064 112.358C78.7228 112.549 79.2816 112.286 79.4853 111.767C80.0195 110.312 80.6915 108.849 81.4835 107.419C86.7741 97.8678 96.4779 94.0725 102.221 96.5187C102.713 96.7275 103.277 96.5128 103.508 96.0394Z" fill="#EAE9EC"/>
<path d="M106.231 90.4411C106.243 90.4174 106.254 90.392 106.265 90.3667C106.463 89.8544 106.211 89.2763 105.697 89.0768C96.3005 85.4167 82.9612 88.9246 75.6453 102.713C74.6419 104.607 73.8009 106.552 73.1466 108.493C72.9717 109.015 73.2523 109.579 73.7738 109.755C74.2937 109.93 74.8609 109.653 75.035 109.128C75.652 107.29 76.4517 105.448 77.4043 103.646C84.175 90.8874 96.3985 87.5933 104.974 90.9339C105.461 91.1215 106.006 90.9034 106.231 90.4411Z" fill="#EAE9EC"/>
</svg>
