<svg width="108" height="107" viewBox="0 0 108 107" fill="none" xmlns="http://www.w3.org/2000/svg">
<path d="M40.0132 95.2644V101.968C40.0132 104.743 37.754 107 34.981 107H16.7672C13.9915 107 11.735 104.743 11.735 101.968V95.2644H40.0132Z" fill="#58747A"/>
<path d="M95.2651 95.2644V101.968C95.2651 104.743 93.0083 107 90.2329 107H72.0191C69.2461 107 66.9869 104.743 66.9869 101.968V95.2644H95.2651Z" fill="#58747A"/>
<path opacity="0.13" d="M40.0133 95.2644V101.968C40.0133 104.743 37.7541 107 34.9811 107H16.7673C15.4218 107 14.2009 106.47 13.2977 105.61L32.9947 102.635C32.9947 102.635 36.5914 101.03 36.2762 98.2016L36.5808 95.2644H40.0133Z" fill="#160204"/>
<path opacity="0.13" d="M95.2631 95.2644V101.968C95.2631 104.743 93.0063 107 90.2309 107H72.0171C70.5498 107 69.2255 106.367 68.3038 105.361L87.2828 102.37C87.2828 102.37 90.8795 100.765 90.5646 97.9368L90.8427 95.2644H95.2631Z" fill="#160204"/>
<path d="M97.2008 0H9.79951C4.396 0 0 4.396 0 9.7995V85.4654C0 90.8689 4.396 95.2649 9.79951 95.2649H97.2008C102.604 95.2649 107 90.8689 107 85.4654V9.7995C107 4.39627 102.604 0 97.2008 0Z" fill="#77959E"/>
<path d="M93.4344 20.8465V74.6855C93.4344 78.6265 90.227 81.8365 86.2834 81.8365H20.7327C16.7917 81.8365 13.5817 78.6265 13.5817 74.6855V69.0441H17.2048C18.01 69.0441 18.6615 68.3899 18.6615 67.5875V52.8405C18.6615 52.0354 18.01 51.3838 17.2048 51.3838H13.5817V43.8832H17.2048C18.01 43.8832 18.6615 43.2291 18.6615 42.4266V27.6796C18.6615 26.8745 18.01 26.223 17.2048 26.223H13.5817V20.8465C13.5817 16.9028 16.7917 13.6955 20.7327 13.6955H86.2834C90.227 13.6955 93.4344 16.9028 93.4344 20.8465Z" fill="#58747A"/>
<path d="M55.0884 23.2211C41.5982 23.2211 30.623 34.1963 30.623 47.6865C30.623 61.1775 41.5982 72.1532 55.0884 72.1532C68.5789 72.1532 79.5538 61.1775 79.5538 47.6865C79.5538 34.1963 68.5789 23.2211 55.0884 23.2211ZM59.2757 50.5885V58.9663C59.2304 59.2311 59.0109 59.2311 59.0109 59.2311H51.1665C51.0203 59.2311 50.9017 59.1125 50.9017 58.9663V50.5885C48.553 49.1392 47.1003 46.5469 47.1003 43.7858C47.1003 39.3808 50.684 35.7971 55.089 35.7971C59.494 35.7973 63.0774 39.381 63.0774 43.7858C63.0771 46.5469 61.6244 49.139 59.2757 50.5885Z" fill="#FFCB5A"/>
<path d="M17.2052 26.2221H9.95912C9.15477 26.2221 8.50244 26.8742 8.50244 27.6788V42.4255C8.50244 43.2301 9.15477 43.8822 9.95912 43.8822H17.2049C18.0093 43.8822 18.6616 43.2301 18.6616 42.4255V27.6788C18.6619 26.8745 18.0096 26.2221 17.2052 26.2221Z" fill="#FCA72B"/>
<path d="M17.2057 51.383H9.95961C9.15526 51.383 8.50293 52.0351 8.50293 52.8397V67.5864C8.50293 68.391 9.15526 69.0431 9.95961 69.0431H17.2054C18.0098 69.0431 18.6621 68.391 18.6621 67.5864V52.8397C18.6624 52.0354 18.01 51.383 17.2057 51.383Z" fill="#FCA72B"/>
<path opacity="0.35" d="M93.4475 0L14.5536 6.60804C7.52178 6.45178 6.64248 13.8941 6.64248 13.8941L0 69.3964V9.7995C0 4.39653 4.39653 0 9.79951 0H93.4475Z" fill="white"/>
<path opacity="0.13" d="M107.002 22.5654V85.4649C107.002 90.8679 102.605 95.2644 97.202 95.2644H21.3618L92.485 88.6988C99.5142 88.8524 100.393 81.4127 100.393 81.4127L107.002 22.5654Z" fill="#160204"/>
<path opacity="0.13" d="M79.5547 47.6866C79.5547 61.1781 68.5819 72.1535 55.0904 72.1535C50.1218 72.1535 45.4975 70.6651 41.6333 68.1092C50.6012 70.9591 60.8244 68.8349 67.9251 61.7343C76.5963 53.063 77.8491 39.7384 71.6833 29.7243C76.5222 34.1977 79.5547 40.5938 79.5547 47.6866Z" fill="#160204"/>
</svg>
