<svg width="1074" height="973" viewBox="0 0 1074 973" fill="none" xmlns="http://www.w3.org/2000/svg">
<path d="M488.897 804.029C419.744 795.713 354.473 767.569 300.955 722.991C247.438 678.413 207.959 619.305 187.279 552.794C166.599 486.284 165.601 415.21 184.406 348.146C203.211 281.081 241.016 220.888 293.261 174.825C345.507 128.763 409.962 98.7984 478.855 88.5446C547.748 78.2908 618.135 88.1857 681.531 117.036C744.926 145.887 798.622 192.461 836.143 251.142C873.664 309.824 893.408 378.107 892.994 447.757L891.06 447.746C891.472 378.468 871.834 310.551 834.514 252.184C797.194 193.817 743.786 147.492 680.73 118.796C617.674 90.0998 547.663 80.2579 479.14 90.4568C410.616 100.656 346.506 130.46 294.54 176.276C242.574 222.091 204.972 281.962 186.268 348.668C167.563 415.373 168.556 486.066 189.125 552.22C209.694 618.375 248.962 677.166 302.193 721.505C355.424 765.844 420.345 793.838 489.128 802.109L488.897 804.029Z" fill="#15C45B"/>
<path d="M480.71 834.277C404.894 822.523 334.021 789.235 276.662 738.439C219.302 687.643 177.912 621.515 157.498 548.051C137.084 474.587 138.52 396.934 161.632 324.482C184.744 252.031 228.542 187.884 287.73 139.8C346.918 91.7154 418.961 61.7525 495.146 53.5346C571.331 45.3168 648.396 59.1959 717.02 93.4936C785.645 127.791 842.89 181.039 881.833 246.796C920.776 312.554 939.75 388.005 936.458 464.026L936.046 464.007C939.333 388.065 920.38 312.692 881.477 247.003C842.574 181.314 785.389 128.122 716.836 93.8597C648.283 59.5977 571.298 45.733 495.193 53.9424C419.087 62.1517 347.119 92.0833 287.993 140.118C228.866 188.152 185.114 252.232 162.026 324.608C138.938 396.984 137.504 474.556 157.897 547.943C178.289 621.331 219.636 687.391 276.936 738.134C334.236 788.877 405.035 822.13 480.772 833.872L480.71 834.277Z" fill="#15C45B"/>
<path d="M475.903 859.116C392.74 845.872 314.851 809.474 251.787 754.387C188.723 699.299 143.224 627.915 120.868 548.987C98.5121 470.058 100.271 387.015 125.929 310.039C151.587 233.063 200.029 165.499 265.316 115.631C330.603 65.7626 409.898 35.7571 493.479 29.2931C577.06 22.8291 661.294 40.1875 735.855 79.2402C810.416 118.293 872.063 177.343 913.238 249.15C954.413 320.957 973.326 402.401 967.66 483.497L967.211 483.458C972.872 402.447 953.978 321.088 912.846 249.355C871.714 177.623 810.131 118.634 735.648 79.6224C661.165 40.6103 577.018 23.27 493.524 29.7273C410.03 36.1846 330.818 66.1589 265.599 115.975C200.38 165.792 151.988 233.285 126.357 310.181C100.726 387.077 98.9686 470.033 121.301 548.88C143.634 627.726 189.086 699.036 252.084 754.066C315.083 809.096 392.89 845.456 475.967 858.687L475.903 859.116Z" fill="#15C45B"/>
<g filter="url(#filter0_d_65_3)">
<path d="M255.065 191.254L284.547 200.734L258.404 233.148L255.065 191.254Z" fill="#7E6AB5"/>
</g>
<g filter="url(#filter1_d_65_3)">
<path d="M117.065 270.254L146.548 279.734L120.405 312.148L117.065 270.254Z" fill="#15C45B"/>
</g>
<g filter="url(#filter2_d_65_3)">
<path d="M841.527 256.564L860.631 262.706L843.691 283.71L841.527 256.564Z" fill="#D0D5FF"/>
</g>
<g filter="url(#filter3_d_65_3)">
<path d="M355.861 769.667L380.584 751.016L392.04 791.053L355.861 769.667Z" fill="#D0D5FF"/>
</g>
<g filter="url(#filter4_d_65_3)">
<circle cx="145" cy="379.611" r="14" fill="#939EE9"/>
</g>
<g filter="url(#filter5_d_65_3)">
<circle cx="442" cy="826" r="14" fill="#15C45B"/>
</g>
<g filter="url(#filter6_d_65_3)">
<circle cx="936" cy="408.611" r="14" fill="#939EE9"/>
</g>
<g filter="url(#filter7_d_65_3)">
<circle cx="839.5" cy="153.111" r="7.5" fill="#84D0FF"/>
</g>
<g filter="url(#filter8_d_65_3)">
<circle cx="196.5" cy="574.111" r="7.5" fill="#84D0FF"/>
</g>
<g filter="url(#filter9_d_65_3)">
<circle cx="110.5" cy="499.5" r="7.5" fill="#15C45B"/>
</g>
<g filter="url(#filter10_d_65_3)">
<circle cx="163.5" cy="654.111" r="12.5" fill="#84D0FF"/>
</g>
<g filter="url(#filter11_d_65_3)">
<circle cx="330.5" cy="73.1113" r="12.5" fill="#84D0FF"/>
</g>
<defs>
<filter id="filter0_d_65_3" x="250.065" y="185.254" width="49.4824" height="61.8941" filterUnits="userSpaceOnUse" color-interpolation-filters="sRGB">
<feFlood flood-opacity="0" result="BackgroundImageFix"/>
<feColorMatrix in="SourceAlpha" type="matrix" values="0 0 0 0 0 0 0 0 0 0 0 0 0 0 0 0 0 0 127 0" result="hardAlpha"/>
<feOffset dx="5" dy="4"/>
<feGaussianBlur stdDeviation="5"/>
<feComposite in2="hardAlpha" operator="out"/>
<feColorMatrix type="matrix" values="0 0 0 0 0 0 0 0 0 0 0 0 0 0 0 0 0 0 0.25 0"/>
<feBlend mode="normal" in2="BackgroundImageFix" result="effect1_dropShadow_65_3"/>
<feBlend mode="normal" in="SourceGraphic" in2="effect1_dropShadow_65_3" result="shape"/>
</filter>
<filter id="filter1_d_65_3" x="112.065" y="264.254" width="49.4824" height="61.8941" filterUnits="userSpaceOnUse" color-interpolation-filters="sRGB">
<feFlood flood-opacity="0" result="BackgroundImageFix"/>
<feColorMatrix in="SourceAlpha" type="matrix" values="0 0 0 0 0 0 0 0 0 0 0 0 0 0 0 0 0 0 127 0" result="hardAlpha"/>
<feOffset dx="5" dy="4"/>
<feGaussianBlur stdDeviation="5"/>
<feComposite in2="hardAlpha" operator="out"/>
<feColorMatrix type="matrix" values="0 0 0 0 0 0 0 0 0 0 0 0 0 0 0 0 0 0 0.25 0"/>
<feBlend mode="normal" in2="BackgroundImageFix" result="effect1_dropShadow_65_3"/>
<feBlend mode="normal" in="SourceGraphic" in2="effect1_dropShadow_65_3" result="shape"/>
</filter>
<filter id="filter2_d_65_3" x="836.527" y="250.564" width="39.1035" height="47.1458" filterUnits="userSpaceOnUse" color-interpolation-filters="sRGB">
<feFlood flood-opacity="0" result="BackgroundImageFix"/>
<feColorMatrix in="SourceAlpha" type="matrix" values="0 0 0 0 0 0 0 0 0 0 0 0 0 0 0 0 0 0 127 0" result="hardAlpha"/>
<feOffset dx="5" dy="4"/>
<feGaussianBlur stdDeviation="5"/>
<feComposite in2="hardAlpha" operator="out"/>
<feColorMatrix type="matrix" values="0 0 0 0 0 0 0 0 0 0 0 0 0 0 0 0 0 0 0.25 0"/>
<feBlend mode="normal" in2="BackgroundImageFix" result="effect1_dropShadow_65_3"/>
<feBlend mode="normal" in="SourceGraphic" in2="effect1_dropShadow_65_3" result="shape"/>
</filter>
<filter id="filter3_d_65_3" x="350.861" y="745.016" width="56.1791" height="60.0367" filterUnits="userSpaceOnUse" color-interpolation-filters="sRGB">
<feFlood flood-opacity="0" result="BackgroundImageFix"/>
<feColorMatrix in="SourceAlpha" type="matrix" values="0 0 0 0 0 0 0 0 0 0 0 0 0 0 0 0 0 0 127 0" result="hardAlpha"/>
<feOffset dx="5" dy="4"/>
<feGaussianBlur stdDeviation="5"/>
<feComposite in2="hardAlpha" operator="out"/>
<feColorMatrix type="matrix" values="0 0 0 0 0 0 0 0 0 0 0 0 0 0 0 0 0 0 0.25 0"/>
<feBlend mode="normal" in2="BackgroundImageFix" result="effect1_dropShadow_65_3"/>
<feBlend mode="normal" in="SourceGraphic" in2="effect1_dropShadow_65_3" result="shape"/>
</filter>
<filter id="filter4_d_65_3" x="129" y="363.611" width="48" height="48" filterUnits="userSpaceOnUse" color-interpolation-filters="sRGB">
<feFlood flood-opacity="0" result="BackgroundImageFix"/>
<feColorMatrix in="SourceAlpha" type="matrix" values="0 0 0 0 0 0 0 0 0 0 0 0 0 0 0 0 0 0 127 0" result="hardAlpha"/>
<feOffset dx="8" dy="8"/>
<feGaussianBlur stdDeviation="5"/>
<feComposite in2="hardAlpha" operator="out"/>
<feColorMatrix type="matrix" values="0 0 0 0 0 0 0 0 0 0 0 0 0 0 0 0 0 0 0.25 0"/>
<feBlend mode="normal" in2="BackgroundImageFix" result="effect1_dropShadow_65_3"/>
<feBlend mode="normal" in="SourceGraphic" in2="effect1_dropShadow_65_3" result="shape"/>
</filter>
<filter id="filter5_d_65_3" x="426" y="810" width="48" height="48" filterUnits="userSpaceOnUse" color-interpolation-filters="sRGB">
<feFlood flood-opacity="0" result="BackgroundImageFix"/>
<feColorMatrix in="SourceAlpha" type="matrix" values="0 0 0 0 0 0 0 0 0 0 0 0 0 0 0 0 0 0 127 0" result="hardAlpha"/>
<feOffset dx="8" dy="8"/>
<feGaussianBlur stdDeviation="5"/>
<feComposite in2="hardAlpha" operator="out"/>
<feColorMatrix type="matrix" values="0 0 0 0 0 0 0 0 0 0 0 0 0 0 0 0 0 0 0.25 0"/>
<feBlend mode="normal" in2="BackgroundImageFix" result="effect1_dropShadow_65_3"/>
<feBlend mode="normal" in="SourceGraphic" in2="effect1_dropShadow_65_3" result="shape"/>
</filter>
<filter id="filter6_d_65_3" x="920" y="392.611" width="48" height="48" filterUnits="userSpaceOnUse" color-interpolation-filters="sRGB">
<feFlood flood-opacity="0" result="BackgroundImageFix"/>
<feColorMatrix in="SourceAlpha" type="matrix" values="0 0 0 0 0 0 0 0 0 0 0 0 0 0 0 0 0 0 127 0" result="hardAlpha"/>
<feOffset dx="8" dy="8"/>
<feGaussianBlur stdDeviation="5"/>
<feComposite in2="hardAlpha" operator="out"/>
<feColorMatrix type="matrix" values="0 0 0 0 0 0 0 0 0 0 0 0 0 0 0 0 0 0 0.25 0"/>
<feBlend mode="normal" in2="BackgroundImageFix" result="effect1_dropShadow_65_3"/>
<feBlend mode="normal" in="SourceGraphic" in2="effect1_dropShadow_65_3" result="shape"/>
</filter>
<filter id="filter7_d_65_3" x="830" y="143.611" width="35" height="35" filterUnits="userSpaceOnUse" color-interpolation-filters="sRGB">
<feFlood flood-opacity="0" result="BackgroundImageFix"/>
<feColorMatrix in="SourceAlpha" type="matrix" values="0 0 0 0 0 0 0 0 0 0 0 0 0 0 0 0 0 0 127 0" result="hardAlpha"/>
<feOffset dx="8" dy="8"/>
<feGaussianBlur stdDeviation="5"/>
<feComposite in2="hardAlpha" operator="out"/>
<feColorMatrix type="matrix" values="0 0 0 0 0 0 0 0 0 0 0 0 0 0 0 0 0 0 0.25 0"/>
<feBlend mode="normal" in2="BackgroundImageFix" result="effect1_dropShadow_65_3"/>
<feBlend mode="normal" in="SourceGraphic" in2="effect1_dropShadow_65_3" result="shape"/>
</filter>
<filter id="filter8_d_65_3" x="187" y="564.611" width="35" height="35" filterUnits="userSpaceOnUse" color-interpolation-filters="sRGB">
<feFlood flood-opacity="0" result="BackgroundImageFix"/>
<feColorMatrix in="SourceAlpha" type="matrix" values="0 0 0 0 0 0 0 0 0 0 0 0 0 0 0 0 0 0 127 0" result="hardAlpha"/>
<feOffset dx="8" dy="8"/>
<feGaussianBlur stdDeviation="5"/>
<feComposite in2="hardAlpha" operator="out"/>
<feColorMatrix type="matrix" values="0 0 0 0 0 0 0 0 0 0 0 0 0 0 0 0 0 0 0.25 0"/>
<feBlend mode="normal" in2="BackgroundImageFix" result="effect1_dropShadow_65_3"/>
<feBlend mode="normal" in="SourceGraphic" in2="effect1_dropShadow_65_3" result="shape"/>
</filter>
<filter id="filter9_d_65_3" x="101" y="490" width="35" height="35" filterUnits="userSpaceOnUse" color-interpolation-filters="sRGB">
<feFlood flood-opacity="0" result="BackgroundImageFix"/>
<feColorMatrix in="SourceAlpha" type="matrix" values="0 0 0 0 0 0 0 0 0 0 0 0 0 0 0 0 0 0 127 0" result="hardAlpha"/>
<feOffset dx="8" dy="8"/>
<feGaussianBlur stdDeviation="5"/>
<feComposite in2="hardAlpha" operator="out"/>
<feColorMatrix type="matrix" values="0 0 0 0 0 0 0 0 0 0 0 0 0 0 0 0 0 0 0.25 0"/>
<feBlend mode="normal" in2="BackgroundImageFix" result="effect1_dropShadow_65_3"/>
<feBlend mode="normal" in="SourceGraphic" in2="effect1_dropShadow_65_3" result="shape"/>
</filter>
<filter id="filter10_d_65_3" x="149" y="639.611" width="45" height="45" filterUnits="userSpaceOnUse" color-interpolation-filters="sRGB">
<feFlood flood-opacity="0" result="BackgroundImageFix"/>
<feColorMatrix in="SourceAlpha" type="matrix" values="0 0 0 0 0 0 0 0 0 0 0 0 0 0 0 0 0 0 127 0" result="hardAlpha"/>
<feOffset dx="8" dy="8"/>
<feGaussianBlur stdDeviation="5"/>
<feComposite in2="hardAlpha" operator="out"/>
<feColorMatrix type="matrix" values="0 0 0 0 0 0 0 0 0 0 0 0 0 0 0 0 0 0 0.25 0"/>
<feBlend mode="normal" in2="BackgroundImageFix" result="effect1_dropShadow_65_3"/>
<feBlend mode="normal" in="SourceGraphic" in2="effect1_dropShadow_65_3" result="shape"/>
</filter>
<filter id="filter11_d_65_3" x="316" y="58.6113" width="45" height="45" filterUnits="userSpaceOnUse" color-interpolation-filters="sRGB">
<feFlood flood-opacity="0" result="BackgroundImageFix"/>
<feColorMatrix in="SourceAlpha" type="matrix" values="0 0 0 0 0 0 0 0 0 0 0 0 0 0 0 0 0 0 127 0" result="hardAlpha"/>
<feOffset dx="8" dy="8"/>
<feGaussianBlur stdDeviation="5"/>
<feComposite in2="hardAlpha" operator="out"/>
<feColorMatrix type="matrix" values="0 0 0 0 0 0 0 0 0 0 0 0 0 0 0 0 0 0 0.25 0"/>
<feBlend mode="normal" in2="BackgroundImageFix" result="effect1_dropShadow_65_3"/>
<feBlend mode="normal" in="SourceGraphic" in2="effect1_dropShadow_65_3" result="shape"/>
</filter>
</defs>
</svg>
