<svg width="1074" height="939" viewBox="0 0 1074 939" fill="none" xmlns="http://www.w3.org/2000/svg">
<path d="M402.013 121.264V127.968C402.013 130.743 399.754 133 396.981 133H378.767C375.992 133 373.735 130.743 373.735 127.968V121.264H402.013Z" fill="#58747A"/>
<path d="M457.265 121.264V127.968C457.265 130.743 455.008 133 452.233 133H434.019C431.246 133 428.987 130.743 428.987 127.968V121.264H457.265Z" fill="#58747A"/>
<path opacity="0.13" d="M402.013 121.264V127.968C402.013 130.743 399.754 133 396.981 133H378.767C377.422 133 376.201 132.47 375.298 131.61L394.995 128.635C394.995 128.635 398.591 127.03 398.276 124.202L398.581 121.264H402.013Z" fill="#160204"/>
<path opacity="0.13" d="M457.263 121.264V127.968C457.263 130.743 455.006 133 452.231 133H434.017C432.55 133 431.226 132.367 430.304 131.361L449.283 128.37C449.283 128.37 452.88 126.765 452.565 123.937L452.843 121.264H457.263Z" fill="#160204"/>
<path d="M459.201 26H371.8C366.396 26 362 30.396 362 35.7995V111.465C362 116.869 366.396 121.265 371.8 121.265H459.201C464.604 121.265 469 116.869 469 111.465V35.7995C469 30.3963 464.604 26 459.201 26Z" fill="#77959E"/>
<path d="M455.434 46.8465V100.685C455.434 104.626 452.227 107.836 448.283 107.836H382.733C378.792 107.836 375.582 104.626 375.582 100.685V95.0441H379.205C380.01 95.0441 380.662 94.3899 380.662 93.5875V78.8405C380.662 78.0354 380.01 77.3838 379.205 77.3838H375.582V69.8832H379.205C380.01 69.8832 380.662 69.2291 380.662 68.4266V53.6796C380.662 52.8745 380.01 52.223 379.205 52.223H375.582V46.8465C375.582 42.9028 378.792 39.6955 382.733 39.6955H448.283C452.227 39.6955 455.434 42.9028 455.434 46.8465Z" fill="#58747A"/>
<path d="M417.088 49.2211C403.598 49.2211 392.623 60.1963 392.623 73.6865C392.623 87.1775 403.598 98.1532 417.088 98.1532C430.579 98.1532 441.554 87.1775 441.554 73.6865C441.554 60.1963 430.579 49.2211 417.088 49.2211ZM421.276 76.5885V84.9663C421.23 85.2311 421.011 85.2311 421.011 85.2311H413.167C413.02 85.2311 412.902 85.1125 412.902 84.9663V76.5885C410.553 75.1392 409.1 72.5469 409.1 69.7858C409.1 65.3808 412.684 61.7971 417.089 61.7971C421.494 61.7973 425.077 65.381 425.077 69.7858C425.077 72.5469 423.624 75.139 421.276 76.5885Z" fill="#FFCB5A"/>
<path d="M379.205 52.2221H371.959C371.155 52.2221 370.502 52.8742 370.502 53.6788V68.4255C370.502 69.2301 371.155 69.8822 371.959 69.8822H379.205C380.009 69.8822 380.662 69.2301 380.662 68.4255V53.6788C380.662 52.8745 380.01 52.2221 379.205 52.2221Z" fill="#FCA72B"/>
<path d="M379.206 77.383H371.96C371.155 77.383 370.503 78.0351 370.503 78.8397V93.5864C370.503 94.391 371.155 95.0431 371.96 95.0431H379.205C380.01 95.0431 380.662 94.391 380.662 93.5864V78.8397C380.662 78.0354 380.01 77.383 379.206 77.383Z" fill="#FCA72B"/>
<path opacity="0.35" d="M455.448 26L376.554 32.608C369.522 32.4518 368.642 39.8941 368.642 39.8941L362 95.3964V35.7995C362 30.3965 366.397 26 371.8 26H455.448Z" fill="white"/>
<path opacity="0.13" d="M469.002 48.5654V111.465C469.002 116.868 464.605 121.264 459.202 121.264H383.362L454.485 114.699C461.514 114.852 462.393 107.413 462.393 107.413L469.002 48.5654Z" fill="#160204"/>
<path opacity="0.13" d="M441.555 73.6866C441.555 87.1781 430.582 98.1535 417.09 98.1535C412.122 98.1535 407.497 96.6651 403.633 94.1092C412.601 96.9591 422.824 94.8349 429.925 87.7343C438.596 79.063 439.849 65.7384 433.683 55.7243C438.522 60.1977 441.555 66.5938 441.555 73.6866Z" fill="#160204"/>
<g filter="url(#filter0_d_60_57)">
<path d="M888.064 175.643L917.547 185.122L891.404 217.537L888.064 175.643Z" fill="#15C45B"/>
</g>
<circle cx="872.5" cy="291.111" r="2.5" fill="#15C45B"/>
<path d="M488.897 770.029C419.744 761.713 354.473 733.569 300.955 688.991C247.438 644.413 207.959 585.305 187.279 518.794C166.599 452.284 165.601 381.21 184.406 314.146C203.211 247.081 241.016 186.888 293.261 140.826C345.507 94.7632 409.962 64.7984 478.855 54.5446C547.748 44.2908 618.135 54.1857 681.531 83.0363C744.926 111.887 798.622 158.461 836.143 217.142C873.664 275.824 893.408 344.107 892.994 413.757L891.06 413.746C891.472 344.468 871.834 276.551 834.514 218.184C797.194 159.817 743.786 113.492 680.73 84.7959C617.674 56.0998 547.663 46.2579 479.14 56.4568C410.616 66.6557 346.506 96.46 294.54 142.276C242.574 188.091 204.972 247.962 186.268 314.668C167.563 381.373 168.556 452.066 189.125 518.22C209.694 584.375 248.962 643.166 302.193 687.505C355.424 731.844 420.345 759.838 489.128 768.109L488.897 770.029Z" fill="#15C45B"/>
<path d="M480.71 800.277C404.894 788.523 334.021 755.235 276.662 704.439C219.302 653.643 177.912 587.515 157.498 514.051C137.084 440.587 138.52 362.934 161.632 290.482C184.744 218.031 228.542 153.884 287.73 105.8C346.918 57.7154 418.961 27.7525 495.146 19.5346C571.331 11.3168 648.396 25.1959 717.02 59.4936C785.645 93.7913 842.89 147.039 881.833 212.796C920.776 278.554 939.75 354.005 936.458 430.026L936.046 430.007C939.333 354.065 920.38 278.692 881.477 213.003C842.574 147.314 785.389 94.1217 716.836 59.8597C648.283 25.5977 571.298 11.733 495.193 19.9424C419.087 28.1517 347.119 58.0833 287.993 106.118C228.866 154.152 185.114 218.232 162.026 290.608C138.938 362.984 137.504 440.556 157.897 513.943C178.289 587.331 219.636 653.391 276.936 704.134C334.236 754.877 405.035 788.13 480.772 799.872L480.71 800.277Z" fill="#15C45B"/>
<path d="M475.903 825.116C392.74 811.872 314.851 775.474 251.787 720.387C188.723 665.299 143.224 593.915 120.868 514.987C98.5121 436.058 100.271 353.015 125.929 276.039C151.587 199.063 200.029 131.499 265.316 81.631C330.603 31.7626 409.898 1.75711 493.479 -4.70691C577.06 -11.1709 661.294 6.18748 735.855 45.2402C810.416 84.2929 872.063 143.343 913.238 215.15C954.413 286.957 973.326 368.401 967.66 449.497L967.211 449.458C972.872 368.447 953.978 287.088 912.846 215.355C871.714 143.623 810.131 84.6344 735.648 45.6224C661.165 6.61034 577.018 -10.73 493.524 -4.27271C410.03 2.18458 330.818 32.1589 265.599 81.9753C200.38 131.792 151.988 199.285 126.357 276.181C100.726 353.077 98.9686 436.033 121.301 514.88C143.634 593.726 189.086 665.036 252.084 720.066C315.083 775.096 392.89 811.456 475.967 824.687L475.903 825.116Z" fill="#15C45B"/>
<g filter="url(#filter1_d_60_57)">
<path d="M756.001 247.39L975.799 459.03L604 632.563L756.001 247.39Z" fill="url(#paint0_linear_60_57)"/>
</g>
<g filter="url(#filter2_d_60_57)">
<path d="M255.065 157.254L284.547 166.734L258.404 199.148L255.065 157.254Z" fill="#7E6AB5"/>
</g>
<g filter="url(#filter3_d_60_57)">
<path d="M117.065 236.254L146.548 245.734L120.405 278.148L117.065 236.254Z" fill="#15C45B"/>
</g>
<g filter="url(#filter4_d_60_57)">
<path d="M841.527 222.564L860.631 228.706L843.691 249.71L841.527 222.564Z" fill="#D0D5FF"/>
</g>
<g filter="url(#filter5_d_60_57)">
<path d="M355.861 735.667L380.584 717.016L392.04 757.053L355.861 735.667Z" fill="#D0D5FF"/>
</g>
<g filter="url(#filter6_d_60_57)">
<circle cx="145" cy="345.611" r="14" fill="#939EE9"/>
</g>
<g filter="url(#filter7_d_60_57)">
<circle cx="442" cy="792" r="14" fill="#15C45B"/>
</g>
<g filter="url(#filter8_d_60_57)">
<circle cx="936" cy="374.611" r="14" fill="#939EE9"/>
</g>
<g filter="url(#filter9_d_60_57)">
<circle cx="839.5" cy="119.111" r="7.5" fill="#84D0FF"/>
</g>
<g filter="url(#filter10_d_60_57)">
<circle cx="196.5" cy="540.111" r="7.5" fill="#84D0FF"/>
</g>
<g filter="url(#filter11_d_60_57)">
<circle cx="110.5" cy="465.5" r="7.5" fill="#15C45B"/>
</g>
<g filter="url(#filter12_d_60_57)">
<circle cx="163.5" cy="620.111" r="12.5" fill="#84D0FF"/>
</g>
<g filter="url(#filter13_d_60_57)">
<circle cx="330.5" cy="39.1113" r="12.5" fill="#84D0FF"/>
</g>
<defs>
<filter id="filter0_d_60_57" x="883.064" y="169.643" width="49.4824" height="61.8941" filterUnits="userSpaceOnUse" color-interpolation-filters="sRGB">
<feFlood flood-opacity="0" result="BackgroundImageFix"/>
<feColorMatrix in="SourceAlpha" type="matrix" values="0 0 0 0 0 0 0 0 0 0 0 0 0 0 0 0 0 0 127 0" result="hardAlpha"/>
<feOffset dx="5" dy="4"/>
<feGaussianBlur stdDeviation="5"/>
<feComposite in2="hardAlpha" operator="out"/>
<feColorMatrix type="matrix" values="0 0 0 0 0 0 0 0 0 0 0 0 0 0 0 0 0 0 0.25 0"/>
<feBlend mode="normal" in2="BackgroundImageFix" result="effect1_dropShadow_60_57"/>
<feBlend mode="normal" in="SourceGraphic" in2="effect1_dropShadow_60_57" result="shape"/>
</filter>
<filter id="filter1_d_60_57" x="599" y="241.39" width="391.799" height="405.172" filterUnits="userSpaceOnUse" color-interpolation-filters="sRGB">
<feFlood flood-opacity="0" result="BackgroundImageFix"/>
<feColorMatrix in="SourceAlpha" type="matrix" values="0 0 0 0 0 0 0 0 0 0 0 0 0 0 0 0 0 0 127 0" result="hardAlpha"/>
<feOffset dx="5" dy="4"/>
<feGaussianBlur stdDeviation="5"/>
<feComposite in2="hardAlpha" operator="out"/>
<feColorMatrix type="matrix" values="0 0 0 0 0 0 0 0 0 0 0 0 0 0 0 0 0 0 0.25 0"/>
<feBlend mode="normal" in2="BackgroundImageFix" result="effect1_dropShadow_60_57"/>
<feBlend mode="normal" in="SourceGraphic" in2="effect1_dropShadow_60_57" result="shape"/>
</filter>
<filter id="filter2_d_60_57" x="250.065" y="151.254" width="49.4824" height="61.8941" filterUnits="userSpaceOnUse" color-interpolation-filters="sRGB">
<feFlood flood-opacity="0" result="BackgroundImageFix"/>
<feColorMatrix in="SourceAlpha" type="matrix" values="0 0 0 0 0 0 0 0 0 0 0 0 0 0 0 0 0 0 127 0" result="hardAlpha"/>
<feOffset dx="5" dy="4"/>
<feGaussianBlur stdDeviation="5"/>
<feComposite in2="hardAlpha" operator="out"/>
<feColorMatrix type="matrix" values="0 0 0 0 0 0 0 0 0 0 0 0 0 0 0 0 0 0 0.25 0"/>
<feBlend mode="normal" in2="BackgroundImageFix" result="effect1_dropShadow_60_57"/>
<feBlend mode="normal" in="SourceGraphic" in2="effect1_dropShadow_60_57" result="shape"/>
</filter>
<filter id="filter3_d_60_57" x="112.065" y="230.254" width="49.4824" height="61.8941" filterUnits="userSpaceOnUse" color-interpolation-filters="sRGB">
<feFlood flood-opacity="0" result="BackgroundImageFix"/>
<feColorMatrix in="SourceAlpha" type="matrix" values="0 0 0 0 0 0 0 0 0 0 0 0 0 0 0 0 0 0 127 0" result="hardAlpha"/>
<feOffset dx="5" dy="4"/>
<feGaussianBlur stdDeviation="5"/>
<feComposite in2="hardAlpha" operator="out"/>
<feColorMatrix type="matrix" values="0 0 0 0 0 0 0 0 0 0 0 0 0 0 0 0 0 0 0.25 0"/>
<feBlend mode="normal" in2="BackgroundImageFix" result="effect1_dropShadow_60_57"/>
<feBlend mode="normal" in="SourceGraphic" in2="effect1_dropShadow_60_57" result="shape"/>
</filter>
<filter id="filter4_d_60_57" x="836.527" y="216.564" width="39.1035" height="47.1458" filterUnits="userSpaceOnUse" color-interpolation-filters="sRGB">
<feFlood flood-opacity="0" result="BackgroundImageFix"/>
<feColorMatrix in="SourceAlpha" type="matrix" values="0 0 0 0 0 0 0 0 0 0 0 0 0 0 0 0 0 0 127 0" result="hardAlpha"/>
<feOffset dx="5" dy="4"/>
<feGaussianBlur stdDeviation="5"/>
<feComposite in2="hardAlpha" operator="out"/>
<feColorMatrix type="matrix" values="0 0 0 0 0 0 0 0 0 0 0 0 0 0 0 0 0 0 0.25 0"/>
<feBlend mode="normal" in2="BackgroundImageFix" result="effect1_dropShadow_60_57"/>
<feBlend mode="normal" in="SourceGraphic" in2="effect1_dropShadow_60_57" result="shape"/>
</filter>
<filter id="filter5_d_60_57" x="350.861" y="711.016" width="56.1791" height="60.0367" filterUnits="userSpaceOnUse" color-interpolation-filters="sRGB">
<feFlood flood-opacity="0" result="BackgroundImageFix"/>
<feColorMatrix in="SourceAlpha" type="matrix" values="0 0 0 0 0 0 0 0 0 0 0 0 0 0 0 0 0 0 127 0" result="hardAlpha"/>
<feOffset dx="5" dy="4"/>
<feGaussianBlur stdDeviation="5"/>
<feComposite in2="hardAlpha" operator="out"/>
<feColorMatrix type="matrix" values="0 0 0 0 0 0 0 0 0 0 0 0 0 0 0 0 0 0 0.25 0"/>
<feBlend mode="normal" in2="BackgroundImageFix" result="effect1_dropShadow_60_57"/>
<feBlend mode="normal" in="SourceGraphic" in2="effect1_dropShadow_60_57" result="shape"/>
</filter>
<filter id="filter6_d_60_57" x="129" y="329.611" width="48" height="48" filterUnits="userSpaceOnUse" color-interpolation-filters="sRGB">
<feFlood flood-opacity="0" result="BackgroundImageFix"/>
<feColorMatrix in="SourceAlpha" type="matrix" values="0 0 0 0 0 0 0 0 0 0 0 0 0 0 0 0 0 0 127 0" result="hardAlpha"/>
<feOffset dx="8" dy="8"/>
<feGaussianBlur stdDeviation="5"/>
<feComposite in2="hardAlpha" operator="out"/>
<feColorMatrix type="matrix" values="0 0 0 0 0 0 0 0 0 0 0 0 0 0 0 0 0 0 0.25 0"/>
<feBlend mode="normal" in2="BackgroundImageFix" result="effect1_dropShadow_60_57"/>
<feBlend mode="normal" in="SourceGraphic" in2="effect1_dropShadow_60_57" result="shape"/>
</filter>
<filter id="filter7_d_60_57" x="426" y="776" width="48" height="48" filterUnits="userSpaceOnUse" color-interpolation-filters="sRGB">
<feFlood flood-opacity="0" result="BackgroundImageFix"/>
<feColorMatrix in="SourceAlpha" type="matrix" values="0 0 0 0 0 0 0 0 0 0 0 0 0 0 0 0 0 0 127 0" result="hardAlpha"/>
<feOffset dx="8" dy="8"/>
<feGaussianBlur stdDeviation="5"/>
<feComposite in2="hardAlpha" operator="out"/>
<feColorMatrix type="matrix" values="0 0 0 0 0 0 0 0 0 0 0 0 0 0 0 0 0 0 0.25 0"/>
<feBlend mode="normal" in2="BackgroundImageFix" result="effect1_dropShadow_60_57"/>
<feBlend mode="normal" in="SourceGraphic" in2="effect1_dropShadow_60_57" result="shape"/>
</filter>
<filter id="filter8_d_60_57" x="920" y="358.611" width="48" height="48" filterUnits="userSpaceOnUse" color-interpolation-filters="sRGB">
<feFlood flood-opacity="0" result="BackgroundImageFix"/>
<feColorMatrix in="SourceAlpha" type="matrix" values="0 0 0 0 0 0 0 0 0 0 0 0 0 0 0 0 0 0 127 0" result="hardAlpha"/>
<feOffset dx="8" dy="8"/>
<feGaussianBlur stdDeviation="5"/>
<feComposite in2="hardAlpha" operator="out"/>
<feColorMatrix type="matrix" values="0 0 0 0 0 0 0 0 0 0 0 0 0 0 0 0 0 0 0.25 0"/>
<feBlend mode="normal" in2="BackgroundImageFix" result="effect1_dropShadow_60_57"/>
<feBlend mode="normal" in="SourceGraphic" in2="effect1_dropShadow_60_57" result="shape"/>
</filter>
<filter id="filter9_d_60_57" x="830" y="109.611" width="35" height="35" filterUnits="userSpaceOnUse" color-interpolation-filters="sRGB">
<feFlood flood-opacity="0" result="BackgroundImageFix"/>
<feColorMatrix in="SourceAlpha" type="matrix" values="0 0 0 0 0 0 0 0 0 0 0 0 0 0 0 0 0 0 127 0" result="hardAlpha"/>
<feOffset dx="8" dy="8"/>
<feGaussianBlur stdDeviation="5"/>
<feComposite in2="hardAlpha" operator="out"/>
<feColorMatrix type="matrix" values="0 0 0 0 0 0 0 0 0 0 0 0 0 0 0 0 0 0 0.25 0"/>
<feBlend mode="normal" in2="BackgroundImageFix" result="effect1_dropShadow_60_57"/>
<feBlend mode="normal" in="SourceGraphic" in2="effect1_dropShadow_60_57" result="shape"/>
</filter>
<filter id="filter10_d_60_57" x="187" y="530.611" width="35" height="35" filterUnits="userSpaceOnUse" color-interpolation-filters="sRGB">
<feFlood flood-opacity="0" result="BackgroundImageFix"/>
<feColorMatrix in="SourceAlpha" type="matrix" values="0 0 0 0 0 0 0 0 0 0 0 0 0 0 0 0 0 0 127 0" result="hardAlpha"/>
<feOffset dx="8" dy="8"/>
<feGaussianBlur stdDeviation="5"/>
<feComposite in2="hardAlpha" operator="out"/>
<feColorMatrix type="matrix" values="0 0 0 0 0 0 0 0 0 0 0 0 0 0 0 0 0 0 0.25 0"/>
<feBlend mode="normal" in2="BackgroundImageFix" result="effect1_dropShadow_60_57"/>
<feBlend mode="normal" in="SourceGraphic" in2="effect1_dropShadow_60_57" result="shape"/>
</filter>
<filter id="filter11_d_60_57" x="101" y="456" width="35" height="35" filterUnits="userSpaceOnUse" color-interpolation-filters="sRGB">
<feFlood flood-opacity="0" result="BackgroundImageFix"/>
<feColorMatrix in="SourceAlpha" type="matrix" values="0 0 0 0 0 0 0 0 0 0 0 0 0 0 0 0 0 0 127 0" result="hardAlpha"/>
<feOffset dx="8" dy="8"/>
<feGaussianBlur stdDeviation="5"/>
<feComposite in2="hardAlpha" operator="out"/>
<feColorMatrix type="matrix" values="0 0 0 0 0 0 0 0 0 0 0 0 0 0 0 0 0 0 0.25 0"/>
<feBlend mode="normal" in2="BackgroundImageFix" result="effect1_dropShadow_60_57"/>
<feBlend mode="normal" in="SourceGraphic" in2="effect1_dropShadow_60_57" result="shape"/>
</filter>
<filter id="filter12_d_60_57" x="149" y="605.611" width="45" height="45" filterUnits="userSpaceOnUse" color-interpolation-filters="sRGB">
<feFlood flood-opacity="0" result="BackgroundImageFix"/>
<feColorMatrix in="SourceAlpha" type="matrix" values="0 0 0 0 0 0 0 0 0 0 0 0 0 0 0 0 0 0 127 0" result="hardAlpha"/>
<feOffset dx="8" dy="8"/>
<feGaussianBlur stdDeviation="5"/>
<feComposite in2="hardAlpha" operator="out"/>
<feColorMatrix type="matrix" values="0 0 0 0 0 0 0 0 0 0 0 0 0 0 0 0 0 0 0.25 0"/>
<feBlend mode="normal" in2="BackgroundImageFix" result="effect1_dropShadow_60_57"/>
<feBlend mode="normal" in="SourceGraphic" in2="effect1_dropShadow_60_57" result="shape"/>
</filter>
<filter id="filter13_d_60_57" x="316" y="24.6113" width="45" height="45" filterUnits="userSpaceOnUse" color-interpolation-filters="sRGB">
<feFlood flood-opacity="0" result="BackgroundImageFix"/>
<feColorMatrix in="SourceAlpha" type="matrix" values="0 0 0 0 0 0 0 0 0 0 0 0 0 0 0 0 0 0 127 0" result="hardAlpha"/>
<feOffset dx="8" dy="8"/>
<feGaussianBlur stdDeviation="5"/>
<feComposite in2="hardAlpha" operator="out"/>
<feColorMatrix type="matrix" values="0 0 0 0 0 0 0 0 0 0 0 0 0 0 0 0 0 0 0.25 0"/>
<feBlend mode="normal" in2="BackgroundImageFix" result="effect1_dropShadow_60_57"/>
<feBlend mode="normal" in="SourceGraphic" in2="effect1_dropShadow_60_57" result="shape"/>
</filter>
<linearGradient id="paint0_linear_60_57" x1="832.564" y1="258.771" x2="773.263" y2="657.722" gradientUnits="userSpaceOnUse">
<stop stop-color="#ACB6E5"/>
<stop offset="1" stop-color="#86FDE8"/>
</linearGradient>
</defs>
</svg>
