<svg width="43" height="44" viewBox="0 0 43 44" fill="none" xmlns="http://www.w3.org/2000/svg">
<circle cx="21.501" cy="22.1113" r="21.5" fill="#15C45B"/>
<path d="M20.9985 43.6113C16.5843 43.5037 12.3274 41.9368 8.88261 39.1516C8.59668 38.9217 8.36813 38.6275 8.21528 38.2924C8.06244 37.9574 7.98954 37.591 8.00243 37.2225C8.01533 36.8539 8.11365 36.4936 8.28953 36.1703C8.46541 35.8469 8.71396 35.5697 9.01525 35.3606C11.8414 33.4883 17.4275 32.4338 18.5651 32.1201C18.6109 32.1151 18.6571 32.1151 18.7028 32.1201V30.3814C17.6264 29.4041 16.3562 27.717 15.1319 24.821C15.1319 24.821 13.9228 21.102 14.7748 20.958C12.7852 9.69826 30.6453 9.96059 28.2425 20.958C29.0944 21.102 27.8854 24.821 27.8854 24.821C26.656 27.7375 25.3755 29.4504 24.3144 30.402V32.0943C24.3681 32.0949 24.4214 32.1036 24.4726 32.1201C25.5898 32.4338 31.2013 33.4883 33.9867 35.3452C34.288 35.5542 34.5365 35.8315 34.7124 36.1548C34.8883 36.4781 34.9866 36.8385 34.9995 37.207C35.0124 37.5756 34.9395 37.942 34.7867 38.277C34.6338 38.612 34.4053 38.9063 34.1193 39.1362C30.6807 41.9238 26.4295 43.496 22.0188 43.6113" fill="white"/>
</svg>
