<svg width="20" height="29" viewBox="0 0 20 29" fill="none" xmlns="http://www.w3.org/2000/svg">
<path d="M15.7501 2.9446C15.6696 2.9446 15.5868 2.9271 15.5086 2.8921C13.8846 2.15243 12.0039 1.77793 9.91677 1.77793C7.8156 1.77793 5.93493 2.15243 4.32727 2.89093C4.03443 3.0251 3.68793 2.89793 3.55377 2.6051C3.4196 2.31227 3.54793 1.96577 3.8396 1.8316C5.60127 1.02193 7.64527 0.611267 9.91677 0.611267C12.1719 0.611267 14.2159 1.02193 15.9916 1.83043C16.2844 1.96343 16.4139 2.30993 16.2809 2.60277C16.1841 2.8186 15.9718 2.9446 15.7501 2.9446Z" fill="white"/>
<path d="M1.75007 7.61125C1.60307 7.61125 1.4549 7.55525 1.34057 7.44208C1.1119 7.21691 1.10957 6.84708 1.3359 6.61725C3.7089 4.21508 6.67574 2.94458 9.9144 2.94458C13.1659 2.94458 16.1351 4.21508 18.4999 6.61841C18.7262 6.84708 18.7227 7.21808 18.4929 7.44325C18.2631 7.66841 17.8932 7.66491 17.6681 7.43625C15.5272 5.26041 12.8451 4.11125 9.9144 4.11125C6.99424 4.11125 4.31557 5.26158 2.1654 7.43858C2.05107 7.55291 1.90057 7.61125 1.75007 7.61125Z" fill="white"/>
<path d="M19.2477 15.778C18.9257 15.778 18.6644 15.5166 18.6644 15.1946C18.6644 10.3693 14.7397 6.44462 9.9144 6.44462C9.1794 6.44462 8.44906 6.53562 7.74673 6.71412C7.43173 6.79462 7.11556 6.60679 7.03623 6.29295C6.9569 5.98145 7.14473 5.66412 7.4574 5.58479C8.2554 5.38062 9.0814 5.27795 9.9144 5.27795C15.3826 5.27795 19.8311 9.72645 19.8311 15.1946C19.8311 15.5166 19.5697 15.778 19.2477 15.778Z" fill="white"/>
<path d="M0.58343 15.7779C0.581097 15.7779 0.577597 15.7779 0.574097 15.7779C0.252097 15.7721 -0.00573627 15.5084 9.70637e-05 15.1853C0.0420971 12.5264 1.06526 10.0519 2.88176 8.21561C3.4966 7.59261 4.18843 7.05478 4.9351 6.61728C5.2116 6.45511 5.56976 6.54728 5.7331 6.82611C5.89526 7.10378 5.80193 7.46195 5.52426 7.62528C4.86626 8.01028 4.2561 8.48511 3.71126 9.03695C2.1071 10.6574 1.2041 12.8484 1.16676 15.2039C1.1621 15.5224 0.90193 15.7779 0.58343 15.7779Z" fill="white"/>
<path d="M1.42227 21.0279C1.32544 21.0279 1.22744 21.0034 1.13644 20.9533C0.855274 20.7958 0.756107 20.4399 0.913607 20.1588L1.24144 19.5754C1.94377 18.1288 2.33577 16.6238 2.33227 15.3696C2.33227 13.2439 3.11627 11.2979 4.54077 9.8571C5.97111 8.40927 7.87977 7.61127 9.91444 7.61127C12.1043 7.61127 14.1879 8.55977 15.6311 10.2153C15.8423 10.4591 15.8178 10.8266 15.5751 11.0389C15.3324 11.2489 14.9649 11.2256 14.7514 10.9829C13.5299 9.5806 11.7659 8.77793 9.91444 8.77793C8.19477 8.77793 6.58127 9.45227 5.37027 10.6773C4.16394 11.8976 3.49894 13.5531 3.49894 15.3381C3.50361 16.8151 3.08011 18.4578 2.27511 20.1168L1.93094 20.7304C1.82361 20.9206 1.62644 21.0279 1.42227 21.0279Z" fill="white"/>
<path d="M18.0228 22.6729C17.7731 22.6729 17.5409 22.5108 17.4639 22.2599L16.7966 20.0619C16.3906 18.2174 16.3568 16.5339 16.3369 15.5271L16.3299 15.2098C16.3299 14.4631 16.2074 13.7444 15.9648 13.0596C15.8574 12.7551 16.0161 12.4226 16.3194 12.3141C16.6239 12.2079 16.9576 12.3666 17.0638 12.6699C17.3508 13.4796 17.4966 14.3301 17.4966 15.1946L17.5036 15.5049C17.5234 16.4674 17.5549 18.0798 17.9248 19.7668L18.5816 21.9204C18.6749 22.2296 18.5011 22.5551 18.1931 22.6484C18.1359 22.6648 18.0788 22.6729 18.0228 22.6729Z" fill="white"/>
<path d="M16.3218 25.3702C16.0733 25.3702 15.8423 25.2104 15.7641 24.9596L15.2251 23.2282C14.2544 20.1984 14.0386 16.9037 13.9966 15.2097C13.9966 12.9441 12.1649 11.1112 9.91325 11.1112C7.66275 11.1112 5.83225 12.9802 5.83225 15.2762C5.83575 16.2399 5.64559 19.6267 3.04975 23.3706C2.86542 23.6342 2.50025 23.6984 2.23775 23.5176C1.97292 23.3344 1.90642 22.9704 2.09075 22.7056C4.55359 19.1531 4.66675 15.9097 4.66559 15.2961C4.66559 12.3362 7.01992 9.94458 9.91442 9.94458C12.8089 9.94458 15.1644 12.3001 15.1644 15.1946C15.1971 16.4931 15.3768 19.8741 16.3381 22.8771L16.8794 24.6131C16.9751 24.9211 16.8036 25.2477 16.4956 25.3434C16.4373 25.3621 16.3801 25.3702 16.3218 25.3702Z" fill="white"/>
<path d="M7.59158 28.6113C7.46791 28.6113 7.34308 28.5716 7.23574 28.4899C6.98024 28.2928 6.93358 27.9276 7.12958 27.6721C11.6842 21.7548 11.6796 15.8608 11.6644 15.2074C11.6644 14.2286 10.8781 13.4434 9.91324 13.4434C8.94841 13.4434 8.16324 14.2286 8.16324 15.1934C8.17024 15.3813 8.31258 20.3711 4.35408 25.5231C4.15808 25.7786 3.79291 25.8264 3.53624 25.6304C3.28074 25.4344 3.23291 25.0681 3.42891 24.8126C7.13308 19.9908 7.00474 15.4081 6.99774 15.2144C6.99774 13.5846 8.30558 12.2756 9.91441 12.2756C11.5232 12.2756 12.8311 13.5834 12.8311 15.1923C12.8486 15.8713 12.8614 22.1374 8.05474 28.3814C7.94041 28.5331 7.76658 28.6113 7.59158 28.6113Z" fill="white"/>
<path d="M9.72314 18.109C9.6928 18.109 9.6613 18.1066 9.6298 18.102C9.31247 18.0506 9.09547 17.7508 9.1468 17.4335C9.3638 16.0813 9.33113 15.2285 9.33113 15.2203C9.31713 14.8995 9.5668 14.6265 9.8888 14.6125C10.2201 14.623 10.4826 14.8458 10.4966 15.169C10.4978 15.2075 10.5375 16.1373 10.2995 17.619C10.2528 17.9048 10.0055 18.109 9.72314 18.109Z" fill="white"/>
<path d="M5.47759 27.5064C5.35042 27.5064 5.22092 27.4644 5.11359 27.3792C4.86159 27.1774 4.82076 26.8111 5.02142 26.5591C6.68276 24.4812 7.89492 22.1771 8.62526 19.7131C8.71742 19.4039 9.04292 19.2312 9.35092 19.3187C9.66009 19.4097 9.83626 19.7341 9.74409 20.0432C8.97059 22.6531 7.68842 25.0902 5.93259 27.2882C5.81826 27.4306 5.64909 27.5064 5.47759 27.5064Z" fill="white"/>
<path d="M10.352 28.6112C10.2446 28.6112 10.1361 28.5821 10.0393 28.5202C9.76745 28.3487 9.68695 27.9871 9.85962 27.7152C11.3495 25.3702 12.6491 22.3159 12.662 22.2856C12.7576 22.0592 12.9746 21.9029 13.2325 21.9309C13.4786 21.9449 13.6886 22.1117 13.7586 22.3486C13.7598 22.3509 14.0211 23.2376 14.3011 24.0741L15.0035 26.3106C15.1003 26.6174 14.9288 26.9452 14.622 27.0421C14.3128 27.1401 13.9861 26.9662 13.8905 26.6594L13.1916 24.4346C13.1601 24.3424 13.1298 24.2479 13.0983 24.1546C12.564 25.2909 11.7461 26.9219 10.8431 28.3429C10.7335 28.5156 10.5445 28.6112 10.352 28.6112Z" fill="white"/>
</svg>
