<svg width="160" height="177" viewBox="0 0 160 177" fill="none" xmlns="http://www.w3.org/2000/svg">
<path d="M10.7069 172.938L10.7457 172.916C10.8076 172.892 10.8703 172.872 10.9322 172.846L60.6901 144.181C63.6111 142.253 65.3625 138.981 65.3493 135.481L65.313 6.57426C65.2973 6.33985 65.261 6.11535 65.2156 5.89745C64.5553 1.11769 58.8644 -1.54827 54.5072 0.962524L54.4337 1.00874C54.3834 1.03516 54.3355 1.05497 54.2843 1.08303L4.57435 29.7649C1.70369 31.6657 -0.0163898 34.8838 0.00011775 38.3265L0.0942219 166.777C0.0950473 167.023 0.121423 167.254 0.160216 167.48C0.496969 172.549 6.21194 175.53 10.7069 172.938Z" fill="#1B0044"/>
<path d="M1.19543 53.6183L1.20037 51.6862C1.19955 51.1257 1.6527 50.9342 2.21396 51.2561C2.77356 51.5788 3.22835 52.2936 3.22835 52.8541L3.22341 54.7863C3.22424 55.3467 2.77026 55.5382 2.20983 55.2163C1.65022 54.8936 1.19543 54.178 1.19543 53.6183Z" fill="#88119B"/>
<path d="M3.2181 52.8473C3.21728 52.2869 2.76241 51.5721 2.20281 51.2494C2.06992 51.1718 1.93793 51.1446 1.82155 51.1248C1.79927 51.1957 1.78851 51.2543 1.78851 51.346L1.78357 53.2782C1.78439 53.8386 2.23916 54.5534 2.79877 54.8761C2.93165 54.9537 3.05798 54.9982 3.17518 55.0197C3.19747 54.9487 3.21307 54.8711 3.21307 54.7803L3.2181 52.8473Z" fill="#4D00AD"/>
<path d="M0.460471 54.0904C0.538057 53.5308 1.01847 53.3385 1.5335 53.6604C2.04854 53.9831 2.40342 54.6979 2.32583 55.2583C2.24824 55.8187 1.76794 56.0102 1.2529 55.6883C0.737866 55.3656 0.382886 54.6508 0.460471 54.0904Z" fill="#FF3E6F"/>
<path d="M1.51288 53.6743C2.02791 53.997 2.38279 54.7126 2.30521 55.2722C2.27219 55.5108 2.16324 55.6767 2.01302 55.7708L2.01473 55.7732L2.93744 55.3787C3.10169 55.2896 3.17763 55.1435 3.21229 54.8909C3.28988 54.3305 2.9358 53.6157 2.42077 53.293C2.16986 53.137 1.78521 53.1502 1.78521 53.1502L0.854248 53.5398C1.03583 53.4886 1.26939 53.5216 1.51288 53.6743Z" fill="#88119B"/>
<path d="M1.15301 57.4092C1.71344 57.7319 2.16748 58.4467 2.1683 59.0063L2.17485 64.8037C2.17568 65.0736 2.06835 65.2552 1.89667 65.3378L2.80789 64.9045L2.89545 64.8632C3.10096 64.7773 3.23468 64.6048 3.23468 64.3027L3.22723 58.5061C3.2264 57.9465 2.77164 57.2309 2.21203 56.9082C1.94048 56.7522 1.74736 56.6986 1.5666 56.7671L1.51371 56.7861L1.50796 56.7885C1.49723 56.7926 1.48893 56.7976 1.47985 56.8025L0.436646 57.292C0.619879 57.2152 0.873204 57.2474 1.15301 57.4092Z" fill="#88119B"/>
<path d="M0.146638 63.6357L0.139283 57.8391C0.138458 57.2787 0.592337 57.0864 1.15277 57.4091C1.7132 57.7318 2.16724 58.4466 2.16806 59.0062L2.17461 64.8036C2.17544 65.3641 1.72154 65.5555 1.16194 65.2336C0.602331 64.9101 0.146638 64.1953 0.146638 63.6357Z" fill="#FF3E6F"/>
<path d="M1.2023 70.1464C1.76273 70.47 2.21667 71.1847 2.2175 71.7443L2.22495 75.0657C2.22495 75.3356 2.11847 75.5171 1.94597 75.5989L2.85799 75.1664L2.94464 75.1251C3.15016 75.0392 3.28388 74.8667 3.28388 74.5647L3.27642 71.2442C3.2756 70.6837 2.82083 69.969 2.26123 69.6462C1.9905 69.4902 1.79738 69.4366 1.6158 69.5051L1.56381 69.5233L1.55716 69.5266C1.54725 69.5307 1.53905 69.5356 1.52915 69.5406L0.48584 70.03C0.670724 69.9541 0.922499 69.9863 1.2023 70.1464Z" fill="#88119B"/>
<path d="M0.195933 73.8978L0.188478 70.5765C0.187652 70.0169 0.641632 69.8246 1.20206 70.1464C1.76249 70.47 2.21643 71.1848 2.21726 71.7444L2.22471 75.0657C2.22471 75.6253 1.77156 75.8176 1.21113 75.4957C0.651525 75.173 0.196759 74.4574 0.195933 73.8978Z" fill="#FF3E6F"/>
<path d="M65.3124 5.65895L65.3488 135.391C65.3628 138.891 63.6114 142.162 60.6895 144.091L10.1814 173.15C7.27934 174.44 3.79051 173.004 3.77482 169.723L3.68153 40.4461C3.66419 37.0034 5.38429 33.7853 8.25495 31.8853L58.716 2.8081C62.3304 0.77932 65.1077 2.61497 65.3124 5.65895Z" fill="#88119B"/>
<path d="M11.7214 168.936L59.7112 141.068C61.7582 139.717 62.9864 137.424 62.9765 134.971L62.8873 8.61538C62.7437 6.48261 60.7983 5.19585 58.2652 6.61715L10.3083 34.4975C8.2969 35.8289 7.09273 38.0838 7.10346 40.4964L7.23213 166.533C7.24368 168.833 9.80325 170.203 11.7214 168.936Z" fill="#4D00AD"/>
<path d="M39.5136 14.715L39.5738 14.6795C39.8908 14.4938 40.1499 14.6886 40.1515 15.112C40.1532 15.5362 39.8974 16.0298 39.5813 16.2155L39.521 16.251C39.2033 16.4359 38.9449 16.2419 38.9424 15.8185C38.9407 15.3943 39.1958 14.9007 39.5136 14.715Z" fill="#1B0044"/>
<path d="M26.7256 22.1787L37.7188 15.7623C38.0357 15.5765 38.2949 15.7705 38.2966 16.1948C38.2982 16.6198 38.0424 17.1126 37.7254 17.2983L26.7331 23.7148C26.4153 23.9005 26.1569 23.7057 26.1544 23.2823C26.1528 22.858 26.4078 22.3636 26.7256 22.1787Z" fill="#1B0044"/>
<path d="M11.7925 163.261C11.5276 163.261 11.2767 163.195 11.0497 163.063C10.4637 162.721 10.1311 161.974 10.136 161.015C10.1443 159.308 11.167 157.39 12.4645 156.65L57.2593 131.058C57.8948 130.697 58.5221 130.66 59.0305 130.956C59.6157 131.298 59.9483 132.044 59.9442 133.004C59.9359 134.709 58.9141 136.627 57.6166 137.369L12.821 162.96C12.4702 163.16 12.121 163.261 11.7925 163.261Z" fill="#88119B"/>
<path d="M11.7925 164.456C11.5276 164.456 11.2767 164.389 11.0497 164.257C10.4637 163.916 10.1311 163.169 10.136 162.208C10.1443 160.502 11.167 158.584 12.4645 157.843L57.2593 132.253C57.8948 131.891 58.5221 131.853 59.0305 132.149C59.6157 132.491 59.9483 133.238 59.9442 134.198C59.9359 135.903 58.9141 137.821 57.6166 138.563L12.821 164.154C12.4702 164.354 12.121 164.456 11.7925 164.456Z" fill="#1B0044"/>
<path d="M21.7295 61.9315C21.3144 61.9315 20.9371 61.8423 20.6086 61.6657C19.4597 61.05 18.7961 59.433 18.7903 57.2309C18.7779 52.452 21.8747 46.643 25.5534 44.5466L50.8355 30.0364C51.6205 29.5907 52.398 29.353 53.0748 29.353C53.4916 29.353 53.8696 29.4422 54.1998 29.618C55.3413 30.2312 56.0057 31.8473 56.0181 34.0494C56.0313 38.8275 52.9337 44.6406 49.2542 46.7379L23.9729 61.239C23.1822 61.6913 22.4063 61.9315 21.7295 61.9315Z" fill="#FF3E6F"/>
<path d="M28.3011 55.766C28.0535 55.9063 27.9248 55.8378 27.924 55.5646L27.9058 47.1169C27.9058 46.8428 28.0346 46.6266 28.2814 46.4863L30.9052 44.9956C32.1515 44.2875 32.9777 44.7035 32.981 46.0298C32.9827 46.7182 32.7004 47.4767 32.2671 48.1263C33.0553 48.1725 33.5976 48.7882 33.6001 49.8662C33.6042 51.5954 32.5362 53.36 30.9259 54.2753L28.3011 55.766ZM30.9119 48.506C31.6167 48.1048 32.088 47.3174 32.0855 46.5374C32.0839 45.7575 31.6118 45.5041 30.9069 45.9044L28.765 47.121L28.7708 49.7209L30.9119 48.506ZM30.9225 53.3666C31.9922 52.7591 32.7079 51.5582 32.7054 50.3746C32.7029 49.1927 31.9831 48.8081 30.9143 49.4155L28.7724 50.6313L28.7815 54.5832L30.9225 53.3666Z" fill="white"/>
<path d="M34.9752 48.6175L34.9628 43.1072C34.9628 42.8332 35.0915 42.617 35.3383 42.4767L35.4448 42.4172C35.6916 42.2761 35.8212 42.3454 35.822 42.6195L35.8344 48.1297C35.8377 49.7664 36.7217 50.2418 38.2164 49.3925C39.6971 48.5506 40.5663 47.0806 40.5622 45.4431L40.5506 39.9328C40.5498 39.6588 40.6793 39.4426 40.9261 39.3023L41.0318 39.2428C41.2794 39.1025 41.4098 39.171 41.4106 39.445L41.423 44.9553C41.4271 47.1904 40.2402 49.1919 38.218 50.34C36.1826 51.4972 34.9801 50.8534 34.9752 48.6175Z" fill="white"/>
<path d="M44.5927 46.5119C44.3113 46.6712 44.2172 46.5177 44.3344 46.1636L45.3167 43.3805L42.611 38.8417C42.4921 38.6213 42.5978 38.3531 42.8916 38.1872L43.0221 38.1129C43.2334 37.9924 43.3737 38.004 43.4562 38.1649L45.7846 42.0739L48.0915 35.532C48.1741 35.2769 48.3144 35.1061 48.5257 34.9855L48.6552 34.9121C48.9482 34.7454 49.0547 34.8931 48.926 35.253L45.1812 45.878C45.097 46.1331 44.9576 46.3048 44.7455 46.4244L44.5927 46.5119Z" fill="white"/>
<path d="M75.5698 147.269C75.5698 148.132 75.271 148.742 74.7865 149.038C74.7725 149.048 73.2595 149.923 73.2447 149.931C72.7428 150.213 73.0647 149.573 72.2988 149.133C70.7619 148.245 69.5148 146.094 69.5148 144.33C69.5148 143.457 68.7068 143.45 69.2028 143.159C69.216 143.151 70.8264 142.259 70.8396 142.252C71.3414 141.98 72.0273 142.03 72.7825 142.467C74.3218 143.353 75.5698 145.505 75.5698 147.269Z" fill="#4D00AD"/>
<path d="M73.9554 148.185C73.9554 149.949 72.7074 150.66 71.1706 149.773C69.6337 148.885 68.3857 146.734 68.3857 144.969C68.3857 143.205 69.6337 142.495 71.1706 143.382C72.7074 144.27 73.9554 146.419 73.9554 148.185Z" fill="#1B0044"/>
<path d="M94.4264 158.632C94.4264 159.494 94.1301 160.104 93.6464 160.401C93.6315 160.41 92.1186 161.285 92.1038 161.293C91.6011 161.576 91.9223 160.936 91.1588 160.495C89.6195 159.608 88.3731 157.457 88.3731 155.692C88.3731 154.819 87.5659 154.813 88.0603 154.521C88.0735 154.513 89.6855 153.622 89.6987 153.614C90.1988 153.343 90.8856 153.391 91.6416 153.83C93.1809 154.717 94.4264 156.868 94.4264 158.632Z" fill="#4D00AD"/>
<path d="M92.8143 159.548C92.8143 161.313 91.5679 162.024 90.0311 161.135C88.4926 160.249 87.2462 158.098 87.2462 156.333C87.2462 154.568 88.4926 153.858 90.0311 154.745C91.5687 155.632 92.8143 157.783 92.8143 159.548Z" fill="#1B0044"/>
<path d="M68.1513 173.167C68.1513 174.03 67.8549 174.64 67.3712 174.936C67.3564 174.945 65.8426 175.82 65.8278 175.828C65.3251 176.11 65.6462 175.472 64.8819 175.03C63.3442 174.143 62.0979 171.992 62.0979 170.227C62.0979 169.355 61.2899 169.348 61.7851 169.057C61.7983 169.048 63.4095 168.157 63.4227 168.15C63.9245 167.877 64.6096 167.927 65.3656 168.364C66.9058 169.252 68.1513 171.402 68.1513 173.167Z" fill="#4D00AD"/>
<path d="M66.5393 174.083C66.5393 175.847 65.2921 176.559 63.7544 175.671C62.2159 174.783 60.9696 172.632 60.9696 170.868C60.9696 169.104 62.2159 168.392 63.7544 169.28C65.2929 170.167 66.5393 172.317 66.5393 174.083Z" fill="#1B0044"/>
<path d="M52.2275 163.984C52.2275 164.847 51.9296 165.457 51.4459 165.753C51.431 165.762 49.9173 166.638 49.9041 166.646C49.3998 166.927 49.7217 166.288 48.9574 165.848C47.4205 164.96 46.1733 162.809 46.1733 161.044C46.1733 160.172 45.3662 160.165 45.8606 159.874C45.8755 159.865 47.485 158.974 47.4982 158.967C48.0008 158.695 48.6859 158.744 49.4419 159.182C50.9804 160.068 52.2275 162.219 52.2275 163.984Z" fill="#4D00AD"/>
<path d="M50.614 164.898C50.614 166.665 49.3669 167.375 47.8301 166.487C46.2924 165.599 45.0444 163.449 45.0444 161.684C45.0444 159.92 46.2924 159.208 47.8301 160.096C49.3678 160.985 50.614 163.135 50.614 164.898Z" fill="#1B0044"/>
<path d="M71.5996 173.167C71.8464 173.167 72.0865 173.04 72.2202 172.812C72.42 172.469 72.3053 172.029 71.9619 171.829L42.5092 154.63C41.6698 154.14 41.1069 153.309 40.9616 152.348C40.8172 151.388 41.111 150.427 41.768 149.712L53.5626 136.873C53.8309 136.581 53.8119 136.127 53.5197 135.859C53.2275 135.59 52.7735 135.609 52.5053 135.902L40.7106 148.741C39.7582 149.778 39.3324 151.17 39.542 152.563C39.7516 153.956 40.5695 155.161 41.7853 155.871L71.2381 173.07C71.3512 173.135 71.4766 173.167 71.5996 173.167Z" fill="white"/>
<path d="M65.5173 169.616C65.6386 169.616 65.7624 169.584 65.8764 169.519L91.4292 154.782C91.7725 154.584 91.8913 154.144 91.6924 153.801C91.4943 153.457 91.0553 153.34 90.7119 153.537L65.1583 168.275C64.8149 168.473 64.696 168.913 64.8949 169.257C65.0278 169.487 65.2688 169.616 65.5173 169.616Z" fill="white"/>
<path d="M49.3266 160.008C49.4488 160.008 49.5725 159.976 49.6856 159.912L75.2385 145.174C75.5827 144.976 75.7007 144.537 75.5018 144.193C75.3037 143.849 74.8646 143.733 74.5213 143.93L48.9675 158.667C48.6242 158.865 48.5062 159.305 48.7051 159.649C48.8371 159.879 49.0782 160.008 49.3266 160.008Z" fill="white"/>
<path d="M97.3417 158.197C97.5893 158.197 97.8295 158.07 97.9632 157.84C98.163 157.498 98.0474 157.058 97.7049 156.858L68.2521 139.66C67.4127 139.169 66.8498 138.337 66.7045 137.377C66.5593 136.417 66.854 135.456 67.511 134.741L79.3055 121.902C79.5738 121.609 79.5549 121.155 79.2627 120.887C78.9705 120.618 78.5166 120.637 78.2483 120.93L66.4537 133.77C65.5012 134.806 65.0753 136.199 65.2849 137.591C65.4946 138.984 66.3117 140.189 67.5283 140.9L96.981 158.098C97.0941 158.165 97.2187 158.197 97.3417 158.197Z" fill="white"/>
<path d="M109.525 129.102L110.004 128.277L65.4429 102.289L39.1802 117.258L39.6515 118.086L65.4362 103.39L109.525 129.102Z" fill="#B5C4D1"/>
<path d="M68.2225 94.6212H67.2693V108.218H68.2225V94.6212Z" fill="#B5C4D1"/>
<path d="M110.198 122.356H109.244V139.857H110.198V122.356Z" fill="#B5C4D1"/>
<path d="M106.692 120.071H105.738V137.75H106.692V120.071Z" fill="#B5C4D1"/>
<path d="M103.179 117.785H102.225V135.641H103.179V117.785Z" fill="#B5C4D1"/>
<path d="M99.6719 115.499H98.7178V133.531H99.6719V115.499Z" fill="#B5C4D1"/>
<path d="M96.1615 113.213H95.2074V131.423H96.1615V113.213Z" fill="#B5C4D1"/>
<path d="M92.6516 110.927H91.6991V129.315H92.6516V110.927Z" fill="#B5C4D1"/>
<path d="M89.1408 108.642H88.1875V127.206H89.1408V108.642Z" fill="#B5C4D1"/>
<path d="M85.6328 106.355H84.6804V125.098H85.6328V106.355Z" fill="#B5C4D1"/>
<path d="M82.1224 104.07H81.1699V122.99H82.1224V104.07Z" fill="#B5C4D1"/>
<path d="M78.6138 101.784H77.6605V120.881H78.6138V101.784Z" fill="#B5C4D1"/>
<path d="M75.1043 99.4984H74.1501V118.773H75.1043V99.4984Z" fill="#B5C4D1"/>
<path d="M71.5953 97.2129H70.642V116.664H71.5953V97.2129Z" fill="#B5C4D1"/>
<path d="M67.0098 118.156L67.9125 117.849L59.1669 92.0728L58.2642 92.3791L67.0098 118.156Z" fill="#B5C4D1"/>
<path d="M64.0931 119.858L64.9946 119.551L56.2219 93.785L55.3203 94.092L64.0931 119.858Z" fill="#B5C4D1"/>
<path d="M61.0851 121.539L61.9865 121.231L53.187 95.4753L52.2856 95.7833L61.0851 121.539Z" fill="#B5C4D1"/>
<path d="M58.0922 123.29L58.9956 122.983L50.2367 97.2125L49.3333 97.5195L58.0922 123.29Z" fill="#B5C4D1"/>
<path d="M55.1485 125.028L56.0492 124.721L47.2685 98.9585L46.3678 99.2654L55.1485 125.028Z" fill="#B5C4D1"/>
<path d="M52.1337 126.75L53.0361 126.443L44.2688 100.674L43.3664 100.981L52.1337 126.75Z" fill="#B5C4D1"/>
<path d="M49.1762 128.41L50.0779 128.103L41.3049 102.336L40.4032 102.643L49.1762 128.41Z" fill="#B5C4D1"/>
<path d="M46.1924 130.135L47.0963 129.827L38.3238 104.062L37.4199 104.37L46.1924 130.135Z" fill="#B5C4D1"/>
<path d="M56.1689 139.465L82.8438 124.11L81.8921 122.457L55.2173 137.812L56.1689 139.465Z" fill="#B5C4D1"/>
<path d="M44.1628 132.154L70.8799 116.712L70.4028 115.887L43.6857 131.328L44.1628 132.154Z" fill="#B5C4D1"/>
<path d="M47.6576 134.112L74.3733 118.675L73.8959 117.849L47.1802 133.286L47.6576 134.112Z" fill="#B5C4D1"/>
<path d="M51.0758 136.155L77.7915 120.714L77.3141 119.888L50.5983 135.328L51.0758 136.155Z" fill="#B5C4D1"/>
<path d="M54.5301 138.157L81.2458 122.716L80.7684 121.89L54.0527 137.331L54.5301 138.157Z" fill="#B5C4D1"/>
<path d="M57.9869 140.159L84.7026 124.718L84.2256 123.893L57.5099 139.333L57.9869 140.159Z" fill="#B5C4D1"/>
<path d="M61.4432 142.163L88.1603 126.722L87.6832 125.897L60.9661 141.338L61.4432 142.163Z" fill="#B5C4D1"/>
<path d="M64.9377 144.113L91.6542 128.675L91.1772 127.85L64.4608 143.288L64.9377 144.113Z" fill="#B5C4D1"/>
<path d="M68.3557 146.165L95.0714 130.724L94.5944 129.899L67.8786 145.339L68.3557 146.165Z" fill="#B5C4D1"/>
<path d="M71.8182 148.191L98.5353 132.75L98.0582 131.924L71.3411 147.366L71.8182 148.191Z" fill="#B5C4D1"/>
<path d="M75.2739 150.19L101.99 134.749L101.512 133.923L74.7964 149.364L75.2739 150.19Z" fill="#B5C4D1"/>
<path d="M78.7219 152.17L105.438 136.729L104.96 135.903L78.2445 151.344L78.7219 152.17Z" fill="#B5C4D1"/>
<path d="M82.1838 154.185L108.9 138.744L108.422 137.917L81.706 153.358L82.1838 154.185Z" fill="#B5C4D1"/>
<path d="M89.375 154.269C89.5351 154.269 89.6985 154.228 89.8471 154.143L108.311 143.592C109.535 142.893 110.266 141.633 110.268 140.223C110.271 138.813 109.542 137.551 108.32 136.847L71.4288 115.636L60.4793 84.0498C59.7893 82.0615 58.4225 80.3587 56.6281 79.2585L53.3943 77.2743C52.9445 76.9986 52.3585 77.1398 52.082 77.5879C51.808 78.0378 51.9475 78.6246 52.3965 78.9003L55.6303 80.8845C57.0499 81.7553 58.1303 83.1014 58.6759 84.6746L69.8597 116.934L107.367 138.502C107.991 138.86 108.362 139.502 108.361 140.22C108.36 140.939 107.988 141.58 107.364 141.937L88.9003 152.488C88.4431 152.748 88.2838 153.33 88.5447 153.788C88.7213 154.096 89.044 154.269 89.375 154.269Z" fill="#B5C4D1"/>
<path d="M108.505 126.003C109.622 125.358 110.31 124.202 110.343 122.913C110.376 121.623 109.748 120.434 108.665 119.734L61.605 89.3373L34.9799 104.846C34.5441 105.101 34.2767 105.553 34.2652 106.058C34.2553 106.561 34.5012 107.027 34.9238 107.3L35.9589 105.697C36.095 105.785 36.1768 105.94 36.1727 106.101C36.1702 106.262 36.081 106.413 35.9407 106.494L61.5554 91.5749L107.63 121.337C108.15 121.674 108.452 122.245 108.437 122.865C108.42 123.486 108.089 124.041 107.553 124.351L108.505 126.003Z" fill="#B5C4D1"/>
<path d="M68.446 80.5792L73.2729 78.9103L75.0788 76.7032L77.4253 113.157L68.1564 106.962L68.446 80.5792Z" fill="#C52887"/>
<path d="M104.591 140.128L77.4402 113.157L75.0952 76.7032L102.243 92.3771L104.591 140.128Z" fill="#C52887"/>
<path d="M94.8023 135.911L94.6001 145.962L104.586 140.124L94.8023 135.911Z" fill="#C52887"/>
<path d="M95.6123 96.2532L97.85 93.4551L102.244 92.3772L104.592 140.128L94.8035 135.988L95.6123 96.2532Z" fill="#FF6556"/>
<path d="M94.6011 145.962L67.4545 130.288L68.4639 80.5792L95.6122 96.2531L94.6011 145.962Z" fill="#FEB732"/>
<path d="M78.5329 92.3845C78.5329 93.0093 78.0921 93.2611 77.5491 92.9466C77.0043 92.6321 76.5635 91.872 76.5635 91.2472C76.5635 90.6224 77.0043 90.3698 77.5491 90.6859C78.0913 91.0004 78.5329 91.7605 78.5329 92.3845Z" fill="#1B0044"/>
<path d="M88.3827 97.9791C88.3827 98.6031 87.9411 98.8548 87.398 98.5403C86.8524 98.2267 86.4116 97.4657 86.4116 96.8409C86.4116 96.2169 86.8524 95.9652 87.398 96.2796C87.9411 96.5941 88.3827 97.3543 88.3827 97.9791Z" fill="#1B0044"/>
<path d="M83.5327 107.832C82.732 107.832 81.9364 107.599 81.2241 107.134C78.6233 105.44 77.0708 102.576 77.0708 99.4722V91.7359C77.0708 91.471 77.2853 91.2563 77.5503 91.2563C77.8136 91.2563 78.0299 91.471 78.0299 91.7359V99.4722C78.0299 102.25 79.4197 104.815 81.7473 106.331C82.7732 107 84.027 107.049 85.1025 106.466C86.178 105.884 86.8201 104.805 86.8201 103.583V97.2213C86.8201 96.9556 87.0347 96.7418 87.2996 96.7418C87.5638 96.7418 87.7792 96.9556 87.7792 97.2213V103.583C87.7792 105.162 86.9497 106.556 85.5597 107.31C84.9168 107.657 84.2235 107.832 83.5327 107.832Z" fill="white"/>
<path d="M57.5573 100.794L61.8369 99.3145L63.4381 97.3567L65.519 129.679L57.3007 124.186L57.5573 100.794Z" fill="#C52887"/>
<path d="M89.6075 143.577L65.5337 129.679L63.4546 97.3567L87.5259 111.254L89.6075 143.577Z" fill="#4D00AD"/>
<path d="M80.9908 139.547L80.7489 148.75L89.6036 143.573L80.9908 139.547Z" fill="#4D00AD"/>
<path d="M81.6449 114.691L83.629 112.211L87.5265 111.254L89.6081 143.577L81.02 139.62L81.6449 114.691Z" fill="#C52887"/>
<path d="M80.749 148.75L56.6786 134.852L57.5741 100.794L81.6446 114.691L80.749 148.75Z" fill="#88119B"/>
<path d="M66.5018 111.261C66.5018 111.815 66.1106 112.038 65.6286 111.76C65.1457 111.481 64.7545 110.807 64.7545 110.254C64.7545 109.7 65.1457 109.477 65.6286 109.756C66.1114 110.033 66.5018 110.708 66.5018 111.261Z" fill="#1B0044"/>
<path d="M75.2356 116.221C75.2356 116.775 74.8435 116.997 74.3615 116.719C73.8786 116.44 73.4874 115.767 73.4874 115.213C73.4874 114.659 73.8786 114.437 74.3615 114.714C74.8443 114.993 75.2356 115.668 75.2356 116.221Z" fill="#1B0044"/>
<path d="M70.9349 124.958C70.2251 124.958 69.5194 124.751 68.888 124.339C66.5819 122.838 65.2061 120.298 65.2061 117.546V110.686C65.2061 110.451 65.3951 110.26 65.6311 110.26C65.8647 110.26 66.0562 110.451 66.0562 110.686V117.546C66.0562 120.009 67.2892 122.283 69.3527 123.627C70.2631 124.22 71.374 124.263 72.3273 123.747C73.2815 123.231 73.851 122.275 73.851 121.19V115.55C73.851 115.314 74.0409 115.124 74.2761 115.124C74.5114 115.124 74.702 115.314 74.702 115.55V121.19C74.702 122.59 73.9658 123.827 72.7335 124.494C72.1623 124.804 71.5482 124.958 70.9349 124.958Z" fill="white"/>
<path d="M40.9302 109.457H39.9761V123.053H40.9302V109.457Z" fill="#B5C4D1"/>
<path d="M55.0021 79.2825C55.0021 79.7001 54.8585 79.9965 54.6232 80.1401C54.6158 80.145 26.8518 95.6514 26.8452 95.6547C26.6017 95.7917 26.7568 95.4813 26.3862 95.2676C25.6393 94.8367 25.0351 93.7926 25.0351 92.9367C25.0351 92.5125 24.8115 92.4151 25.0516 92.2731C25.0582 92.269 52.7001 76.8493 52.7067 76.8468C52.9518 76.7148 53.2827 76.7387 53.65 76.9508C54.3962 77.3817 55.0021 78.4241 55.0021 79.2825Z" fill="#C52887"/>
<path d="M24.8151 94.9233C25.388 95.7982 26.3495 96.0797 26.9627 95.5539C27.5751 95.0265 27.6074 93.8916 27.0337 93.0175C26.4609 92.1426 25.4993 91.8612 24.8869 92.3878C24.2728 92.9135 24.2415 94.0493 24.8151 94.9233Z" fill="#1B0044"/>
<path d="M29.2967 96.6467C29.626 96.6467 29.947 96.475 30.1237 96.1671C30.3853 95.7107 30.2285 95.128 29.7712 94.8655L26.3055 92.8739C25.8491 92.6131 25.2663 92.7691 25.0038 93.2263C24.7414 93.6836 24.8999 94.2663 25.3555 94.5288L28.8228 96.5204C28.9706 96.6054 29.1349 96.6467 29.2967 96.6467Z" fill="#B5C4D1"/>
<path d="M84.2911 145.663L84.7733 144.84L39.7816 118.461L39.2994 119.284L84.2911 145.663Z" fill="#B5C4D1"/>
<path d="M85.1512 137.232H84.1963V154.733H85.1512V137.232Z" fill="#B5C4D1"/>
<path d="M80.5142 152.651H81.4675V135.449L80.5142 134.973V152.651Z" fill="#B5C4D1"/>
<path d="M77.78 132.714H76.8267V150.569H77.78V132.714Z" fill="#B5C4D1"/>
<path d="M74.0976 130.455H73.1434V148.488H74.0976V130.455Z" fill="#B5C4D1"/>
<path d="M70.4126 128.196H69.4592V146.406H70.4126V128.196Z" fill="#B5C4D1"/>
<path d="M66.7271 125.936H65.7738V144.324H66.7271V125.936Z" fill="#B5C4D1"/>
<path d="M63.0431 123.677H62.0906V142.243H63.0431V123.677Z" fill="#B5C4D1"/>
<path d="M59.3596 121.418H58.4064V140.16H59.3596V121.418Z" fill="#B5C4D1"/>
<path d="M55.6751 119.159H54.7209V138.079H55.6751V119.159Z" fill="#B5C4D1"/>
<path d="M51.989 116.9H51.0356V135.997H51.989V116.9Z" fill="#B5C4D1"/>
<path d="M48.3058 114.639H47.3524V133.915H48.3058V114.639Z" fill="#B5C4D1"/>
<path d="M44.6198 112.381H43.6656V131.833H44.6198V112.381Z" fill="#B5C4D1"/>
<path d="M108.58 125.521H107.626V142.697H108.58V125.521Z" fill="#B5C4D1"/>
<path d="M105.697 127.138H104.743V144.314H105.697V127.138Z" fill="#B5C4D1"/>
<path d="M102.817 128.756H101.864V145.932H102.817V128.756Z" fill="#B5C4D1"/>
<path d="M99.9352 130.373H98.9811V147.549H99.9352V130.373Z" fill="#B5C4D1"/>
<path d="M97.0554 131.99H96.1003V149.166H97.0554V131.99Z" fill="#B5C4D1"/>
<path d="M94.1718 133.607H93.2185V150.782H94.1718V133.607Z" fill="#B5C4D1"/>
<path d="M91.2922 135.224H90.3389V152.399H91.2922V135.224Z" fill="#B5C4D1"/>
<path d="M88.4101 136.841H87.4559V154.017H88.4101V136.841Z" fill="#B5C4D1"/>
<path d="M85.2122 138.147C86.6351 138.147 88.0598 137.779 89.3465 137.037L108.504 126.003C109.622 125.358 110.309 124.203 110.342 122.913C110.375 121.623 108.452 122.243 108.436 122.863C108.419 123.484 108.088 124.039 107.552 124.349L88.3949 135.383C86.3158 136.58 83.7777 136.517 81.7638 135.218L35.9587 105.696C36.0949 105.784 34.9798 104.847 34.9798 104.847C34.544 105.101 34.2766 105.553 34.2651 106.058C34.2552 106.561 34.5011 107.027 34.9237 107.3L80.7296 136.822C82.0981 137.704 83.6539 138.147 85.2122 138.147Z" fill="#B5C4D1"/>
<path d="M85.5623 155.277C87.043 155.277 88.5254 154.899 89.8468 154.143L108.311 143.593C108.768 143.332 108.927 142.75 108.665 142.292C108.404 141.835 107.821 141.676 107.365 141.937L88.9009 152.488C86.8424 153.664 84.2846 153.666 82.2269 152.489L44.7103 131.074L33.8508 99.7882C33.1295 97.7099 31.68 95.961 29.7734 94.8657L26.3077 92.8741C25.8513 92.6132 25.2685 92.7701 25.006 93.2265C24.7436 93.6838 24.9021 94.2665 25.3577 94.5289L28.8251 96.5198C30.3331 97.3864 31.4786 98.7697 32.0481 100.414L43.1446 132.377L81.2811 154.147C82.6 154.899 84.0824 155.277 85.5623 155.277Z" fill="#B5C4D1"/>
<path d="M79.6275 67.26C80.5123 68.5014 85.4224 67.2773 85.4224 63.4303C85.4224 60.4325 82.1507 51.3179 80.1541 52.3141C78.732 53.0239 76.9054 59.1986 76.9054 59.1986C76.9269 59.9496 77.0705 60.69 77.3313 61.3941C78.0213 63.2578 79.4005 66.9422 79.6275 67.26Z" fill="#FF6556"/>
<path d="M58.4086 38.1854C57.9183 37.058 57.769 35.7852 58.6835 34.964C59.8704 33.8976 64.3357 37.0968 66.0789 38.4867C68.9801 40.7986 79.2775 46.5919 79.2775 46.5919C79.2775 46.5919 81.3153 44.7604 82.6664 44.5111C86.1182 43.8756 87.1095 45.0806 88.2345 45.4917C89.173 45.8334 89.3306 45.9407 90.2864 45.651C93.3147 44.7348 95.1619 45.2449 96.8192 46.0744C97.1527 46.2419 98.1621 46.9782 98.5311 46.9163C102.639 46.218 105.122 48.6124 106.291 49.6565C111.65 54.4511 117.242 65.4245 127.647 71.028L114.396 88.3782C114.396 88.3782 95.0768 78.983 91.276 77.0235C90.1922 76.4639 89.04 76.0694 87.8416 75.8424C84.0828 75.1351 75.5798 73.5528 72.6514 73.1781C68.5947 72.6598 63.5301 72.3568 63.9651 70.0243C64.3481 67.9766 65.3616 67.5482 67.4036 66.8301C71.769 65.2949 76.6883 66.8821 80.2952 65.7002C82.3479 65.0283 83.1254 62.2452 81.7867 60.242C80.0682 57.6709 74.2914 52.5264 69.3466 48.6141C66.863 46.6472 59.4684 40.6228 58.4086 38.1854Z" fill="#FE9144"/>
<path d="M81.7878 60.2401C82.8533 61.8356 82.5859 63.9527 81.3899 65.0653C83.9353 63.3254 83.2619 61.0696 82.7799 59.7449C81.7787 56.9931 77.7525 53.6074 75.5059 51.8221C71.7793 48.8598 71.1462 48.3415 67.2397 45.6367C66.4259 45.073 64.265 43.0731 62.3006 41.2284C59.9731 39.0444 57.9179 36.8935 58.6912 34.958C57.7833 35.7999 57.9195 37.0569 58.4098 38.1844C59.4696 40.6217 66.8641 46.647 69.3485 48.6122C74.2925 52.5253 80.0693 57.6691 81.7878 60.2401Z" fill="#FF6556"/>
<path d="M108.667 80.9483C105.644 80.3383 104.435 79.357 101.627 78.0834C99.4452 77.0946 97.2051 75.6023 88.5659 73.907C86.7815 73.557 76.0532 72.4865 72.972 72.281C71.0654 72.1539 62.1959 73.0115 64.7628 68.1698C64.3443 68.689 64.0547 69.2973 63.9663 70.0228C63.6824 72.3784 68.5959 72.6582 72.6526 73.1765C75.5803 73.5504 84.0816 75.1319 87.8404 75.8409C89.0397 76.0662 90.1952 76.4632 91.2797 77.0228C95.0814 78.9839 104.394 83.7339 105.976 84.0459C109.483 84.7376 111.451 84.5973 115.212 81.0902C113.008 81.3593 110.807 81.3799 108.667 80.9483Z" fill="#FF6556"/>
<path d="M155.885 75.8059L132.015 62.4266C129.535 61.0465 126.136 61.2751 122.385 63.4409C114.793 67.8245 108.639 78.4842 108.639 87.2497C108.639 91.6853 110.215 94.7862 112.756 96.2001L136.582 109.552L155.885 75.8059Z" fill="#1B0044"/>
<path d="M146.022 76.861C138.432 81.2438 132.301 91.8631 132.325 100.585C132.35 109.307 138.52 112.823 146.111 108.442C153.701 104.058 159.832 93.4395 159.807 84.7178C159.784 75.9952 153.612 72.4783 146.022 76.861Z" fill="#4D00AD"/>
</svg>
