<svg width="133" height="152" viewBox="0 0 133 152" fill="none" xmlns="http://www.w3.org/2000/svg">
<path d="M104.439 137.395L104.161 136.826L112.933 131.391C113.591 130.983 113.989 130.232 113.996 129.383C114.003 128.534 113.617 127.774 112.965 127.353L75.0972 102.895C74.4792 102.496 73.7098 102.49 73.0867 102.88L62.5968 109.433C61.7992 109.931 60.8119 109.923 60.02 109.411L38.9362 95.7491C38.1002 95.2072 37.6082 94.2344 37.6178 93.1469C37.628 92.0601 38.1373 91.0996 38.9828 90.5779L50.3501 83.5571L50.6262 84.1265L39.2589 91.1473C38.5994 91.5543 38.2012 92.3048 38.1929 93.1534C38.1853 94.0028 38.57 94.7619 39.2218 95.1848L60.3057 108.847C60.9237 109.248 61.6957 109.254 62.3182 108.865L72.808 102.311C73.6043 101.814 74.591 101.822 75.3822 102.331L113.25 126.789C114.085 127.329 114.58 128.301 114.571 129.389C114.562 130.476 114.052 131.437 113.209 131.96L104.439 137.395Z" fill="#1B0044"/>
<path d="M132.134 127.645L109.52 142.663C109.356 142.769 109.18 142.872 108.991 142.971C105.979 144.553 101.093 144.553 98.0789 142.971C96.8717 142.335 96.1469 141.541 95.9098 140.714C95.9073 140.707 95.9047 140.699 95.9034 140.69C95.8849 140.615 95.8683 140.542 95.853 140.467C95.8491 140.452 95.8479 140.437 95.8453 140.423C95.5724 138.933 96.1175 137.281 97.466 136.446L121.61 120.799L132.134 127.645Z" fill="url(#paint0_linear_4_828)"/>
<path d="M100.133 125.196L60.0019 151.806L0 112.438L38.7793 86.0771L100.133 125.196Z" fill="url(#paint1_linear_4_828)"/>
<path d="M106.412 75.9512L68.254 101.254L11.2021 63.8206L48.0751 38.7561L106.412 75.9512Z" fill="url(#paint2_linear_4_828)"/>
<path d="M1.04183 109.477L21.7832 95.9556C22.2586 95.6445 22.8453 95.6445 23.3208 95.9556L81.3498 133.802C82.3749 134.47 82.3749 136.141 81.3498 136.809L60.6085 150.331C60.1324 150.642 59.5464 150.642 59.0703 150.331L1.04121 112.485C0.0167658 111.817 0.0167509 110.146 1.04183 109.477Z" fill="#B5C4D1"/>
<path d="M2.76386 109.408H0.272095V111.005H2.76386V109.408Z" fill="#B5C4D1"/>
<path d="M82.1185 133.709H79.6267V135.306H82.1185V133.709Z" fill="#B5C4D1"/>
<path d="M1.04098 108.047L21.7823 94.5252C22.2578 94.2149 22.8445 94.2149 23.3199 94.5252L81.349 132.371C82.3741 133.04 82.3741 134.711 81.349 135.379L60.6077 148.901C60.1315 149.211 59.5455 149.211 59.0694 148.901L1.04036 111.055C0.0159113 110.386 0.0158964 108.715 1.04098 108.047Z" fill="#EAE9EC"/>
<path d="M74.3249 132.182L76.1763 133.39C76.4831 133.589 76.8608 133.589 77.1682 133.39L77.6992 133.034C77.9651 132.861 77.9651 132.427 77.6992 132.253L75.8478 131.047C75.5411 130.847 75.1634 130.847 74.856 131.047L74.3249 131.402C74.059 131.575 74.059 132.009 74.3249 132.182Z" fill="#1B0044"/>
<path d="M67.9604 128.033L69.8118 129.24C70.1186 129.44 70.4969 129.44 70.8037 129.24L71.3347 128.885C71.6006 128.711 71.6006 128.278 71.3347 128.104L69.4833 126.897C69.1765 126.697 68.7988 126.697 68.4914 126.897L67.9604 127.253C67.6945 127.426 67.6945 127.86 67.9604 128.033Z" fill="#1B0044"/>
<path d="M64.7791 125.958L66.6305 127.166C66.9373 127.365 67.3156 127.365 67.6224 127.166L68.1535 126.81C68.42 126.637 68.42 126.204 68.1535 126.03L66.302 124.822C65.9959 124.623 65.6176 124.623 65.3102 124.822L64.7791 125.178C64.5132 125.351 64.5132 125.785 64.7791 125.958Z" fill="#1B0044"/>
<path d="M61.596 123.884L63.4481 125.092C63.7542 125.291 64.1325 125.291 64.4392 125.092L64.9704 124.736C65.2369 124.563 65.2369 124.129 64.9704 123.956L63.1189 122.748C62.8128 122.548 62.4345 122.548 62.1271 122.748L61.596 123.103C61.3301 123.277 61.3301 123.71 61.596 123.884Z" fill="#1B0044"/>
<path d="M55.2311 119.735L57.0826 120.942C57.3893 121.142 57.767 121.142 58.0744 120.942L58.6055 120.586C58.8713 120.413 58.8713 119.98 58.6055 119.806L56.754 118.598C56.4473 118.399 56.069 118.399 55.7622 118.598L55.2311 118.954C54.9646 119.127 54.9646 119.561 55.2311 119.735Z" fill="#1B0044"/>
<path d="M52.0506 117.66L53.902 118.867C54.2088 119.067 54.5865 119.067 54.8939 118.867L55.4249 118.512C55.6908 118.338 55.6908 117.905 55.4249 117.732L53.5735 116.524C53.2667 116.324 52.8884 116.324 52.5817 116.524L52.0506 116.88C51.7841 117.053 51.7841 117.486 52.0506 117.66Z" fill="#1B0044"/>
<path d="M48.8671 115.585L50.7185 116.793C51.0253 116.993 51.403 116.993 51.7104 116.793L52.2414 116.438C52.5073 116.265 52.5073 115.83 52.2414 115.657L50.39 114.45C50.0833 114.25 49.7049 114.25 49.3982 114.45L48.8671 114.805C48.6013 114.979 48.6013 115.412 48.8671 115.585Z" fill="#1B0044"/>
<path d="M42.5026 111.436L44.354 112.643C44.6608 112.843 45.0391 112.843 45.3459 112.643L45.8769 112.288C46.1428 112.115 46.1428 111.681 45.8769 111.508L44.0255 110.301C43.7188 110.101 43.3404 110.101 43.0337 110.301L42.5026 110.656C42.2368 110.829 42.2368 111.263 42.5026 111.436Z" fill="#1B0044"/>
<path d="M39.3212 109.362L41.1726 110.569C41.4794 110.769 41.8577 110.769 42.1645 110.569L42.6955 110.214C42.962 110.04 42.962 109.606 42.6955 109.433L40.8441 108.226C40.5374 108.026 40.1597 108.026 39.8523 108.226L39.3212 108.581C39.0554 108.754 39.0554 109.189 39.3212 109.362Z" fill="#1B0044"/>
<path d="M36.1381 107.287L37.9902 108.495C38.2963 108.694 38.6746 108.694 38.982 108.495L39.5131 108.139C39.779 107.966 39.779 107.532 39.5131 107.359L37.661 106.152C37.3549 105.952 36.9766 105.952 36.6692 106.152L36.1381 106.507C35.8723 106.68 35.8723 107.114 36.1381 107.287Z" fill="#1B0044"/>
<path d="M32.9568 105.213L34.8082 106.42C35.115 106.62 35.4933 106.62 35.8007 106.42L36.3311 106.064C36.5976 105.891 36.5976 105.457 36.3311 105.284L34.4797 104.077C34.1736 103.877 33.7953 103.877 33.4879 104.077L32.9568 104.432C32.6909 104.605 32.6909 105.04 32.9568 105.213Z" fill="#1B0044"/>
<path d="M70.3895 134.743L72.2409 135.951C72.5476 136.151 72.9259 136.151 73.2327 135.951L75.0841 134.743C75.3506 134.57 75.3506 134.136 75.0841 133.963L73.2327 132.756C72.9266 132.556 72.5482 132.556 72.2409 132.756L70.3895 133.963C70.1236 134.136 70.1236 134.57 70.3895 134.743Z" fill="#1B0044"/>
<path d="M67.2073 132.669L69.0587 133.877C69.3655 134.077 69.7438 134.077 70.0512 133.877L71.9026 132.669C72.1685 132.495 72.1685 132.062 71.9026 131.889L70.0512 130.681C69.7445 130.481 69.3661 130.481 69.0587 130.681L67.2073 131.889C66.9415 132.062 66.9415 132.495 67.2073 132.669Z" fill="#1B0044"/>
<path d="M64.0251 130.595L65.8771 131.802C66.1832 132.002 66.5616 132.002 66.8683 131.802L68.7204 130.595C68.9862 130.421 68.9862 129.988 68.7204 129.815L66.8683 128.607C66.5622 128.407 66.1839 128.407 65.8771 128.607L64.0251 129.815C63.7592 129.988 63.7592 130.421 64.0251 130.595Z" fill="#1B0044"/>
<path d="M60.8433 128.52L62.6941 129.727C63.0008 129.927 63.3792 129.927 63.6859 129.727L65.538 128.52C65.8038 128.347 65.8038 127.913 65.538 127.74L63.6859 126.532C63.3798 126.332 63.0015 126.332 62.6941 126.532L60.8433 127.74C60.5768 127.913 60.5768 128.347 60.8433 128.52Z" fill="#1B0044"/>
<path d="M57.6606 126.445L59.5126 127.653C59.8188 127.853 60.1971 127.853 60.5045 127.653L62.3559 126.445C62.6218 126.272 62.6218 125.838 62.3559 125.665L60.5045 124.457C60.1977 124.258 59.8194 124.258 59.5126 124.457L57.6606 125.665C57.3947 125.838 57.3947 126.272 57.6606 126.445Z" fill="#1B0044"/>
<path d="M54.4783 124.371L56.3297 125.578C56.6365 125.778 57.0142 125.778 57.3216 125.578L59.173 124.371C59.4389 124.197 59.4389 123.764 59.173 123.59L57.3216 122.383C57.0148 122.183 56.6371 122.183 56.3297 122.383L54.4783 123.59C54.2125 123.764 54.2125 124.197 54.4783 124.371Z" fill="#1B0044"/>
<path d="M51.2961 122.297L53.1475 123.504C53.4543 123.703 53.832 123.703 54.1394 123.504L55.9908 122.297C56.2566 122.123 56.2566 121.689 55.9908 121.516L54.1394 120.308C53.8326 120.109 53.4549 120.109 53.1475 120.308L51.2961 121.516C51.0302 121.689 51.0302 122.123 51.2961 122.297Z" fill="#1B0044"/>
<path d="M48.1148 120.222L49.9662 121.429C50.273 121.628 50.6506 121.628 50.958 121.429L52.8094 120.222C53.0753 120.049 53.0753 119.614 52.8094 119.441L50.958 118.234C50.6513 118.035 50.2736 118.035 49.9662 118.234L48.1148 119.441C47.8489 119.614 47.8489 120.049 48.1148 120.222Z" fill="#1B0044"/>
<path d="M44.9325 118.147L46.784 119.355C47.0907 119.554 47.4691 119.554 47.7758 119.355L49.6272 118.147C49.8937 117.974 49.8937 117.54 49.6272 117.366L47.7758 116.159C47.4697 115.96 47.0914 115.96 46.784 116.159L44.9325 117.366C44.6667 117.54 44.6667 117.974 44.9325 118.147Z" fill="#1B0044"/>
<path d="M41.7494 116.073L43.6009 117.28C43.9076 117.48 44.286 117.48 44.5927 117.28L46.4447 116.073C46.7106 115.899 46.7106 115.465 46.4447 115.292L44.5927 114.085C44.2866 113.885 43.9083 113.885 43.6009 114.085L41.7494 115.292C41.4836 115.465 41.4836 115.899 41.7494 116.073Z" fill="#1B0044"/>
<path d="M38.5672 113.998L40.4192 115.205C40.7254 115.405 41.1037 115.405 41.4111 115.205L43.2625 113.998C43.5284 113.825 43.5284 113.391 43.2625 113.218L41.4111 112.01C41.1043 111.811 40.726 111.811 40.4192 112.01L38.5672 113.218C38.3013 113.391 38.3013 113.825 38.5672 113.998Z" fill="#1B0044"/>
<path d="M35.3849 111.923L37.237 113.13C37.5431 113.33 37.9215 113.33 38.2288 113.13L40.0802 111.923C40.3461 111.75 40.3461 111.316 40.0802 111.143L38.2288 109.936C37.9221 109.736 37.5438 109.736 37.237 109.936L35.3849 111.143C35.1191 111.316 35.1191 111.75 35.3849 111.923Z" fill="#1B0044"/>
<path d="M29.0205 106.994L30.8726 105.786C31.1787 105.587 31.557 105.587 31.8644 105.786L36.8984 109.066C37.032 109.154 37.0984 109.306 37.0978 109.458C37.0984 109.61 37.032 109.762 36.8984 109.848L35.047 111.056C34.7403 111.256 34.3619 111.256 34.0552 111.056L32.2037 109.848C32.2037 109.848 32.2018 109.847 32.2012 109.846L29.0205 107.774C28.7546 107.601 28.7546 107.167 29.0205 106.994Z" fill="#1B0044"/>
<path d="M29.2505 102.834L31.1019 104.042C31.4087 104.241 31.7871 104.241 32.0945 104.042L32.6249 103.686C32.8907 103.513 32.8907 103.079 32.6249 102.906L30.7735 101.698C30.4667 101.498 30.089 101.498 29.7816 101.698L29.2505 102.053C28.9847 102.227 28.9847 102.66 29.2505 102.834Z" fill="#1B0044"/>
<path d="M26.0691 100.76L27.9205 101.967C28.2273 102.167 28.6057 102.167 28.9131 101.967L29.4435 101.612C29.71 101.438 29.71 101.004 29.4435 100.831L27.5921 99.6237C27.2853 99.4238 26.9076 99.4238 26.6002 99.6237L26.0691 99.9794C25.8033 100.153 25.8033 100.586 26.0691 100.76Z" fill="#1B0044"/>
<path d="M22.8861 98.6848L24.7382 99.8921C25.0443 100.092 25.4226 100.092 25.73 99.8921L26.2611 99.5371C26.5269 99.3639 26.5269 98.9302 26.2611 98.7563L24.409 97.549C24.1029 97.3491 23.7246 97.3491 23.4172 97.549L22.8861 97.9047C22.6202 98.0779 22.6202 98.5116 22.8861 98.6848Z" fill="#1B0044"/>
<path d="M25.3152 105.396L27.1666 106.603C27.4734 106.803 27.8517 106.803 28.1591 106.603L30.0105 105.396C30.2764 105.223 30.2764 104.788 30.0105 104.615L28.1591 103.408C27.8523 103.208 27.474 103.208 27.1666 103.408L25.3152 104.615C25.0493 104.788 25.0493 105.223 25.3152 105.396Z" fill="#1B0044"/>
<path d="M22.1334 103.321L23.9848 104.529C24.291 104.729 24.6693 104.729 24.976 104.529L26.8281 103.321C27.0939 103.148 27.0939 102.714 26.8281 102.541L24.976 101.333C24.6699 101.133 24.2916 101.133 23.9848 101.333L22.1334 102.541C21.8669 102.714 21.8669 103.148 22.1334 103.321Z" fill="#1B0044"/>
<path d="M18.952 101.247L20.8034 102.454C21.1096 102.654 21.4879 102.654 21.7953 102.454L23.6467 101.247C23.9125 101.073 23.9125 100.639 23.6467 100.466L21.7953 99.2593C21.4885 99.0594 21.1102 99.0594 20.8034 99.2593L18.952 100.466C18.6855 100.639 18.6855 101.073 18.952 101.247Z" fill="#1B0044"/>
<path d="M22.0333 107.541L23.8847 108.748C24.1914 108.948 24.5698 108.948 24.8772 108.748L26.7286 107.541C26.9944 107.368 26.9944 106.934 26.7286 106.761L24.8772 105.553C24.5704 105.354 24.1921 105.354 23.8847 105.553L22.0333 106.761C21.7674 106.934 21.7674 107.368 22.0333 107.541Z" fill="#1B0044"/>
<path d="M18.851 105.466L20.7031 106.673C21.0092 106.873 21.3875 106.873 21.6949 106.673L23.5463 105.466C23.8122 105.293 23.8122 104.859 23.5463 104.686L21.6949 103.479C21.3882 103.278 21.0098 103.278 20.7031 103.479L18.851 104.686C18.5851 104.859 18.5851 105.293 18.851 105.466Z" fill="#1B0044"/>
<path d="M15.6688 103.391L17.5208 104.599C17.8269 104.799 18.2053 104.799 18.5127 104.599L20.3641 103.391C20.6299 103.218 20.6299 102.784 20.3641 102.611L18.5127 101.404C18.2059 101.204 17.8276 101.204 17.5208 101.404L15.6688 102.611C15.4029 102.784 15.4029 103.218 15.6688 103.391Z" fill="#1B0044"/>
<path d="M63.9254 134.028L65.7768 132.821C66.0835 132.621 66.4618 132.621 66.7686 132.821L68.62 134.028C68.6213 134.029 68.6219 134.03 68.6232 134.031L71.8026 136.103C72.0691 136.276 72.0691 136.71 71.8026 136.883L69.9512 138.091C69.6451 138.29 69.2668 138.29 68.9594 138.091L63.9254 134.81C63.7918 134.724 63.7253 134.572 63.726 134.419C63.7253 134.267 63.7918 134.115 63.9254 134.028Z" fill="#1B0044"/>
<path d="M60.7431 132.734L62.5945 133.942C62.9013 134.142 63.2796 134.142 63.5864 133.942L65.4384 132.734C65.7043 132.561 65.7043 132.128 65.4384 131.954L63.5864 130.746C63.2803 130.546 62.9019 130.546 62.5945 130.746L60.7431 131.954C60.4772 132.128 60.4772 132.561 60.7431 132.734Z" fill="#1B0044"/>
<path d="M57.5608 130.66L59.4123 131.867C59.719 132.067 60.0974 132.067 60.4048 131.867L62.2562 130.66C62.522 130.486 62.522 130.053 62.2562 129.88L60.4048 128.672C60.098 128.472 59.7197 128.472 59.4123 128.672L57.5608 129.88C57.295 130.053 57.295 130.486 57.5608 130.66Z" fill="#1B0044"/>
<path d="M54.3787 128.585L56.2308 129.792C56.5369 129.992 56.9152 129.992 57.2226 129.792L59.074 128.585C59.3399 128.412 59.3399 127.978 59.074 127.805L57.2226 126.597C56.9159 126.397 56.5375 126.397 56.2308 126.597L54.3787 127.805C54.1129 127.978 54.1129 128.412 54.3787 128.585Z" fill="#1B0044"/>
<path d="M51.1969 126.51L53.0483 127.718C53.3551 127.917 53.7328 127.917 54.0402 127.718L55.8916 126.51C56.1574 126.337 56.1574 125.903 55.8916 125.73L54.0402 124.522C53.7334 124.323 53.3557 124.323 53.0483 124.522L51.1969 125.73C50.9304 125.903 50.9304 126.337 51.1969 126.51Z" fill="#1B0044"/>
<path d="M48.0142 124.436L49.8656 125.643C50.1724 125.843 50.5501 125.843 50.8575 125.643L52.7089 124.436C52.9748 124.263 52.9748 123.829 52.7089 123.655L50.8575 122.447C50.5507 122.248 50.173 122.248 49.8656 122.447L48.0142 123.655C47.7484 123.829 47.7484 124.263 48.0142 124.436Z" fill="#1B0044"/>
<path d="M44.8324 122.362L46.6839 123.568C46.99 123.768 47.3683 123.768 47.6757 123.568L49.5271 122.362C49.793 122.188 49.793 121.754 49.5271 121.581L47.6757 120.374C47.369 120.174 46.9906 120.174 46.6839 120.374L44.8324 121.581C44.5659 121.754 44.5659 122.188 44.8324 122.362Z" fill="#1B0044"/>
<path d="M41.6498 120.287L43.5012 121.494C43.8079 121.693 44.1856 121.693 44.493 121.494L46.3445 120.287C46.6109 120.114 46.6109 119.679 46.3445 119.506L44.493 118.3C44.1863 118.099 43.8086 118.099 43.5012 118.3L41.6498 119.506C41.3839 119.679 41.3839 120.114 41.6498 120.287Z" fill="#1B0044"/>
<path d="M38.4675 118.212L40.3189 119.42C40.6257 119.619 41.004 119.619 41.3108 119.42L43.1628 118.212C43.4287 118.039 43.4287 117.605 43.1628 117.431L41.3108 116.225C41.0046 116.025 40.6263 116.025 40.3189 116.225L38.4675 117.431C38.2017 117.605 38.2017 118.039 38.4675 118.212Z" fill="#1B0044"/>
<path d="M35.2844 116.138L37.1358 117.345C37.4426 117.545 37.8209 117.545 38.1277 117.345L39.9791 116.138C40.2456 115.964 40.2456 115.531 39.9791 115.357L38.1277 114.15C37.8215 113.95 37.4432 113.95 37.1358 114.15L35.2844 115.357C35.0186 115.531 35.0186 115.964 35.2844 116.138Z" fill="#1B0044"/>
<path d="M32.1031 114.063L33.9545 115.27C34.2612 115.47 34.6396 115.47 34.947 115.27L36.7984 114.063C37.0642 113.89 37.0642 113.456 36.7984 113.283L34.947 112.075C34.6402 111.876 34.2619 111.876 33.9545 112.075L32.1031 113.283C31.8372 113.456 31.8372 113.89 32.1031 114.063Z" fill="#1B0044"/>
<path d="M28.92 111.988L30.7714 113.196C31.0788 113.395 31.4565 113.395 31.7639 113.196L33.6153 111.988C33.8812 111.815 33.8812 111.381 33.6153 111.208L31.7639 110.001C31.4571 109.801 31.0794 109.801 30.7714 110.001L28.92 111.208C28.6541 111.381 28.6541 111.815 28.92 111.988Z" fill="#1B0044"/>
<path d="M60.6435 136.168L62.4949 134.961C62.8016 134.761 63.18 134.761 63.4867 134.961L65.3381 136.168C65.3394 136.169 65.3401 136.17 65.3401 136.17L68.5214 138.243C68.7873 138.416 68.7873 138.849 68.5214 139.023L66.6693 140.23C66.3632 140.43 65.9849 140.43 65.6775 140.23L60.6435 136.95C60.5099 136.864 60.4435 136.711 60.4441 136.559C60.4441 136.407 60.5099 136.254 60.6435 136.168Z" fill="#1B0044"/>
<path d="M57.4612 134.874L59.3126 136.081C59.6194 136.281 59.9977 136.281 60.3045 136.081L62.1565 134.874C62.4224 134.7 62.4224 134.266 62.1565 134.093L60.3045 132.886C59.9984 132.686 59.62 132.686 59.3126 132.886L57.4612 134.093C57.1954 134.266 57.1954 134.7 57.4612 134.874Z" fill="#1B0044"/>
<path d="M54.279 132.799L56.131 134.007C56.4372 134.207 56.8155 134.207 57.1229 134.007L58.9743 132.799C59.2401 132.625 59.2401 132.192 58.9743 132.019L57.1229 130.811C56.8161 130.611 56.4378 130.611 56.131 130.811L54.279 132.019C54.0131 132.192 54.0131 132.625 54.279 132.799Z" fill="#1B0044"/>
<path d="M51.0972 130.725L52.9486 131.932C53.2547 132.132 53.6331 132.132 53.9398 131.932L55.7919 130.725C56.0577 130.551 56.0577 130.118 55.7919 129.944L53.9398 128.736C53.6337 128.537 53.2554 128.537 52.9486 128.736L51.0972 129.944C50.8307 130.118 50.8307 130.551 51.0972 130.725Z" fill="#1B0044"/>
<path d="M47.915 128.65L49.7664 129.857C50.0725 130.057 50.4508 130.057 50.7582 129.857L52.6096 128.65C52.8755 128.477 52.8755 128.043 52.6096 127.87L50.7582 126.662C50.4515 126.463 50.0732 126.463 49.7664 126.662L47.915 127.87C47.6485 128.043 47.6485 128.477 47.915 128.65Z" fill="#1B0044"/>
<path d="M44.7328 126.575L46.5843 127.782C46.891 127.982 47.2687 127.982 47.5761 127.782L49.4275 126.575C49.6934 126.402 49.6934 125.968 49.4275 125.795L47.5761 124.588C47.2694 124.388 46.8917 124.388 46.5843 124.588L44.7328 125.795C44.4663 125.968 44.4663 126.402 44.7328 126.575Z" fill="#1B0044"/>
<path d="M41.5505 124.5L43.402 125.708C43.7087 125.908 44.0864 125.908 44.3938 125.708L46.2452 124.5C46.5111 124.328 46.5111 123.894 46.2452 123.72L44.3938 122.513C44.087 122.313 43.7094 122.313 43.402 122.513L41.5505 123.72C41.284 123.894 41.284 124.327 41.5505 124.5Z" fill="#1B0044"/>
<path d="M38.3678 122.427L40.2193 123.634C40.526 123.833 40.9037 123.833 41.2111 123.634L43.0625 122.427C43.329 122.253 43.329 121.819 43.0625 121.646L41.2111 120.438C40.9044 120.239 40.5267 120.239 40.2193 120.438L38.3678 121.646C38.102 121.819 38.102 122.253 38.3678 122.427Z" fill="#1B0044"/>
<path d="M35.1856 120.352L37.037 121.559C37.3438 121.759 37.7221 121.759 38.0288 121.559L39.8803 120.352C40.1468 120.179 40.1468 119.744 39.8803 119.571L38.0288 118.364C37.7227 118.165 37.3444 118.165 37.037 118.364L35.1856 119.571C34.9197 119.744 34.9197 120.178 35.1856 120.352Z" fill="#1B0044"/>
<path d="M32.0033 118.277L33.8547 119.484C34.1615 119.684 34.5398 119.684 34.8466 119.484L36.698 118.277C36.9645 118.104 36.9645 117.67 36.698 117.497L34.8466 116.29C34.5405 116.09 34.1621 116.09 33.8547 116.29L32.0033 117.497C31.7375 117.67 31.7375 118.103 32.0033 118.277Z" fill="#1B0044"/>
<path d="M28.8212 116.202L30.6726 117.41C30.9793 117.61 31.3576 117.61 31.6644 117.41L33.5165 116.202C33.7823 116.029 33.7823 115.596 33.5165 115.422L31.6644 114.215C31.3583 114.015 30.9799 114.015 30.6726 114.215L28.8212 115.422C28.5553 115.596 28.5553 116.029 28.8212 116.202Z" fill="#1B0044"/>
<path d="M22.4558 111.273L24.3079 110.066L27.5902 107.926C27.8969 107.726 28.2746 107.726 28.582 107.926L30.4335 109.133C30.6993 109.307 30.6993 109.74 30.4335 109.913L27.7493 111.664L30.3338 113.348C30.5996 113.521 30.5996 113.955 30.3338 114.128L28.4823 115.336C28.1756 115.536 27.7972 115.536 27.4905 115.336L22.4558 112.055C22.3229 111.969 22.2564 111.816 22.2564 111.664C22.2564 111.512 22.3229 111.36 22.4558 111.273Z" fill="#1B0044"/>
<path d="M54.0037 136.514C54.012 136.477 54.012 136.438 54.0286 136.404C54.035 136.391 54.0491 136.384 54.0567 136.371C54.0887 136.319 54.1239 136.268 54.1782 136.233L56.0296 135.026C56.1829 134.925 56.3542 134.875 56.5255 134.875C56.6968 134.875 56.8681 134.925 57.0208 135.026L58.8729 136.233L62.0548 138.308C62.0548 138.308 62.0561 138.31 62.0574 138.31L65.2374 140.382C65.5039 140.555 65.5039 140.989 65.2374 141.162L63.386 142.37C63.0799 142.57 62.7016 142.57 62.3942 142.37L54.1782 137.015C54.0446 136.929 53.9781 136.776 53.9781 136.624H53.9788C53.9788 136.586 53.996 136.551 54.0037 136.514Z" fill="#1B0044"/>
<path d="M50.9963 134.939L52.8477 136.146C53.1544 136.346 53.5328 136.346 53.8395 136.146L55.6916 134.939C55.9574 134.765 55.9574 134.332 55.6916 134.158L53.8395 132.951C53.5334 132.751 53.1551 132.751 52.8477 132.951L50.9963 134.158C50.7304 134.332 50.7304 134.764 50.9963 134.939Z" fill="#1B0044"/>
<path d="M47.8149 132.864L49.6669 134.071C49.973 134.271 50.3514 134.271 50.6581 134.071L52.5102 132.864C52.776 132.691 52.776 132.257 52.5102 132.084L50.6581 130.876C50.352 130.676 49.9737 130.676 49.6669 130.876L47.8149 132.084C47.549 132.257 47.549 132.69 47.8149 132.864Z" fill="#1B0044"/>
<path d="M44.6318 130.79L46.4832 131.997C46.7899 132.197 47.1683 132.197 47.4757 131.997L49.3271 130.79C49.5929 130.616 49.5929 130.183 49.3271 130.009L47.4757 128.801C47.1689 128.602 46.7906 128.602 46.4832 128.801L44.6318 130.009C44.3659 130.183 44.3659 130.616 44.6318 130.79Z" fill="#1B0044"/>
<path d="M41.4504 128.715L43.3024 129.922C43.6085 130.122 43.9869 130.122 44.2943 129.922L46.1457 128.715C46.4115 128.542 46.4115 128.108 46.1457 127.935L44.2943 126.727C43.9875 126.528 43.6092 126.528 43.3024 126.727L41.4504 127.935C41.1845 128.108 41.1845 128.541 41.4504 128.715Z" fill="#1B0044"/>
<path d="M38.2681 126.641L40.1195 127.847C40.4256 128.047 40.804 128.047 41.1114 127.847L42.9628 126.641C43.2287 126.468 43.2287 126.033 42.9628 125.86L41.1114 124.653C40.8046 124.453 40.4263 124.453 40.1195 124.653L38.2681 125.86C38.0023 126.033 38.0023 126.467 38.2681 126.641Z" fill="#1B0044"/>
<path d="M35.0859 124.566L36.9373 125.773C37.2441 125.973 37.6218 125.973 37.9292 125.773L39.7806 124.566C40.0465 124.393 40.0465 123.959 39.7806 123.785L37.9292 122.578C37.6224 122.378 37.2447 122.378 36.9373 122.578L35.0859 123.785C34.8201 123.959 34.8201 124.392 35.0859 124.566Z" fill="#1B0044"/>
<path d="M31.9028 122.491L33.7542 123.699C34.061 123.899 34.4387 123.899 34.7461 123.699L36.5975 122.491C36.864 122.318 36.864 121.884 36.5975 121.711L34.7461 120.503C34.4393 120.304 34.0616 120.304 33.7542 120.503L31.9028 121.711C31.637 121.884 31.637 122.317 31.9028 122.491Z" fill="#1B0044"/>
<path d="M28.7214 120.417L30.5728 121.624C30.8796 121.824 31.2573 121.824 31.5647 121.624L33.4161 120.417C33.6826 120.244 33.6826 119.81 33.4161 119.636L31.5647 118.429C31.2579 118.23 30.8802 118.23 30.5728 118.429L28.7214 119.636C28.4556 119.81 28.4556 120.243 28.7214 120.417Z" fill="#1B0044"/>
<path d="M54.0793 140.435L55.9307 139.228C56.2374 139.028 56.6158 139.028 56.9225 139.228L61.9572 142.521C62.2231 142.694 62.2231 143.128 61.9572 143.301L60.1051 144.508C59.7984 144.708 59.4207 144.708 59.1133 144.508L55.9709 142.453C55.9575 142.445 55.9435 142.442 55.9307 142.434L54.0793 141.226C53.9444 141.139 53.8792 140.984 53.8811 140.83C53.8792 140.677 53.9444 140.522 54.0793 140.435Z" fill="#1B0044"/>
<path d="M50.8965 139.152L52.748 140.36C53.0547 140.559 53.433 140.559 53.7398 140.36L55.5918 139.152C55.8577 138.979 55.8577 138.545 55.5918 138.372L53.7398 137.164C53.4337 136.965 53.0554 136.965 52.748 137.164L50.8965 138.372C50.6307 138.546 50.6307 138.979 50.8965 139.152Z" fill="#1B0044"/>
<path d="M47.7143 137.078L49.5657 138.285C49.8725 138.485 50.2508 138.485 50.5576 138.285L52.4096 137.078C52.6754 136.904 52.6754 136.47 52.4096 136.298L50.5576 135.09C50.2515 134.89 49.8731 134.89 49.5657 135.09L47.7143 136.298C47.4484 136.471 47.4484 136.904 47.7143 137.078Z" fill="#1B0044"/>
<path d="M28.6214 124.63L30.4728 125.838C30.7795 126.037 31.1572 126.037 31.4646 125.838L33.3161 124.63C33.5826 124.457 33.5826 124.023 33.3161 123.85L31.4646 122.642C31.1579 122.442 30.7802 122.442 30.4728 122.642L28.6214 123.85C28.3549 124.024 28.3549 124.457 28.6214 124.63Z" fill="#1B0044"/>
<path d="M25.4387 122.556L27.2901 123.763C27.5969 123.962 27.9752 123.962 28.282 123.763L30.1334 122.556C30.3993 122.383 30.3993 121.948 30.1334 121.775L28.282 120.568C27.9759 120.368 27.5975 120.368 27.2901 120.568L25.4387 121.775C25.1729 121.949 25.1729 122.383 25.4387 122.556Z" fill="#1B0044"/>
<path d="M22.2573 120.481L24.1087 121.688C24.4155 121.888 24.7938 121.888 25.1006 121.688L26.952 120.481C27.2185 120.308 27.2185 119.874 26.952 119.701L25.1006 118.494C24.7945 118.294 24.4161 118.294 24.1087 118.494L22.2573 119.701C21.9915 119.875 21.9915 120.308 22.2573 120.481Z" fill="#1B0044"/>
<path d="M15.8929 115.552L17.7443 114.344C18.0511 114.144 18.4294 114.144 18.7368 114.344L23.7702 117.626C24.0367 117.799 24.0367 118.233 23.7702 118.406L21.9194 119.614C21.6126 119.813 21.2343 119.813 20.9269 119.614L15.8929 116.332C15.627 116.158 15.627 115.725 15.8929 115.552Z" fill="#1B0044"/>
<path d="M12.3434 109.728L14.1948 110.935C14.5016 111.135 14.8793 111.135 15.1867 110.935L17.0381 109.728C17.3046 109.554 17.3046 109.12 17.0381 108.947L15.1867 107.74C14.8799 107.54 14.5022 107.54 14.1948 107.74L12.3434 108.947C12.0776 109.12 12.0776 109.554 12.3434 109.728Z" fill="#1B0044"/>
<path d="M12.2437 113.942L14.0951 115.149C14.4019 115.349 14.7796 115.349 15.087 115.149L16.9384 113.942C17.2042 113.768 17.2042 113.335 16.9384 113.162L15.087 111.954C14.7802 111.754 14.4025 111.754 14.0951 111.954L12.2437 113.162C11.9778 113.335 11.9778 113.768 12.2437 113.942Z" fill="#1B0044"/>
<path d="M9.06066 111.868L10.9121 113.075C11.2188 113.275 11.5965 113.275 11.9039 113.075L13.7553 111.868C14.0212 111.694 14.0212 111.26 13.7553 111.087L11.9039 109.88C11.5971 109.68 11.2195 109.68 10.9121 109.88L9.06066 111.087C8.7948 111.26 8.7948 111.694 9.06066 111.868Z" fill="#1B0044"/>
<path d="M5.87926 109.793L7.73066 111C8.03742 111.2 8.41511 111.2 8.72251 111L10.5739 109.793C10.8404 109.619 10.8404 109.185 10.5739 109.013L8.72251 107.805C8.41575 107.605 8.03806 107.605 7.73066 107.805L5.87926 109.013C5.61341 109.185 5.61341 109.619 5.87926 109.793Z" fill="#1B0044"/>
<path d="M31.8036 125.924L33.655 124.717C33.9618 124.517 34.3395 124.517 34.6469 124.717L49.2275 134.223C49.4933 134.396 49.4933 134.83 49.2275 135.003L47.3754 136.21C47.0693 136.41 46.691 136.41 46.3842 136.21L33.655 127.912L31.8036 126.705C31.5371 126.531 31.5371 126.098 31.8036 125.924Z" fill="#1B0044"/>
<path d="M19.1739 114.193L27.39 119.548C27.6967 119.747 28.0751 119.747 28.3818 119.548L30.2339 118.341C30.4997 118.167 30.4997 117.733 30.2339 117.56L22.0179 112.205C21.7111 112.005 21.3328 112.005 21.026 112.205L19.1739 113.413C18.9081 113.586 18.9081 114.019 19.1739 114.193Z" fill="#1B0044"/>
<path d="M28.1598 102.834L30.0113 104.04C30.2771 104.213 30.2771 104.648 30.0113 104.821L28.1598 106.028C27.8531 106.227 27.4747 106.227 27.1673 106.028L25.3159 104.821C25.0501 104.648 25.0501 104.213 25.3159 104.04L27.1673 102.834C27.4747 102.634 27.8531 102.634 28.1598 102.834Z" fill="#4D00AD"/>
<path d="M54.1401 119.733L55.9915 120.941C56.2573 121.114 56.2573 121.548 55.9915 121.721L54.1401 122.928C53.8333 123.128 53.4556 123.128 53.1482 122.928L51.2968 121.721C51.0309 121.548 51.0309 121.114 51.2968 120.941L53.1482 119.733C53.4556 119.533 53.8333 119.533 54.1401 119.733Z" fill="#4D00AD"/>
<path d="M49.9669 117.659C50.2737 117.459 50.6514 117.459 50.9588 117.659L52.8102 118.866C53.076 119.039 53.076 119.474 52.8102 119.647L50.9588 120.854C50.652 121.054 50.2743 121.054 49.9669 120.854L48.1155 119.647C47.8497 119.474 47.8497 119.039 48.1155 118.866L49.9669 117.659Z" fill="#4D00AD"/>
<path d="M60.4055 128.096L62.2569 129.304C62.5228 129.478 62.5228 129.911 62.2569 130.085L60.4055 131.292C60.0987 131.492 59.7204 131.492 59.4136 131.292L57.5616 130.085C57.2957 129.911 57.2957 129.478 57.5616 129.304L59.4136 128.096C59.7204 127.897 60.0987 127.897 60.4055 128.096Z" fill="#4D00AD"/>
<path d="M57.2242 126.022L59.0756 127.23C59.3415 127.403 59.3415 127.837 59.0756 128.011L57.2242 129.217C56.9175 129.417 56.5391 129.417 56.2324 129.217L54.3803 128.011C54.1144 127.837 54.1144 127.403 54.3803 127.23L56.2324 126.022C56.5385 125.823 56.9168 125.823 57.2242 126.022Z" fill="#4D00AD"/>
<path d="M31.8651 105.211L36.8991 108.491C37.0321 108.578 37.0992 108.731 37.0985 108.883C37.0992 109.035 37.0321 109.187 36.8991 109.273L35.0477 110.481C34.741 110.681 34.3626 110.681 34.0559 110.481L32.2045 109.273C32.2032 109.273 32.2025 109.272 32.2025 109.272L29.0212 107.199C28.7554 107.025 28.7554 106.592 29.0212 106.418L30.8733 105.211C31.18 105.011 31.5577 105.011 31.8651 105.211Z" fill="#4D00AD"/>
<path d="M41.4118 111.435L43.2632 112.643C43.5291 112.816 43.5291 113.25 43.2632 113.423L41.4118 114.631C41.1051 114.83 40.7267 114.83 40.42 114.631L38.5679 113.423C38.3021 113.25 38.3021 112.816 38.5679 112.643L40.42 111.435C40.7267 111.235 41.1051 111.235 41.4118 111.435Z" fill="#4D00AD"/>
<path d="M47.6765 119.798L49.5279 121.006C49.7937 121.179 49.7937 121.613 49.5279 121.786L47.6765 122.994C47.3697 123.193 46.9914 123.193 46.6846 122.994L44.8332 121.786C44.5667 121.613 44.5667 121.179 44.8332 121.006L46.6846 119.798C46.9914 119.598 47.3697 119.598 47.6765 119.798Z" fill="#4D00AD"/>
<path d="M62.6948 125.957C63.0016 125.758 63.3799 125.758 63.6867 125.957L65.5387 127.165C65.8046 127.338 65.8046 127.772 65.5387 127.945L63.6867 129.152C63.3805 129.352 63.0022 129.352 62.6948 129.152L60.844 127.945C60.5775 127.772 60.5775 127.338 60.844 127.165L62.6948 125.957Z" fill="#4D00AD"/>
<path d="M38.2296 109.361L40.081 110.568C40.3468 110.741 40.3468 111.175 40.081 111.348L38.2296 112.556C37.9228 112.755 37.5445 112.755 37.2377 112.556L35.3857 111.348C35.1198 111.175 35.1198 110.741 35.3857 110.568L37.2377 109.361C37.5445 109.161 37.9222 109.161 38.2296 109.361Z" fill="#4D00AD"/>
<path d="M44.4938 117.724L46.3452 118.931C46.6117 119.104 46.6117 119.539 46.3452 119.712L44.4938 120.919C44.187 121.118 43.8093 121.118 43.5019 120.919L41.6505 119.712C41.3846 119.539 41.3846 119.104 41.6505 118.931L43.5019 117.724C43.8087 117.524 44.1864 117.524 44.4938 117.724Z" fill="#4D00AD"/>
<path d="M43.1645 117.637L41.3124 118.844C41.0063 119.044 40.6279 119.044 40.3205 118.844L38.4691 117.637C38.2033 117.464 38.2033 117.03 38.4691 116.856L40.3205 115.65C40.6273 115.45 41.0056 115.45 41.3124 115.65L43.1645 116.856C43.4303 117.03 43.4303 117.464 43.1645 117.637Z" fill="#4D00AD"/>
<path d="M55.8924 125.936L54.0409 127.142C53.7342 127.342 53.3565 127.342 53.0491 127.142L51.1977 125.936C50.9312 125.762 50.9312 125.328 51.1977 125.155L53.0491 123.948C53.3558 123.748 53.7335 123.748 54.0409 123.948L55.8924 125.155C56.1582 125.328 56.1582 125.762 55.8924 125.936Z" fill="#4D00AD"/>
<path d="M40.1203 127.273L38.2689 126.066C38.003 125.892 38.003 125.458 38.2689 125.285L40.1203 124.078C40.4264 123.878 40.8047 123.878 41.1121 124.078L42.9635 125.285C43.2294 125.458 43.2294 125.892 42.9635 126.066L41.1121 127.273C40.8047 127.473 40.4264 127.473 40.1203 127.273Z" fill="#4D00AD"/>
<path d="M43.3032 129.347L41.4511 128.14C41.1852 127.966 41.1852 127.533 41.4511 127.36L43.3032 126.152C43.6093 125.952 43.9876 125.952 44.295 126.152L46.1464 127.36C46.4129 127.533 46.4129 127.966 46.1464 128.14L44.295 129.347C43.9883 129.547 43.6099 129.547 43.3032 129.347Z" fill="#4D00AD"/>
<path d="M46.4854 131.422L44.6334 130.214C44.3675 130.041 44.3675 129.607 44.6334 129.434L46.4854 128.227C46.7915 128.027 47.1699 128.027 47.4773 128.227L49.3287 129.434C49.5945 129.607 49.5945 130.041 49.3287 130.214L47.4773 131.422C47.1699 131.622 46.7915 131.622 46.4854 131.422Z" fill="#4D00AD"/>
<path d="M33.7558 123.124L31.9044 121.916C31.6386 121.743 31.6386 121.309 31.9044 121.136L33.7558 119.929C34.0626 119.729 34.4403 119.729 34.7477 119.929L36.5991 121.136C36.8656 121.309 36.8656 121.743 36.5991 121.916L34.7477 123.124C34.4403 123.324 34.0626 123.324 33.7558 123.124Z" fill="#4D00AD"/>
<path d="M36.9381 125.198L35.0867 123.991C34.8208 123.818 34.8208 123.383 35.0867 123.21L36.9381 122.004C37.2448 121.803 37.6225 121.803 37.9299 122.004L39.7813 123.21C40.0472 123.383 40.0472 123.818 39.7813 123.991L37.9299 125.198C37.6232 125.398 37.2455 125.398 36.9381 125.198Z" fill="#4D00AD"/>
<path d="M63.5879 133.366C63.2818 133.566 62.9035 133.566 62.5961 133.366L60.7447 132.159C60.4788 131.986 60.4788 131.552 60.7447 131.379L62.5961 130.171C62.9028 129.971 63.2812 129.971 63.5879 130.171L65.44 131.379C65.7058 131.552 65.7058 131.986 65.44 132.159L63.5879 133.366Z" fill="#4D00AD"/>
<path d="M60.3058 135.506C59.9991 135.706 59.6208 135.706 59.3134 135.506L57.462 134.299C57.1961 134.126 57.1961 133.691 57.462 133.519L59.3134 132.311C59.6201 132.111 59.9984 132.111 60.3058 132.311L62.1573 133.519C62.4231 133.691 62.4231 134.126 62.1573 134.299L60.3058 135.506Z" fill="#4D00AD"/>
<path d="M66.8691 128.032L68.7211 129.24C68.987 129.413 68.987 129.846 68.7211 130.02L66.8691 131.227C66.5629 131.427 66.1846 131.427 65.8778 131.227L64.0258 130.02C63.76 129.846 63.76 129.413 64.0258 129.24L65.8778 128.032C66.1846 127.832 66.5629 127.832 66.8691 128.032Z" fill="#4D00AD"/>
<path d="M53.8411 135.571C53.535 135.771 53.1567 135.771 52.8493 135.571L50.9979 134.364C50.732 134.191 50.732 133.757 50.9979 133.584L52.8493 132.376C53.156 132.176 53.5344 132.176 53.8411 132.376L55.6932 133.584C55.9591 133.757 55.9591 134.191 55.6932 134.364L53.8411 135.571Z" fill="#4D00AD"/>
<path d="M56.1317 133.431L54.2797 132.224C54.0139 132.051 54.0139 131.617 54.2797 131.444L56.1317 130.236C56.4379 130.036 56.8162 130.036 57.1236 130.236L58.975 131.444C59.2409 131.617 59.2409 132.051 58.975 132.224L57.1236 133.431C56.8162 133.631 56.4379 133.631 56.1317 133.431Z" fill="#4D00AD"/>
<path d="M49.6677 133.496L47.8156 132.289C47.5497 132.116 47.5497 131.682 47.8156 131.509L49.6677 130.301C49.9738 130.102 50.3521 130.102 50.6595 130.301L52.5109 131.509C52.7768 131.682 52.7768 132.116 52.5109 132.289L50.6595 133.496C50.3528 133.696 49.9744 133.696 49.6677 133.496Z" fill="#4D00AD"/>
<path d="M49.7679 129.282L47.9165 128.075C47.6501 127.902 47.6501 127.468 47.9165 127.295L49.7679 126.087C50.0741 125.888 50.4524 125.888 50.7598 126.087L52.6112 127.295C52.8771 127.468 52.8771 127.902 52.6112 128.075L50.7598 129.282C50.4524 129.482 50.0741 129.482 49.7679 129.282Z" fill="#4D00AD"/>
<path d="M30.5736 121.049L28.7222 119.842C28.4563 119.668 28.4563 119.235 28.7222 119.061L30.5736 117.854C30.8803 117.654 31.2586 117.654 31.5654 117.854L33.4168 119.061C33.6833 119.235 33.6833 119.668 33.4168 119.842L31.5654 121.049C31.2593 121.249 30.881 121.249 30.5736 121.049Z" fill="#4D00AD"/>
<path d="M21.796 98.6841L23.6474 99.8914C23.9133 100.065 23.9133 100.498 23.6474 100.671L21.796 101.879C21.4893 102.079 21.1109 102.079 20.8042 101.879L18.9527 100.671C18.6862 100.498 18.6862 100.065 18.9527 99.8914L20.8042 98.6841C21.1109 98.4842 21.4893 98.4842 21.796 98.6841Z" fill="#4D00AD"/>
<path d="M24.9776 100.759L26.8297 101.965C27.0955 102.139 27.0955 102.573 26.8297 102.746L24.9776 103.953C24.6715 104.153 24.2931 104.153 23.9864 103.953L22.135 102.746C21.8685 102.573 21.8685 102.139 22.135 101.965L23.9864 100.759C24.2925 100.559 24.6709 100.559 24.9776 100.759Z" fill="#4D00AD"/>
<path d="M38.1291 113.575L39.9805 114.782C40.2469 114.955 40.2469 115.389 39.9805 115.562L38.1291 116.77C37.8229 116.97 37.4446 116.97 37.1372 116.77L35.2851 115.562C35.0193 115.389 35.0193 114.955 35.2851 114.782L37.1365 113.575C37.4439 113.375 37.8223 113.375 38.1291 113.575Z" fill="#4D00AD"/>
<path d="M22.034 106.185L23.8854 104.978C24.1922 104.778 24.5705 104.778 24.8779 104.978L26.7293 106.185C26.9951 106.359 26.9951 106.792 26.7293 106.966L24.8779 108.173C24.5711 108.373 24.1928 108.373 23.8854 108.173L22.034 106.966C21.7681 106.792 21.7681 106.359 22.034 106.185Z" fill="#4D00AD"/>
<path d="M33.8555 118.91L32.0041 117.702C31.7382 117.529 31.7382 117.095 32.0041 116.921L33.8555 115.715C34.1622 115.515 34.5406 115.515 34.8473 115.715L36.6988 116.921C36.9653 117.095 36.9653 117.529 36.6988 117.702L34.8473 118.91C34.5406 119.109 34.1629 119.109 33.8555 118.91Z" fill="#4D00AD"/>
<path d="M30.773 112.621L28.9216 111.413C28.6557 111.24 28.6557 110.806 28.9216 110.633L30.773 109.426C31.0797 109.226 31.4581 109.226 31.7655 109.426L33.6169 110.633C33.8827 110.806 33.8827 111.24 33.6169 111.413L31.7655 112.621C31.4581 112.821 31.0797 112.821 30.773 112.621Z" fill="#4D00AD"/>
<path d="M30.6733 116.835L28.8219 115.627C28.556 115.454 28.556 115.02 28.8219 114.847L30.6733 113.64C30.98 113.44 31.3584 113.44 31.6651 113.64L33.5172 114.847C33.7831 115.02 33.7831 115.454 33.5172 115.627L31.6651 116.835C31.3584 117.034 30.98 117.034 30.6733 116.835Z" fill="#4D00AD"/>
<path d="M34.9477 111.5L36.7991 112.708C37.065 112.881 37.065 113.314 36.7991 113.488L34.9477 114.696C34.641 114.895 34.2626 114.895 33.9552 114.696L32.1038 113.488C31.838 113.314 31.838 112.881 32.1038 112.708L33.9552 111.5C34.2626 111.3 34.641 111.3 34.9477 111.5Z" fill="#4D00AD"/>
<path d="M27.4912 114.761L22.4565 111.48C22.3236 111.394 22.2571 111.241 22.2571 111.089C22.2571 110.937 22.3236 110.785 22.4565 110.698L24.3086 109.491L27.5909 107.351C27.8977 107.151 28.2754 107.151 28.5828 107.351L30.4342 108.558C30.7 108.732 30.7 109.166 30.4342 109.338L27.75 111.089L30.3345 112.773C30.6003 112.946 30.6003 113.379 30.3345 113.553L28.4831 114.761C28.1757 114.961 27.798 114.961 27.4912 114.761Z" fill="#4D00AD"/>
<path d="M49.8672 125.068L48.0158 123.861C47.7499 123.687 47.7499 123.254 48.0158 123.08L49.8672 121.873C50.174 121.673 50.5516 121.673 50.859 121.873L52.7104 123.08C52.9763 123.254 52.9763 123.687 52.7104 123.861L50.859 125.068C50.5516 125.268 50.174 125.268 49.8672 125.068Z" fill="#4D00AD"/>
<path d="M53.9406 128.162L55.7926 129.369C56.0584 129.542 56.0584 129.976 55.7926 130.149L53.9406 131.357C53.6344 131.557 53.2561 131.557 52.9493 131.357L51.0979 130.149C50.8314 129.976 50.8314 129.542 51.0979 129.369L52.9493 128.162C53.2561 127.962 53.6338 127.962 53.9406 128.162Z" fill="#4D00AD"/>
<path d="M37.0378 120.984L35.1863 119.777C34.9205 119.603 34.9205 119.17 35.1863 118.996L37.0378 117.789C37.3445 117.589 37.7229 117.589 38.0296 117.789L39.881 118.996C40.1475 119.17 40.1475 119.603 39.881 119.777L38.0296 120.984C37.7229 121.184 37.3445 121.184 37.0378 120.984Z" fill="#4D00AD"/>
<path d="M46.585 127.208L44.7336 126.001C44.4671 125.827 44.4671 125.393 44.7336 125.22L46.585 124.013C46.8918 123.813 47.2695 123.813 47.5768 124.013L49.4282 125.22C49.6941 125.393 49.6941 125.827 49.4282 126.001L47.5768 127.208C47.2695 127.407 46.8924 127.407 46.585 127.208Z" fill="#4D00AD"/>
<path d="M40.22 123.059L38.3686 121.851C38.1027 121.678 38.1027 121.244 38.3686 121.071L40.22 119.864C40.5268 119.664 40.9051 119.664 41.2119 119.864L43.0633 121.071C43.3298 121.244 43.3298 121.678 43.0633 121.851L41.2119 123.059C40.9051 123.259 40.5274 123.259 40.22 123.059Z" fill="#4D00AD"/>
<path d="M43.4035 125.133L41.5521 123.926C41.2856 123.753 41.2856 123.318 41.5521 123.145L43.4035 121.938C43.7103 121.738 44.088 121.738 44.3954 121.938L46.2468 123.145C46.5126 123.318 46.5126 123.753 46.2468 123.926L44.3954 125.133C44.088 125.333 43.7103 125.333 43.4035 125.133Z" fill="#4D00AD"/>
<path d="M60.4457 135.984C60.445 135.832 60.5115 135.68 60.6451 135.593L62.4965 134.385C62.8032 134.186 63.1816 134.186 63.4883 134.385L65.3398 135.593L65.3417 135.595L68.5224 137.667C68.7882 137.841 68.7882 138.274 68.5224 138.447L66.671 139.655C66.3649 139.855 65.9865 139.855 65.6791 139.655L60.6451 136.375C60.5109 136.288 60.445 136.136 60.4457 135.984Z" fill="#4D00AD"/>
<path d="M53.9797 136.049C53.9797 136.01 53.9964 135.976 54.0047 135.94C54.013 135.902 54.013 135.863 54.0296 135.829C54.036 135.816 54.05 135.81 54.0577 135.798C54.0897 135.745 54.1248 135.694 54.1791 135.658L56.0305 134.451C56.1839 134.351 56.3552 134.302 56.5265 134.302C56.6977 134.302 56.869 134.351 57.0218 134.451L58.8738 135.658V135.659L62.0558 137.733C62.0571 137.734 62.057 137.735 62.057 137.735L65.2384 139.808C65.5043 139.981 65.5043 140.415 65.2384 140.588L63.387 141.796C63.0809 141.996 62.7025 141.996 62.3952 141.796L54.1791 136.441C54.0462 136.353 53.9797 136.201 53.9797 136.049Z" fill="#4D00AD"/>
<path d="M27.3915 118.973L19.1755 113.618C18.9096 113.444 18.9096 113.011 19.1755 112.838L21.0205 111.635C21.0397 111.627 21.0588 111.619 21.0761 111.608C21.3739 111.438 21.7286 111.44 22.02 111.63L30.236 116.985C30.5019 117.159 30.5019 117.592 30.236 117.766L28.384 118.973C28.0766 119.173 27.6982 119.173 27.3915 118.973Z" fill="#4D00AD"/>
<path d="M52.7487 136.59C53.0555 136.39 53.4338 136.39 53.7406 136.59L55.592 137.798C55.8584 137.97 55.8584 138.405 55.592 138.578L53.7406 139.785C53.4344 139.985 53.0561 139.985 52.7487 139.785L50.8973 138.578C50.6314 138.405 50.6314 137.97 50.8973 137.798L52.7487 136.59Z" fill="#4D00AD"/>
<path d="M70.3902 133.388L72.2416 132.181C72.5483 131.981 72.926 131.981 73.2334 132.181L75.0849 133.388C75.3514 133.561 75.3514 133.995 75.0849 134.168L73.2334 135.376C72.9267 135.576 72.549 135.576 72.2416 135.376L70.3902 134.168C70.1243 133.995 70.1243 133.561 70.3902 133.388Z" fill="#4D00AD"/>
<path d="M55.9314 138.652C56.2382 138.453 56.6165 138.453 56.9233 138.652L61.9579 141.946C62.2238 142.119 62.2238 142.553 61.9579 142.726L60.1059 143.934C59.7991 144.134 59.4214 144.134 59.114 143.934L55.9717 141.877C55.9583 141.869 55.9442 141.867 55.9314 141.859L54.08 140.651C53.9451 140.564 53.88 140.41 53.8819 140.255C53.88 140.101 53.9451 139.947 54.08 139.859L55.9314 138.652Z" fill="#4D00AD"/>
<path d="M64.44 124.516C64.1339 124.716 63.7555 124.716 63.4488 124.516L61.5967 123.309C61.3309 123.135 61.3309 122.701 61.5967 122.528L62.1278 122.173C62.4346 121.973 62.8129 121.973 63.1197 122.173L64.9711 123.381C65.2376 123.554 65.2376 123.987 64.9711 124.161L64.44 124.516Z" fill="#4D00AD"/>
<path d="M49.5665 134.515C49.8732 134.315 50.2515 134.315 50.5583 134.515L52.4103 135.723C52.6762 135.896 52.6762 136.33 52.4103 136.503L50.5583 137.711C50.2522 137.911 49.8738 137.911 49.5665 137.711L47.715 136.503C47.4492 136.33 47.4492 135.896 47.715 135.723L49.5665 134.515Z" fill="#4D00AD"/>
<path d="M67.6231 126.59C67.317 126.79 66.9387 126.79 66.6313 126.59L64.7798 125.383C64.514 125.21 64.514 124.776 64.7798 124.603L65.3109 124.247C65.6177 124.047 65.996 124.047 66.3028 124.247L68.1542 125.455C68.4207 125.628 68.4207 126.062 68.1542 126.235L67.6231 126.59Z" fill="#4D00AD"/>
<path d="M70.052 133.301C69.7452 133.501 69.3669 133.501 69.0601 133.301L67.2081 132.094C66.9422 131.92 66.9422 131.487 67.2081 131.313L69.0601 130.106C69.3662 129.906 69.7446 129.906 70.052 130.106L71.9034 131.313C72.1692 131.487 72.1692 131.92 71.9034 132.094L70.052 133.301Z" fill="#4D00AD"/>
<path d="M74.3256 130.826L74.8567 130.471C75.1635 130.271 75.5412 130.271 75.8486 130.471L77.7 131.679C77.9658 131.852 77.9658 132.286 77.7 132.459L77.1689 132.814C76.8621 133.014 76.4844 133.014 76.177 132.814L74.3256 131.607C74.0598 131.434 74.0598 131.001 74.3256 130.826Z" fill="#4D00AD"/>
<path d="M70.8052 128.665C70.4991 128.865 70.1208 128.865 69.8134 128.665L67.962 127.458C67.6961 127.284 67.6961 126.851 67.962 126.678L68.493 126.322C68.7998 126.122 69.1775 126.122 69.4849 126.322L71.3363 127.53C71.6021 127.702 71.6021 128.136 71.3363 128.309L70.8052 128.665Z" fill="#4D00AD"/>
<path d="M7.73139 107.23C8.03815 107.03 8.41585 107.03 8.72324 107.23L10.5747 108.438C10.8412 108.611 10.8412 109.045 10.5747 109.218L8.72324 110.425C8.41649 110.625 8.03879 110.625 7.73139 110.425L5.88 109.218C5.61414 109.045 5.61414 108.611 5.88 108.438L7.73139 107.23Z" fill="#4D00AD"/>
<path d="M62.3575 125.87L60.506 127.077C60.1993 127.277 59.821 127.277 59.5142 127.077L57.6622 125.87C57.3963 125.697 57.3963 125.263 57.6622 125.09L59.5142 123.882C59.8203 123.683 60.1986 123.683 60.506 123.882L62.3575 125.09C62.6233 125.263 62.6233 125.697 62.3575 125.87Z" fill="#4D00AD"/>
<path d="M10.9136 109.304C11.2204 109.104 11.5981 109.104 11.9055 109.304L13.7569 110.512C14.0228 110.685 14.0228 111.118 13.7569 111.292L11.9055 112.5C11.5987 112.7 11.221 112.7 10.9136 112.5L9.06225 111.292C8.79639 111.118 8.79639 110.685 9.06225 110.512L10.9136 109.304Z" fill="#4D00AD"/>
<path d="M30.4735 122.068C30.7803 121.869 31.158 121.869 31.4654 122.068L33.3168 123.275C33.5833 123.449 33.5833 123.883 33.3168 124.056L31.4654 125.263C31.1586 125.463 30.7809 125.463 30.4735 125.263L28.6221 124.056C28.3556 123.883 28.3556 123.449 28.6221 123.275L30.4735 122.068Z" fill="#4D00AD"/>
<path d="M33.6558 124.143C33.9619 123.943 34.3402 123.943 34.6476 124.143L49.2282 133.649C49.4941 133.822 49.4941 134.256 49.2282 134.429L47.3762 135.636C47.0701 135.836 46.6917 135.836 46.385 135.636L31.8044 126.131C31.5379 125.958 31.5379 125.524 31.8044 125.35L33.6558 124.143Z" fill="#4D00AD"/>
<path d="M27.2908 119.994C27.5976 119.794 27.9759 119.794 28.2827 119.994L30.1341 121.201C30.4 121.374 30.4 121.808 30.1341 121.981L28.2827 123.188C27.9766 123.388 27.5982 123.388 27.2908 123.188L25.4394 121.981C25.1736 121.808 25.1736 121.374 25.4394 121.201L27.2908 119.994Z" fill="#4D00AD"/>
<path d="M14.0958 111.379C14.402 111.179 14.7803 111.179 15.0877 111.379L16.9391 112.587C17.205 112.76 17.205 113.193 16.9391 113.367L15.0877 114.574C14.7809 114.774 14.4026 114.774 14.0958 114.574L12.2444 113.367C11.9786 113.193 11.9786 112.76 12.2444 112.587L14.0958 111.379Z" fill="#4D00AD"/>
<path d="M17.745 113.77C18.0518 113.57 18.4301 113.57 18.7375 113.77L23.7709 117.052C24.0374 117.225 24.0374 117.659 23.7709 117.832L21.9201 119.04C21.6134 119.239 21.235 119.239 20.9276 119.04L15.8936 115.758C15.6277 115.584 15.6277 115.15 15.8936 114.977L17.745 113.77Z" fill="#4D00AD"/>
<path d="M24.1095 117.919C24.4162 117.719 24.7946 117.719 25.1013 117.919L26.9527 119.126C27.2192 119.3 27.2192 119.733 26.9527 119.906L25.1013 121.114C24.7952 121.314 24.4169 121.314 24.1095 121.114L22.258 119.906C21.9922 119.733 21.9922 119.3 22.258 119.126L24.1095 117.919Z" fill="#4D00AD"/>
<path d="M63.7267 133.844C63.7261 133.692 63.7925 133.54 63.9261 133.454L65.7775 132.246C66.0842 132.046 66.4626 132.046 66.7693 132.246L68.6208 133.454C68.622 133.454 68.6227 133.455 68.6233 133.456L71.8034 135.528C72.0699 135.701 72.0699 136.135 71.8034 136.308L69.9519 137.516C69.6458 137.715 69.2675 137.715 68.9601 137.516L63.9261 134.236C63.7925 134.149 63.7261 133.997 63.7267 133.844Z" fill="#4D00AD"/>
<path d="M17.5215 104.024L15.6695 102.817C15.4036 102.643 15.4036 102.209 15.6695 102.036L17.5215 100.829C17.8277 100.629 18.206 100.629 18.5134 100.829L20.3648 102.036C20.6306 102.209 20.6306 102.643 20.3648 102.817L18.5134 104.024C18.206 104.223 17.8277 104.223 17.5215 104.024Z" fill="#4D00AD"/>
<path d="M18.8517 104.111L20.7038 102.903C21.0099 102.704 21.3882 102.704 21.6956 102.903L23.547 104.111C23.8129 104.284 23.8129 104.718 23.547 104.891L21.6956 106.098C21.3889 106.298 21.0106 106.298 20.7038 106.098L18.8517 104.891C18.5859 104.718 18.5859 104.284 18.8517 104.111Z" fill="#4D00AD"/>
<path d="M57.3223 125.003C57.0155 125.203 56.6378 125.203 56.3305 125.003L54.4791 123.796C54.2132 123.623 54.2132 123.188 54.4791 123.015L56.3305 121.808C56.6372 121.608 57.0149 121.608 57.3223 121.808L59.1737 123.015C59.4396 123.188 59.4396 123.623 59.1737 123.796L57.3223 125.003Z" fill="#4D00AD"/>
<path d="M15.1874 110.36C14.8807 110.56 14.503 110.56 14.1956 110.36L12.3442 109.153C12.0783 108.98 12.0783 108.546 12.3442 108.373L14.1956 107.165C14.5023 106.966 14.88 106.966 15.1874 107.165L17.0388 108.373C17.3053 108.546 17.3053 108.98 17.0388 109.153L15.1874 110.36Z" fill="#4D00AD"/>
<path d="M25.7306 99.3169C25.4238 99.5168 25.0455 99.5168 24.7387 99.3169L22.8873 98.1096C22.6208 97.9364 22.6208 97.5027 22.8873 97.3296L23.4178 96.9745C23.7245 96.7746 24.1029 96.7746 24.4096 96.9745L26.261 98.1811C26.5275 98.3543 26.5275 98.7887 26.261 98.9619L25.7306 99.3169Z" fill="#4D00AD"/>
<path d="M44.5935 116.705C44.2873 116.905 43.909 116.905 43.6016 116.705L41.7502 115.497C41.4843 115.324 41.4843 114.891 41.7502 114.717L43.6016 113.51C43.9084 113.31 44.2867 113.31 44.5935 113.51L46.4455 114.717C46.7113 114.891 46.7113 115.324 46.4455 115.497L44.5935 116.705Z" fill="#4D00AD"/>
<path d="M51.7119 116.218C51.4051 116.417 51.0274 116.417 50.72 116.218L48.8686 115.01C48.6027 114.837 48.6027 114.403 48.8686 114.23L49.3997 113.874C49.7058 113.675 50.0841 113.675 50.3915 113.874L52.2429 115.082C52.5088 115.255 52.5088 115.689 52.2429 115.862L51.7119 116.218Z" fill="#4D00AD"/>
<path d="M49.6279 117.572L47.7765 118.779C47.4704 118.979 47.0921 118.979 46.7847 118.779L44.9333 117.572C44.6674 117.399 44.6674 116.965 44.9333 116.791L46.7847 115.584C47.0914 115.385 47.4698 115.385 47.7765 115.584L49.6279 116.791C49.8944 116.965 49.8944 117.399 49.6279 117.572Z" fill="#4D00AD"/>
<path d="M54.8946 118.292C54.5878 118.492 54.2101 118.492 53.9027 118.292L52.0513 117.085C51.7848 116.912 51.7848 116.478 52.0513 116.305L52.5824 115.949C52.8885 115.749 53.2668 115.749 53.5742 115.949L55.4257 117.156C55.6915 117.33 55.6915 117.764 55.4257 117.937L54.8946 118.292Z" fill="#4D00AD"/>
<path d="M58.0768 120.367C57.7701 120.567 57.3924 120.567 57.085 120.367L55.2336 119.16C54.9671 118.986 54.9671 118.553 55.2336 118.38L55.7647 118.024C56.0708 117.824 56.4491 117.824 56.7565 118.024L58.6079 119.231C58.8738 119.404 58.8738 119.838 58.6079 120.012L58.0768 120.367Z" fill="#4D00AD"/>
<path d="M42.1652 109.994C41.8591 110.193 41.4807 110.193 41.1733 109.994L39.322 108.787C39.0561 108.614 39.0561 108.179 39.322 108.006L39.853 107.651C40.1598 107.451 40.5375 107.451 40.8449 107.651L42.6963 108.858C42.9628 109.031 42.9628 109.465 42.6963 109.638L42.1652 109.994Z" fill="#4D00AD"/>
<path d="M35.8014 105.845C35.4947 106.045 35.1163 106.045 34.8089 105.845L32.9575 104.637C32.6917 104.464 32.6917 104.031 32.9575 103.857L33.4886 103.502C33.7954 103.302 34.1737 103.302 34.4804 103.502L36.3319 104.709C36.5984 104.882 36.5984 105.316 36.3319 105.489L35.8014 105.845Z" fill="#4D00AD"/>
<path d="M32.0952 103.466C31.7884 103.666 31.4101 103.666 31.1027 103.466L29.2513 102.259C28.9854 102.086 28.9854 101.652 29.2513 101.479L29.7823 101.123C30.0891 100.923 30.4668 100.923 30.7742 101.123L32.6256 102.33C32.8914 102.504 32.8914 102.938 32.6256 103.111L32.0952 103.466Z" fill="#4D00AD"/>
<path d="M38.9836 107.919C38.6769 108.119 38.2985 108.119 37.9918 107.919L36.1397 106.712C35.8738 106.539 35.8738 106.105 36.1397 105.931L36.6708 105.576C36.9775 105.376 37.3559 105.376 37.6626 105.576L39.5147 106.784C39.7805 106.957 39.7805 107.39 39.5147 107.564L38.9836 107.919Z" fill="#4D00AD"/>
<path d="M28.9138 101.392C28.607 101.591 28.2287 101.591 27.9213 101.392L26.0699 100.184C25.804 100.011 25.804 99.5774 26.0699 99.4042L26.6009 99.0484C26.9077 98.8493 27.2854 98.8493 27.5928 99.0484L29.4442 100.256C29.7107 100.429 29.7107 100.863 29.4442 101.037L28.9138 101.392Z" fill="#4D00AD"/>
<path d="M45.3475 112.068C45.0413 112.268 44.663 112.268 44.3556 112.068L42.5042 110.861C42.2383 110.688 42.2383 110.254 42.5042 110.081L43.0353 109.725C43.3414 109.526 43.7197 109.526 44.0271 109.725L45.8786 110.932C46.1444 111.106 46.1444 111.54 45.8786 111.713L45.3475 112.068Z" fill="#4D00AD"/>
<path d="M113.124 135.706C113.208 137.658 110.239 138.571 108.477 139.458C107.028 140.111 105.437 142.906 103.084 142.954C87.1636 143.276 102.594 125.056 110.027 132.41C110.11 132.493 112.829 133.474 113.124 135.706Z" fill="#EAE9EC"/>
<path d="M113.119 135.804C112.792 138.339 108.749 138.925 107.103 140.767C102.554 146.266 90.7722 142.032 98.4373 134.294C92.8805 140.349 99.5589 142.952 103.042 141.133C105.607 139.625 107.18 134.827 112.939 134.869C113.006 135.122 113.138 135.254 113.119 135.804Z" fill="#B5C4D1"/>
<path d="M106.217 132.478L106.797 132.891C106.898 132.86 107.011 132.809 107.138 132.743C107.639 132.346 108.993 132.105 109.879 131.972C109.739 130.752 107.387 129.786 106.333 132.219C106.264 132.379 106.217 132.478 106.217 132.478Z" fill="#4D00AD"/>
<path d="M110.108 132.484C110.108 132.484 110.024 131.3 108.748 131.196C107.473 131.092 106.796 132.892 106.796 132.892C106.796 132.892 108.234 132.293 110.108 132.484Z" fill="#1B0044"/>
<path d="M119.38 21.3106C119.359 21.3106 119.337 21.3092 119.314 21.307C118.964 21.2666 118.708 20.913 118.742 20.5161C119.368 13.4939 116.713 5.62953 112.696 2.61383C111.043 1.37117 109.383 1.1085 107.891 1.85178C105.81 2.88949 104.312 5.72262 103.781 9.62666C103.745 9.89366 103.713 10.1628 103.688 10.4327C103.649 10.8296 103.327 11.1161 102.983 11.0728C102.633 11.0295 102.379 10.6738 102.417 10.2776C102.445 9.98676 102.479 9.69593 102.518 9.40872C103.116 5.00676 104.886 1.77169 107.375 0.531198C109.256 -0.407646 111.399 -0.0944564 113.404 1.41087C117.853 4.75203 120.694 13.027 120.014 20.6604C119.982 21.0328 119.704 21.3106 119.38 21.3106Z" fill="#1B0044"/>
<path d="M121.551 91.9116L120.668 27.4835L129.307 26.0092L132.899 93.147L121.551 91.9116Z" fill="#FF6556"/>
<path d="M114.266 97.9949L116.151 32.9772L120.714 27.4423L121.599 91.9036L113.985 104.173L114.266 97.9949Z" fill="#FE9144"/>
<path d="M79.0594 81.2864L83.6678 12.2181L116.192 32.9644L114.029 104.131L79.0594 81.2864Z" fill="#FEB732"/>
<path d="M83.7778 12.2426L92.4648 12.3486L92.4099 17.8525L83.7778 12.2426Z" fill="#FF6556"/>
<path d="M92.3668 17.823L92.4231 12.3674L96.4269 4.53625L96.7017 20.589L92.3668 17.823Z" fill="#FE9144"/>
<path d="M96.663 20.5681L96.3696 4.65247L129.319 26.059L120.703 27.5369L116.18 33.0184L96.663 20.5681Z" fill="#C52887"/>
<path d="M87.9185 38.0944L87.6067 41.048L111.341 56.4325L111.653 53.5373L87.9185 38.0944Z" fill="#EAE9EC"/>
<path d="M91.4444 46.4473L91.1332 49.4002L103.618 57.5186L103.93 54.6241L91.4444 46.4473Z" fill="#EAE9EC"/>
<path d="M111.17 34.2062C111.149 34.2062 111.127 34.2048 111.105 34.2026C110.754 34.1622 110.498 33.8086 110.533 33.4117C111.158 26.3895 108.502 18.5259 104.486 15.5094C102.833 14.2675 101.172 14.0041 99.6806 14.7474C97.5997 15.7851 96.1024 18.6189 95.5713 22.5223C95.5342 22.7907 95.5036 23.0599 95.4774 23.3305C95.4384 23.7259 95.1367 24.0153 94.7718 23.9684C94.421 23.9244 94.1685 23.5679 94.2069 23.1717C94.2356 22.8816 94.2695 22.5908 94.3085 22.3029C94.9066 17.9031 96.6769 14.668 99.1648 13.4275C101.047 12.4879 103.19 12.8019 105.194 14.3072C109.643 17.6483 112.485 25.924 111.805 33.5567C111.772 33.9284 111.495 34.2062 111.17 34.2062Z" fill="#1B0044"/>
<path d="M16.283 7.73672L23.3384 4.98226L25.9797 1.33801L29.4097 61.515L15.8593 51.2895L16.283 7.73672Z" fill="#1B0044"/>
<path d="M82.7886 89.6161L29.3712 61.515L25.9418 1.33801L79.3561 35.9035L82.7886 89.6161Z" fill="#4D00AD"/>
<path d="M68.5809 82.114L68.1815 99.247L82.7806 89.6089L68.5809 82.114Z" fill="#4D00AD"/>
<path d="M69.6591 42.3022L72.9312 37.6844L79.3558 35.9034L82.7883 89.616L68.6289 82.2489L69.6591 42.3022Z" fill="#C52887"/>
<path d="M68.1816 99.2471L14.7687 64.6802L16.2456 7.73682L69.6592 42.3023L68.1816 99.2471Z" fill="#FF3E6F"/>
<path d="M37.6883 31.026C37.6883 32.0572 37.0441 32.4722 36.2491 31.9533C35.4528 31.4345 34.8087 30.1788 34.8087 29.1483C34.8087 28.1171 35.4528 27.7007 36.2491 28.221C37.0441 28.7406 37.6883 29.9955 37.6883 31.026Z" fill="#1B0044"/>
<path d="M52.0898 40.2608C52.0898 41.2906 51.4436 41.7063 50.6493 41.1874C49.8517 40.6686 49.2075 39.4136 49.2075 38.3824C49.2075 37.3512 49.8517 36.9363 50.6493 37.4551C51.4443 37.974 52.0898 39.2296 52.0898 40.2608Z" fill="#1B0044"/>
<path d="M45.0002 56.527C43.8294 56.527 42.6669 56.1417 41.6245 55.3753C37.822 52.5783 35.5533 47.8494 35.5533 42.7265V29.9551C35.5533 29.5178 35.8658 29.1627 36.2537 29.1627C36.6397 29.1627 36.9548 29.517 36.9548 29.9551V42.7265C36.9548 47.3125 38.9877 51.5463 42.3902 54.0482C43.8901 55.1516 45.723 55.2339 47.2964 54.2719C48.8691 53.31 49.8079 51.529 49.8079 49.5099V39.0094C49.8079 38.5714 50.1211 38.217 50.509 38.217C50.8957 38.217 51.2101 38.5707 51.2101 39.0094V49.5099C51.2101 52.1186 49.9971 54.4199 47.9655 55.6625C47.0228 56.2398 46.0093 56.527 45.0002 56.527Z" fill="white"/>
<defs>
<linearGradient id="paint0_linear_4_828" x1="105.369" y1="148.934" x2="123.66" y2="122.536" gradientUnits="userSpaceOnUse">
<stop stop-color="#A1A1BD"/>
<stop offset="1" stop-color="white"/>
</linearGradient>
<linearGradient id="paint1_linear_4_828" x1="40.4777" y1="136.863" x2="62.8448" y2="103.849" gradientUnits="userSpaceOnUse">
<stop offset="0.127" stop-color="#A1A1BD"/>
<stop offset="0.8884" stop-color="white"/>
</linearGradient>
<linearGradient id="paint2_linear_4_828" x1="49.6904" y1="87.0445" x2="70.9579" y2="55.6536" gradientUnits="userSpaceOnUse">
<stop offset="0.127" stop-color="#A1A1BD"/>
<stop offset="0.8884" stop-color="white"/>
</linearGradient>
</defs>
</svg>
