<svg width="149" height="172" viewBox="0 0 149 172" fill="none" xmlns="http://www.w3.org/2000/svg">
<path d="M60.2415 122.138C60.2415 123.631 60.759 124.689 61.5976 125.201C61.6217 125.217 64.2428 126.735 64.2686 126.748C65.1395 127.236 64.5804 126.128 65.9068 125.365C68.5694 123.826 70.7302 120.102 70.7302 117.044C70.7302 115.533 72.1287 115.521 71.271 115.017C71.2478 115.002 68.4582 113.459 68.4342 113.445C67.5641 112.974 66.3763 113.061 65.0674 113.816C62.4031 115.355 60.2415 119.081 60.2415 122.138Z" fill="#4D00AD"/>
<path d="M63.0386 123.724C63.0386 126.781 65.1994 128.012 67.862 126.474C70.5254 124.935 72.687 121.21 72.687 118.154C72.687 115.097 70.5263 113.865 67.862 115.404C65.1994 116.942 63.0386 120.666 63.0386 123.724Z" fill="#1B0044"/>
<path d="M27.5725 141.822C27.5725 143.316 28.0876 144.373 28.9245 144.885C28.9503 144.901 31.5706 146.417 31.598 146.431C32.4681 146.92 31.9107 145.813 33.2345 145.049C35.9005 143.512 38.0596 139.786 38.0596 136.729C38.0596 135.217 39.4573 135.205 38.6012 134.7C38.5788 134.686 35.7868 133.142 35.7628 133.13C34.8951 132.659 33.7065 132.744 32.3976 133.501C29.7325 135.039 27.5725 138.765 27.5725 141.822Z" fill="#4D00AD"/>
<path d="M30.3667 143.408C30.3667 146.465 32.5258 147.697 35.1885 146.158C37.8536 144.62 40.0127 140.895 40.0127 137.837C40.0127 134.78 37.8536 133.549 35.1885 135.087C32.5258 136.625 30.3667 140.351 30.3667 143.408Z" fill="#1B0044"/>
<path d="M73.09 167.001C73.09 168.495 73.6034 169.551 74.4412 170.063C74.4661 170.079 77.0897 171.596 77.1154 171.609C77.9864 172.098 77.429 170.992 78.7528 170.227C81.4179 168.689 83.5762 164.964 83.5762 161.907C83.5762 160.396 84.9747 160.383 84.1179 159.879C84.0955 159.864 81.3034 158.321 81.2802 158.308C80.4101 157.837 79.2231 157.922 77.9134 158.679C75.2491 160.219 73.09 163.944 73.09 167.001Z" fill="#4D00AD"/>
<path d="M75.884 168.588C75.884 171.644 78.0432 172.876 80.7074 171.337C83.3726 169.799 85.5309 166.073 85.5309 163.018C85.5309 159.96 83.3726 158.728 80.7074 160.267C78.0432 161.804 75.884 165.529 75.884 168.588Z" fill="#1B0044"/>
<path d="M100.673 151.093C100.673 152.587 101.19 153.645 102.028 154.156C102.052 154.172 104.675 155.689 104.699 155.703C105.572 156.191 105.014 155.085 106.339 154.321C109.001 152.783 111.161 149.057 111.161 145.999C111.161 144.488 112.559 144.476 111.704 143.972C111.678 143.957 108.889 142.414 108.865 142.4C107.995 141.93 106.807 142.016 105.498 142.773C102.834 144.311 100.673 148.037 100.673 151.093Z" fill="#4D00AD"/>
<path d="M103.469 152.678C103.469 155.737 105.629 156.967 108.292 155.43C110.956 153.892 113.116 150.166 113.116 147.109C113.116 144.052 110.956 142.821 108.292 144.359C105.629 145.896 103.469 149.622 103.469 152.678Z" fill="#1B0044"/>
<path d="M67.1173 167.001C66.6893 167.001 66.2729 166.78 66.0414 166.385C65.6955 165.791 65.8955 165.028 66.4885 164.682L117.509 134.888C118.961 134.04 119.938 132.599 120.189 130.935C120.439 129.271 119.931 127.606 118.793 126.368L98.3604 104.127C97.8951 103.621 97.9282 102.834 98.435 102.37C98.9419 101.905 99.729 101.938 100.193 102.444L120.625 124.685C122.275 126.481 123.013 128.894 122.65 131.306C122.287 133.718 120.87 135.807 118.763 137.036L67.7427 166.83C67.5461 166.947 67.3305 167.001 67.1173 167.001Z" fill="white"/>
<path d="M77.6521 160.848C77.4414 160.848 77.2274 160.795 77.0316 160.682L32.7649 135.151C32.1693 134.807 31.9653 134.046 32.3087 133.451C32.6521 132.855 33.4135 132.653 34.0083 132.994L78.275 158.525C78.8706 158.869 79.0746 159.63 78.7312 160.225C78.5006 160.626 78.0818 160.848 77.6521 160.848Z" fill="white"/>
<path d="M105.699 144.204C105.488 144.204 105.274 144.151 105.079 144.038L60.8118 118.508C60.2171 118.164 60.0122 117.403 60.3556 116.808C60.6999 116.212 61.4596 116.01 62.0552 116.351L106.322 141.882C106.917 142.225 107.122 142.987 106.778 143.581C106.548 143.981 106.129 144.204 105.699 144.204Z" fill="white"/>
<path d="M22.5222 141.067C22.0942 141.067 21.6778 140.847 21.4463 140.451C21.1005 139.857 21.3004 139.095 21.8934 138.749L72.9138 108.956C74.3662 108.107 75.3433 106.665 75.5938 105.001C75.8443 103.338 75.3358 101.674 74.1978 100.434L53.7653 78.1936C53.2999 77.6876 53.3331 76.9004 53.8399 76.4359C54.3467 75.9714 55.1331 76.0038 55.5976 76.5106L76.0301 98.7514C77.68 100.547 78.4182 102.961 78.0549 105.372C77.6916 107.784 76.2748 109.874 74.168 111.103L23.1476 140.896C22.951 141.012 22.7354 141.067 22.5222 141.067Z" fill="white"/>
<path d="M1.41758 90.6648L0.58728 89.2356L77.7826 44.2166L123.278 70.1493L122.461 71.5835L77.7926 46.1244L1.41758 90.6648Z" fill="#B5C4D1"/>
<path d="M74.6186 30.9332H72.9655V54.4871H74.6186V30.9332Z" fill="#B5C4D1"/>
<path d="M1.90354 78.9816H0.251221V109.298H1.90354V78.9816Z" fill="#B5C4D1"/>
<path d="M7.98164 75.0216H6.32849V105.646H7.98164V75.0216Z" fill="#B5C4D1"/>
<path d="M14.063 71.0609H12.4106V101.992H14.063V71.0609Z" fill="#B5C4D1"/>
<path d="M20.1421 67.1018H18.4889V98.3391H20.1421V67.1018Z" fill="#B5C4D1"/>
<path d="M26.2213 63.1418H24.5681V94.6885H26.2213V63.1418Z" fill="#B5C4D1"/>
<path d="M32.2998 59.1819H30.6483V91.0347H32.2998V59.1819Z" fill="#B5C4D1"/>
<path d="M38.3799 55.2228H36.7275V87.3825H38.3799V55.2228Z" fill="#B5C4D1"/>
<path d="M44.4583 51.262H42.8068V83.7302H44.4583V51.262Z" fill="#B5C4D1"/>
<path d="M50.5375 47.303H48.886V80.0781H50.5375V47.303Z" fill="#B5C4D1"/>
<path d="M56.6193 43.3422H54.9662V76.4251H56.6193V43.3422Z" fill="#B5C4D1"/>
<path d="M62.6976 39.3832H61.0453V72.7738H62.6976V39.3832Z" fill="#B5C4D1"/>
<path d="M68.7768 35.4232H67.1245V69.1199H68.7768V35.4232Z" fill="#B5C4D1"/>
<path d="M90.1919 27.0445L88.6283 26.5132L73.4596 71.1564L75.0232 71.6877L90.1919 27.0445Z" fill="#B5C4D1"/>
<path d="M95.3756 30.0256L93.8131 29.4934L78.6117 74.1264L80.1742 74.6586L95.3756 30.0256Z" fill="#B5C4D1"/>
<path d="M85.3343 77.6212L83.774 77.0878L98.9858 32.4578L100.553 32.9903L85.3343 77.6212Z" fill="#B5C4D1"/>
<path d="M105.708 35.9643L104.143 35.432L88.96 80.076L90.5252 80.6083L105.708 35.9643Z" fill="#B5C4D1"/>
<path d="M110.888 38.9156L109.327 38.3834L94.1116 83.0117L95.6724 83.5438L110.888 38.9156Z" fill="#B5C4D1"/>
<path d="M116.051 41.8935L114.488 41.3612L99.2908 85.9997L100.854 86.532L116.051 41.8935Z" fill="#B5C4D1"/>
<path d="M121.225 44.8582L119.663 44.3259L104.451 88.9613L106.013 89.4935L121.225 44.8582Z" fill="#B5C4D1"/>
<path d="M111.178 92.4332L109.612 91.8998L124.829 47.2706L126.39 47.8032L111.178 92.4332Z" fill="#B5C4D1"/>
<path d="M95.4382 105.738L49.2296 79.1385L47.5809 82.0027L93.7895 108.602L95.4382 105.738Z" fill="#B5C4D1"/>
<path d="M115.465 94.4983L69.1819 67.7487L68.3551 69.1792L114.638 95.9289L115.465 94.4983Z" fill="#B5C4D1"/>
<path d="M109.474 97.9681L63.1927 71.2192L62.3663 72.6491L108.648 99.3979L109.474 97.9681Z" fill="#B5C4D1"/>
<path d="M103.486 101.434L57.2045 74.6853L56.3772 76.1166L102.658 102.865L103.486 101.434Z" fill="#B5C4D1"/>
<path d="M97.5004 104.902L51.2192 78.1533L50.392 79.5846L96.6732 106.333L97.5004 104.902Z" fill="#B5C4D1"/>
<path d="M91.5112 108.371L45.23 81.6219L44.4036 83.0518L90.6848 109.801L91.5112 108.371Z" fill="#B5C4D1"/>
<path d="M84.7066 113.266L38.4242 86.5166L39.2479 85.0865L85.5311 111.834L84.7066 113.266Z" fill="#B5C4D1"/>
<path d="M78.7211 116.733L32.4379 89.9861L33.2624 88.5544L79.5456 115.301L78.7211 116.733Z" fill="#B5C4D1"/>
<path d="M73.5527 118.774L27.2722 92.0251L26.4454 93.4557L72.7259 120.204L73.5527 118.774Z" fill="#B5C4D1"/>
<path d="M67.562 122.242L21.28 95.4929L20.4536 96.9228L66.7356 123.672L67.562 122.242Z" fill="#B5C4D1"/>
<path d="M61.5729 125.708L15.2938 98.9604L14.4666 100.392L60.7456 127.139L61.5729 125.708Z" fill="#B5C4D1"/>
<path d="M55.5908 129.176L9.30957 102.428L8.48275 103.858L54.764 130.607L55.5908 129.176Z" fill="#B5C4D1"/>
<path d="M49.6013 132.645L3.31934 105.896L2.4921 107.327L48.774 134.076L49.6013 132.645Z" fill="#B5C4D1"/>
<path d="M36.3238 134.264C36.0467 134.264 35.7631 134.193 35.5051 134.046L3.51961 115.768C1.39863 114.555 0.132845 112.373 0.129527 109.931C0.125379 107.487 1.38619 105.302 3.50467 104.084L67.4118 67.3374L86.3786 12.6209C87.5739 9.17604 89.9412 6.22808 93.0501 4.32028L98.6524 0.882923C99.4313 0.405974 100.446 0.650674 100.924 1.42707C101.4 2.20512 101.157 3.22122 100.379 3.69983L94.7779 7.13719C92.3193 8.64518 90.4456 10.9777 89.5016 13.7025L70.1275 69.5853L5.15202 106.947C4.07204 107.567 3.42919 108.68 3.43084 109.925C3.4325 111.169 4.07784 112.281 5.15865 112.899L37.1441 131.176C37.9363 131.629 38.2117 132.638 37.7588 133.43C37.4552 133.964 36.8978 134.264 36.3238 134.264Z" fill="#B5C4D1"/>
<path d="M3.18491 85.2964C1.24974 84.1782 0.0586177 82.1775 0.00221317 79.9429C-0.0558503 77.7083 1.03159 75.6504 2.9087 74.4377L84.4314 21.7808L130.554 48.6484C131.309 49.0888 131.771 49.8727 131.792 50.7461C131.81 51.6196 131.383 52.4233 130.652 52.897L128.859 50.1199C128.624 50.2717 128.481 50.5404 128.488 50.82C128.493 51.0987 128.648 51.3608 128.89 51.5009L84.5169 25.6553L4.7012 77.2131C3.79956 77.7954 3.27699 78.785 3.30353 79.8583C3.3309 80.9333 3.9049 81.8955 4.83474 82.4322L3.18491 85.2964Z" fill="#B5C4D1"/>
<path d="M87.1418 39.5897L79.7288 37.0266L76.9542 33.6357L73.3501 89.628L87.5873 80.113L87.1418 39.5897Z" fill="#C52887"/>
<path d="M31.6211 113.704L73.3231 89.628L76.9247 33.6357L35.2268 57.7113L31.6211 113.704Z" fill="#4D00AD"/>
<path d="M60.6958 31.8606L50.7279 43.5979L71.0212 60.832L80.9891 49.0947L60.6958 31.8606Z" fill="#1B0044"/>
<path d="M54.0616 67.7455L61.8098 42.9018L85.07 31.2327L26.2882 12.7362L54.0616 67.7455Z" fill="#1B0044"/>
<path d="M46.549 106.724L46.9687 122.664L31.63 113.698L46.549 106.724Z" fill="#4D00AD"/>
<path d="M45.4145 63.6645L41.9771 59.3686L35.2268 57.7113L31.6211 113.704L46.497 106.849L45.4145 63.6645Z" fill="#C52887"/>
<path d="M46.9676 122.665L88.6646 98.5898L87.1126 39.5898L45.4148 63.6646L46.9676 122.665Z" fill="#88119B"/>
<path d="M71.6477 57.7222C71.6477 58.6811 72.3246 59.0676 73.159 58.5849C73.996 58.1021 74.6728 56.9342 74.6728 55.9753C74.6728 55.0164 73.996 54.6291 73.159 55.1135C72.3246 55.5954 71.6477 56.7633 71.6477 57.7222Z" fill="#1B0044"/>
<path d="M56.5173 66.3155C56.5173 67.2735 57.1958 67.6609 58.0311 67.1781C58.8689 66.6954 59.5457 65.5275 59.5457 64.5686C59.5457 63.6089 58.8689 63.2232 58.0311 63.7051C57.1967 64.1879 56.5173 65.3549 56.5173 66.3155Z" fill="#1B0044"/>
<path d="M63.9666 81.4501C65.1967 81.4501 66.4185 81.0918 67.5126 80.3792C71.5074 77.7763 73.8913 73.3768 73.8913 68.6098V56.7267C73.8913 56.3202 73.5628 55.9901 73.1556 55.9901C72.7499 55.9901 72.419 56.3194 72.419 56.7267V68.6098C72.419 72.8775 70.2831 76.8166 66.7088 79.1442C65.1328 80.171 63.2068 80.2474 61.5545 79.3523C59.9021 78.4573 58.9159 76.8009 58.9159 74.9221V65.1517C58.9159 64.7444 58.5866 64.4151 58.1793 64.4151C57.7729 64.4151 57.4427 64.7436 57.4427 65.1517V74.9221C57.4427 77.3492 58.7168 79.49 60.8519 80.6463C61.8415 81.183 62.9057 81.4501 63.9666 81.4501Z" fill="white"/>
<path d="M121.899 56.6339H120.247V80.1878H121.899V56.6339Z" fill="#B5C4D1"/>
<path d="M95.8705 4.36178C95.8705 5.08509 96.1193 5.59854 96.5266 5.84821C96.5399 5.85568 144.636 32.7183 144.649 32.7241C145.069 32.9605 144.802 32.4238 145.443 32.0522C146.737 31.3065 147.783 29.4974 147.783 28.0143C147.783 27.2803 148.171 27.111 147.755 26.8655C147.744 26.8581 99.8594 0.14804 99.8478 0.141404C99.4231 -0.0875318 98.8491 -0.0460555 98.2129 0.321403C96.9189 1.06959 95.8705 2.87702 95.8705 4.36178Z" fill="#C52887"/>
<path d="M148.165 31.4566C147.172 32.9712 145.506 33.4606 144.444 32.5482C143.384 31.6349 143.329 29.6691 144.322 28.1545C145.315 26.6398 146.98 26.1504 148.04 27.0645C149.102 27.9769 149.157 29.9445 148.165 31.4566Z" fill="#1B0044"/>
<path d="M140.397 34.4427C139.825 34.4427 139.27 34.145 138.964 33.6124C138.51 32.8211 138.783 31.8116 139.574 31.3562L145.577 27.9073C146.367 27.4536 147.377 27.7256 147.832 28.5161C148.289 29.3074 148.013 30.3177 147.224 30.7731L141.217 34.2221C140.962 34.3714 140.677 34.4427 140.397 34.4427Z" fill="#B5C4D1"/>
<path d="M123.014 73.6367L122.179 72.2118L44.2302 117.881L45.065 119.306L123.014 73.6367Z" fill="#B5C4D1"/>
<path d="M45.2934 104.75H43.6394V135.068H45.2934V104.75Z" fill="#B5C4D1"/>
<path d="M51.6757 131.462H50.0242V101.663L51.6757 100.838V131.462Z" fill="#B5C4D1"/>
<path d="M58.0592 96.9232H56.4069V127.854H58.0592V96.9232Z" fill="#B5C4D1"/>
<path d="M64.4426 93.0096H62.7886V124.248H64.4426V93.0096Z" fill="#B5C4D1"/>
<path d="M70.8248 89.097H69.1733V120.642H70.8248V89.097Z" fill="#B5C4D1"/>
<path d="M77.2074 85.1819H75.5551V117.035H77.2074V85.1819Z" fill="#B5C4D1"/>
<path d="M83.5894 81.2676H81.9387V113.428H83.5894V81.2676Z" fill="#B5C4D1"/>
<path d="M89.9741 77.355H88.3235V109.822H89.9741V77.355Z" fill="#B5C4D1"/>
<path d="M96.3564 73.4414H94.7032V106.217H96.3564V73.4414Z" fill="#B5C4D1"/>
<path d="M102.739 69.5272H101.088V102.609H102.739V69.5272Z" fill="#B5C4D1"/>
<path d="M109.121 65.6129H107.469V99.0027H109.121V65.6129Z" fill="#B5C4D1"/>
<path d="M115.507 61.6995H113.853V95.397H115.507V61.6995Z" fill="#B5C4D1"/>
<path d="M4.70823 84.4628H3.05591V114.217H4.70823V84.4628Z" fill="#B5C4D1"/>
<path d="M9.69988 87.2639H8.0459V117.018H9.69988V87.2639Z" fill="#B5C4D1"/>
<path d="M14.6889 90.0651H13.0366V119.818H14.6889V90.0651Z" fill="#B5C4D1"/>
<path d="M19.6815 92.8662H18.0283V122.62H19.6815V92.8662Z" fill="#B5C4D1"/>
<path d="M24.672 95.6682H23.0181V125.421H24.672V95.6682Z" fill="#B5C4D1"/>
<path d="M29.6632 98.4692H28.0117V128.223H29.6632V98.4692Z" fill="#B5C4D1"/>
<path d="M34.6548 101.27H33.0024V131.024H34.6548V101.27Z" fill="#B5C4D1"/>
<path d="M39.6463 104.072H37.9932V133.825H39.6463V104.072Z" fill="#B5C4D1"/>
<path d="M43.5335 106.335C41.07 106.335 38.6006 105.696 36.3718 104.413L3.18442 85.2973C1.24925 84.1792 0.0581308 82.1793 0.00172632 79.9438C-0.0563371 77.7092 3.27732 78.7859 3.30387 79.8592C3.33124 80.9342 3.90525 81.8964 4.83509 82.4331L38.0217 101.548C41.6233 103.621 46.0203 103.512 49.5099 101.262L128.859 50.1208C128.624 50.2726 130.554 48.6501 130.554 48.6501C131.309 49.0898 131.772 49.8736 131.792 50.7471C131.81 51.6205 131.384 52.4243 130.652 52.8979L51.3008 104.04C48.9293 105.567 46.2343 106.335 43.5335 106.335Z" fill="#B5C4D1"/>
<path d="M42.9279 136.008C40.3623 136.008 37.7951 135.354 35.5049 134.046L3.51941 115.768C2.72809 115.315 2.45187 114.307 2.90559 113.514C3.35932 112.723 4.3688 112.448 5.15929 112.9L37.1448 131.176C40.7107 133.215 45.1418 133.217 48.706 131.18L113.696 94.0806L132.509 39.8833C133.758 36.2834 136.269 33.255 139.574 31.3563L145.577 27.9073C146.367 27.4536 147.377 27.7265 147.832 28.5162C148.288 29.3083 148.013 30.3178 147.223 30.7732L141.217 34.2222C138.605 35.7235 136.621 38.119 135.633 40.9683L116.41 96.3376L50.3459 134.05C48.0591 135.354 45.4926 136.008 42.9279 136.008Z" fill="#B5C4D1"/>
</svg>
