<svg width="42" height="51" viewBox="0 0 42 51" fill="none" xmlns="http://www.w3.org/2000/svg">
<path d="M7.98824 38.9989L7.97908 39.1729C7.95315 39.6663 8.21163 40.1328 8.655 40.3983L18.1322 45.9873C19.2562 46.6592 20.5648 46.7939 21.7517 46.2212L26.2588 44.1256L25.6789 43.9274L25.4097 43.8928L7.98824 38.9989Z" fill="#023248"/>
<path d="M8.33295 39.6329L18.4263 45.622C19.384 46.2003 20.5982 46.256 21.6117 45.7682L25.6793 43.9271L18.4816 39.5802L8.39686 38.4095C7.88015 38.6583 7.84453 39.338 8.33295 39.6329Z" fill="#5B5C70"/>
<path d="M8.8268 38.4293L21.9539 40.9511L22.3009 41.1869L21.9795 46.1157H21.9793L18.7319 47.6235C17.545 48.196 16.1251 48.1332 15.001 47.4611L5.52389 41.8721C5.08078 41.6065 4.82229 41.1401 4.84822 40.6466L8.8268 38.4293Z" fill="#023248"/>
<path d="M21.3947 45.9137L8.65991 38.3297L8.92599 33.2405L21.6518 40.9919L21.3947 45.9137Z" fill="#5B5C70"/>
<path d="M5.20209 41.1067L15.2955 47.0957C16.2532 47.6741 17.4673 47.7298 18.4808 47.242L21.4 45.9172L8.66005 38.33L5.266 39.8835C4.7493 40.1321 4.71367 40.8118 5.20209 41.1067Z" fill="#B4BED8"/>
<path d="M9.52737 0.388801L39.3008 18.7708C41.6111 20.0942 41.2811 21.8909 41.0009 23.915L36.3828 48.4493C36.1115 50.6955 35.1113 51 35.1113 51L5.26203 32.7343C3.901 31.9123 2.8854 29.8707 3.16562 27.8465L6.90982 0.126488C6.90982 0.126488 8.10586 -0.0474854 8.52645 0.0126331C8.74486 0.0435512 9.05833 0.105385 9.52737 0.388801Z" fill="#023248"/>
<path d="M0.000732422 29.869L5.19054 2.56656C5.41708 0.927658 6.33657 -0.0254053 7.40192 0.113726C7.64784 0.144399 7.90789 0.233476 8.16428 0.390275L38.3475 18.7303C40.8383 20.1626 40.5835 21.8607 40.3022 23.8836L35.1116 50.9995L0.000732422 29.869Z" fill="#F2F7FA"/>
<path d="M1.3269 26.4037L34.8191 46.6798L39.318 23.9324C39.5663 22.0769 39.847 20.9901 38.1741 19.9749L7.59176 1.39584C7.14471 1.12543 6.59999 1.20518 6.25299 1.50332C6.07936 1.65398 5.95707 1.85765 5.91569 2.09886L1.3269 26.4037Z" fill="#005478"/>
<path d="M34.9118 46.8823L1.18237 26.4626L1.19756 26.3823L5.78634 2.07753C5.8306 1.81938 5.96102 1.58922 6.16346 1.41328C6.57672 1.05821 7.19294 1.00889 7.66224 1.2928L38.2448 19.8721C39.8751 20.8615 39.7245 21.9456 39.4969 23.5865L39.4474 23.9477L34.9118 46.8823ZM1.47071 26.3448L34.7256 46.4771L39.1887 23.9099L39.2371 23.5546C39.4673 21.8965 39.5941 20.983 38.1024 20.0777L7.52003 1.49867C7.1513 1.27586 6.66602 1.31488 6.34102 1.59363C6.18257 1.73129 6.07966 1.91287 6.04457 2.11826L1.47071 26.3448Z" fill="white"/>
<path d="M29.8624 21.6931L26.5393 19.6972L26.6105 19.3723L29.9339 21.3677L29.8624 21.6931Z" fill="#1483B5"/>
<path d="M31.1292 22.4545L30.657 22.1708L30.7282 21.8452L31.2004 22.1289L31.1292 22.4545Z" fill="#1483B5"/>
<path d="M28.9304 24.1685L29.0017 23.8431L29.6378 24.2252L29.5665 24.5506L28.9304 24.1685Z" fill="#1483B5"/>
<path d="M34.0964 28.0436L34.1677 27.7179L34.8399 28.1218L34.7687 28.4475L34.0964 28.0436Z" fill="#1483B5"/>
<path d="M33.946 28.7257L34.0175 28.4001L34.6898 28.804L34.6186 29.1299L33.946 28.7257Z" fill="#1483B5"/>
<path d="M32.4169 23.9555L27.4832 21.019C27.4819 21.0183 27.4806 21.0171 27.4792 21.0163L27.5502 20.6914C27.5515 20.6922 27.5528 20.6927 27.5542 20.6934L32.4878 23.6299L32.4169 23.9555Z" fill="#1483B5"/>
<path d="M28.8757 22.5914L27.3347 21.7012C27.3334 21.7004 27.3321 21.6992 27.3308 21.6985L27.4018 21.3738C27.4031 21.3746 27.4044 21.3748 27.4057 21.3758L28.9469 22.266L28.8757 22.5914Z" fill="#1483B5"/>
<path d="M29.5133 23.7469L27.1844 22.3833C27.183 22.3826 27.1817 22.3814 27.1804 22.3806L27.2514 22.056C27.2527 22.0567 27.254 22.057 27.2553 22.058L29.5843 23.4216L29.5133 23.7469Z" fill="#1483B5"/>
<path d="M33.3903 32.3154L31.0613 30.9518C31.06 30.9511 31.0589 30.9499 31.0574 30.9491L31.1283 30.6242C31.1297 30.625 31.131 30.6255 31.1325 30.6262L33.4615 31.9898L33.3903 32.3154Z" fill="#1483B5"/>
<path d="M29.4621 25.259L26.8875 23.7477C26.8862 23.7469 26.8851 23.7457 26.8835 23.745C26.8835 23.745 26.9574 23.4213 26.9587 23.422L29.5333 24.9333L29.4621 25.259Z" fill="#1483B5"/>
<path d="M30.1746 24.9154L30.2458 24.5898L32.6887 26.0574L32.6174 26.3831L30.1746 24.9154Z" fill="#1483B5"/>
<path d="M28.2207 25.2845C28.2173 25.2828 28.2141 25.2818 28.2107 25.2798L26.7371 24.4301C26.7358 24.4293 26.7347 24.4281 26.7332 24.4274L26.8041 24.1027C26.8054 24.1035 26.8067 24.1037 26.8083 24.1047L28.282 24.9544C28.2851 24.9564 28.288 24.9591 28.2911 24.9613L28.2207 25.2845Z" fill="#1483B5"/>
<path d="M28.3538 26.1372L26.5886 25.1122C26.5873 25.1115 26.5863 25.1103 26.5847 25.1095L26.6557 24.7849C26.657 24.7856 26.6583 24.7859 26.6596 24.7869L28.425 25.8116L28.3538 26.1372Z" fill="#1483B5"/>
<path d="M30.2552 26.508C30.2521 26.5062 30.2497 26.5038 30.2468 26.5018L30.3175 26.1782C30.3207 26.1796 30.3236 26.1806 30.3264 26.1823L31.821 27.0804L31.7498 27.4061L30.2552 26.508Z" fill="#1483B5"/>
<path d="M32.7999 28.0369L32.3953 27.7938L32.4665 27.4681L32.8714 27.7113L32.7999 28.0369Z" fill="#1483B5"/>
<path d="M36.5696 25.7225L33.9246 24.1334L33.9958 23.8078L36.6409 25.3969L36.5696 25.7225Z" fill="#1483B5"/>
<path d="M28.7267 25.5902L28.7253 25.5893L28.7966 25.2641L28.7979 25.2646L29.6713 25.7892L29.6 26.1149L28.7267 25.5902Z" fill="#1483B5"/>
<path d="M28.452 28.5854L25.8774 27.0741C25.8761 27.0733 25.8751 27.0721 25.8738 27.0714C25.8738 27.0714 25.9474 26.7477 25.9489 26.7484L28.5235 28.2597L28.452 28.5854Z" fill="#1483B5"/>
<path d="M27.2109 28.6109C27.2075 28.6092 27.2044 28.6082 27.201 28.6062L25.7273 27.7565C25.726 27.7557 25.7247 27.7545 25.7234 27.7538L25.7944 27.4289C25.7957 27.4296 25.797 27.4301 25.7983 27.4308L27.2719 28.2806C27.2753 28.2826 27.278 28.2853 27.2814 28.2875L27.2109 28.6109Z" fill="#1483B5"/>
<path d="M27.344 29.4636L25.5789 28.4386C25.5776 28.4379 25.5763 28.4367 25.575 28.4357L25.6459 28.111C25.6472 28.1118 25.6485 28.1123 25.6499 28.113L27.415 29.138L27.344 29.4636Z" fill="#1483B5"/>
<path d="M29.2455 29.8344C29.2426 29.8326 29.2399 29.8302 29.2371 29.8282L29.308 29.5046C29.3109 29.506 29.3138 29.507 29.3169 29.5087L30.8118 30.4068L30.7406 30.7324L29.2455 29.8344Z" fill="#1483B5"/>
<path d="M27.7188 28.9166L27.7175 28.9159L27.7888 28.5905L27.7901 28.591L28.6635 29.1156L28.592 29.4413L27.7188 28.9166Z" fill="#1483B5"/>
<path d="M29.4617 22.9431L29.5332 22.6174L30.6388 23.2819L30.5676 23.6076L29.4617 22.9431Z" fill="#1483B5"/>
<path d="M33.1295 23.6559L32.1082 23.0422L32.1794 22.7166L33.2007 23.3303L33.1295 23.6559Z" fill="#1483B5"/>
<path d="M28.1051 27.5577L24.782 25.5618L24.853 25.2366L28.1763 27.2321L28.1051 27.5577Z" fill="#1483B5"/>
<path d="M29.3713 28.3189L28.8992 28.0352L28.9704 27.7098L29.4426 27.9933L29.3713 28.3189Z" fill="#1483B5"/>
<path d="M34.8121 31.5871L32.1667 29.9978L32.2382 29.6724L34.8833 31.2615L34.8121 31.5871Z" fill="#1483B5"/>
<path d="M31.372 29.5203L30.3503 28.9066L30.4216 28.5809L31.4432 29.1946L31.372 29.5203Z" fill="#1483B5"/>
<path d="M33.7976 29.4079L33.8688 29.0825L34.5414 29.4864L34.4699 29.812L33.7976 29.4079Z" fill="#1483B5"/>
<path d="M28.4252 23.8647L27.0359 23.0657C27.0346 23.065 27.0336 23.0638 27.032 23.063L27.103 22.7382C27.1043 22.7389 27.1056 22.7394 27.1072 22.7401L28.4965 23.5391L28.4252 23.8647Z" fill="#1483B5"/>
<path d="M33.783 25.5331L31.2312 24.0068L31.3024 23.6814L33.8545 25.2074L33.783 25.5331Z" fill="#1483B5"/>
<path d="M30.5979 28.2315L25.8024 25.4118L25.7996 25.4096L25.8705 25.0847L25.8737 25.0862L30.6694 27.9059L30.5979 28.2315Z" fill="#1483B5"/>
<path d="M27.273 30.1813L23.95 28.1854L24.0212 27.8605L27.3443 29.856L27.273 30.1813Z" fill="#1483B5"/>
<path d="M28.5393 30.9427L28.0671 30.6591L28.1384 30.3335L28.6106 30.6171L28.5393 30.9427Z" fill="#1483B5"/>
<path d="M26.3406 32.6567L26.4118 32.3311L27.0477 32.7134L26.9764 33.0388L26.3406 32.6567Z" fill="#1483B5"/>
<path d="M31.5066 36.5318L31.5781 36.2062L32.2504 36.6101L32.1791 36.9359L31.5066 36.5318Z" fill="#1483B5"/>
<path d="M31.3562 37.214L31.4274 36.8883L32.0997 37.2925L32.0282 37.6179L31.3562 37.214Z" fill="#1483B5"/>
<path d="M29.827 32.4437L24.8933 29.5073C24.892 29.5065 24.8907 29.5053 24.8894 29.5046L24.9604 29.1799C24.9617 29.1807 24.963 29.1809 24.9646 29.1819L29.8983 32.1184L29.827 32.4437Z" fill="#1483B5"/>
<path d="M26.2861 31.0797L24.7449 30.1894C24.7436 30.1887 24.7425 30.1875 24.741 30.1865L24.8119 29.8618C24.8132 29.8626 24.8146 29.8628 24.8161 29.8638L26.3571 30.754L26.2861 31.0797Z" fill="#1483B5"/>
<path d="M26.9254 32.2352L24.5965 30.8716C24.5952 30.8708 24.5941 30.8696 24.5925 30.8686L24.6635 30.544C24.6648 30.5447 24.6661 30.545 24.6677 30.546L26.9966 31.9095L26.9254 32.2352Z" fill="#1483B5"/>
<path d="M30.8004 40.8037L28.4715 39.4401C28.4702 39.4393 28.4691 39.4381 28.4675 39.4374L28.5388 39.1127C28.5401 39.1135 28.5414 39.1137 28.5427 39.1147L30.8716 40.4783L30.8004 40.8037Z" fill="#1483B5"/>
<path d="M26.8722 33.7472L24.2976 32.2361C24.2963 32.2354 24.2953 32.2342 24.2937 32.2332C24.2937 32.2332 24.3676 31.9096 24.3689 31.9105L26.9435 33.4218L26.8722 33.7472Z" fill="#1483B5"/>
<path d="M27.5847 33.4037L27.6559 33.0781L30.0986 34.5457L30.0273 34.8713L27.5847 33.4037Z" fill="#1483B5"/>
<path d="M25.6306 33.7727C25.6271 33.771 25.624 33.7703 25.6209 33.7681L24.147 32.9183C24.1457 32.9176 24.1446 32.9164 24.1433 32.9156L24.2143 32.591C24.2156 32.5917 24.2172 32.592 24.2185 32.5929L25.6921 33.4427C25.6953 33.4447 25.6981 33.4476 25.7015 33.4496L25.6306 33.7727Z" fill="#1483B5"/>
<path d="M25.7639 34.6254L23.9988 33.6005C23.9975 33.5997 23.9962 33.5985 23.9949 33.5978L24.0661 33.2731C24.0674 33.2739 24.0687 33.2741 24.07 33.2751L25.8352 34.2998L25.7639 34.6254Z" fill="#1483B5"/>
<path d="M27.6654 34.9962C27.6625 34.9945 27.6599 34.992 27.657 34.9901L27.728 34.6664C27.7308 34.6679 27.7337 34.6689 27.7369 34.6706L29.2315 35.5687L29.1602 35.8943L27.6654 34.9962Z" fill="#1483B5"/>
<path d="M30.2103 36.5252L29.8054 36.282L29.8766 35.9564L30.2815 36.1996L30.2103 36.5252Z" fill="#1483B5"/>
<path d="M33.9798 34.211L31.3347 32.6217L31.406 32.296L34.051 33.8854L33.9798 34.211Z" fill="#1483B5"/>
<path d="M26.1388 34.0785L26.1375 34.0775L26.2087 33.7524L26.21 33.7529L27.0831 34.2775L27.0119 34.6031L26.1388 34.0785Z" fill="#1483B5"/>
<path d="M25.8622 37.0736L23.2876 35.5623L23.2839 35.5596L23.3591 35.2369L25.9337 36.748L25.8622 37.0736Z" fill="#1483B5"/>
<path d="M24.6208 37.0991C24.6174 37.0974 24.6145 37.0964 24.6111 37.0945L23.1375 36.2447C23.1362 36.244 23.1349 36.2427 23.1335 36.242L23.2045 35.9174C23.2058 35.9181 23.2071 35.9183 23.2084 35.9193L24.6821 36.7691C24.6855 36.7711 24.6881 36.774 24.6915 36.776L24.6208 37.0991Z" fill="#1483B5"/>
<path d="M24.7542 37.9518L22.989 36.9269C22.9877 36.9261 22.9864 36.9249 22.9851 36.9242L23.0561 36.5995C23.0574 36.6003 23.0587 36.6005 23.06 36.6012L24.8251 37.6262L24.7542 37.9518Z" fill="#1483B5"/>
<path d="M26.6556 38.3226C26.6527 38.3209 26.6501 38.3184 26.6472 38.3165L26.7182 37.9928C26.7211 37.9943 26.7239 37.9953 26.7271 37.9972L28.2219 38.8951L28.1507 39.2207L26.6556 38.3226Z" fill="#1483B5"/>
<path d="M25.1287 37.4049L25.1277 37.4039L25.1989 37.0788L25.2 37.0792L26.0733 37.6039L26.0021 37.9295L25.1287 37.4049Z" fill="#1483B5"/>
<path d="M26.8718 31.4313L26.9431 31.1057L28.0487 31.7699L27.9775 32.0958L26.8718 31.4313Z" fill="#1483B5"/>
<path d="M30.5397 32.1441L29.5183 31.5304L29.5895 31.2048L30.6109 31.8185L30.5397 32.1441Z" fill="#1483B5"/>
<path d="M25.5155 36.0459L22.1921 34.0498L22.2634 33.7249L25.5867 35.7203L25.5155 36.0459Z" fill="#1483B5"/>
<path d="M26.7835 36.8071L26.3113 36.5235L26.3825 36.1978L26.8547 36.4817L26.7835 36.8071Z" fill="#1483B5"/>
<path d="M32.222 40.0754L29.5769 38.4863L29.6481 38.1604L32.2932 39.7497L32.222 40.0754Z" fill="#1483B5"/>
<path d="M28.7821 38.0085L27.7605 37.3948L27.832 37.0692L28.8533 37.6829L28.7821 38.0085Z" fill="#1483B5"/>
<path d="M31.2078 37.8964L31.279 37.5707L31.9515 37.9747L31.88 38.3003L31.2078 37.8964Z" fill="#1483B5"/>
<path d="M25.8354 32.353L24.4461 31.554C24.4448 31.5533 24.4437 31.552 24.4421 31.551L24.5131 31.2264C24.5144 31.2271 24.5157 31.2274 24.5173 31.2284L25.9066 32.0273L25.8354 32.353Z" fill="#1483B5"/>
<path d="M31.1934 34.0213L28.6414 32.495L28.7126 32.1694L31.2647 33.6959L31.1934 34.0213Z" fill="#1483B5"/>
<path d="M28.008 36.7198L23.2126 33.9001L23.2097 33.8979L23.2807 33.573L23.2838 33.5745L28.0795 36.3941L28.008 36.7198Z" fill="#1483B5"/>
<path d="M8.54596 21.1807L8.47395 21.5093L7.79565 21.1017L7.86768 20.7734L8.54596 21.1807Z" fill="#1483B5"/>
<path d="M8.69609 20.4927L8.62408 20.821L7.94604 20.4137L8.01781 20.0851L8.69609 20.4927Z" fill="#1483B5"/>
<path d="M14.4726 23.9643C14.476 23.9661 14.4792 23.967 14.4826 23.969L15.9693 24.8264C15.9706 24.8271 15.9717 24.8283 15.9732 24.8291L15.9015 25.1566C15.9002 25.1559 15.8989 25.1557 15.8973 25.1547L14.4106 24.2973C14.4071 24.2954 14.4045 24.2924 14.4011 24.2905L14.4726 23.9643Z" fill="#1483B5"/>
<path d="M14.3384 23.104L16.1192 24.1378L16.1229 24.1408L16.0511 24.4684L16.0472 24.4664L14.2664 23.4326L14.3384 23.104Z" fill="#1483B5"/>
<path d="M12.42 22.7301C12.4232 22.7318 12.4258 22.7342 12.4287 22.7362L12.3572 23.0628C12.3543 23.0611 12.3511 23.0604 12.3483 23.0584L10.8406 22.1527L10.9123 21.8241L12.42 22.7301Z" fill="#1483B5"/>
<path d="M9.85374 21.1876L10.262 21.4327L10.1903 21.7613L9.78198 21.5159L9.85374 21.1876Z" fill="#1483B5"/>
<path d="M13.9613 23.6559L13.9626 23.6566L13.8906 23.985L13.8893 23.9842L13.0085 23.4549L13.0803 23.1266L13.9613 23.6559Z" fill="#1483B5"/>
<path d="M8.84649 19.8044L8.77448 20.1329L8.09619 19.7254L8.16822 19.397L8.84649 19.8044Z" fill="#1483B5"/>
<path d="M11.6634 15.0359L16.9737 18.1966C16.9753 18.1974 16.9766 18.1989 16.9779 18.1996L16.9014 18.549C16.8998 18.5483 16.8985 18.5478 16.8969 18.547L11.5867 15.3865L11.6634 15.0359Z" fill="#1483B5"/>
<path d="M15.4759 16.504L17.1347 17.4622C17.136 17.4629 17.1373 17.4642 17.1389 17.4652L17.0624 17.8148C17.0611 17.8141 17.0595 17.8136 17.058 17.8126L15.3992 16.8544L15.4759 16.504Z" fill="#1483B5"/>
<path d="M12.5132 7.88595L14.7715 9.20806L14.7751 9.21076L14.706 9.52559L14.7023 9.52363L12.4441 8.20175L12.5132 7.88595Z" fill="#1483B5"/>
<path d="M15.3509 10.3255L19.7985 12.9678C19.7998 12.9685 19.8008 12.9698 19.8021 12.9705C19.8021 12.9705 19.7306 13.2841 19.7293 13.2834L15.282 10.6411L15.3509 10.3255Z" fill="#1483B5"/>
<path d="M18.5052 11.4778C18.5083 11.4796 18.5114 11.4803 18.5146 11.4823L19.9434 12.3063C19.9447 12.307 19.9458 12.3082 19.9471 12.309L19.8782 12.6238C19.8769 12.623 19.8756 12.6228 19.8743 12.6218L18.4452 11.7978C18.442 11.7959 18.4394 11.7932 18.4363 11.7912L18.5052 11.4778Z" fill="#1483B5"/>
<path d="M18.3765 10.6512L20.0879 11.6447C20.0892 11.6454 20.0903 11.6467 20.0916 11.6474L20.0227 11.9622C20.0214 11.9615 20.0201 11.9612 20.0188 11.9605L18.3074 10.9667L18.3765 10.6512Z" fill="#1483B5"/>
<path d="M16.5326 10.2917C16.5354 10.2934 16.5381 10.2958 16.5407 10.2976L16.4721 10.6114C16.4692 10.6099 16.4663 10.609 16.4634 10.6072L15.0144 9.73662L15.0835 9.42081L16.5326 10.2917Z" fill="#1483B5"/>
<path d="M18.0142 11.1814L18.0153 11.1824L17.9464 11.4977L17.9451 11.497L17.0984 10.9883L17.1675 10.6727L18.0142 11.1814Z" fill="#1483B5"/>
<path d="M14.8459 16.1256L14.7691 16.476L13.5789 15.761L13.6556 15.4103L14.8459 16.1256Z" fill="#1483B5"/>
<path d="M10.2142 28.7373L13.8018 30.892L13.725 31.2426L10.1375 29.0886L10.2142 28.7373Z" fill="#1483B5"/>
<path d="M9.34531 28.2001L9.85493 28.5064L9.77821 28.8577L9.26831 28.5515L9.34531 28.2001Z" fill="#1483B5"/>
<path d="M4.41757 25.2825L7.27318 26.9982L7.1962 27.3499L4.34058 25.6342L4.41757 25.2825Z" fill="#1483B5"/>
<path d="M7.60312 27.186L8.70565 27.8485L8.62893 28.2001L7.52612 27.5373L7.60312 27.186Z" fill="#1483B5"/>
<path d="M10.1927 13.3378L12.9394 14.9807L12.8626 15.3311L10.116 13.6882L10.1927 13.3378Z" fill="#1483B5"/>
<path d="M8.4388 28.5773L13.616 31.6212L13.6192 31.6237L13.5424 31.9743L13.539 31.9729L8.36206 28.9289L8.4388 28.5773Z" fill="#1483B5"/>
<path d="M30.0679 16.8917L31.1694 17.581C31.2105 17.6067 31.2226 17.645 31.2061 17.6961L31.1254 17.9441C31.1089 17.9952 31.0801 18.0079 31.039 17.9822L30.7069 17.7743C30.6854 17.7608 30.6702 17.7675 30.6616 17.7942L30.0674 19.6218C30.0509 19.6729 30.0213 19.6851 29.9786 19.6584L29.7337 19.505C29.6929 19.4795 29.6808 19.4412 29.6973 19.3902L30.2913 17.5626C30.2999 17.5358 30.2926 17.5152 30.2693 17.5005L29.9372 17.2927C29.8964 17.2671 29.8843 17.2289 29.9008 17.1778L29.9815 16.9297C29.9985 16.8787 30.0271 16.8659 30.0679 16.8917Z" fill="#F85976"/>
<path d="M31.6927 17.9238L30.5197 19.8277C30.4914 19.8716 30.4948 19.9045 30.5299 19.9263L30.8096 20.1015C30.831 20.1148 30.8473 20.1185 30.8585 20.1123C30.8698 20.1062 30.8821 20.0898 30.8957 20.063L31.1079 19.7129L31.6762 20.0684L31.6272 20.5207C31.6214 20.5523 31.6214 20.5764 31.6267 20.5925C31.6319 20.609 31.644 20.6232 31.6636 20.6355L31.9433 20.8104C31.9781 20.8323 31.998 20.8141 32.0033 20.7557L32.2554 18.2754C32.2583 18.2158 32.2374 18.1719 32.1929 18.1441L31.8055 17.9015C31.7566 17.8718 31.7191 17.8789 31.6927 17.9238ZM31.2954 19.3828C31.2954 19.3828 31.848 18.4599 31.8595 18.4671L31.7267 19.6527L31.2954 19.3828Z" fill="#F85976"/>
<path d="M32.1546 20.8347L32.9691 20.0012L32.8712 18.6624C32.8696 18.6381 32.8764 18.6194 32.8911 18.6067C32.9057 18.5939 32.9227 18.5937 32.9421 18.6059L33.2276 18.7846C33.2705 18.8116 33.2931 18.8565 33.2962 18.9198L33.3151 19.8755C33.3266 19.8829 33.8585 19.2719 33.8585 19.2719C33.8907 19.2307 33.931 19.2253 33.9797 19.2557L34.2592 19.4307C34.2788 19.4429 34.2898 19.4599 34.2919 19.4817C34.2942 19.5035 34.2882 19.5219 34.2741 19.5364L33.4908 20.328L33.5785 21.7306C33.579 21.7576 33.573 21.7763 33.5602 21.7871C33.5471 21.7981 33.5311 21.7974 33.5117 21.7853L33.2231 21.6047C33.1823 21.5792 33.1611 21.5365 33.1595 21.4769L33.1241 20.5067C33.1126 20.4995 32.5676 21.1066 32.5676 21.1066C32.5365 21.1456 32.5003 21.1525 32.4595 21.127L32.168 20.9444C32.1465 20.9312 32.1347 20.9142 32.1321 20.8934C32.1295 20.8723 32.1368 20.8529 32.1546 20.8347Z" fill="#F85976"/>
<path d="M6.95847 6.46568L6.44177 8.93078L6.43889 8.94379L6.27417 9.73048C6.28124 9.73466 13.9325 14.3164 19.0139 17.3594L19.0131 17.3631H19.0199C21.5416 18.8732 23.4319 20.0053 23.4319 20.0053L23.5969 19.2187L23.605 19.1799L24.1165 16.7403C24.1052 16.7342 6.95847 6.46568 6.95847 6.46568ZM6.49311 8.91778L6.65416 8.14998L10.6859 10.5643L10.5251 11.3321L6.49311 8.91778ZM23.736 18.3211L19.4044 15.7271L19.5652 14.9591L23.897 17.5533L23.736 18.3211ZM19.5217 14.9331L19.3609 15.7011L10.7401 10.5385L10.9012 9.77048L19.5217 14.9331ZM10.9119 9.71871L11.0659 8.98379L19.6864 14.1464L19.5327 14.8813L10.9119 9.71871ZM23.5642 19.1411L19.2328 16.5472L19.3936 15.7791L23.7252 18.3731L23.5642 19.1411ZM19.1894 16.5212L10.5683 11.3581L10.7294 10.5903L19.3502 15.7531L19.1894 16.5212ZM6.82596 7.32992L10.8577 9.74423L10.6966 10.5123L6.66491 8.09796L6.82596 7.32992ZM6.99095 6.54322L11.0227 8.95778L10.8687 9.6927L6.83696 7.27838L6.99095 6.54322ZM24.0618 16.7666L23.9078 17.5012L19.5759 14.9071L19.7299 14.1721L24.0618 16.7666ZM23.3992 19.9281L19.0679 17.3341L19.2218 16.599C21.5154 17.9726 23.2751 19.026 23.5532 19.1926L23.3992 19.9281ZM19.0244 17.3079L7.36414 10.3248L7.51813 9.59013C9.80493 10.9596 15.255 14.2232 19.1786 16.573L19.0244 17.3079ZM6.48237 8.9698C6.59341 9.0363 6.94538 9.24708 7.47465 9.56411L7.32093 10.2988L6.32837 9.70448L6.48237 8.9698Z" fill="#B4BED8"/>
<path d="M5.56394 12.995L5.04725 15.4601L5.04437 15.4734L4.87964 16.2601C4.88697 16.2643 12.538 20.846 17.6194 23.889L17.6186 23.8927H17.6254C20.1471 25.4028 22.0374 26.535 22.0374 26.535L22.2024 25.7483L22.2105 25.7095L22.722 23.2699C22.7107 23.2635 5.56394 12.995 5.56394 12.995ZM5.09883 15.4471L5.25963 14.6793L9.29138 17.0936L9.13033 17.8617L5.09883 15.4471ZM22.3415 24.8507L18.0099 22.2567L18.1706 21.4887L22.5025 24.0829L22.3415 24.8507ZM18.1274 21.4624L17.9666 22.2305L9.34586 17.0676L9.50692 16.2996L18.1274 21.4624ZM9.51739 16.2481L9.67138 15.5129L18.2919 20.6755L18.1382 21.4107L9.51739 16.2481ZM22.1697 25.6705L17.8383 23.0765L17.9991 22.3083L22.3307 24.9022L22.1697 25.6705ZM17.7948 23.0505L9.1738 17.8875L9.33486 17.1197L17.9556 22.2825L17.7948 23.0505ZM5.43143 13.8593L9.46318 16.2738L9.30212 17.0419L5.27037 14.6276L5.43143 13.8593ZM5.59642 13.0726L9.62817 15.4871L9.47418 16.2221L5.44243 13.8075L5.59642 13.0726ZM22.6672 23.2959L22.5133 24.0306L18.1814 21.4367L18.3351 20.7017L22.6672 23.2959ZM22.0047 26.4574L17.6733 23.8635L17.8273 23.1283C20.1212 24.502 21.8805 25.5556 22.1587 25.722L22.0047 26.4574ZM17.6301 23.8375L5.96988 16.8542L6.12386 16.1195C8.41065 17.489 13.8608 20.7525 17.7844 23.1023L17.6301 23.8375ZM5.08783 15.4994C5.19887 15.5659 5.55086 15.7764 6.08039 16.0935L5.9264 16.8281L4.93386 16.2338L5.08783 15.4994Z" fill="#B4BED8"/>
<path d="M4.17164 19.5244L3.65493 21.9895L3.65205 22.0025L3.48706 22.7892C3.49439 22.7936 11.1454 27.3751 16.2268 30.4181L16.226 30.4218H16.2328C18.7545 31.9319 20.6448 33.0638 20.6448 33.0638L20.8096 32.2771L20.8177 32.2384L21.3291 29.7988C21.3187 29.7929 4.17164 19.5244 4.17164 19.5244ZM3.70652 21.9765L3.86758 21.2087L7.89933 23.623L7.73827 24.3908L3.70652 21.9765ZM20.9491 31.38L16.6175 28.7861L16.7783 28.0178L21.1102 30.612L20.9491 31.38ZM16.7351 27.9918L16.5743 28.7601L7.95328 23.5972L8.11434 22.8292L16.7351 27.9918ZM8.12533 22.7774L8.27933 22.0425L16.8998 27.2051L16.7461 27.94L8.12533 22.7774ZM20.7773 32.1998L16.446 29.6059L16.6068 28.8379L20.9384 31.4318L20.7773 32.1998ZM16.4028 29.5801L7.78174 24.4171L7.94279 23.6493L16.5636 28.8121L16.4028 29.5801ZM4.03938 20.3889L8.07113 22.8032L7.91006 23.5712L3.87832 21.1569L4.03938 20.3889ZM4.20437 19.6019L8.23611 22.0165L8.08213 22.7514L4.05038 20.3371L4.20437 19.6019ZM21.2752 29.8255L21.1212 30.5602L16.7893 27.966L16.9431 27.2311L21.2752 29.8255ZM20.6124 32.9865L16.281 30.3926L16.435 29.6574C18.7286 31.0311 20.4882 32.0845 20.7663 32.2511L20.6124 32.9865ZM16.2378 30.3668L4.5773 23.3838L4.73128 22.6491C7.01833 24.0186 12.4682 27.2821 16.3918 29.6319L16.2378 30.3668ZM3.69553 22.0288C3.80657 22.0953 4.15854 22.306 4.68807 22.6231L4.53408 23.3578L3.54154 22.7634L3.69553 22.0288Z" fill="#B4BED8"/>
</svg>
