<svg width="53" height="41" viewBox="0 0 53 41" fill="none" xmlns="http://www.w3.org/2000/svg">
<path d="M0.00221049 28.1714C0.00171784 28.4494 0.194097 28.7276 0.578853 28.9393L20.1879 39.7236C20.9525 40.1441 22.1883 40.143 22.9469 39.721L51.6022 23.8852C51.979 23.6756 52.1677 23.4014 52.1682 23.1269L52.1667 24.0886C52.1662 24.3631 51.9778 24.6371 51.6007 24.8468L22.9455 40.6827C22.1865 41.1046 20.951 41.106 20.1864 40.6853L0.577374 29.9009C0.192618 29.6893 0.00024072 29.411 0.000733366 29.1331L0.00221049 28.1714Z" fill="#C8CDE2"/>
<path d="M0.58034 28.9402L20.1884 39.7253C20.952 40.1453 22.1885 40.1453 22.9482 39.7213L51.6027 23.8845C52.3621 23.4644 52.3579 22.7791 51.5903 22.3591L31.9823 11.574C31.2187 11.154 29.9822 11.154 29.2228 11.578L0.568025 27.4148C-0.191634 27.8346 -0.187202 28.5199 0.58034 28.9402Z" fill="#F2F7FA"/>
<path d="M2.44858 27.3746L23.3885 38.8925C23.4949 38.951 23.6259 38.9511 23.7323 38.892L51.0865 23.7488C51.3151 23.622 51.3148 23.3066 51.0858 23.1806L30.1459 11.6624C30.0394 11.6039 29.9081 11.6041 29.802 11.6629L2.44808 26.8062C2.21925 26.9332 2.2195 27.2485 2.44858 27.3746Z" fill="white"/>
<path d="M27.212 23.6639L33.2978 27.0195C33.4272 27.0898 33.6348 27.0898 33.7634 27.0195C33.8917 26.9487 33.8917 26.8334 33.7634 26.7638L27.6765 23.4075C27.5472 23.3372 27.3403 23.3372 27.2122 23.4075C27.0826 23.4785 27.0826 23.5938 27.212 23.6639Z" fill="#C8CDE2"/>
<path d="M21.0887 21.5148L27.1743 24.8704C27.3036 24.9407 27.5113 24.9407 27.6401 24.8704C27.7682 24.7996 27.7682 24.6843 27.6401 24.6147L21.5532 21.2584C21.4239 21.1881 21.217 21.1881 21.0889 21.2584C20.9593 21.3294 20.9593 21.4444 21.0887 21.5148Z" fill="#C8CDE2"/>
<path d="M36.3833 28.1032L34.6078 27.1253C34.479 27.0545 34.2709 27.0545 34.1428 27.1253C34.0139 27.1961 34.0139 27.3108 34.1428 27.3816L35.9188 28.3602C36.0481 28.4306 36.255 28.4306 36.3831 28.3602C36.5114 28.2895 36.5114 28.1749 36.3833 28.1032Z" fill="#C8CDE2"/>
<path d="M20.8641 20.8623L19.0886 19.8845C18.96 19.8137 18.7519 19.8137 18.6235 19.8845C18.495 19.9553 18.495 20.07 18.6235 20.1408L20.3995 21.1192C20.5288 21.1895 20.7358 21.1895 20.8638 21.1192C20.9922 21.0484 20.9922 20.9338 20.8641 20.8623Z" fill="#C8CDE2"/>
<path d="M26.7839 22.9633L20.1256 19.292C19.9967 19.2219 19.7893 19.2219 19.6605 19.292C19.5324 19.3635 19.5324 19.4783 19.6605 19.5484L26.3196 23.2196C26.4482 23.2899 26.6551 23.2899 26.7839 23.2196C26.9128 23.1483 26.9128 23.0331 26.7839 22.9633Z" fill="#C8CDE2"/>
<path d="M34.9536 28.6283L28.2953 24.9574C28.1667 24.8871 27.959 24.8871 27.8302 24.9574C27.7021 25.0289 27.7021 25.1434 27.8302 25.2135L34.4893 28.8847C34.6181 28.9548 34.8248 28.9548 34.9536 28.8847C35.0824 28.8132 35.0824 28.6982 34.9536 28.6283Z" fill="#C8CDE2"/>
<path d="M28.7487 20.0677L25.9374 18.5178C25.5529 18.305 25.5517 17.9602 25.9382 17.7476C26.3247 17.535 26.9513 17.534 27.3385 17.7462L30.1491 19.2953C30.535 19.5082 30.5351 19.8537 30.1478 20.0677C29.7626 20.2798 29.1367 20.2791 28.7487 20.0677Z" fill="#73CA74"/>
<path d="M23.1122 27.6086L21.3315 26.6262C21.0874 26.4917 21.0866 26.2742 21.332 26.1382C21.5763 26.0037 21.9732 26.003 22.2187 26.1368L23.9994 27.1199C24.2435 27.2539 24.2435 27.4738 23.9989 27.6086C23.7546 27.7426 23.3565 27.7419 23.1122 27.6086Z" fill="#F85976"/>
<path d="M5.54712 26.5606L24.6472 37.0905L24.7147 37.0545L5.61387 26.5232L5.54712 26.5606Z" fill="#C8CDE2"/>
<path d="M24.379 26.9099L22.5969 25.9275C22.3521 25.793 22.3521 25.5743 22.5974 25.4395C22.843 25.304 23.2378 25.304 23.4842 25.4383L25.2643 26.4221C25.5079 26.5552 25.5092 26.7753 25.2636 26.9106C25.0202 27.0451 24.6219 27.0432 24.379 26.9099Z" fill="#73CA74"/>
<path d="M21.6055 35.3419L23.8046 36.5538L33.2543 31.2582L31.0554 30.0446L21.6055 35.3419Z" fill="#73CA74"/>
<path d="M18.4824 33.6255L20.6806 34.8379L28.1151 30.7859L25.9155 29.5731L18.4824 33.6255Z" fill="#F85976"/>
<path d="M15.4004 31.9654L17.5988 33.1777L22.3388 30.6062L20.1391 29.3934L15.4004 31.9654Z" fill="#FFDE95"/>
<path d="M13.2749 23.6572C12.8401 23.4609 12.1999 23.4975 11.8435 23.7353C11.4893 23.9752 11.5541 24.3277 11.9878 24.5253C12.4226 24.7205 13.063 24.6864 13.418 24.4458C13.7744 24.2057 13.7084 23.8529 13.2749 23.6572Z" fill="#FFDE95"/>
<path d="M13.895 23.2285C13.0282 22.8365 11.7468 22.9073 11.0372 23.3873C10.3265 23.8647 10.4554 24.5707 11.3239 24.9616C12.19 25.3544 13.4721 25.2819 14.1825 24.8047C14.8921 24.3245 14.7616 23.6185 13.895 23.2285ZM11.6734 24.7264C11.0438 24.4421 10.9505 23.9266 11.4663 23.5785C11.9808 23.233 12.9142 23.1799 13.5447 23.4642C14.1748 23.7478 14.2689 24.2641 13.7531 24.6107C13.2381 24.9583 12.3048 25.0096 11.6734 24.7264Z" fill="#005478"/>
<path d="M11.0377 23.3873C10.6537 23.6467 10.517 23.9712 10.6064 24.2779L11.1498 24.2168C11.0907 23.9955 11.1932 23.765 11.4671 23.5785C11.9817 23.233 12.915 23.1799 13.5456 23.4642L13.8956 23.2285C13.0288 22.8365 11.7474 22.9073 11.0377 23.3873Z" fill="#F85976"/>
<path d="M13.894 23.2285L13.5439 23.4642C14.0297 23.6843 14.1982 24.0387 14.011 24.3501L14.5371 24.4465C14.7935 24.0192 14.5645 23.53 13.894 23.2285Z" fill="#73CA74"/>
<path d="M16.9065 25.8974C16.3585 25.8344 15.8205 26.0296 15.7069 26.3334C15.5934 26.6361 15.9483 26.9329 16.4979 26.9948C17.0432 27.0578 17.5832 26.8607 17.6975 26.5599C17.8091 26.2554 17.4556 25.9586 16.9065 25.8974Z" fill="#005478"/>
<path d="M17.1292 25.3398C16.0308 25.2156 14.9549 25.6065 14.7307 26.2111C14.5046 26.8167 15.2143 27.4096 16.3114 27.5343C17.4085 27.6578 18.4849 27.2664 18.7098 26.6622C18.9355 26.0564 18.2241 25.4625 17.1292 25.3398ZM16.4212 27.234C15.6256 27.1446 15.1069 26.7144 15.2714 26.2737C15.4379 25.8337 16.2193 25.5486 17.0186 25.6392C17.8157 25.7285 18.3322 26.1613 18.1684 26.6013C18.0026 27.0402 17.2198 27.3238 16.4212 27.234Z" fill="#F85976"/>
<path d="M18.3383 25.7634L17.9097 25.9557C18.1476 26.1371 18.2543 26.365 18.1676 26.6013C18.0018 27.0402 17.219 27.3238 16.4204 27.2337L16.3105 27.5343C17.4077 27.6578 18.4841 27.2664 18.709 26.6622C18.8307 26.3348 18.6787 26.0098 18.3383 25.7634Z" fill="#FFDE95"/>
<path d="M15.2656 26.5698L14.7161 26.6197C14.8488 27.0623 15.4656 27.439 16.3125 27.5343L16.4223 27.2337C15.8075 27.1648 15.3624 26.8918 15.2656 26.5698Z" fill="#023248"/>
<path d="M13.033 28.0338C12.4854 27.9708 11.9469 28.1665 11.8341 28.4706C11.7198 28.7732 12.0755 29.0696 12.6243 29.1312C13.1697 29.1935 13.7096 28.9971 13.8246 28.6959C13.9377 28.3904 13.5813 28.0947 13.033 28.0338Z" fill="#023248"/>
<path d="M13.2537 27.4762C12.1553 27.3513 11.0786 27.7427 10.8567 28.3475C10.6306 28.9524 11.3402 29.5468 12.4374 29.6702C13.5337 29.7944 14.6087 29.4035 14.8358 28.7986C15.0592 28.1926 14.3493 27.599 13.2537 27.4762ZM12.5457 29.3708C11.7501 29.281 11.2326 28.8494 11.3984 28.4094C11.5614 27.9708 12.3442 27.6857 13.1428 27.7756C13.9399 27.865 14.4584 28.2977 14.2934 28.737C14.1279 29.1756 13.3458 29.46 12.5457 29.3708Z" fill="#73CA74"/>
<path d="M14.4648 27.8991L14.0349 28.0917C14.2721 28.2723 14.3783 28.5014 14.2921 28.7372C14.1263 29.1759 13.3442 29.4602 12.5442 29.3708L12.4355 29.6702C13.5319 29.7944 14.6069 29.4035 14.834 28.7986C14.9552 28.471 14.8039 28.1467 14.4648 27.8991Z" fill="#F85976"/>
<path d="M11.3867 28.7062L10.8374 28.7561C10.9709 29.1994 11.5877 29.5764 12.4358 29.6702L12.5444 29.3708C11.9301 29.3012 11.485 29.0279 11.3867 28.7062Z" fill="#005478"/>
<path d="M8.93448 25.7615C8.39331 25.682 7.83662 25.8612 7.69178 26.1601C7.54941 26.459 7.86914 26.7664 8.41326 26.8452C8.95517 26.9254 9.51236 26.746 9.65596 26.4466C9.80203 26.1488 9.47984 25.8403 8.93448 25.7615Z" fill="#FFDE95"/>
<path d="M9.18157 25.2118C8.0975 25.0522 6.98264 25.4089 6.69444 26.0077C6.40551 26.6041 7.05481 27.218 8.13543 27.3772C9.21802 27.5345 10.3336 27.1775 10.6218 26.5811C10.9093 25.9861 10.2649 25.3694 9.18157 25.2118ZM8.2783 27.0816C7.49006 26.9654 7.02156 26.5181 7.23143 26.0853C7.44129 25.6512 8.25219 25.3932 9.03894 25.5072C9.82447 25.6201 10.2957 26.0689 10.0851 26.5035C9.87546 26.9369 9.0653 27.1959 8.2783 27.0816Z" fill="#005478"/>
<path d="M9.18187 25.2119C8.59587 25.1265 8.001 25.1909 7.52979 25.3636L7.85518 25.6119C8.19289 25.491 8.62001 25.4452 9.03974 25.5075C9.82526 25.6204 10.2965 26.0691 10.0859 26.5037L10.6224 26.5813C10.9096 25.9861 10.2652 25.3694 9.18187 25.2119Z" fill="#FF2456"/>
<path d="M10.0848 26.5035C9.92513 26.837 9.40441 27.0677 8.81299 27.1037L8.87284 27.4063C9.68448 27.3572 10.3971 27.0418 10.6212 26.5808L10.0848 26.5035Z" fill="#023248"/>
<path d="M17.0361 22.6921L14.8722 21.4981C14.7648 21.4395 14.7663 21.3457 14.8727 21.2866C14.9793 21.2269 15.1513 21.2262 15.2584 21.2859L17.4224 22.4785C17.5283 22.5376 17.529 22.6328 17.4224 22.6921C17.3162 22.7504 17.142 22.7497 17.0361 22.6921Z" fill="#73CA74"/>
<path d="M16.4485 23.0145L14.2838 21.8219C14.1779 21.7622 14.1787 21.6683 14.2851 21.6098C14.3925 21.55 14.5651 21.5493 14.6716 21.6084L16.8348 22.8024C16.9414 22.8602 16.9422 22.956 16.8348 23.0145C16.7276 23.0735 16.5557 23.0728 16.4485 23.0145Z" fill="#F85976"/>
<path d="M15.8559 23.3414L13.692 22.1488C13.5846 22.0898 13.5868 21.9952 13.6925 21.936C13.7999 21.8774 13.971 21.8769 14.0792 21.9355L16.2424 23.1281C16.349 23.1872 16.3498 23.2831 16.2424 23.3414C16.1352 23.4005 15.9626 23.3998 15.8559 23.3414Z" fill="#FFDE95"/>
<path d="M21.5211 25.1599L19.3567 23.9665C19.2515 23.9087 19.2515 23.8141 19.3571 23.7551C19.4645 23.6954 19.637 23.6954 19.7444 23.7544L21.9076 24.947C22.0135 25.0061 22.0147 25.102 21.9076 25.161C21.8004 25.2196 21.6277 25.2189 21.5211 25.1599Z" fill="#023248"/>
<path d="M20.9337 25.483L18.7705 24.2904C18.6639 24.2318 18.6639 24.1361 18.7717 24.0776C18.8784 24.019 19.0503 24.019 19.157 24.0769L21.3209 25.2702C21.4269 25.3287 21.4281 25.4252 21.3209 25.4842C21.2153 25.5428 21.0404 25.542 20.9337 25.483Z" fill="#005478"/>
<path d="M20.3428 25.8099L18.1791 24.6173C18.0732 24.5583 18.0732 24.4635 18.1804 24.4045C18.2863 24.3459 18.459 24.3459 18.5661 24.4038L20.7286 25.5964C20.8352 25.6554 20.8365 25.7513 20.7286 25.8111C20.6234 25.8699 20.4495 25.8692 20.3428 25.8099Z" fill="#73CA74"/>
<path d="M26.9079 21.6714L25.1314 20.6923C25.0033 20.6215 24.7952 20.6215 24.6664 20.6923C24.5383 20.7631 24.5383 20.8779 24.6664 20.9487L26.4436 21.9273C26.5712 21.998 26.7783 21.998 26.9079 21.9273C27.036 21.8567 27.0353 21.7417 26.9079 21.6714Z" fill="#C8CDE2"/>
<path d="M32.1897 24.5063L30.8436 23.764C30.7155 23.693 30.5074 23.693 30.3785 23.764C30.2504 23.8348 30.2504 23.9494 30.3785 24.0204L31.7254 24.7622C31.853 24.833 32.0602 24.833 32.1897 24.7622C32.3178 24.6919 32.3173 24.5764 32.1897 24.5063Z" fill="#C8CDE2"/>
<path d="M29.7337 23.2008L27.9577 22.2222C27.8284 22.1507 27.6215 22.1507 27.4927 22.2222C27.3641 22.2925 27.3641 22.407 27.4927 22.4785L29.2687 23.4571C29.397 23.5279 29.6049 23.5279 29.7337 23.4571C29.8606 23.3856 29.8606 23.2704 29.7337 23.2008Z" fill="#C8CDE2"/>
<path d="M24.2185 20.2539L22.4427 19.2749C22.3136 19.2048 22.1055 19.2048 21.9774 19.2749C21.8493 19.3457 21.8493 19.4611 21.9774 19.5305L23.7534 20.5098C23.882 20.5813 24.0896 20.5813 24.2185 20.5098C24.3465 20.4395 24.3465 20.325 24.2185 20.2539Z" fill="#C8CDE2"/>
<path d="M9.85884 33.0047L10.4335 32.6872C10.7202 32.5287 11.2011 32.5454 11.5277 32.7253L12.5795 33.2869C12.6886 33.3471 12.7726 33.4219 12.8219 33.5035C12.9337 33.6876 12.8647 33.8906 12.6509 34.0087L12.0762 34.3264C11.7893 34.4849 11.3087 34.4682 10.9821 34.2883L9.93027 33.7267C9.82115 33.6667 9.73716 33.5917 9.68789 33.5103C9.57631 33.3259 9.64503 33.1227 9.85884 33.0047Z" fill="#B4BED8"/>
<path d="M9.85924 33.1902L10.4339 32.8727C10.7206 32.7142 11.2015 32.7309 11.5281 32.9108L12.5799 33.4724C12.689 33.5324 12.773 33.6074 12.8223 33.689C12.8412 33.7203 12.8479 33.7525 12.8567 33.7843C12.826 33.8713 12.7567 33.9505 12.6516 34.0086L12.0769 34.3261C11.7899 34.4847 11.3093 34.4679 10.9827 34.288L9.93092 33.7264C9.8218 33.6664 9.7378 33.5914 9.68854 33.5098C9.66932 33.4785 9.66292 33.4463 9.65405 33.4143C9.6846 33.3275 9.75382 33.2483 9.85924 33.1902Z" fill="#C8CDE2"/>
<path d="M39.5969 16.1925L42.1636 17.6076C42.2427 17.6514 42.2513 17.7172 42.1828 17.7549C42.1143 17.7927 41.9946 17.7878 41.9156 17.7443L39.3489 16.3292C39.2698 16.2855 39.2612 16.2196 39.3297 16.182C39.3981 16.1441 39.5179 16.1488 39.5969 16.1925Z" fill="#023248"/>
<path d="M42.7385 17.8673C42.5461 17.8673 42.4119 17.9635 42.4119 18.0498C42.4119 18.1361 42.5461 18.2323 42.7385 18.2323C42.9309 18.2323 43.0651 18.1361 43.0651 18.0498C43.0651 17.9635 42.9311 17.8673 42.7385 17.8673Z" fill="#023248"/>
<path d="M43.3584 18.2513C43.2759 18.2513 43.218 18.2925 43.218 18.3297C43.218 18.3668 43.2757 18.408 43.3584 18.408C43.4412 18.408 43.4988 18.3666 43.4988 18.3297C43.4988 18.2927 43.4412 18.2513 43.3584 18.2513Z" fill="#023248"/>
<path d="M30.8656 12.0975L29.7899 12.7737L29.501 10.3071L30.5767 9.63093L30.8656 12.0975Z" fill="#B4BED8"/>
<path d="M29.7896 12.8913C29.7718 12.8913 29.7539 12.8875 29.7373 12.8802C29.6987 12.8628 29.6721 12.8275 29.6671 12.7868L29.3782 10.3202C29.373 10.2763 29.3942 10.2332 29.4329 10.209L30.5086 9.53284C30.5446 9.51027 30.5899 9.50721 30.6285 9.52461C30.6672 9.54201 30.6938 9.57729 30.6987 9.61798L30.9877 12.0846C30.9929 12.1286 30.9717 12.1716 30.933 12.1958L29.8573 12.872C29.8369 12.8847 29.8132 12.8913 29.7896 12.8913ZM29.6314 10.3656L29.8896 12.57L30.7345 12.039L30.4763 9.83458L29.6314 10.3656Z" fill="white"/>
<path d="M26.5658 0.852689C26.5305 0.84093 26.4951 0.831522 26.4601 0.823291C26.4175 0.813413 26.3751 0.805412 26.3327 0.800238C26.3042 0.79671 26.2761 0.795067 26.2478 0.793656C26.2019 0.791539 26.1566 0.792712 26.112 0.79624C26.1024 0.796945 26.0931 0.79789 26.0837 0.798831C26.0389 0.803299 25.9945 0.809884 25.9512 0.819997C25.9477 0.820702 25.9448 0.821875 25.9413 0.82258C25.8857 0.835986 25.8312 0.853152 25.7788 0.875024C25.777 0.87573 25.7756 0.876436 25.7738 0.877142C25.7201 0.899719 25.6684 0.926296 25.6191 0.95734L26.6948 0.281187C26.7441 0.250378 26.7958 0.223566 26.8495 0.200988C26.8512 0.200283 26.8527 0.199577 26.8544 0.198871C26.9069 0.176999 26.9614 0.159832 27.017 0.146427C27.0192 0.145956 27.0215 0.145015 27.0237 0.14431C27.0247 0.144074 27.0256 0.144078 27.0269 0.143843C27.0702 0.133965 27.1146 0.127146 27.1594 0.122677C27.1688 0.121737 27.1784 0.120792 27.1877 0.120086C27.2323 0.116794 27.2776 0.115621 27.3234 0.117503C27.3257 0.117503 27.3276 0.117267 27.3299 0.117503C27.356 0.118914 27.3821 0.121028 27.4084 0.124321C27.4505 0.12926 27.4932 0.137489 27.5358 0.147367C27.5387 0.148073 27.5419 0.148312 27.5449 0.149018C27.5769 0.156779 27.6092 0.165947 27.6417 0.176765C27.6437 0.177471 27.6459 0.178414 27.6479 0.179119C27.6777 0.188997 27.7072 0.20005 27.7368 0.212515C27.74 0.213926 27.7434 0.216042 27.7466 0.217453C27.7897 0.236032 27.8331 0.256733 27.8757 0.280957L41.7195 8.04367C41.7375 8.05354 41.755 8.06389 41.7723 8.07471C41.809 8.09752 41.8442 8.12222 41.8787 8.14833C41.8831 8.15162 41.887 8.15538 41.8915 8.15867C41.9178 8.17913 41.9437 8.20007 41.9686 8.22241C41.9809 8.23346 41.9915 8.24592 42.0033 8.25721C42.0183 8.27156 42.0329 8.28614 42.0471 8.30119C42.0757 8.3313 42.1028 8.36281 42.1289 8.39503C42.1403 8.40914 42.1521 8.42279 42.1629 8.43737C42.1981 8.48464 42.2312 8.53379 42.2607 8.58482C42.2622 8.58741 42.2634 8.59047 42.2649 8.59306C42.2925 8.64197 42.3171 8.6923 42.339 8.74428C42.3464 8.76145 42.3523 8.77909 42.3592 8.79672C42.374 8.83529 42.3873 8.8741 42.3989 8.91384C42.4046 8.93383 42.41 8.95383 42.4149 8.97405C42.4248 9.01427 42.4324 9.05496 42.4388 9.09612C42.4418 9.1147 42.4452 9.1328 42.4474 9.15162C42.4541 9.21088 42.4583 9.27038 42.4575 9.33059L42.3188 14.2575C42.3127 14.7034 42.1001 15.0552 41.792 15.249L40.7163 15.9251C41.0244 15.7314 41.2367 15.3795 41.2431 14.9336L41.3818 10.0067C41.3828 9.94677 41.3786 9.88704 41.3717 9.82777C41.3695 9.80919 41.3661 9.79085 41.3631 9.77227C41.3569 9.73135 41.3491 9.69066 41.3392 9.65044C41.3343 9.63022 41.3289 9.60999 41.3232 9.59C41.3116 9.55049 41.2983 9.51145 41.2835 9.47311C41.2769 9.45548 41.2707 9.43784 41.2633 9.42043C41.2412 9.36869 41.2168 9.31789 41.189 9.26897C41.1875 9.26639 41.1865 9.2638 41.185 9.26121C41.1555 9.20994 41.1225 9.16079 41.0872 9.11352C41.0766 9.09917 41.0646 9.08553 41.0532 9.07142C41.0274 9.03896 41 9.00745 40.9712 8.97735C40.9569 8.9623 40.9424 8.94771 40.9274 8.93336C40.8914 8.89903 40.8547 8.8654 40.8153 8.83506C40.8109 8.83177 40.8069 8.828 40.8027 8.82471C40.7522 8.78637 40.6993 8.7511 40.6436 8.72006L26.7998 0.95734C26.7569 0.933116 26.7138 0.912658 26.6707 0.893843C26.6377 0.879732 26.6047 0.866798 26.5719 0.85551C26.5697 0.854334 26.568 0.853394 26.5658 0.852689Z" fill="#B4BED8"/>
<path d="M40.7145 16.042C40.6743 16.042 40.6351 16.0234 40.6115 15.9891C40.574 15.935 40.5898 15.8619 40.6467 15.8264C40.9408 15.6413 41.1128 15.3153 41.1182 14.9315L41.2569 10.0032C41.2576 9.94935 41.2537 9.89455 41.2475 9.84023L41.2426 9.80918C41.2335 9.75132 41.2266 9.71393 41.2175 9.67701C41.2128 9.65796 41.2078 9.63938 41.2024 9.62103C41.1918 9.58482 41.1795 9.5486 41.166 9.51332L41.1475 9.46511C41.127 9.41713 41.1044 9.37033 41.0788 9.32517C41.048 9.27061 41.0172 9.22522 40.9847 9.18171L40.9672 9.15984C40.9295 9.11304 40.9046 9.08434 40.8783 9.05682C40.865 9.04271 40.8517 9.02954 40.8381 9.01637C40.8054 8.98486 40.7716 8.95428 40.7356 8.9263C40.6782 8.88185 40.6297 8.84987 40.5792 8.82141L26.7354 1.05869C26.6965 1.03659 26.6573 1.01801 26.6179 1.00107C26.5881 0.988375 26.5583 0.976615 26.5285 0.966502L26.5635 0.853381L26.5228 0.964384C26.4915 0.954036 26.46 0.945571 26.4285 0.938281C26.3903 0.929344 26.3524 0.922285 26.3147 0.917582C26.2895 0.914524 26.2644 0.912881 26.2395 0.91194C26.1994 0.910294 26.1588 0.911237 26.1193 0.914294C26.1191 0.914294 26.0947 0.916641 26.0942 0.916641C26.0548 0.92064 26.0156 0.926521 25.9775 0.935223C25.9198 0.949334 25.8715 0.964621 25.8252 0.983907C25.7742 1.00554 25.7289 1.02859 25.6861 1.05564L25.6843 1.05681C25.6277 1.09256 25.5511 1.07751 25.5139 1.02342C25.4767 0.969325 25.4922 0.896184 25.5489 0.860436C25.5493 0.860201 25.5498 0.859731 25.5503 0.859496L26.6243 0.184283C26.6792 0.149711 26.7371 0.120075 26.797 0.0946751C26.861 0.0678641 26.9216 0.0485839 26.9842 0.0335322C26.9898 0.0321211 27.0027 0.0290574 27.0086 0.028587C27.0435 0.01965 27.0931 0.0123641 27.1431 0.00695483L27.1738 0.00413418C27.2253 0.000136051 27.2756 -0.00128068 27.3266 0.00130634C27.363 0.00271745 27.3923 0.00530751 27.4214 0.00883527C27.4677 0.0144797 27.515 0.0234171 27.5621 0.0342355C27.6076 0.0445836 27.6433 0.0549318 27.6791 0.066691C27.7185 0.0803317 27.751 0.092089 27.7835 0.105965C27.8414 0.1316 27.8887 0.154181 27.9355 0.180522L41.7793 7.94323C41.7988 7.95405 41.818 7.96534 41.837 7.97733C41.8769 8.00202 41.9153 8.02907 41.9527 8.05729C41.9953 8.09116 42.0234 8.11374 42.0503 8.13773C42.0596 8.14596 42.0682 8.1549 42.0769 8.16407C42.104 8.19088 42.1197 8.2064 42.1352 8.22263C42.1665 8.25555 42.1958 8.28942 42.2239 8.32446L42.2606 8.37033C42.2986 8.42136 42.3343 8.47404 42.3661 8.52931C42.4003 8.59093 42.4269 8.64525 42.4505 8.70099L42.4661 8.74097C42.488 8.79859 42.5025 8.8407 42.5148 8.88326C42.521 8.90466 42.5269 8.9263 42.5323 8.94817C42.5429 8.99145 42.5513 9.03519 42.5579 9.0794L42.567 9.13914C42.5742 9.20311 42.5786 9.26755 42.5779 9.33247L42.4392 14.261C42.4328 14.7224 42.2205 15.1189 41.8569 15.3475L40.7812 16.0237C40.7613 16.0357 40.7376 16.042 40.7145 16.042ZM26.6041 0.741667C26.6071 0.742608 26.6115 0.744258 26.6137 0.745199C26.6472 0.756487 26.6832 0.770594 26.7191 0.786116C26.7664 0.806577 26.8137 0.829158 26.8605 0.855498L40.7044 8.61821C40.765 8.65231 40.8226 8.69065 40.8778 8.73228C40.9342 8.77673 40.9743 8.81294 41.013 8.8501C41.0295 8.86586 41.0455 8.88185 41.061 8.89831C41.0918 8.9303 41.1211 8.9644 41.1492 8.99968L41.1854 9.04483C41.2236 9.0961 41.2593 9.14902 41.2911 9.20429C41.3253 9.2652 41.3517 9.31976 41.3753 9.3755L41.3911 9.41619C41.4128 9.47357 41.4271 9.5152 41.4396 9.558C41.4458 9.57987 41.4517 9.60152 41.4571 9.62339C41.4677 9.66666 41.4761 9.7104 41.4827 9.75485L41.4921 9.81435C41.4995 9.87856 41.5039 9.943 41.5027 10.0081L41.364 14.9362C41.3613 15.1145 41.328 15.2831 41.2674 15.436L41.7219 15.1504C42.0163 14.9653 42.188 14.6394 42.1934 14.2556L42.3321 9.32705C42.3328 9.27343 42.3289 9.21864 42.3227 9.16407L42.3178 9.13162C42.3089 9.07517 42.3018 9.03778 42.2926 9.00062C42.288 8.98157 42.283 8.96322 42.2776 8.94488C42.267 8.90843 42.2547 8.87244 42.2412 8.83716L42.2224 8.78848C42.202 8.7405 42.1796 8.69394 42.154 8.64902C42.1229 8.59422 42.0924 8.54906 42.0599 8.50532L42.0419 8.48275C42.0044 8.43665 41.9796 8.40772 41.9532 8.37973L41.9131 8.33975C41.9121 8.33881 41.8966 8.32305 41.8953 8.32187C41.8586 8.2873 41.8345 8.26826 41.8106 8.24944C41.768 8.21628 41.7357 8.19394 41.7025 8.173C41.6869 8.16313 41.6712 8.15396 41.6549 8.14478L27.8106 0.381836C27.7717 0.359729 27.7325 0.341151 27.6931 0.324218C27.6574 0.308695 27.6308 0.298819 27.6039 0.289882C27.5694 0.278358 27.5406 0.269888 27.512 0.263067C27.4657 0.252719 27.4281 0.24543 27.3904 0.240962C27.3667 0.238139 27.3436 0.236022 27.3202 0.234847C27.2739 0.232965 27.234 0.234373 27.1943 0.23743L27.1689 0.239785C27.1302 0.243783 27.0911 0.249665 27.0529 0.258366C26.995 0.272477 26.947 0.287765 26.9007 0.30705C26.8489 0.328922 26.8031 0.35244 26.7598 0.379956L26.2846 0.678637C26.3048 0.680048 26.325 0.681697 26.3452 0.684049C26.392 0.689693 26.4391 0.698632 26.4864 0.709686C26.526 0.718152 26.5652 0.728497 26.6041 0.741667Z" fill="white"/>
<path d="M26.33 0.800232C25.6844 0.722386 25.1001 1.20498 25.0895 1.94887L24.9508 6.8755C24.9434 7.39973 25.2353 7.90655 25.6888 8.16219L29.7896 12.7734L29.5007 10.3068L39.5326 15.9249C39.6871 16.0119 39.8452 16.0625 39.9999 16.0813C40.6455 16.1591 41.2298 15.6766 41.2404 14.9327L41.3791 10.0058C41.3865 9.48157 41.0948 8.97358 40.6411 8.71911L26.7973 0.956394C26.6428 0.869611 26.4844 0.818811 26.33 0.800232Z" fill="#C8CDE2"/>
<path d="M40.1382 16.2074C40.0875 16.2074 40.0365 16.2043 39.9853 16.1982C39.8084 16.177 39.6352 16.1192 39.4709 16.0265L29.6513 10.5272L29.9129 12.7605C29.9188 12.812 29.889 12.8612 29.8392 12.8816C29.7897 12.9023 29.7318 12.8892 29.6964 12.8499L25.6086 8.25345C25.1261 7.97264 24.8204 7.4336 24.8283 6.87433L24.967 1.94605C24.9726 1.54436 25.134 1.19088 25.4212 0.952401C25.6786 0.738383 26.0084 0.643134 26.3459 0.683821C26.5225 0.704988 26.6954 0.762845 26.8602 0.855508L40.704 8.61822C41.1972 8.89503 41.5107 9.44042 41.5026 10.0079L41.3639 14.9362C41.3583 15.3379 41.1969 15.6914 40.9097 15.9298C40.6915 16.1112 40.422 16.2074 40.1382 16.2074ZM29.5015 10.1895C29.5229 10.1895 29.5446 10.1949 29.5638 10.2057L39.5958 15.8238C39.7315 15.9002 39.8729 15.9475 40.0163 15.9649C40.2855 15.9976 40.5449 15.9219 40.7486 15.7523C40.9821 15.5583 41.1134 15.2669 41.1181 14.9313L41.2568 10.003C41.2637 9.51991 40.9979 9.05542 40.5796 8.82071L26.7358 1.058C26.6001 0.981565 26.4587 0.934291 26.3156 0.916888C26.0468 0.884667 25.7872 0.960159 25.5833 1.12949C25.3497 1.32352 25.2184 1.61515 25.2138 1.95053L25.0751 6.8788C25.0684 7.36046 25.3342 7.82518 25.7525 8.06107C25.7643 8.06766 25.7749 8.07612 25.7838 8.08623L29.6234 12.4037L29.3793 10.32C29.3742 10.2758 29.3956 10.2325 29.4348 10.2083C29.455 10.1958 29.4781 10.1895 29.5015 10.1895Z" fill="white"/>
<path d="M30.6248 7.88891V5.85504L30.8216 5.97499V8.00862L30.6248 7.88891Z" fill="#005478"/>
<path d="M31.0999 8.05564V6.26496L31.2969 6.38466V8.17559L31.0999 8.05564Z" fill="#005478"/>
<path d="M31.575 8.11657V6.78096L31.772 6.9009V8.23652L31.575 8.11657Z" fill="#005478"/>
<path d="M32.05 8.63256V6.84163L32.2471 6.96157V8.7525L32.05 8.63256Z" fill="#005478"/>
<path d="M32.5234 8.69347V7.35786L32.7205 7.47781V8.81318L32.5234 8.69347Z" fill="#005478"/>
<path d="M32.9968 9.20947V7.41854L33.1939 7.53872V9.32941L32.9968 9.20947Z" fill="#005478"/>
<path d="M33.4736 9.27013V7.93476L33.6704 8.05447V9.39008L33.4736 9.27013Z" fill="#005478"/>
<path d="M36.3191 11.3501V9.31625L36.5161 9.43618V11.4698L36.3191 11.3501Z" fill="#005478"/>
<path d="M36.7942 11.5169V9.72617L36.9913 9.84587V11.6368L36.7942 11.5169Z" fill="#005478"/>
<path d="M37.2676 11.5778V10.2422L37.4649 10.3621V11.6977L37.2676 11.5778Z" fill="#005478"/>
<path d="M37.7446 12.0937V10.3028L37.9417 10.4228V12.2137L37.7446 12.0937Z" fill="#005478"/>
<path d="M38.218 12.1544V10.8191L38.4151 10.939V12.2744L38.218 12.1544Z" fill="#005478"/>
<path d="M38.6912 12.6707V10.8797L38.888 10.9997V12.7906L38.6912 12.6707Z" fill="#005478"/>
<path d="M39.1663 12.7313V11.3957L39.3633 11.5157V12.8513L39.1663 12.7313Z" fill="#005478"/>
<path d="M39.6416 13.0199V11.6841L39.8384 11.8042V13.1396L39.6416 13.0199Z" fill="#005478"/>
<path d="M33.947 9.77226V8.00979L34.1441 8.12973V9.89197L33.947 9.77226Z" fill="#005478"/>
<path d="M34.8955 10.0655V8.87009L35.0928 8.99003V10.1852L34.8955 10.0655Z" fill="#005478"/>
<path d="M34.4221 10.3471V8.01144L34.6192 8.13138V10.4672L34.4221 10.3471Z" fill="#005478"/>
<path d="M29.2029 6.88773V5.1255L29.3999 5.2452V7.00767L29.2029 6.88773Z" fill="#005478"/>
<path d="M29.6763 7.46299V5.12738L29.8733 5.24709V7.58293L29.6763 7.46299Z" fill="#005478"/>
<path d="M30.1514 8.1676V4.99944L30.3484 5.11938V8.28754L30.1514 8.1676Z" fill="#005478"/>
<path d="M35.3726 11.3402V8.17207L35.5696 8.29202V11.4602L35.3726 11.3402Z" fill="#005478"/>
<path d="M35.8457 11.8875V8.2017L36.0428 8.32164V12.0074L35.8457 11.8875Z" fill="#005478"/>
<path d="M27.8078 5.6255C27.8913 5.17324 27.6849 4.59328 27.3506 4.32799C27.0149 4.06505 26.6757 4.21792 26.591 4.66971C26.5087 5.1215 26.7124 5.70241 27.0489 5.96558C27.3859 6.23016 27.7246 6.07611 27.8078 5.6255Z" fill="#FFDE95"/>
<path d="M28.4033 6.08223C28.5703 5.18054 28.1602 4.01943 27.4877 3.49239C26.8177 2.9644 26.1384 3.2692 25.9733 4.17254C25.8053 5.07376 26.2172 6.23534 26.8872 6.76356C27.5597 7.29014 28.2385 6.98322 28.4033 6.08223ZM26.3032 4.43218C26.4241 3.77742 26.9202 3.55518 27.4079 3.93806C27.8929 4.32047 28.1932 5.16619 28.0727 5.82211C27.9525 6.47733 27.456 6.70029 26.9695 6.31694C26.4825 5.9343 26.1842 5.08834 26.3032 4.43218Z" fill="#005478"/>
<path d="M27.4904 3.49238C27.1269 3.20757 26.763 3.16712 26.4768 3.33057L26.682 3.81481C26.8899 3.70192 27.1498 3.73532 27.4106 3.93805C27.8956 4.32046 28.1959 5.16618 28.0754 5.8221L28.406 6.08222C28.5733 5.18053 28.1629 4.01919 27.4904 3.49238Z" fill="#F85976"/>
<path d="M28.4045 6.08223L28.074 5.82211C27.9799 6.32729 27.6663 6.57635 27.3025 6.48627L27.3441 6.99639C27.8437 7.11939 28.2772 6.77932 28.4045 6.08223Z" fill="#73CA74"/>
<path d="M34.9037 15.1232C34.8682 15.1114 34.833 15.102 34.7977 15.0938C34.7551 15.0839 34.7128 15.0759 34.6704 15.0707C34.6421 15.0672 34.6137 15.0653 34.5854 15.0641C34.5396 15.062 34.4943 15.0632 34.4494 15.0667C34.4401 15.0674 34.4307 15.0684 34.4211 15.0693C34.3763 15.074 34.3319 15.0806 34.2886 15.0905C34.2854 15.0912 34.2822 15.0924 34.279 15.0931C34.2231 15.1065 34.1686 15.1236 34.1162 15.1455C34.1147 15.1462 34.113 15.1469 34.1112 15.1476C34.0575 15.1702 34.0058 15.1968 33.9565 15.2278L35.0322 14.5517C35.0815 14.5206 35.1332 14.4941 35.1869 14.4715C35.1886 14.4708 35.1901 14.4698 35.1919 14.4691C35.2443 14.4475 35.2988 14.4301 35.3544 14.4167C35.3566 14.4162 35.3589 14.415 35.3611 14.4146C35.3621 14.4143 35.3633 14.4143 35.3643 14.4141C35.4076 14.4042 35.4517 14.3976 35.4968 14.3929C35.5064 14.392 35.5158 14.391 35.5251 14.3903C35.57 14.3868 35.615 14.3856 35.6609 14.3878C35.6631 14.3878 35.665 14.3875 35.6673 14.3878C35.6934 14.3889 35.7195 14.3913 35.7458 14.3943C35.788 14.3995 35.8303 14.4075 35.8729 14.4174C35.8761 14.4181 35.8791 14.4183 35.8823 14.419C35.9143 14.4268 35.9466 14.436 35.9789 14.4468C35.9808 14.4475 35.983 14.4484 35.985 14.4491C36.0148 14.459 36.0444 14.4698 36.0739 14.4825C36.0774 14.4839 36.0806 14.4861 36.0838 14.4875C36.1271 14.5063 36.1702 14.5267 36.2131 14.551L47.4196 20.8443C47.4375 20.8541 47.455 20.8645 47.4723 20.8753C47.509 20.8981 47.5442 20.9228 47.5787 20.9489C47.5831 20.9522 47.5871 20.956 47.5915 20.9593C47.6179 20.9797 47.644 21.0007 47.6686 21.023C47.6807 21.0338 47.6915 21.0465 47.7033 21.0578C47.7184 21.0721 47.7329 21.0867 47.7472 21.1018C47.776 21.1319 47.8028 21.1634 47.8289 21.1959C47.8403 21.21 47.8521 21.2236 47.8629 21.238C47.8982 21.2855 47.9314 21.3344 47.9607 21.3856C47.9622 21.3882 47.9634 21.391 47.9649 21.3939C47.9928 21.4428 48.0171 21.4931 48.0391 21.5449C48.0465 21.562 48.0526 21.5797 48.0593 21.5973C48.074 21.6359 48.0873 21.6747 48.0989 21.7142C48.1048 21.7342 48.11 21.7542 48.1149 21.7746C48.1248 21.8149 48.1324 21.8555 48.1388 21.8967C48.1418 21.9153 48.1452 21.9334 48.1474 21.952C48.1543 22.0112 48.1583 22.071 48.1575 22.1309L48.0189 27.0578C48.0127 27.5037 47.8001 27.8558 47.492 28.0493L46.416 28.7255C46.7242 28.5317 46.9368 28.1799 46.9429 27.734L47.0816 22.8071C47.0823 22.7471 47.0784 22.6874 47.0715 22.6281C47.0693 22.6095 47.0658 22.5912 47.0629 22.5728C47.0565 22.5319 47.0488 22.491 47.039 22.4508C47.0341 22.4306 47.0286 22.4103 47.023 22.3903C47.0116 22.3508 46.9981 22.312 46.9836 22.2735C46.9769 22.2558 46.9708 22.2382 46.9634 22.2208C46.9412 22.169 46.9168 22.1182 46.889 22.0693C46.8875 22.0667 46.8865 22.0641 46.885 22.0616C46.8555 22.0103 46.8225 21.9614 46.787 21.9139C46.7764 21.8993 46.7643 21.8859 46.753 21.8718C46.7272 21.8393 46.6998 21.8078 46.6712 21.7777C46.6569 21.7629 46.6422 21.7483 46.6274 21.7337C46.5914 21.6991 46.5547 21.6658 46.5153 21.6354C46.5109 21.6319 46.5069 21.6284 46.5027 21.6251C46.4522 21.5867 46.3993 21.5515 46.3436 21.5204L35.1372 15.2274C35.0943 15.2031 35.0512 15.1827 35.0078 15.1639C34.9751 15.1497 34.9418 15.1368 34.9091 15.1258C34.9078 15.1248 34.9056 15.1236 34.9037 15.1232Z" fill="#5B5C70"/>
<path d="M46.4163 28.8429C46.3761 28.8429 46.337 28.8243 46.3133 28.7899C46.2759 28.7358 46.2916 28.6627 46.3485 28.6272C46.6429 28.4421 46.8146 28.1161 46.82 27.7323L46.9587 22.8038C46.9594 22.7502 46.9557 22.6954 46.9493 22.6408L46.9444 22.6084C46.9355 22.5522 46.9286 22.5145 46.9193 22.4776L46.9042 22.4214C46.8939 22.3849 46.8813 22.349 46.8678 22.3137L46.8493 22.2652C46.8289 22.2175 46.8065 22.1704 46.7808 22.1253C46.75 22.0712 46.7195 22.026 46.687 21.9823L46.6683 21.959C46.6316 21.9136 46.6067 21.8847 46.5803 21.8567L46.5402 21.8167C46.5074 21.785 46.4737 21.7547 46.4377 21.7267C46.3803 21.6825 46.332 21.6502 46.2815 21.6218L35.0748 15.3287C35.0359 15.3068 34.9968 15.288 34.9573 15.2711C34.9275 15.2582 34.8977 15.2466 34.8682 15.2365L34.9029 15.1232L34.8628 15.2344C34.831 15.2241 34.7992 15.2156 34.7677 15.2081C34.7297 15.1991 34.6921 15.1921 34.6546 15.1876C34.6292 15.1846 34.6041 15.1829 34.5792 15.1817C34.5391 15.1803 34.4987 15.181 34.459 15.1841L34.4231 15.0757L34.4218 15.0764L34.4342 15.1862C34.3945 15.1902 34.3553 15.1961 34.3171 15.2048C34.2598 15.2189 34.2115 15.2342 34.1654 15.2535C34.1137 15.2753 34.0679 15.2989 34.0245 15.3264C33.9679 15.3621 33.8913 15.3471 33.8541 15.2927C33.8166 15.2386 33.8324 15.1655 33.8893 15.13H33.8895L34.965 14.4538C35.0202 14.4193 35.0778 14.3896 35.1376 14.3642C35.2019 14.3374 35.2628 14.3179 35.3249 14.3031C35.3845 14.289 35.4337 14.2817 35.484 14.2765L35.516 14.2734C35.5655 14.2694 35.6158 14.268 35.667 14.2706C35.703 14.272 35.732 14.2746 35.7613 14.2779C35.8086 14.2836 35.8557 14.2925 35.9027 14.3036C35.9483 14.3139 35.9838 14.324 36.0192 14.3358C36.0589 14.3494 36.0917 14.3614 36.1244 14.3753C36.1823 14.4009 36.2291 14.4235 36.2759 14.4494L47.4826 20.7427C47.5026 20.7539 47.5215 20.7652 47.5402 20.777C47.5802 20.8017 47.6186 20.8287 47.656 20.857C47.6986 20.8906 47.727 20.9132 47.7536 20.9374C47.7627 20.9454 47.7711 20.9541 47.7797 20.963C47.8075 20.9905 47.8233 21.0063 47.8388 21.0225C47.8696 21.055 47.8989 21.0891 47.9272 21.1241L47.9637 21.1695C48.0019 21.221 48.0376 21.2737 48.0693 21.329C48.1036 21.3903 48.1299 21.4447 48.1538 21.5004L48.1694 21.5402C48.1915 21.5982 48.2058 21.6401 48.2181 21.6827C48.2243 21.7041 48.2302 21.7257 48.2356 21.7478C48.246 21.7909 48.2546 21.8348 48.2612 21.8791C48.2664 21.9099 48.2689 21.9245 48.2703 21.9393C48.2777 22.0028 48.2819 22.0672 48.2812 22.1321L48.1425 27.0604C48.1361 27.5218 47.9238 27.9183 47.5602 28.1469L46.4843 28.8231C46.4631 28.8367 46.4394 28.8429 46.4163 28.8429ZM34.6251 14.9487C34.6453 14.9498 34.6654 14.9517 34.6856 14.9541C34.7322 14.9597 34.7795 14.9684 34.8268 14.9795C34.8657 14.9886 34.9044 14.999 34.9433 15.0117C34.9435 15.0117 34.9438 15.0117 34.9443 15.0119C34.9472 15.0129 34.9532 15.0152 34.9561 15.0166C34.9867 15.0265 35.0229 15.0409 35.0591 15.0566C35.1059 15.0766 35.1529 15.0994 35.2 15.1255L46.4064 21.4186C46.467 21.4524 46.5247 21.4908 46.5796 21.5326C46.636 21.5771 46.6761 21.6133 46.7151 21.6507C46.7311 21.666 46.7468 21.6817 46.7621 21.698C46.7934 21.7311 46.823 21.765 46.851 21.8003L46.8875 21.8457C46.9254 21.8965 46.9611 21.9494 46.9929 22.0046C47.0272 22.0658 47.0535 22.1204 47.0774 22.1761L47.0932 22.2165C47.1149 22.2742 47.1294 22.316 47.1417 22.3586C47.1479 22.3805 47.1538 22.4021 47.1589 22.4237C47.1695 22.467 47.1779 22.5108 47.1848 22.555L47.1939 22.6147C47.2013 22.6787 47.2055 22.7434 47.2048 22.8083L47.0661 27.7368C47.0636 27.9148 47.0304 28.0834 46.9695 28.2363L47.424 27.9508C47.7181 27.7659 47.89 27.4397 47.8954 27.0559L48.0341 22.1276C48.0349 22.074 48.0312 22.0192 48.0248 21.9647L48.0198 21.9329C48.0107 21.8758 48.0038 21.8384 47.9947 21.8015C47.99 21.7824 47.9854 21.7643 47.9799 21.7459C47.9693 21.709 47.957 21.6733 47.9435 21.638L47.9248 21.5893C47.9046 21.5416 47.8821 21.495 47.8565 21.4499C47.8255 21.3948 47.7949 21.3497 47.7624 21.3062L47.7449 21.2843C47.7073 21.2375 47.6826 21.2088 47.656 21.181C47.6427 21.1672 47.6294 21.1538 47.6159 21.1408C47.6146 21.1396 47.5984 21.1234 47.5974 21.122C47.5614 21.0884 47.5375 21.0693 47.5134 21.0505C47.4705 21.0171 47.4383 20.9948 47.405 20.9738L47.3567 20.9452L36.1508 14.6523C36.1119 14.6305 36.0727 14.6116 36.033 14.5947C35.9976 14.5792 35.971 14.5693 35.9444 14.5604C35.9096 14.5486 35.8808 14.5404 35.8517 14.5333C35.8054 14.523 35.7677 14.5159 35.7301 14.5112C35.7074 14.5084 35.684 14.5063 35.6608 14.5053C35.6143 14.5032 35.5741 14.5046 35.5347 14.5077C35.5345 14.5077 35.5098 14.51 35.5096 14.51C35.4699 14.514 35.431 14.5199 35.3926 14.5286C35.335 14.5427 35.2867 14.558 35.2404 14.5773C35.1891 14.5992 35.1431 14.6227 35.0997 14.65L34.6251 14.9487ZM34.447 15.0604L34.4492 15.0665L34.4487 15.0592L34.447 15.0604Z" fill="#F2F7FA"/>
<path d="M34.6725 15.0707C34.0269 14.9929 33.4426 15.4755 33.4323 16.2194L33.2936 21.1462C33.2862 21.6705 33.5778 22.1773 34.0316 22.4329L41.4001 26.5738L39.7411 27.9085L45.238 28.726C45.3925 28.813 45.5509 28.8636 45.7053 28.8824C46.3509 28.9602 46.9352 28.4776 46.9458 27.7337L47.0845 22.8069C47.0919 22.2826 46.8 21.7744 46.3465 21.5202L35.14 15.2271C34.9851 15.1401 34.8272 15.0893 34.6725 15.0707Z" fill="#B4BED8"/>
<path d="M45.839 29.0082C45.7882 29.0082 45.7372 29.0051 45.686 28.999C45.5168 28.9788 45.3508 28.9249 45.1924 28.8389L39.7181 28.0249C39.6706 28.0178 39.6314 27.9847 39.6186 27.9404C39.6055 27.896 39.6208 27.8485 39.6578 27.8189L41.1837 26.5914L33.9652 22.5345C33.4721 22.2565 33.1585 21.7111 33.1667 21.1448L33.3053 16.2163C33.311 15.8146 33.4721 15.4614 33.7593 15.2226C34.017 15.0086 34.3463 14.9134 34.6843 14.9541C34.8609 14.9752 35.0338 15.0331 35.1986 15.1258L46.405 21.4188C46.8982 21.6954 47.2115 22.241 47.2036 22.8085L47.0649 27.737C47.0593 28.1387 46.8979 28.492 46.6107 28.7307C46.3925 28.912 46.1227 29.0082 45.839 29.0082ZM40.0235 27.832L45.2532 28.6098C45.2685 28.6121 45.2833 28.6171 45.2968 28.6246C45.4323 28.7008 45.5739 28.7483 45.7171 28.7655C45.9865 28.7982 46.2457 28.7224 46.4494 28.5529C46.6829 28.3588 46.8142 28.0675 46.8189 27.7318L46.9575 22.8033C46.9642 22.3205 46.6986 21.8558 46.2804 21.6213L35.0739 15.3282C34.938 15.2518 34.7968 15.2045 34.6535 15.1871C34.3855 15.1547 34.1251 15.2304 33.9211 15.3997C33.6876 15.5938 33.5566 15.8852 33.5517 16.2208L33.413 21.1493C33.4061 21.6309 33.6719 22.0957 34.0904 22.3315L41.4586 26.4727C41.4931 26.492 41.5155 26.5261 41.519 26.5642C41.5224 26.6023 41.5062 26.6394 41.4756 26.6639L40.0235 27.832Z" fill="white"/>
<path d="M45.4683 24.2556V26.0181L45.2715 25.8981V24.1357L45.4683 24.2556Z" fill="#005478"/>
<path d="M44.5181 23.9623V25.1578L44.321 25.0378V23.8424L44.5181 23.9623Z" fill="#005478"/>
<path d="M44.045 23.7478V24.7953L43.8477 24.6754V23.6281L44.045 23.7478Z" fill="#005478"/>
<path d="M43.5716 23.5982V24.3683L43.3745 24.2483V23.4783L43.5716 23.5982Z" fill="#005478"/>
<path d="M41.6724 21.8125V23.8464L41.4756 23.7264V21.6928L41.6724 21.8125Z" fill="#005478"/>
<path d="M41.1976 21.6455V23.4365L41.0005 23.3165V21.5258L41.1976 21.6455Z" fill="#005478"/>
<path d="M40.7242 21.5849V22.9205L40.5271 22.8008V21.4649L40.7242 21.5849Z" fill="#005478"/>
<path d="M40.2491 21.0686V22.8598L40.052 22.7398V20.9489L40.2491 21.0686Z" fill="#005478"/>
<path d="M39.774 21.0079V22.3436L39.5769 22.2236V20.8882L39.774 21.0079Z" fill="#005478"/>
<path d="M39.3003 20.492V22.2826L39.1035 22.1629V20.372L39.3003 20.492Z" fill="#005478"/>
<path d="M38.8255 20.431V21.7667L38.6284 21.6467V20.3113L38.8255 20.431Z" fill="#005478"/>
<path d="M44.9952 23.6806V26.0164L44.7981 25.8965V23.5606L44.9952 23.6806Z" fill="#005478"/>
<path d="M38.3521 19.9294V21.6916L38.155 21.5717V19.8094L38.3521 19.9294Z" fill="#005478"/>
<path d="M37.4019 19.6359V20.8313L37.2048 20.7114V19.5162L37.4019 19.6359Z" fill="#005478"/>
<path d="M37.8753 19.3541V21.69L37.6782 21.57V19.2342L37.8753 19.3541Z" fill="#005478"/>
<path d="M43.0962 22.8135V24.5759L42.8992 24.4562V22.6935L43.0962 22.8135Z" fill="#005478"/>
<path d="M42.6228 22.2384V24.5743L42.426 24.4543V22.1185L42.6228 22.2384Z" fill="#005478"/>
<path d="M42.146 21.5338V24.702L41.949 24.582V21.4141L42.146 21.5338Z" fill="#005478"/>
<path d="M36.1532 19.6272C36.1505 19.0999 35.8807 18.6147 35.5507 18.5451C35.2221 18.4753 34.9578 18.8485 34.962 19.3769C34.9644 19.9014 35.2364 20.3885 35.5632 20.4593C35.8936 20.5268 36.1581 20.1549 36.1532 19.6272Z" fill="#005478"/>
<path d="M36.7595 19.7669C36.7516 18.7109 36.2116 17.7405 35.5549 17.6034C34.8975 17.4644 34.3696 18.2109 34.3768 19.2657C34.3852 20.3203 34.9258 21.2913 35.5818 21.4292C36.24 21.5672 36.7683 20.8196 36.7595 19.7669ZM34.7032 19.3323C34.6968 18.5672 35.0793 18.0223 35.5576 18.1232C36.0358 18.2262 36.4291 18.9308 36.4346 19.6994C36.441 20.4656 36.0557 21.0089 35.5781 20.9087C35.1012 20.8064 34.7091 20.1001 34.7032 19.3323Z" fill="#F85976"/>
<path d="M36.4697 20.9658L36.2165 20.5839C36.0579 20.832 35.8342 20.9611 35.5778 20.9087C35.1011 20.8061 34.7088 20.1001 34.7028 19.3322L34.3765 19.2655C34.3848 20.32 34.9255 21.2911 35.5815 21.4289C35.9374 21.5037 36.2562 21.3191 36.4697 20.9658Z" fill="#FFDE95"/>
<path d="M35.2486 18.1538L35.1283 17.6392C34.685 17.8203 34.3699 18.4515 34.3766 19.2657L34.7029 19.3325C34.6978 18.7412 34.9261 18.2857 35.2486 18.1538Z" fill="#023248"/>
<path d="M49.6959 30.4637C49.4633 30.1114 48.9648 29.812 48.5002 30.0834C48.5002 30.0834 34.179 37.8638 34.1061 37.991C34.0297 38.1234 33.943 38.2956 34.0706 38.5249C34.2017 38.7535 34.4031 38.7871 34.564 38.7871C35.0852 38.7871 49.2907 31.6806 49.2907 31.6806C49.7579 31.4101 49.9594 30.8624 49.6959 30.4637Z" fill="#C8CDE2"/>
<path d="M34.5644 38.9045C34.4616 38.9045 34.1486 38.9045 33.9631 38.5811C33.7976 38.2836 33.9281 38.0564 33.9986 37.9343C34.0205 37.8958 34.088 37.7779 48.4395 29.9811C48.9459 29.685 49.5194 29.9757 49.7999 30.4009C49.929 30.5964 49.9677 30.8351 49.9088 31.0731C49.8379 31.36 49.6361 31.618 49.3546 31.781C46.9714 32.9734 35.089 38.9045 34.5644 38.9045ZM34.2033 38.067C34.1343 38.1902 34.0897 38.308 34.1796 38.4696C34.2806 38.6455 34.4309 38.6695 34.5644 38.6695C35.0356 38.6133 43.5963 34.3969 49.2339 31.5764C49.4524 31.4496 49.6135 31.2452 49.6694 31.0192C49.7135 30.8405 49.6866 30.6702 49.5918 30.5265C49.4181 30.2636 48.9858 29.9381 48.5649 30.1839C43.7662 32.7906 34.672 37.7483 34.2033 38.067Z" fill="white"/>
<path d="M35.4832 37.8457L35.447 37.7989C35.335 37.6855 34.9839 37.4231 34.3824 37.7954C34.0129 38.024 33.0469 38.6853 32.2734 39.2194C32.0909 39.3455 32.2406 39.6171 32.453 39.5451C33.356 39.2382 34.4807 38.8506 34.8869 38.6877C35.5475 38.4228 35.5182 37.9981 35.4832 37.8457Z" fill="#B4BED8"/>
<path d="M32.3834 39.6745C32.2691 39.6745 32.1634 39.6152 32.1063 39.5113C32.0306 39.3742 32.0701 39.2149 32.2013 39.1242C32.9593 38.6009 33.9411 37.9285 34.3155 37.6968C35.0062 37.269 35.4247 37.6051 35.5368 37.7182L35.5824 37.7758C35.5927 37.7892 35.5999 37.8043 35.6036 37.8205C35.6385 37.9725 35.694 38.492 34.9345 38.7961C34.5232 38.9612 33.3805 39.3546 32.4942 39.6559C32.4573 39.6684 32.4198 39.6745 32.3834 39.6745ZM34.9683 37.7208C34.8313 37.7208 34.6592 37.7645 34.4495 37.8941C34.0796 38.1232 33.1012 38.793 32.3457 39.3149C32.3004 39.3462 32.3156 39.3861 32.3243 39.4019C32.3329 39.4177 32.3578 39.4525 32.4117 39.4344C33.295 39.1343 34.4333 38.7422 34.8392 38.5795C35.3769 38.3638 35.3942 38.0442 35.3678 37.8944L35.3481 37.869C35.2937 37.8146 35.1688 37.7208 34.9683 37.7208Z" fill="white"/>
</svg>
